<svg width="18" height="18" viewBox="0 0 18 18" fill="none" xmlns="http://www.w3.org/2000/svg">
<g clip-path="url(#clip0)">
<path d="M9.57877 13.6694L17.7604 5.48763C18.0799 5.16816 18.0799 4.65007 17.7603 4.33057C17.4408 4.0111 16.9227 4.0111 16.6032 4.33064L9.00014 11.9339L1.3967 4.33053C1.07717 4.01107 0.559139 4.01107 0.239639 4.3306C0.079891 4.49032 1.50204e-05 4.69971 1.50204e-05 4.9091C1.50204e-05 5.11849 0.0798547 5.32791 0.239673 5.48766L8.42168 13.6694C8.5751 13.8229 8.78319 13.9091 9.00017 13.9091C9.21719 13.9091 9.42532 13.8229 9.57877 13.6694Z" fill="black"/>
</g>
<defs>
<clipPath id="clip0">
<rect width="18" height="18" fill="white" transform="translate(18) rotate(90)"/>
</clipPath>
</defs>
</svg>
