<svg width="18" height="18" viewBox="0 0 18 18" fill="none" xmlns="http://www.w3.org/2000/svg">
<g clip-path="url(#clip0)">
<path d="M9.57877 4.33058L17.7604 12.5124C18.0799 12.8318 18.0799 13.3499 17.7603 13.6694C17.4408 13.9889 16.9227 13.9889 16.6032 13.6694L9.00014 6.06613L1.3967 13.6695C1.07717 13.9889 0.559139 13.9889 0.239639 13.6694C0.079891 13.5097 1.50204e-05 13.3003 1.50204e-05 13.0909C1.50204e-05 12.8815 0.0798547 12.6721 0.239673 12.5123L8.42168 4.33058C8.5751 4.17709 8.78319 4.09092 9.00017 4.09092C9.21719 4.09092 9.42532 4.17709 9.57877 4.33058Z" fill="black"/>
</g>
<defs>
<clipPath id="clip0">
<rect width="18" height="18" fill="white" transform="matrix(0 -1 -1 0 18 18)"/>
</clipPath>
</defs>
</svg>
