<svg width="299" height="270" viewBox="0 0 299 270" fill="none" xmlns="http://www.w3.org/2000/svg">
<path fill-rule="evenodd" clip-rule="evenodd" d="M113.306 1.57707C115.288 2.92514 117.26 4.22774 119.114 5.71082C135.435 19.0705 148.254 36.2112 159.24 54.5762C171.262 74.6441 180.378 96.9101 186.565 120.315C195.251 153.104 199.057 188.074 195.519 222.663C193.954 237.909 190.451 252.958 186.355 267.699C186.258 268.212 185.736 268.586 185.232 268.566C184.698 268.531 184.39 268.09 184.487 267.577C186.608 252.94 187.108 238.228 187.558 223.29C188.561 189.722 186.064 155.671 177.795 123.582C171.907 100.694 163.583 78.7974 152.746 58.6187C142.777 40.0961 130.178 23.5925 116.644 8.09421C115.095 6.32641 113.734 4.45436 112.214 2.70194C111.947 2.44251 111.955 2.00398 112.279 1.68918C112.574 1.359 113.038 1.31764 113.306 1.57707Z" fill="black"/>
</svg>
