<svg width="401" height="402" viewBox="0 0 401 402" fill="none" xmlns="http://www.w3.org/2000/svg">
<path fill-rule="evenodd" clip-rule="evenodd" d="M312.239 304.708C309.786 304.531 307.367 304.387 304.945 304.033C283.452 300.657 262.772 292.361 242.947 282.131C221.271 270.96 200.806 256.505 182.177 239.651C156.063 216.051 132.847 188.216 116.084 157.119C108.699 143.409 103.074 128.921 98.1279 114.404C97.9165 113.921 98.1463 113.349 98.5854 113.119C99.0585 112.888 99.5723 113.113 99.7837 113.596C106.348 127.06 114.33 139.796 122.485 152.7C140.817 181.692 162.397 209.386 187.757 232.596C205.837 249.156 225.418 263.685 246.151 275.528C265.202 286.389 285.332 294.251 305.68 300.803C308.006 301.548 310.232 302.473 312.523 303.219C312.899 303.309 313.143 303.685 313.047 304.111C312.985 304.535 312.615 304.797 312.239 304.708Z" fill="black"/>
<path fill-rule="evenodd" clip-rule="evenodd" d="M100.956 116.638C100.261 129.144 100.494 145.684 100.392 150.33L99.9716 167.046C99.5384 173.304 98.5452 178.417 95.0946 177.509C90.8968 177.925 92.1732 169.401 91.8814 167.306L91.5107 150.705C91.4342 145.308 90.7757 118.3 91.3433 107.186C91.6423 101.385 94.2342 98.1535 94.8508 97.7369C96.3588 96.8185 99.1435 96.2418 102.156 98.3876C105.827 100.98 112.857 110.581 113.899 111.698C119.424 118.097 125.256 124.062 131.122 130.025C140.008 139.103 148.893 147.973 158.463 156.354C159.363 157.029 159.511 158.371 158.83 159.345C158.149 160.32 156.877 160.567 155.976 159.892C148.709 155.325 141.546 150.823 134.722 145.642C124.503 137.853 115.102 128.978 106.007 119.67C105.59 119.244 103.065 117.797 100.956 116.638Z" fill="black"/>
</svg>
