<svg width="1170" height="1099" viewBox="0 0 1170 1099" fill="none" xmlns="http://www.w3.org/2000/svg">
<path d="M1010.87 910.09C1005.22 838.516 1002.29 746.163 1030.04 674.475C1056.16 606.989 1133.62 562.024 1160.11 495.105C1189.48 420.844 1142.49 355.97 1111.49 292.533C1095.7 260.21 1074.24 220.581 1079.52 182.58C1087.83 122.777 1147.74 72.5507 1162.83 11.9911C1095.01 13.278 1023.06 -6.66882 955.769 2.94501C904.826 10.2122 875.417 31.9758 835.274 61.0444C768.147 109.681 712.585 132.58 632.499 158.848C587.039 173.761 563.611 178.871 518.218 175.843C473.09 172.815 464.151 154.874 413.573 181.974C372.234 204.154 344.054 228.454 294.009 234.699C247.618 240.452 200.031 237.5 154.372 235.683C111.936 296.356 13.0078 333.903 1.60958 402.298C-5.33568 444.008 22.1463 480.798 31.9827 520.162C46.2055 577.088 25.702 630.494 33.9765 685.603C42.9156 745.141 114.296 767.624 107.716 834.504C103.429 877.918 79.5361 920.234 77.1102 964.897C74.5515 1011.49 86.1823 1054.6 99.3085 1098.32C147.261 1069.93 179.129 1012.51 227.979 990.445C278.49 967.66 315.276 1001.76 360.171 1007.74C432.814 1017.47 518.085 973.716 564.309 925.344C588.767 899.719 612.893 852.861 652.271 842.566C700.655 829.924 721.192 869.212 749.173 895.631C785.56 929.999 804.336 950.816 861.493 956.078C927.058 962.096 962.615 952.141 1010.87 910.09Z" stroke="white" stroke-width="0.3" stroke-miterlimit="10"/>
<path d="M144.567 1061.22C133.202 1021.93 123.399 983.06 126.357 941.16C129.281 899.866 151.18 859.594 153.739 818.867C157.361 761.26 105.089 725.908 97.9776 671.972C90.3677 614.365 113.53 553.919 103.727 494.57C98.2767 461.641 79.1357 429.999 83.8877 395.82C92.6939 332.649 171.019 296.767 204.483 237.684" stroke="white" stroke-width="0.3" stroke-miterlimit="10"/>
<path d="M189.197 1016.78C178.098 981.244 168.195 948.05 171.152 909.67C174.044 872.123 192.985 836.393 197.205 798.997C203.254 745.515 173.445 699.149 174.908 646.69C176.536 588.401 199.299 529.62 200.529 470.65C201.326 432.914 181.388 388.214 189.363 352.067C198.734 309.638 242.499 282.007 253.299 237.004" stroke="white" stroke-width="0.3" stroke-miterlimit="10"/>
<path d="M234.327 987.874C213.093 915.506 224.192 869.064 238.348 794.613C249.414 736.438 236.255 681.935 241.239 624.252C246.157 567.591 268.057 510.627 276.564 453.928C282.645 413.201 274.736 376.336 278.458 336.555C281.947 299.236 302.118 273.46 300.756 234.172" stroke="white" stroke-width="0.3" stroke-miterlimit="10"/>
<path d="M282.41 984.952C260.245 905.467 273.171 853.462 290.883 772.728C302.182 721.177 289.322 672.767 292.711 621.783C296.765 561.11 321.323 500.626 330.362 439.991C336.044 401.914 327.504 365.54 330.661 328.221C333.917 289.955 350.533 259.107 347.143 219.289" stroke="white" stroke-width="0.3" stroke-miterlimit="10"/>
<path d="M337.012 1002.41C311.192 917.359 308.035 866.413 336.979 780.04C353.694 730.154 341.432 687.232 343.758 638.103C346.948 571.222 378.916 503.698 388.354 436.78C392.973 404.04 387.623 373.798 387.291 341.588C386.759 291.096 401.081 244.692 393.638 194.238" stroke="white" stroke-width="0.3" stroke-miterlimit="10"/>
<path d="M387.453 1008.96C361.333 925.085 342.957 868.954 381.106 781.975C403.935 729.97 393.401 698.176 394.332 647.041C395.528 581.712 429.889 514.037 440.556 448.86C447.269 407.868 441.586 373.198 439.193 333.266C435.837 277.211 449.96 226.454 439.227 170.777" stroke="white" stroke-width="0.3" stroke-miterlimit="10"/>
<path d="M429.159 1003.02C405.199 915.738 388.617 845.034 428.494 755.557C451.922 702.984 446.705 664.491 450.46 611.766C454.746 551.509 483.225 491.971 490.868 431.563C495.787 392.729 487.412 360.292 484.089 322.707C479.337 268.431 495.72 224.449 483.99 170.438" stroke="white" stroke-width="0.3" stroke-miterlimit="10"/>
<path d="M468.47 989.955C447.269 889.54 439.659 800.669 482.427 700.064C507.35 641.434 517.984 582.162 529.449 521.867C537.79 477.923 552.81 432.314 548.656 388.371C546.23 362.974 533.437 340.907 528.784 316.191C519.878 268.841 536.793 224.103 524.464 176.223" stroke="white" stroke-width="0.3" stroke-miterlimit="10"/>
<path d="M506.42 970.805C488.608 867.135 486.913 771.715 528.053 667.818C554.439 601.24 575.175 533.413 592.289 465.322C601.228 429.819 609.203 399.009 599.201 364.717C592.92 343.18 577.534 324.975 572.084 303.022C561.417 259.949 580.027 219.222 567.1 175.203" stroke="white" stroke-width="0.3" stroke-miterlimit="10"/>
<path d="M544.87 943.361C521.176 772.243 581.058 625.84 631.935 457.787C642.27 423.646 659.217 387.121 653.236 352.64C649.348 330.233 632.134 312.33 625.289 290.907C611.664 248.213 626.751 209.265 611.099 165.852" stroke="white" stroke-width="0.3" stroke-miterlimit="10"/>
<path d="M583.283 902.519C566.302 753.239 614.753 605.549 668.055 459.108C680.65 424.514 710.325 385.529 712.751 349.836C714.977 317.134 688.725 295.711 678.756 266.832C665.064 227.089 673.14 191.7 653.965 151.73" stroke="white" stroke-width="0.3" stroke-miterlimit="10"/>
<path d="M621.466 859.409C609.17 730.833 650.177 587.609 703.712 462.062C720.461 422.773 762.298 383.41 770.972 343.213C778.881 306.499 753.592 287.763 739.17 256.348C720.527 215.735 720.162 176.447 696.003 136.516" stroke="white" stroke-width="0.3" stroke-miterlimit="10"/>
<path d="M661.211 840.787C651.94 722.014 687.364 575.46 741.364 460.472C761.701 417.172 809.587 377.316 822.913 333.372C834.643 294.652 807.028 276.446 790.214 244.198C768.879 203.245 763.994 159.036 737.842 118.84" stroke="white" stroke-width="0.3" stroke-miterlimit="10"/>
<path d="M701.02 849.229C691.582 717.171 728.502 585.113 784.795 458.203C804.467 413.881 842.218 368.348 852.586 322.36C861.093 284.738 842.45 263.958 828.361 230.537C809.818 186.593 804.401 139.508 781.106 96.3594" stroke="white" stroke-width="0.3" stroke-miterlimit="10"/>
<path d="M742.66 889.115C735.05 810.88 733.621 727.648 751.1 648.088C765.19 584.046 804.004 525.493 829.991 464.063C888.843 324.927 874.919 200.439 828.329 66.375" stroke="white" stroke-width="0.3" stroke-miterlimit="10"/>
<path d="M784.798 927.764C773.698 844.836 757.515 758.349 779.547 673.073C797.625 603.013 848.036 542.681 874.388 474.892C894.891 422.129 899.344 366.376 897.916 312.705C895.456 220.466 889.741 123.873 873.591 34.3203" stroke="white" stroke-width="0.3" stroke-miterlimit="10"/>
<path d="M828.529 950.208C813.941 866.523 783.102 779.506 811.049 692.111C833.945 620.537 889.175 557.895 915.793 487.419C939.454 424.778 930.083 363.31 925.164 301.085C917.488 203.849 927.69 108.732 919.648 11.4961" stroke="white" stroke-width="0.3" stroke-miterlimit="10"/>
<path d="M875.617 957.137C858.104 879.848 827.133 794.383 848.733 712.628C869.037 635.755 935.731 570.918 963.479 495.938C989.831 424.742 972.019 359.716 964.443 289.846C954.075 194.237 976.971 97.1149 971.754 0.976562" stroke="white" stroke-width="0.3" stroke-miterlimit="10"/>
<path d="M924.233 955.36C908.648 875.422 878.906 776.18 909.445 692.532C934.933 622.812 1000.43 566.643 1027.98 497.568C1056.43 426.221 1028.11 360.551 1010.43 293.557C984.082 193.785 1031.27 104.119 1037.78 2.26562" stroke="white" stroke-width="0.3" stroke-miterlimit="10"/>
<path d="M970.359 939.346C959.725 859.748 938.956 755.888 973.582 674.398C1001.3 609.183 1070.68 561.075 1098.03 495.86C1128.87 422.28 1083.78 353.469 1057.72 288.368C1045.06 256.687 1029.74 219.897 1035.79 184.243C1045.76 125.538 1092.98 69.028 1104.91 9.1875" stroke="white" stroke-width="0.3" stroke-miterlimit="10"/>
<path d="M1143.42 57.9785C1076.63 60.628 1007.87 42.725 941.644 56.3889C901.036 64.7537 874.451 89.8481 842.749 112.028C780.607 155.48 722.619 174.632 648.613 195.904C616.346 205.177 583.115 218.462 549.319 219.484C501.467 220.922 480.531 206.01 430.884 223.307C389.445 237.766 354.786 258.167 311.286 267.288C249.975 280.195 170.42 282.618 109.176 281.974" stroke="white" stroke-width="0.3" stroke-miterlimit="10"/>
<path d="M1112.25 107.488C1014.72 117.329 941.645 107.072 854.946 156.352C785.227 196.019 726.309 211.726 645.923 230.348C574.144 246.964 504.559 254.269 433.279 269.447C307.632 296.245 176.603 323.269 48.9629 330.801" stroke="white" stroke-width="0.3" stroke-miterlimit="10"/>
<path d="M1086.9 155.062C1009.24 167.212 931.578 172.208 860.663 206.954C789.749 241.701 726.41 253.585 647.088 268.233C573.349 281.859 502.002 309.452 427.864 320.39C386.79 326.446 345.65 322.396 304.61 325.992C202.126 334.886 109.844 370.541 7.06055 383.41" stroke="white" stroke-width="0.3" stroke-miterlimit="10"/>
<path d="M1078.89 199.535C1011.9 209.565 931.909 214.107 873.622 249.383C807.127 289.618 746.348 294.954 667.391 307.748C589.298 320.389 513.931 357.028 436.104 365.052C392.505 369.518 349.936 359.185 306.47 363.349C206.013 372.963 104.027 421.827 3.80273 440.865" stroke="white" stroke-width="0.3" stroke-miterlimit="10"/>
<path d="M1089.32 244.383C1020.43 253.467 943.239 255.246 879.103 283.103C811.246 312.55 755.717 322.315 679.784 333.973C633.261 341.127 590.759 349.34 547.525 368.53C509.642 385.335 480.266 403.995 437.73 408.197C393.5 412.587 350.665 398.204 306.534 402.935C212.424 413.041 113.695 465.16 20.3828 486.546" stroke="white" stroke-width="0.3" stroke-miterlimit="10"/>
<path d="M1110.69 290.871C1035.72 298.668 952.347 297.041 878.707 316.42C811.88 334.02 753.26 346.813 683.343 356.162C632.964 362.899 594.383 370.469 551.05 397.456C511.472 422.134 480.734 452.792 430.954 457.031C386.956 460.779 345.65 441.021 301.619 445.033C214.122 453.019 120.112 505.782 33.4453 526.486" stroke="white" stroke-width="0.3" stroke-miterlimit="10"/>
<path d="M1135.05 338.223C1048.25 344.809 960.022 340.91 873.755 349.464C809.453 355.861 745.384 369.562 680.45 376.186C624.489 381.901 594.449 390.228 549.952 425.164C512.402 454.648 473.92 504.459 419.189 507.752C375.822 510.401 337.175 485.155 293.609 487.843C212.26 492.801 118.05 545.147 37.166 563.504" stroke="white" stroke-width="0.3" stroke-miterlimit="10"/>
<path d="M1156.82 385.305C993.188 393.821 836.471 383.261 673.241 395.789C616.382 400.142 593.619 413.276 551.183 447.757C504.527 485.644 467.308 560.17 396.194 555.742C354.589 553.13 322.023 526.976 278.291 529.777C202.824 534.584 111.472 583.448 35.5723 598.891" stroke="white" stroke-width="0.3" stroke-miterlimit="10"/>
<path d="M1168.51 431.329C995.976 437.196 835.57 411.383 664.132 417.401C533.302 421.981 496.548 608.958 384.494 598.852C342.988 595.105 313.446 566.453 269.215 568.648C196.406 572.282 106.317 619.745 32.7109 633.674" stroke="white" stroke-width="0.3" stroke-miterlimit="10"/>
<path d="M1166.45 474.435C1052.8 476.706 960.057 469.591 852.721 450.212C791.577 439.16 719.2 442.453 655.164 442.831C520.113 443.664 495.489 642.64 377.486 632.95C335.416 629.506 307.203 600.362 262.108 603.276C189.399 607.969 105.79 654.487 32.3496 669.134" stroke="white" stroke-width="0.3" stroke-miterlimit="10"/>
<path d="M1150.63 514.741C1080.58 515.536 1002.22 526.626 934.234 515.044C900.472 509.291 870.697 493.47 837.898 485.37C779.544 470.911 707.932 471.706 645.125 473.523C513.863 477.308 494.157 663.68 376.653 658.949C334.449 657.246 304.176 631.432 259.547 635.747C187.834 642.674 110.207 685.974 37.9629 701.114" stroke="white" stroke-width="0.3" stroke-miterlimit="10"/>
<path d="M1124.38 551.656C1053.57 553.851 967.199 572.89 899.541 556.539C865.379 548.287 837.066 526.297 803.171 516.796C752.195 502.451 689.421 503.133 633.826 508.091C509.376 519.257 494.954 670.202 378.978 680.535C333.95 684.547 296.997 665.092 250.408 671.98C184.976 681.708 118.614 714.297 52.75 727.998" stroke="white" stroke-width="0.3" stroke-miterlimit="10"/>
<path d="M1092.75 586.967C1029.84 591.054 949.288 615.013 889.007 602.939C850.924 595.331 825.602 572.962 791.541 557.86C739.767 534.923 681.114 536.589 621.398 546.354C508.646 564.749 481.13 703.96 371.236 705.512C322.12 706.193 288.291 694.043 236.617 708.578C182.584 723.755 128.75 742.491 73.0547 753.127" stroke="white" stroke-width="0.3" stroke-miterlimit="10"/>
<path d="M1061.48 622.735C1000.27 629.132 915.195 661.191 857.34 646.921C824.076 638.708 807.56 616.566 780.111 600.934C725.38 569.746 675.434 570.503 608.374 586.627C509.279 610.472 476.381 718.344 380.875 731.894C329.699 739.161 295.737 727.239 243.532 741.697C194.084 755.399 144.869 771.182 93.793 779.925" stroke="white" stroke-width="0.3" stroke-miterlimit="10"/>
<path d="M1036.65 659.904C981.691 667.474 904.163 702.295 849.697 696.694C804.57 692.076 789.982 656.914 758.645 636.55C707.602 603.394 657.457 611.115 594.617 629.586C551.251 642.341 522.971 658.768 489.175 685.074C454.316 712.212 431.22 749.721 383.9 761.985C337.542 774.021 293.611 764.748 246.058 777.919C197.773 791.28 156.833 804.338 107.02 812.249" stroke="white" stroke-width="0.3" stroke-miterlimit="10"/>
<path d="M1021.53 700.478C967.998 708.275 890.603 747.223 837.865 741.545C792.671 736.701 780.177 698.926 750.369 677.617C698.694 640.713 645.159 652.939 580.592 673.643C536.993 687.647 504.493 704.528 469.035 730.417C434.641 755.55 409.585 790.75 364.757 802.9C321.623 814.596 280.317 807.48 236.186 820.273C188.998 833.937 153.408 845.86 104.592 854.262" stroke="white" stroke-width="0.3" stroke-miterlimit="10"/>
<path d="M1012.53 743.477C960.62 755.399 891.965 788.518 838.097 783.711C791.242 779.51 774.792 745.521 745.749 721.486C691.549 676.634 638.612 694.234 569.326 719.556C526.89 735.074 490.834 751.084 454.247 775.346C420.119 797.98 392.803 831.326 350.267 842.719C307.399 854.187 270.447 842.227 226.316 856.383C176.735 872.317 140.148 893.967 89.1055 907.669" stroke="white" stroke-width="0.3" stroke-miterlimit="10"/>
<path d="M1008.21 785.067C957.994 802.478 898.013 830.336 843.281 826.74C793.601 823.447 772.2 791.578 742.758 764.25C682.51 708.346 635.588 732.532 561.25 770.306C523.567 789.458 485.019 806.377 448.863 827.346C416.829 845.93 387.353 875.604 348.34 882.493C302.149 890.668 268.552 870.192 221.099 885.672C172.083 901.683 126.723 939.192 77.5742 957.965" stroke="white" stroke-width="0.3" stroke-miterlimit="10"/>
<path d="M1007.11 826.217C901.304 879.207 825.006 887.42 750.103 815.089C675.898 743.402 643.631 759.412 557.231 823.605C506.155 861.569 411.779 922.242 344.918 923.415C297.398 924.248 265.131 897.147 215.185 916.337C165.704 935.338 126.99 981.136 78.1738 1004.83" stroke="white" stroke-width="0.3" stroke-miterlimit="10"/>
<path d="M1008.14 867.431C913.765 931.472 823.011 927.952 752.661 859.293C727.937 835.145 699.89 791.466 652.437 798.279C615.583 803.578 581.921 853.313 557.961 876.325C512.069 920.382 425.835 968.717 356.681 965.234C310.357 962.926 271.278 928.634 220.933 947.861C171.419 966.786 133.303 1024.39 86.3145 1051.15" stroke="white" stroke-width="0.3" stroke-miterlimit="10"/>
</svg>
