<svg width="12" height="12" viewBox="0 0 12 12" fill="none" xmlns="http://www.w3.org/2000/svg">
<path fill-rule="evenodd" clip-rule="evenodd" d="M1.93548 0.251646C1.46473 -0.114384 0.784053 -0.0811089 0.351472 0.351472C-0.117157 0.820101 -0.117157 1.5799 0.351472 2.04853L4.30294 6L0.351472 9.95147L0.251646 10.0645C-0.114384 10.5353 -0.0811089 11.2159 0.351472 11.6485C0.820101 12.1172 1.5799 12.1172 2.04853 11.6485L6 7.69706L9.95147 11.6485L10.0645 11.7484C10.5353 12.1144 11.2159 12.0811 11.6485 11.6485C12.1172 11.1799 12.1172 10.4201 11.6485 9.95147L7.69706 6L11.6485 2.04853L11.7484 1.93548C12.1144 1.46473 12.0811 0.784053 11.6485 0.351472C11.1799 -0.117157 10.4201 -0.117157 9.95147 0.351472L6 4.30294L2.04853 0.351472L1.93548 0.251646Z" fill="white"/>
</svg>
