<svg width="638" height="623" viewBox="0 0 638 623" fill="none" xmlns="http://www.w3.org/2000/svg">
<g style="mix-blend-mode:overlay" opacity="0.75">
<path d="M1 261.307L435.265 1M76.2168 396.567L510.481 136.26M151.434 531.827L585.698 271.519M26.0723 306.394L460.337 46.0866M101.289 441.654L535.554 181.346M176.506 576.913L610.77 316.606M51.1445 351.481L485.409 91.1731M126.361 486.74L560.626 226.433M201.578 622L635.843 361.693M637 261.307L202.736 1M561.783 396.567L127.519 136.26M486.566 531.827L52.3019 271.519M611.928 306.394L177.663 46.0866M536.711 441.654L102.446 181.346M461.494 576.913L27.2296 316.606M586.855 351.481L152.591 91.1731M511.639 486.74L77.3741 226.433M436.422 622L2.15731 361.693" stroke="url(#paint0_radial)"/>
</g>
<defs>
<radialGradient id="paint0_radial" cx="0" cy="0" r="1" gradientUnits="userSpaceOnUse" gradientTransform="translate(319 373.124) rotate(-26.1488) scale(304.913 331.884)">
<stop stop-color="white"/>
<stop offset="1" stop-color="white" stop-opacity="0"/>
</radialGradient>
</defs>
</svg>
