<svg width="686" height="671" viewBox="0 0 686 671" fill="none" xmlns="http://www.w3.org/2000/svg">
<g style="mix-blend-mode:overlay" opacity="0.75">
<path d="M1 281.428L468.039 1M81.8936 427.142L548.933 146.715M162.787 572.857L629.826 292.429M27.9645 329.999L495.004 49.5715M108.858 475.714L575.897 195.286M189.752 621.428L656.791 341.001M54.929 378.571L521.968 98.143M135.823 524.285L602.862 243.858M216.716 670L683.755 389.572M685 281.428L217.961 1M604.106 427.142L137.067 146.715M523.213 572.857L56.1737 292.429M658.035 329.999L190.996 49.5715M577.142 475.714L110.103 195.286M496.248 621.428L29.2092 341.001M631.071 378.571L164.032 98.143M550.177 524.285L83.1382 243.858M469.284 670L2.24465 389.572" stroke="url(#paint0_radial)"/>
</g>
<defs>
<radialGradient id="paint0_radial" cx="0" cy="0" r="1" gradientUnits="userSpaceOnUse" gradientTransform="translate(343 401.887) rotate(-26.1872) scale(328.033 357.419)">
<stop stop-color="white"/>
<stop offset="1" stop-color="white" stop-opacity="0"/>
</radialGradient>
</defs>
</svg>
