<svg width="46" height="46" viewBox="0 0 46 46" fill="none" xmlns="http://www.w3.org/2000/svg">
<g clip-path="url(#clip0)">
<path d="M45.9552 13.5241C45.8474 11.08 45.4522 9.39963 44.886 7.9436C44.3019 6.39805 43.4033 5.01433 42.226 3.86404C41.0757 2.69584 39.6828 1.7881 38.1552 1.21313C36.6907 0.646931 35.0192 0.251682 32.575 0.143918C30.1126 0.0270286 29.3309 0 23.0855 0C16.8402 0 16.0584 0.0270286 13.6052 0.134792C11.161 0.242555 9.48068 0.638156 8.02499 1.204C6.4791 1.7881 5.09538 2.68671 3.94509 3.86404C2.77689 5.01433 1.8695 6.40718 1.29418 7.93482C0.727985 9.39963 0.332736 11.0708 0.224973 13.515C0.108083 15.9774 0.0810547 16.7591 0.0810547 23.0045C0.0810547 29.2499 0.108083 30.0316 0.215846 32.4849C0.32361 34.929 0.71921 36.6094 1.28541 38.0654C1.8695 39.6109 2.77689 40.9947 3.94509 42.1449C5.09538 43.3131 6.48823 44.2209 8.01587 44.7959C9.48068 45.3621 11.1519 45.7573 13.5964 45.8651C16.0493 45.9732 16.8314 45.9999 23.0767 45.9999C29.3221 45.9999 30.1038 45.9732 32.5571 45.8651C35.0013 45.7573 36.6816 45.3621 38.1373 44.7959C41.2287 43.6006 43.6729 41.1565 44.8681 38.0654C45.4339 36.6006 45.8295 34.929 45.9373 32.4849C46.0451 30.0316 46.0721 29.2499 46.0721 23.0045C46.0721 16.7591 46.063 15.9774 45.9552 13.5241ZM41.8128 32.3051C41.7138 34.5517 41.3365 35.7648 41.022 36.5735C40.249 38.5775 38.6585 40.168 36.6546 40.9409C35.8458 41.2555 34.6239 41.6328 32.3862 41.7314C29.9599 41.8396 29.2322 41.8662 23.0946 41.8662C16.9571 41.8662 16.2203 41.8396 13.8028 41.7314C11.5563 41.6328 10.3431 41.2555 9.53438 40.9409C8.53713 40.5724 7.62939 39.9883 6.8926 39.2245C6.12878 38.4785 5.54469 37.5799 5.17611 36.5827C4.8616 35.7739 4.48425 34.5517 4.38562 32.3143C4.2775 29.888 4.25082 29.16 4.25082 23.0224C4.25082 16.8848 4.2775 16.148 4.38562 13.7309C4.48425 11.4843 4.8616 10.2712 5.17611 9.46246C5.54469 8.46486 6.12878 7.55748 6.90173 6.82033C7.6473 6.05651 8.54591 5.47241 9.54351 5.10419C10.3523 4.78968 11.5745 4.41233 13.8119 4.31334C16.2382 4.20558 16.9662 4.17855 23.1034 4.17855C29.2501 4.17855 29.9778 4.20558 32.3953 4.31334C34.6418 4.41233 35.8549 4.78968 36.6637 5.10419C37.6609 5.47241 38.5687 6.05651 39.3055 6.82033C40.0693 7.56625 40.6534 8.46486 41.022 9.46246C41.3365 10.2712 41.7138 11.4931 41.8128 13.7309C41.9206 16.1571 41.9476 16.8848 41.9476 23.0224C41.9476 29.16 41.9206 29.8789 41.8128 32.3051Z" fill="#4C4C4C"/>
<path d="M23.0853 11.1875C16.5616 11.1875 11.2686 16.4802 11.2686 23.0043C11.2686 29.5283 16.5616 34.821 23.0853 34.821C29.6094 34.821 34.9021 29.5283 34.9021 23.0043C34.9021 16.4802 29.6094 11.1875 23.0853 11.1875ZM23.0853 30.6695C18.8531 30.6695 15.4201 27.2369 15.4201 23.0043C15.4201 18.7717 18.8531 15.339 23.0853 15.339C27.3179 15.339 30.7506 18.7717 30.7506 23.0043C30.7506 27.2369 27.3179 30.6695 23.0853 30.6695V30.6695Z" fill="#4C4C4C"/>
<path d="M38.1281 10.7206C38.1281 12.244 36.8928 13.4793 35.369 13.4793C33.8456 13.4793 32.6104 12.244 32.6104 10.7206C32.6104 9.19681 33.8456 7.96191 35.369 7.96191C36.8928 7.96191 38.1281 9.19681 38.1281 10.7206V10.7206Z" fill="#4C4C4C"/>
</g>
<defs>
<clipPath id="clip0">
<rect width="46" height="46" fill="white"/>
</clipPath>
</defs>
</svg>
