<svg width="243" height="211" viewBox="0 0 243 211" fill="none" xmlns="http://www.w3.org/2000/svg">
<path d="M177.355 12.3531C174.375 14.9764 162.741 22.1905 162.741 22.1905C162.741 22.1905 158.854 25.1581 161.97 29.2153C165.086 33.2724 181.004 50.8477 181.004 50.8477C181.004 50.8477 182.844 52.2509 179.127 55.0685C175.41 57.886 117.98 98.7466 117.98 98.7466L105.195 79.925L143.426 57.7703C143.426 57.7703 149.373 55.2573 147.15 49.8095C144.927 44.3629 139.876 47.8983 139.876 47.8983L93.6234 67.2897L5.46293 120.566L5.46293 196.641L234.868 48.1816C234.868 48.1816 243.742 27.5279 241.727 23.8616C239.712 20.1952 185.943 11.2957 185.943 11.2957C185.943 11.2957 180.335 9.73099 177.355 12.3531Z" fill="#E2E5E7"/>
<path d="M6.26369 184.137L5.46484 196.641L234.87 48.1809C234.87 48.1809 243.744 27.5272 241.729 23.8609C241.67 23.7556 241.563 23.6449 241.423 23.532L230.036 46.5852L6.26369 184.137Z" fill="#D1D5D5"/>
</svg>
