<svg width="296" height="234" viewBox="0 0 296 234" fill="none" xmlns="http://www.w3.org/2000/svg">
<path d="M212.5 92.7571C212.5 92.7571 253.223 54.088 258.703 48.0004C264.187 41.9112 261.576 39.3319 261.576 39.3319C261.576 39.3319 256.566 32.2799 253.074 27.7671C249.582 23.2554 245.069 26.748 245.069 26.748L185.534 56.0394L41.6051 162.279L41.6051 211.208L212.5 92.7571Z" fill="#E2E5E7"/>
<path d="M255.386 30.8217C254.587 29.7515 253.8 28.7025 253.073 27.7654C249.581 23.2537 245.068 26.7463 245.068 26.7463L185.533 56.0377L42.6009 162.279L42.6009 181.482L191.879 65.2355L255.386 30.8217Z" fill="#D1D5D5"/>
<path d="M246.087 54.4902L197.631 86.5071L204.93 97.0794L246.087 54.4902Z" fill="#D1D5D5"/>
</svg>
