<svg width="406" height="406" viewBox="0 0 406 406" fill="none" xmlns="http://www.w3.org/2000/svg">
<circle cx="203" cy="203" r="203" fill="#A597F9"/>
<path d="M127.133 212.271L123.125 224.187C123.125 224.666 122.68 224.666 122.68 224.666H116.446C116 224.666 116 224.666 116 224.187C119.562 214.179 124.906 197.02 128.913 185.579C128.913 185.104 129.359 184.15 129.359 181.767C129.359 181.289 129.359 181.289 129.805 181.289H138.265C138.711 180.812 138.711 181.289 138.711 181.289C143.162 195.112 148.506 209.888 152.959 223.713C152.959 224.188 152.959 224.188 152.516 224.188H145.388C144.944 224.188 144.944 224.188 144.944 223.713L140.935 211.797H127.133V212.271ZM139.6 205.599C138.265 201.309 135.147 192.254 134.258 187.487C133.367 191.777 130.694 199.403 128.913 205.599H139.6ZM156.969 208.459C156.969 198.926 163.648 191.299 174.332 191.299C175.672 191.299 177.007 191.299 177.898 191.776V177.477C177.898 177 177.898 177 178.342 177H185.021C185.465 177 185.465 177 185.465 177.477V220.85C185.465 221.329 185.465 221.329 185.021 221.329C181.012 223.233 176.559 224.666 172.554 224.666C163.2 225.141 156.969 219.9 156.969 208.459ZM177.45 198.449C176.559 197.972 175.224 197.972 173.888 197.972C168.101 197.972 164.539 201.787 164.539 208.459C164.539 216.083 168.544 218.946 173.445 218.946C174.78 218.946 176.559 218.467 177.898 218.467V198.449H177.45ZM222.871 207.984C222.871 218.467 216.635 225.141 207.729 225.141C197.045 225.141 192.592 216.563 192.592 208.459C192.592 198.449 198.824 191.776 208.177 191.776C217.527 191.299 222.871 198.926 222.871 207.984ZM200.163 207.984C200.163 214.655 202.833 218.946 207.73 218.946C211.739 218.946 214.857 216.083 214.857 207.984C214.857 201.787 212.631 197.02 207.287 197.02C203.276 197.495 200.163 201.309 200.163 207.984ZM236.23 177.477C236.674 177.477 236.674 177.477 236.674 177.954V193.205C238.9 192.253 241.127 191.776 243.353 191.776C251.816 191.776 257.16 198.449 257.16 207.03C257.16 218.467 248.697 225.616 238.9 225.616C235.786 225.616 232.669 225.141 229.551 224.187C229.107 224.187 229.107 223.712 229.107 223.712V177.954C229.107 177.477 229.107 177.477 229.551 177.477H236.23ZM242.018 197.972C240.24 197.972 238.457 198.449 237.122 198.926V218.467C238.013 218.946 239.348 218.946 240.683 218.946C245.136 218.946 250.48 215.134 250.48 207.504C250.033 201.309 246.471 197.972 242.018 197.972ZM271.41 209.888C271.41 215.134 274.524 218.467 280.76 218.467C282.986 218.467 285.656 217.991 288.33 217.038C288.33 217.038 288.774 217.038 288.774 217.517V222.758C288.774 223.233 288.774 223.233 288.33 223.712C286.104 225.141 282.986 225.616 278.977 225.616C267.844 225.616 263.391 217.517 263.391 208.933C263.391 199.403 268.735 191.776 278.089 191.776C287.439 191.776 291 199.403 291 205.598C291 208.459 290.557 209.888 290.557 209.888H271.41V209.888ZM281.203 204.644C283.43 204.644 283.878 204.17 283.878 204.17V203.215C283.878 201.309 282.543 197.02 277.642 197.02C273.637 197.02 271.41 200.355 270.963 204.644H281.203Z" fill="black"/>
</svg>
