<svg width="175" height="49" viewBox="0 0 175 49" fill="none" xmlns="http://www.w3.org/2000/svg">
<path d="M11.1328 35.2708L7.12544 47.1873C7.12544 47.666 6.67974 47.666 6.67974 47.666H0.445706C-2.96417e-06 47.666 0 47.666 0 47.1873C3.56163 37.1791 8.90579 20.0197 12.9131 8.57857C12.9131 8.10381 13.3592 7.14964 13.3592 4.76654C13.3592 4.28945 13.3592 4.28945 13.8049 4.28945H22.2649C22.711 3.81236 22.711 4.28945 22.711 4.28945C27.1615 18.1116 32.5063 32.888 36.9591 46.7125C36.9591 47.1876 36.9591 47.1876 36.5155 47.1876H29.3882C28.9444 47.1876 28.9444 47.1876 28.9444 46.7125L24.9352 34.7967H11.1328V35.2708ZM23.5999 28.5989C22.265 24.3094 19.1472 15.2538 18.2576 10.4872C17.3665 14.7767 14.6941 22.4031 12.9135 28.5989H23.5999ZM40.9686 31.4591C40.9686 21.926 47.648 14.2993 58.3323 14.2993C59.6716 14.2993 61.0066 14.2993 61.8983 14.7764V0.477087C61.8983 6.34567e-07 61.8983 0 62.3418 0H69.0212C69.4648 0 69.4648 6.34567e-07 69.4648 0.477087V43.85C69.4648 44.3288 69.4648 44.3288 69.0212 44.3288C65.012 46.2328 60.5587 47.666 56.5538 47.666C47.2001 48.1415 40.9686 42.9002 40.9686 31.4591ZM61.4501 21.4489C60.5587 20.9718 59.2237 20.9718 57.8885 20.9718C52.1008 20.9718 48.5391 24.7865 48.5391 31.4591C48.5391 39.0831 52.5443 41.946 57.4452 41.946C58.7802 41.946 60.5587 41.4666 61.898 41.4666V21.4489H61.4501ZM106.871 30.9843C106.871 41.4669 100.635 48.1415 91.7294 48.1415C81.0448 48.1415 76.5921 39.5629 76.5921 31.4591C76.5921 21.4489 82.8236 14.7764 92.1773 14.7764C101.527 14.2993 106.871 21.926 106.871 30.9843ZM84.1629 30.9843C84.1629 37.6545 86.8331 41.9463 91.7297 41.9463C95.7389 41.9463 98.857 39.0835 98.857 30.9843C98.857 24.7865 96.6307 20.02 91.2865 20.02C87.2764 20.4947 84.1629 24.3094 84.1629 30.9843ZM120.23 0.477087C120.674 0.477087 120.674 0.477086 120.674 0.954172V16.2053C122.9 15.2534 125.127 14.7764 127.353 14.7764C135.816 14.7764 141.16 21.4489 141.16 30.0301C141.16 41.4666 132.697 48.6162 122.9 48.6162C119.786 48.6162 116.669 48.1411 113.551 47.1873C113.107 47.1873 113.107 46.7122 113.107 46.7122V0.954172C113.107 0.477086 113.107 0.477087 113.551 0.477087H120.23ZM126.018 20.9718C124.24 20.9718 122.457 21.4489 121.122 21.926V41.4666C122.013 41.946 123.348 41.946 124.683 41.946C129.136 41.946 134.48 38.1336 134.48 30.5042C134.033 24.3094 130.471 20.9718 126.018 20.9718ZM155.41 32.888C155.41 38.134 158.524 41.4666 164.76 41.4666C166.986 41.4666 169.656 40.9915 172.33 40.0376C172.33 40.0376 172.774 40.0376 172.774 40.5171V45.7583C172.774 46.2328 172.774 46.2328 172.33 46.7122C170.104 48.1411 166.986 48.6162 162.977 48.6162C151.844 48.6162 147.391 40.5171 147.391 31.9332C147.391 22.4028 152.735 14.776 162.089 14.776C171.439 14.776 175 22.4028 175 28.5982C175 31.4587 174.557 32.8877 174.557 32.8877H155.41V32.888ZM165.203 27.6444C167.43 27.6444 167.878 27.17 167.878 27.17V26.2155C167.878 24.3094 166.543 20.02 161.642 20.02C157.637 20.02 155.41 23.3549 154.963 27.6444H165.203Z" fill="black"/>
</svg>
