<svg width="833" height="833" viewBox="0 0 833 833" fill="none" xmlns="http://www.w3.org/2000/svg">
<circle cx="416.5" cy="416.5" r="416.5" fill="#A597F9"/>
<path d="M228.029 452.721C218.351 452.721 208.634 453.142 198.994 452.606C190.424 452.109 181.587 450.885 176.92 442.162C172.368 433.631 173.248 424.871 178.795 417.143C184.189 409.645 192.949 409.301 201.136 408.995C209.705 408.689 218.274 409.722 226.844 409.531C229.292 409.492 231.664 407.235 234.074 406.011C231.625 404.022 229.254 400.426 226.69 400.273C214.946 399.661 203.163 400.158 191.419 399.928C188.55 399.89 184.954 399.508 183.003 397.786C180.746 395.759 178.756 392.048 178.909 389.179C178.986 387.113 182.697 385.162 184.877 383.287C185.413 382.828 186.408 382.599 187.173 382.637C207.18 383.861 227.379 380.303 247.195 385.812C256.224 388.337 260.891 395.376 261.159 409.11C261.312 417.985 260.547 426.86 260.279 435.735C260.202 437.878 260.202 440.058 260.508 442.162C261.656 449.89 259.628 452.224 251.557 452.185C247.501 452.147 243.485 451.917 239.43 451.879C235.642 451.841 231.893 451.879 228.106 451.879C228.029 452.147 228.029 452.415 228.029 452.721ZM215.902 425.368C215.902 425.483 215.902 425.56 215.864 425.674C212.115 425.406 208.251 424.488 204.655 425.139C202.475 425.56 199.3 428.352 199.185 430.227C199.07 432.063 202.092 435.659 204.005 435.812C212.039 436.577 220.149 436.615 228.221 436.271C230.019 436.195 233.194 433.134 233.041 431.795C232.773 429.538 230.631 426.133 228.718 425.674C224.625 424.718 220.187 425.368 215.902 425.368ZM637.209 451.841C628.334 451.841 619.421 451.726 610.545 451.879C602.512 451.994 595.014 449.584 591.303 442.621C587.133 434.817 586.827 425.139 592.297 418.138C595.702 413.777 602.932 410.908 608.786 410.181C619.421 408.88 630.285 409.951 641.035 409.416C643.56 409.301 645.97 406.738 648.456 405.322C645.97 403.563 643.598 400.426 640.997 400.273C631.356 399.661 621.639 400.158 611.961 399.89C607.447 399.775 602.435 399.89 598.61 397.977C595.664 396.524 594.287 392.01 592.183 388.834C595.32 386.998 598.418 383.67 601.67 383.517C617.163 382.828 632.733 382.866 648.265 382.943C667.469 383.058 678.066 396.83 675.35 412.706C673.82 421.466 675.579 430.801 675.656 439.867C675.771 451.076 675.044 451.764 663.912 451.918C655.036 452.032 646.123 451.956 637.248 451.956C637.209 451.879 637.209 451.841 637.209 451.841ZM631.28 436.577C631.28 436.539 631.28 436.501 631.28 436.462C635.87 436.462 640.499 436.845 644.975 436.271C646.62 436.042 649.26 433.364 649.107 432.025C648.839 429.615 646.964 425.407 645.587 425.33C635.947 424.833 626.23 424.871 616.59 425.521C614.486 425.674 612.611 428.926 610.66 430.762C612.688 432.484 614.486 435.276 616.781 435.735C621.486 436.654 626.421 436.386 631.28 436.577ZM434.188 451.803C443.637 451.803 453.086 452.185 462.497 451.65C466.781 451.42 471.525 450.234 475.083 447.939C482.275 443.272 486.177 436.118 484.417 427.319C482.619 418.521 473.897 411.52 463.951 410.869C452.971 410.143 441.954 410.449 430.974 409.607C428.335 409.416 425.886 406.47 423.323 404.787C425.886 402.645 428.411 398.704 431.013 398.666C444.938 398.36 458.901 398.972 472.864 399.431C477.723 399.584 483.576 394.917 483.078 390.135C482.543 384.818 478.947 382.331 473.553 382.752C469.039 383.096 464.486 383.67 459.972 383.861C444.44 384.473 428.832 384.588 413.339 385.659C402.512 386.424 394.976 400.961 399.069 411.099C403.737 422.729 413.492 425.253 424.241 425.751C433.652 426.172 443.101 425.636 452.55 425.942C454.654 426.019 457.141 427.358 458.557 428.926C459.36 429.844 459.054 433.249 458.097 433.937C456.338 435.2 453.736 435.735 451.479 435.774C437.478 435.965 423.438 436.042 409.437 435.888C402.245 435.812 400.026 440.479 399.49 446.141C398.84 452.95 404.119 451.956 408.404 451.956C417.011 451.917 425.657 451.956 434.264 451.956C434.188 451.917 434.188 451.841 434.188 451.803ZM564.524 452.95C572.711 455.437 578.64 451.382 578.679 442.66C578.755 429.423 578.679 416.225 578.717 402.989C578.755 385.506 578.755 385.506 561.272 383.823C560.737 383.785 560.01 383.364 559.704 383.593C557.409 385.277 553.698 386.769 553.239 388.949C552.244 393.578 553.43 398.666 552.741 403.41C552.397 405.705 550.025 409.416 548.38 409.531C539.352 410.143 530.247 409.837 520.454 409.837C520.454 403.907 520.454 399.125 520.454 394.305C520.492 383.67 520.377 383.593 510.125 383.899C508.289 383.938 506.338 383.708 504.578 383.211C497.577 381.222 494.937 384.932 494.861 391.015C494.67 408.804 494.861 426.554 494.708 444.343C494.67 449.699 497.424 452.377 502.321 452.912C505.496 453.256 508.786 452.338 511.961 452.721C519.191 453.601 520.836 449.813 520.607 443.654C520.377 437.878 520.569 432.063 520.569 426.439C532.045 426.439 542.183 426.439 552.741 426.439C552.741 434.932 552.741 442.889 552.741 451.152C557.676 451.841 561.234 451.956 564.524 452.95ZM334.953 425.827C341.227 425.866 345.397 422.231 344.594 416.799C344.173 414.045 338.358 410.525 334.685 410.181C325.083 409.263 315.328 410.104 305.65 409.722C303.278 409.607 300.982 407.465 298.687 406.241C300.447 403.83 301.824 401 304.043 399.24C305.458 398.13 308.136 398.475 310.279 398.436C320.493 398.36 330.745 398.322 340.959 398.398C347.272 398.436 351.059 394.381 351.212 389.217C351.365 382.828 345.55 382.407 340.5 382.675C334.341 382.981 328.22 383.67 322.061 383.861C312.115 384.129 302.13 383.746 292.184 384.358C279.483 385.124 273.171 390.02 272.98 399.393C272.635 415.001 272.712 430.609 273.094 446.217C273.133 448.513 275.772 452.568 277.379 452.644C283.844 452.95 290.347 452.032 297.272 451.497C297.846 442.621 298.343 434.703 298.878 425.789C310.891 425.789 322.941 425.713 334.953 425.827ZM387.095 417.602C387.095 408.459 387.363 399.316 386.904 390.212C386.789 387.763 384.609 383.479 383.079 383.326C377.417 382.79 371.564 383.211 365.902 384.205C364.18 384.511 361.809 387.725 361.77 389.714C361.197 407.771 361.082 425.866 360.737 443.96C360.623 450.502 364.027 453.256 370.148 453.065C373.056 452.989 376.04 451.841 378.871 452.147C385.833 452.912 387.095 448.666 387.134 443.348C387.248 434.741 387.172 426.172 387.172 417.564C387.21 417.602 387.134 417.602 387.095 417.602ZM697.729 388.452C696.39 384.818 691.608 380.724 687.821 380.112C683.154 379.347 678.908 382.522 678.869 388.911C678.831 395.07 681.777 397.671 686.597 398.13C692.947 398.322 699.413 393.042 697.729 388.452Z" fill="black"/>
</svg>
