<svg width="524" height="74" viewBox="0 0 524 74" fill="none" xmlns="http://www.w3.org/2000/svg">
<path d="M54.0294 72.7209C44.3508 72.7209 34.6339 73.1417 24.9936 72.6061C16.4244 72.1088 7.58737 70.8846 2.92021 62.1624C-1.63218 53.6314 -0.752309 44.8709 4.79473 37.1433C10.1887 29.6453 18.9492 29.301 27.1359 28.9949C35.7051 28.6889 44.2743 29.7218 52.8435 29.5305C55.2919 29.4923 57.6637 27.2352 60.0738 26.011C57.6254 24.0217 55.2536 20.4257 52.6905 20.2727C40.9461 19.6606 29.1634 20.1579 17.419 19.9284C14.5499 19.8901 10.9538 19.5076 9.00282 17.7861C6.74575 15.7586 4.75647 12.0478 4.90949 9.17863C4.986 7.11284 8.69678 5.16181 10.8773 3.28729C11.4129 2.82823 12.4075 2.5987 13.1727 2.63696C33.1802 3.86113 53.3791 0.303384 73.1954 5.81216C82.2237 8.33702 86.8908 15.376 87.1586 29.1097C87.3116 37.9849 86.5465 46.8602 86.2787 55.7355C86.2022 57.8778 86.2022 60.0583 86.5083 62.1624C87.6559 69.89 85.6284 72.2236 77.5565 72.1853C73.5014 72.147 69.4846 71.9175 65.4295 71.8792C61.6423 71.841 57.8932 71.8792 54.1059 71.8792C54.0294 72.147 54.0294 72.4148 54.0294 72.7209ZM41.9025 45.3682C41.9025 45.483 41.9025 45.5595 41.8642 45.6743C38.1152 45.4065 34.2514 44.4884 30.6554 45.1387C28.4748 45.5595 25.2996 48.3522 25.1849 50.2267C25.0701 52.0629 28.0923 55.6589 30.005 55.812C38.0387 56.5771 46.1488 56.6153 54.2207 56.271C56.0187 56.1945 59.1939 53.1341 59.0409 51.7951C58.7731 49.5381 56.6308 46.1333 54.718 45.6743C50.6247 44.7179 46.1871 45.3682 41.9025 45.3682ZM463.209 71.841C454.334 71.841 445.421 71.7262 436.545 71.8792C428.512 71.994 421.014 69.5839 417.303 62.6214C413.133 54.8173 412.827 45.1387 418.297 38.138C421.702 33.7769 428.932 30.9077 434.786 30.1808C445.421 28.8802 456.285 29.9513 467.035 29.4157C469.56 29.301 471.97 26.7379 474.456 25.3224C471.97 23.5627 469.598 20.4257 466.997 20.2727C457.356 19.6606 447.639 20.1579 437.961 19.8901C433.447 19.7754 428.435 19.8901 424.61 17.9774C421.664 16.5237 420.287 12.0095 418.183 8.83433C421.32 6.99807 424.418 3.66985 427.67 3.51683C443.163 2.82823 458.733 2.86648 474.265 2.943C493.469 3.05776 504.066 16.8297 501.35 32.7057C499.82 41.4662 501.579 50.8005 501.656 59.8671C501.771 71.0759 501.044 71.7645 489.912 71.9175C481.036 72.0323 472.123 71.9558 463.248 71.9558C463.209 71.8792 463.209 71.841 463.209 71.841ZM457.28 56.5771C457.28 56.5388 457.28 56.5006 457.28 56.4623C461.87 56.4623 466.499 56.8449 470.975 56.271C472.62 56.0415 475.26 53.3636 475.107 52.0247C474.839 49.6146 472.964 45.4065 471.587 45.33C461.947 44.8327 452.23 44.8709 442.59 45.5213C440.486 45.6743 438.611 48.926 436.66 50.7623C438.688 52.4838 440.486 55.2764 442.781 55.7355C447.486 56.6536 452.421 56.3858 457.28 56.5771ZM260.188 71.8027C269.637 71.8027 279.086 72.1853 288.497 71.6497C292.781 71.4202 297.525 70.2343 301.083 67.9389C308.275 63.2718 312.177 56.118 310.417 47.3193C308.619 38.5205 299.897 31.5198 289.951 30.8695C278.971 30.1426 267.954 30.4486 256.974 29.607C254.335 29.4157 251.886 26.4701 249.323 24.7868C251.886 22.6445 254.411 18.7042 257.013 18.666C270.938 18.3599 284.901 18.972 298.864 19.4311C303.723 19.5841 309.576 14.9169 309.078 10.135C308.543 4.81752 304.947 2.33091 299.553 2.75172C295.039 3.09602 290.486 3.66985 285.972 3.86112C270.44 4.47321 254.832 4.58798 239.339 5.65913C228.512 6.42424 220.976 20.9613 225.069 31.099C229.737 42.7286 239.492 45.2535 250.241 45.7508C259.652 46.1716 269.101 45.636 278.55 45.9421C280.654 46.0186 283.141 47.3575 284.557 48.926C285.36 49.8441 285.054 53.2489 284.097 53.9375C282.338 55.1999 279.736 55.7355 277.479 55.7737C263.478 55.965 249.438 56.0415 235.437 55.8885C228.245 55.812 226.026 60.4791 225.49 66.1409C224.84 72.9504 230.119 71.9558 234.404 71.9558C243.011 71.9175 251.657 71.9558 260.264 71.9558C260.188 71.9175 260.188 71.841 260.188 71.8027ZM390.524 72.9504C398.711 75.437 404.64 71.3819 404.679 62.6597C404.755 49.4233 404.679 36.2252 404.717 22.9888C404.755 5.50611 404.755 5.50612 387.272 3.82288C386.737 3.78462 386.01 3.36381 385.704 3.59334C383.409 5.27658 379.698 6.76853 379.239 8.94909C378.244 13.578 379.43 18.666 378.741 23.4097C378.397 25.705 376.025 29.4157 374.38 29.5305C365.352 30.1426 356.247 29.8366 346.454 29.8366C346.454 23.907 346.454 19.125 346.454 14.3048C346.492 3.66984 346.377 3.59334 336.125 3.89938C334.289 3.93764 332.338 3.70811 330.578 3.21079C323.577 1.22151 320.937 4.93228 320.861 11.0149C320.67 28.8037 320.861 46.5542 320.708 64.3429C320.67 69.6987 323.424 72.3766 328.321 72.9121C331.496 73.2564 334.786 72.3383 337.961 72.7209C345.191 73.6007 346.836 69.8134 346.607 63.6543C346.377 57.8778 346.569 52.0629 346.569 46.4394C358.045 46.4394 368.183 46.4394 378.741 46.4394C378.741 54.9321 378.741 62.8892 378.741 71.1524C383.676 71.841 387.234 71.9558 390.524 72.9504ZM160.953 45.8273C167.227 45.8656 171.397 42.2313 170.594 36.799C170.173 34.0447 164.358 30.5251 160.685 30.1808C151.083 29.2627 141.328 30.1043 131.65 29.7218C129.278 29.607 126.982 27.4647 124.687 26.2405C126.447 23.8304 127.824 20.9996 130.043 19.2398C131.458 18.1304 134.136 18.4747 136.279 18.4364C146.493 18.3599 156.745 18.3217 166.959 18.3982C173.272 18.4364 177.059 14.3814 177.212 9.21688C177.365 2.82823 171.55 2.40743 166.5 2.67521C160.341 2.98126 154.22 3.66985 148.061 3.86112C138.115 4.12891 128.13 3.74636 118.184 4.35845C105.483 5.12356 99.1708 10.0203 98.9795 19.3928C98.6352 35.001 98.7117 50.6092 99.0943 66.2174C99.1325 68.5128 101.772 72.5678 103.379 72.6443C109.844 72.9504 116.347 72.0323 123.272 71.4967C123.846 62.6214 124.343 54.7026 124.878 45.7891C136.891 45.7891 148.941 45.7125 160.953 45.8273ZM213.095 37.6024C213.095 28.4594 213.363 19.3163 212.904 10.2115C212.789 7.76319 210.609 3.47857 209.079 3.32555C203.417 2.78997 197.564 3.21079 191.902 4.20543C190.18 4.51147 187.809 7.72491 187.77 9.7142C187.197 27.7707 187.082 45.8656 186.737 63.9604C186.623 70.5021 190.027 73.2564 196.148 73.0652C199.056 72.9887 202.04 71.841 204.871 72.147C211.833 72.9121 213.095 68.6658 213.134 63.3483C213.248 54.7408 213.172 46.1716 213.172 37.5642C213.21 37.6024 213.134 37.6024 213.095 37.6024ZM523.729 8.45177C522.39 4.81751 517.608 0.724184 513.821 0.112098C509.154 -0.65301 504.908 2.52219 504.869 8.91084C504.831 15.07 507.777 17.6713 512.597 18.1304C518.947 18.3217 525.413 13.0424 523.729 8.45177Z" fill="black"/>
</svg>
