<svg width="406" height="406" viewBox="0 0 406 406" fill="none" xmlns="http://www.w3.org/2000/svg">
<circle cx="203" cy="203" r="203" fill="#A597F9"/>
<path d="M258.242 182.459C260.226 181.509 261.935 180.455 263.781 179.868C267.371 178.728 270.581 179.73 273.17 182.407C274.171 183.426 274.671 183.374 275.724 182.476C279.279 179.454 283.335 178.573 287.753 180.265C291.843 181.837 293.396 185.274 293.62 189.281C293.862 193.633 293.724 198.02 293.741 202.372C293.741 203.927 293.724 205.498 293.741 207.053C293.776 208.763 292.964 209.592 291.256 209.592C289.323 209.592 287.39 209.592 285.457 209.592C283.766 209.592 282.972 208.814 282.989 207.07C283.041 202.821 283.041 198.59 282.972 194.341C282.955 193.305 282.731 192.234 282.385 191.267C281.902 189.903 280.711 188.953 279.348 189.333C278.226 189.644 277.122 190.559 276.414 191.526C275.896 192.234 275.914 193.426 275.914 194.41C275.862 198.469 275.896 202.528 275.896 206.586C275.879 209.16 275.448 209.592 272.807 209.626C271.254 209.643 269.684 209.643 268.13 209.626C265.714 209.592 265.11 209.039 265.093 206.655C265.059 202.787 265.093 198.918 265.076 195.049C265.076 194.359 265.076 193.668 265.041 192.994C264.903 190.766 263.661 189.333 261.866 189.264C259.898 189.195 258.311 190.732 258.276 193.029C258.19 197.329 258.242 201.647 258.224 205.947C258.224 209.35 257.948 209.626 254.445 209.626C252.892 209.626 251.321 209.626 249.768 209.609C248.267 209.574 247.49 208.832 247.49 207.277C247.507 198.97 247.507 190.68 247.49 182.372C247.49 180.801 248.267 180.11 249.803 180.127C251.667 180.145 253.548 180.179 255.411 180.11C257.172 180.024 258.501 180.352 258.242 182.459ZM108.461 186.328C112.068 180.49 108.392 172.873 101.282 172.269C94.2236 171.682 87.0789 171.958 79.9859 171.872C78.6744 171.854 78.1394 172.632 78.1394 173.927C78.1566 185.032 78.1566 196.155 78.1394 207.26C78.1394 208.711 78.8297 209.592 80.2448 209.557C87.7174 209.384 95.2073 209.488 102.628 208.814C109.031 208.227 112.62 202.044 110.964 195.844C110.153 192.856 107.978 191.232 105.372 189.816C106.511 188.538 107.702 187.554 108.461 186.328ZM97.8995 194.756C99.2456 194.928 100.212 195.637 100.316 197.139C100.419 198.659 99.7461 199.868 98.2447 199.989C95.4144 200.231 92.5496 200.213 89.7021 200.179C89.3742 200.179 88.7702 199.333 88.7529 198.866C88.6148 194.099 88.4768 194.618 92.4978 194.6C92.9293 194.6 93.3607 194.6 93.8094 194.6C93.8094 194.583 93.8094 194.566 93.8094 194.549C95.1728 194.6 96.5362 194.583 97.8995 194.756ZM91.6177 186.431C88.7011 186.431 88.7011 186.414 88.7011 183.512C88.7011 180.974 88.891 180.766 91.5142 180.818C93.309 180.853 95.1556 180.853 96.8641 181.284C97.6407 181.474 98.4518 182.58 98.7279 183.426C99.1076 184.618 98.4 185.689 97.1575 185.999C95.8459 186.328 94.4652 186.379 93.1191 186.569C93.1191 186.518 93.1019 186.466 93.1019 186.414C92.6187 186.431 92.1182 186.431 91.6177 186.431ZM310.602 210.092C320.145 210.248 326.721 202.718 326.686 194.669C326.634 186.241 319.507 179.316 310.74 179.436C300.782 179.575 294.535 187.329 294.863 194.877C294.863 203.633 301.524 209.954 310.602 210.092ZM310.757 189.022C314.002 189.056 316.262 191.561 316.211 195.049C316.159 198.4 313.829 200.749 310.619 200.714C307.444 200.68 305.356 198.314 305.39 194.756C305.39 191.129 307.409 188.987 310.757 189.022ZM125.288 197.968C129.965 197.968 134.641 197.934 139.318 197.968C140.906 197.985 141.683 197.329 141.493 195.723C141.303 194.048 141.148 192.372 140.837 190.732C138.99 180.974 129.309 177.485 121.577 180.455C114.519 183.167 111.758 190.041 112.31 196.224C113.035 204.376 117.504 209.35 124.977 209.954C129.585 210.334 133.951 209.885 137.696 206.828C140.595 204.462 140.595 203.84 137.679 201.457C134.866 199.16 134.866 199.16 131.708 200.904C128.308 202.769 124.442 201.63 122.889 197.951C123.838 197.968 124.563 197.968 125.288 197.968ZM126.358 187.709C127.825 187.416 129.688 188.417 130.551 189.954C131.311 191.302 131 191.941 129.464 191.975C127.307 192.027 125.132 191.992 122.803 191.992C123.251 189.488 124.511 188.089 126.358 187.709ZM199.082 209.712C205.433 208.642 208.953 202.079 206.209 196.362C204.725 193.27 201.705 192.234 198.754 191.181C197.166 190.628 195.544 190.179 193.991 189.557C193.525 189.367 193.232 188.711 192.852 188.279C193.37 188.02 193.905 187.519 194.405 187.571C195.82 187.692 197.235 187.916 198.599 188.314C203.31 189.713 203.293 189.747 205.536 185.257C206.417 183.461 206.209 182.614 204.449 181.837C199.91 179.851 195.268 178.797 190.281 180.058C186.553 181.008 183.377 184.238 182.998 187.726C182.48 192.459 183.964 195.36 188.192 197.226C190.574 198.279 193.145 198.866 195.579 199.799C196.2 200.041 196.597 200.818 197.097 201.353C196.476 201.647 195.803 202.234 195.216 202.165C193.387 201.94 191.351 201.889 189.797 201.042C184.603 198.21 185.138 199.713 182.618 203.547C181.686 204.963 181.928 206.086 183.429 206.984C187.002 209.091 190.885 210.041 195.026 210.179C196.373 210.006 197.736 209.937 199.082 209.712ZM224.002 209.799C228.973 209.142 232.321 205.999 232.838 201.561C233.373 196.828 231.181 193.633 226.021 191.733C223.916 190.956 221.759 190.317 219.671 189.505C219.256 189.35 218.997 188.728 218.67 188.331C219.118 188.072 219.584 187.554 219.998 187.588C221.465 187.709 222.984 187.865 224.382 188.314C229.024 189.764 229.007 189.799 231.251 185.464C232.234 183.564 232.01 182.649 230.008 181.768C225.711 179.868 221.327 178.832 216.564 179.972C212.077 181.043 209.005 184.255 208.729 188.555C208.436 193.201 210.627 196.31 215.391 197.916C217.565 198.659 219.774 199.298 221.931 200.092C222.363 200.248 222.622 200.87 222.95 201.267C222.466 201.578 221.931 202.2 221.5 202.148C219.481 201.889 217.375 201.716 215.511 201.008C211.007 199.315 211.059 199.212 208.539 203.288C207.331 205.257 207.521 205.982 209.575 207.174C213.061 209.194 216.858 210.041 220.861 210.144C221.897 210.023 222.95 209.937 224.002 209.799ZM153.452 172.649C153.47 170.956 152.745 170.266 151.105 170.283C149.103 170.317 147.119 170.317 145.117 170.283C143.46 170.266 142.787 171.043 142.804 172.701C142.839 184.186 142.839 195.671 142.804 207.156C142.804 208.814 143.581 209.574 145.186 209.574C147.05 209.592 148.931 209.609 150.795 209.574C152.969 209.54 153.418 209.073 153.435 206.897C153.452 201.215 153.435 195.533 153.435 189.851C153.435 184.134 153.418 178.383 153.452 172.649ZM156.68 206.483C156.68 209.212 157.059 209.574 159.855 209.609C161.287 209.626 162.72 209.626 164.152 209.609C166.862 209.592 167.345 209.125 167.345 206.465C167.362 200.162 167.345 193.858 167.345 187.554C167.345 182.683 167.362 177.813 167.345 172.96C167.328 170.801 166.844 170.335 164.687 170.3C162.944 170.283 161.201 170.283 159.458 170.3C157.025 170.335 156.697 170.663 156.697 173.167C156.68 178.728 156.697 184.272 156.697 189.834C156.68 195.378 156.662 200.921 156.68 206.483ZM170.331 206.984C170.313 208.538 170.9 209.54 172.557 209.574C174.679 209.609 176.785 209.609 178.908 209.574C180.323 209.557 181.065 208.814 181.065 207.346C181.048 199.004 181.065 190.645 181.065 182.303C181.065 180.835 180.357 180.11 178.908 180.11C176.975 180.11 175.042 180.093 173.126 180.11C170.917 180.127 170.365 180.663 170.365 182.891C170.348 186.811 170.365 190.749 170.365 194.669C170.331 198.763 170.365 202.873 170.331 206.984ZM244.884 182.511C244.901 180.87 244.246 180.058 242.572 180.093C240.587 180.127 238.585 180.11 236.6 180.093C234.978 180.093 234.219 180.853 234.236 182.511C234.253 190.732 234.253 198.97 234.236 207.191C234.236 208.866 235.082 209.574 236.652 209.592C238.395 209.609 240.138 209.609 241.881 209.592C244.332 209.574 244.867 209.039 244.867 206.621C244.884 202.7 244.867 198.763 244.867 194.842C244.867 190.749 244.832 186.621 244.884 182.511ZM150.57 236.465C148.499 231.18 146.29 225.947 144.185 220.679C143.598 219.211 142.407 219.367 141.234 219.332C140.009 219.298 138.818 219.298 138.266 220.697C136.143 225.964 133.986 231.215 131.915 236.482C131.759 236.88 131.897 237.674 132.208 237.95C133.123 238.745 136.177 238.14 136.488 237.018C137.092 234.824 138.611 234.721 140.405 234.824C141.458 234.893 142.563 234.652 143.564 234.893C144.34 235.083 145.393 235.671 145.617 236.31C146.152 237.881 147.067 238.382 148.62 238.192C149.535 237.95 151.433 238.641 150.57 236.465ZM139.059 230.558C139.75 228.745 140.336 227.191 140.94 225.636C141.113 225.619 141.303 225.584 141.475 225.567C142.079 227.139 142.684 228.728 143.391 230.558C141.855 230.558 140.664 230.558 139.059 230.558ZM77.0003 236.206C76.9831 237.64 77.6044 238.209 79.0195 238.192C81.2803 238.175 81.5737 237.95 81.5909 235.636C81.5909 235.014 81.6082 234.393 81.5909 233.771C81.5564 232.683 82.0224 232.182 83.1441 232.182C84.3867 232.165 85.6292 232.078 86.8718 231.923C90.0127 231.526 92.0319 229.401 92.1527 226.396C92.308 222.389 90.8584 220.11 87.3033 219.643C84.4212 219.263 81.4701 219.401 78.5536 219.367C77.311 219.35 77.0176 220.179 77.0176 221.249C77.0349 223.736 77.0176 226.241 77.0176 228.728C77.0176 231.232 77.0521 233.719 77.0003 236.206ZM83.6964 223.495C86.3196 223.616 87.5103 224.22 87.4931 225.792C87.4758 227.312 86.216 228.002 83.4203 228.02C81.7462 228.037 81.6082 227.864 81.6082 225.584C81.3493 224.185 81.8843 223.408 83.6964 223.495ZM125.357 230.196C127.065 227.899 128.877 225.671 130.413 223.253C130.931 222.424 130.965 221.094 130.741 220.092C130.655 219.695 129.291 219.384 128.48 219.367C125.374 219.281 122.25 219.367 119.144 219.315C117.591 219.281 116.676 219.643 116.711 221.474C116.728 223.236 117.625 223.564 119.075 223.512C120.714 223.46 122.337 223.495 124.459 223.495C123.648 224.738 123.199 225.464 122.699 226.154C120.939 228.572 119.092 230.921 117.401 233.391C116.866 234.168 116.607 235.187 116.452 236.137C116.227 237.501 116.849 238.209 118.35 238.192C121.957 238.14 125.581 238.123 129.188 238.192C130.862 238.227 131.328 237.484 131.311 235.93C131.311 234.41 130.776 233.771 129.222 233.84C127.203 233.909 125.167 233.857 122.647 233.857C123.769 232.355 124.563 231.284 125.357 230.196ZM109.566 230.248C111.24 228.002 113.035 225.826 114.536 223.46C115.106 222.579 115.209 221.215 115.037 220.144C114.968 219.747 113.483 219.401 112.638 219.384C109.531 219.298 106.408 219.384 103.284 219.332C101.765 219.315 100.971 219.73 100.971 221.439C100.971 223.166 101.8 223.581 103.301 223.529C104.941 223.477 106.58 223.512 108.737 223.512C108.064 224.548 107.736 225.118 107.34 225.636C105.424 228.244 103.439 230.818 101.61 233.495C101.075 234.272 100.833 235.308 100.695 236.258C100.505 237.553 101.161 238.209 102.542 238.192C106.218 238.158 109.894 238.14 113.57 238.192C115.192 238.227 115.537 237.38 115.572 235.964C115.606 234.479 115.106 233.771 113.535 233.823C111.499 233.909 109.462 233.84 106.891 233.84C108.013 232.337 108.789 231.284 109.566 230.248ZM175.646 167.019C172.66 167.053 170.072 169.627 169.985 172.649C169.899 175.758 172.678 178.59 175.767 178.556C178.804 178.521 181.514 175.827 181.531 172.804C181.565 169.713 178.787 166.984 175.646 167.019ZM239.465 178.556C242.623 178.556 245.385 175.827 245.367 172.735C245.35 169.661 242.727 167.07 239.586 167.001C236.549 166.932 233.891 169.575 233.874 172.701C233.856 175.81 236.48 178.556 239.465 178.556ZM98.7969 221.267C98.8315 219.436 97.6752 219.332 96.3118 219.332C94.9312 219.332 93.8612 219.471 93.8785 221.301C93.9302 226.293 93.9302 231.284 93.8785 236.275C93.8612 238.123 94.9657 238.209 96.3463 238.209C97.7442 238.209 98.8487 238.054 98.7969 236.258C98.7452 233.823 98.7797 231.387 98.7797 228.952C98.7969 226.379 98.7452 223.823 98.7969 221.267ZM326.738 178.383C325.167 178.366 324.132 179.35 324.115 180.887C324.097 182.476 325.029 183.478 326.6 183.512C328.308 183.547 328.981 182.873 328.999 181.025C329.033 179.126 328.395 178.383 326.738 178.383Z" fill="black"/>
</svg>
