<svg width="265" height="51" viewBox="0 0 265 51" fill="none" xmlns="http://www.w3.org/2000/svg">
<path d="M25.193 24.2062C25.4658 24.6493 25.4828 24.7516 25.5339 24.7857C32.4543 28.9618 34.5849 34.7912 31.977 42.632C30.7327 46.3478 27.835 48.4103 24.2044 49.0921C20.8465 49.7228 17.3693 49.8762 13.9432 49.9785C10.1762 50.0807 6.40926 49.8421 2.62524 49.791C0.750267 49.7569 -0.0167677 49.041 0.000277495 47.0126C0.0855034 32.9674 0.0684582 18.9222 0.0855034 4.87693C0.0855034 0.973586 0.0684589 0.95654 3.88658 0.598591C10.1251 0.0190552 16.3296 -0.475253 22.5681 0.803135C28.21 1.96221 31.3804 5.23488 31.6532 10.945C31.7384 12.7007 31.6873 14.4734 31.585 16.2461C31.3975 19.5017 29.7441 21.8028 26.8635 23.2687C26.3351 23.5244 25.8237 23.8482 25.193 24.2062ZM5.932 36.4105C5.932 39.0525 5.81268 41.7115 6.01722 44.3535C6.06836 45.0865 7.10811 46.3649 7.6706 46.3478C12.3069 46.2456 16.9602 46.1092 21.5454 45.5467C24.034 45.2399 26.0623 43.5183 26.4203 40.8422C26.7612 38.1662 26.8294 35.4219 26.6419 32.7458C26.4544 30.0356 24.8351 27.7686 22.142 27.4618C17.1648 26.8822 12.1194 26.8311 7.10811 26.7288C6.73312 26.7288 6.01722 28.0072 5.98313 28.7231C5.84677 31.2799 5.932 33.8367 5.932 36.4105ZM5.932 13.0927C5.932 15.5813 5.94904 18.0529 5.91495 20.5414C5.89791 21.9562 6.52858 22.5869 7.94333 22.5698C10.4319 22.5357 12.9035 22.5698 15.3921 22.5528C24.1021 22.5528 26.6078 19.8255 25.9089 11.2007C25.568 7.00758 23.0454 4.39967 18.8181 4.21217C15.2216 4.05876 11.608 4.17808 8.01151 4.16103C6.51153 4.16103 5.84677 4.80875 5.89791 6.35986C5.98313 8.60983 5.91495 10.8598 5.932 13.0927ZM173.827 32.1662C173.827 29.5242 173.742 26.8652 173.844 24.2232C173.997 20.3539 175.821 17.371 179.384 15.9052C185.009 13.587 190.821 13.587 196.531 15.6324C200.724 17.1324 202.633 20.4051 202.719 24.7346C202.804 29.3879 202.736 34.0412 202.736 38.6946C202.736 44.9501 200.059 48.7342 193.872 49.5864C189.747 50.166 185.367 49.9273 181.259 49.1944C176.367 48.3251 173.878 44.5922 173.827 39.632C173.81 37.1434 173.827 34.6548 173.827 32.1662ZM196.872 32.3197H196.855C196.855 29.3538 196.974 26.3879 196.821 23.4391C196.702 20.9335 195.065 18.871 192.594 18.5642C189.781 18.2233 186.884 18.1892 184.071 18.5301C181.668 18.8199 179.861 20.5414 179.793 23.0641C179.605 29.1322 179.656 35.2173 179.742 41.3025C179.776 43.4161 181.156 44.8649 183.048 45.649C186.44 47.0808 189.918 47.0978 193.327 45.7001C195.508 44.8138 196.821 43.1774 196.855 40.74C196.906 37.9275 196.872 35.1321 196.872 32.3197ZM56.1641 34.0412C53.6755 34.0412 51.1869 34.0583 48.6983 34.0412C47.3006 34.0242 46.7381 34.6548 46.6359 36.0696C46.0904 44.1831 48.4086 46.8081 56.6073 46.5353C59.6925 46.4331 62.7265 45.5126 65.8117 45.0694C66.6299 44.9501 67.5162 45.1717 68.3685 45.2399C67.9253 46.2456 67.7378 47.7626 66.9878 48.1376C65.2321 49.0069 63.2038 49.7398 61.2606 49.7739C57.0334 49.8591 52.738 49.8932 48.5961 49.1944C43.7211 48.3592 41.0451 44.7626 40.8916 39.7684C40.7382 34.723 40.7041 29.6606 40.9087 24.6152C41.1644 18.3085 44.6245 15.2234 52.3119 14.3711C56.3175 13.9279 60.3402 14.1495 64.0901 15.9222C66.7492 17.1835 68.4537 19.2631 68.7094 22.2119C68.9821 25.3141 68.9991 28.4504 69.1184 31.5697C69.1866 33.0867 68.2321 33.4617 66.9708 33.5299C63.3742 33.7344 59.7606 33.973 56.1641 34.1946C56.1812 34.1435 56.1812 34.0924 56.1641 34.0412ZM55.1414 30.2742C57.3061 30.2742 59.4879 30.3765 61.6356 30.2061C62.3174 30.1549 63.3742 29.5072 63.5447 28.9277C65.4708 22.28 61.9765 17.5926 55.1073 17.8654C49.1074 18.104 46.3291 19.6551 46.687 26.2175C46.7211 26.9334 46.4484 27.7856 46.7552 28.3481C47.1643 29.0981 47.9483 30.0867 48.6472 30.172C50.7778 30.4276 52.9767 30.2742 55.1414 30.2742ZM263.365 44.4558C264.098 46.3819 263.911 47.7796 261.916 48.4273C255.252 50.6262 248.536 50.9841 241.905 48.4955C238.428 47.2001 236.553 44.4388 236.468 40.7059C236.366 35.1662 236.383 29.6436 236.434 24.1039C236.468 19.7403 238.701 16.7574 242.792 15.4449C248.11 13.7234 253.53 13.6381 258.814 15.6665C262.615 17.1154 264.217 20.3028 264.627 24.0868C264.865 26.3879 264.575 28.7402 264.729 31.0583C264.831 32.814 264.269 33.5128 262.479 33.5469C256.632 33.6492 250.786 33.9049 244.922 34.0412C241.888 34.1094 241.786 34.1776 241.803 37.1434C241.803 37.7059 241.786 38.2684 241.803 38.8309C241.922 43.6377 244.377 46.5353 249.184 46.4842C253.206 46.4501 257.246 45.5638 261.269 45.0354C261.95 44.916 262.615 44.6604 263.365 44.4558ZM250.394 30.2913C251.434 30.2913 252.473 30.2913 253.513 30.2913C259.82 30.2913 260.041 29.9333 258.933 23.5244C258.507 21.0698 257.468 19.0756 255.013 18.6324C252.559 18.1722 249.934 18.0528 247.445 18.3597C243.797 18.8028 242.195 20.7801 241.837 24.4448C241.718 25.7232 241.786 27.0016 241.769 28.28C241.752 29.7117 242.519 30.2913 243.883 30.2913C246.064 30.2742 248.229 30.2742 250.394 30.2913ZM130.958 49.8762C134.674 49.2626 137.981 47.9501 139.242 43.9104C141.168 37.74 138.97 33.6151 132.663 31.7572C129.134 30.7174 125.487 30.1208 121.958 29.0811C118.243 27.9902 117.118 25.3823 118.481 21.7517C119.18 19.8767 120.424 18.5642 122.47 18.3938C124.6 18.2233 126.765 18.104 128.879 18.2915C131.759 18.5642 133.157 20.5244 133.583 23.2687C133.958 25.6209 135.697 25.5698 137.453 25.3482C139.464 25.1095 139.242 23.5925 139.072 22.2289C138.612 18.496 135.953 15.4279 132.066 14.9847C128.214 14.5586 124.243 14.4563 120.407 14.8995C115.396 15.479 112.993 18.4278 112.686 23.1835C112.362 28.2629 114.084 30.8367 119.197 32.3538C122.572 33.3424 126.066 33.9219 129.458 34.8423C133.396 35.9162 134.47 37.6207 134.078 41.7115C133.822 44.3365 131.657 46.1603 128.299 46.5012C127.191 46.6206 126.049 46.5865 124.924 46.5694C120.51 46.4842 118.822 45.0524 117.765 40.7741C117.118 38.1321 114.919 39.2911 113.368 39.3082C111.629 39.3252 112.038 40.7229 112.277 41.8309C113.351 46.7228 115.805 49.1262 120.629 49.8421C122.453 50.1148 124.311 50.1319 125.64 50.2341C127.771 50.0978 129.39 50.1489 130.958 49.8762ZM150.151 31.4844C150.151 35.2514 150.083 39.0355 150.168 42.8024C150.236 45.4785 151.566 47.6433 153.901 48.8876C157.191 50.6432 160.753 50.4216 164.213 49.4501C164.878 49.2626 165.202 47.916 165.679 47.1149C164.946 46.9103 164.179 46.4672 163.481 46.5524C157.941 47.2001 155.401 45.0865 155.367 39.5468C155.333 33.3594 155.435 27.1891 155.316 21.0187C155.265 18.9222 156.066 18.3256 157.975 18.4278C159.969 18.5301 162.015 18.6153 163.975 18.3426C164.691 18.2403 165.253 17.0983 165.884 16.4336C165.253 15.8711 164.691 14.9506 163.975 14.7972C162.662 14.5245 161.265 14.712 159.901 14.729C154.668 14.7972 155.316 14.6097 155.367 10.1439C155.384 8.74618 155.384 7.57007 153.458 7.57007C151.822 7.57007 150.577 7.8087 150.56 9.83708C150.543 10.7064 150.271 11.5927 150.288 12.462C150.322 14.0984 149.589 14.8654 147.969 14.729C146.708 14.6268 145.958 15.087 145.924 16.4506C145.89 17.8654 146.589 18.5301 147.986 18.4619C149.793 18.3767 150.049 19.4335 150.032 20.9335C149.964 24.4618 150.015 27.9902 150.015 31.5185C150.049 31.4844 150.1 31.4844 150.151 31.4844ZM95.8282 23.1835C95.8282 29.6777 95.8112 36.1889 95.8282 42.6831C95.8453 48.3762 99.8338 51.4273 105.322 49.8421C105.953 49.6546 106.686 48.7171 106.72 48.0694C106.754 47.6262 105.731 46.7058 105.135 46.6717C102.732 46.4842 101.709 45.1888 101.607 42.9559C101.555 41.9161 101.504 40.8763 101.504 39.8366C101.504 27.6493 101.47 15.4449 101.538 3.25764C101.555 1.22926 100.857 0.240641 98.7941 0.240641C96.7657 0.223596 95.743 0.956538 95.7771 3.22355C95.8964 9.85412 95.8282 16.5188 95.8282 23.1835ZM78.1865 23.0641C78.1865 29.7288 78.1183 36.3935 78.2035 43.0411C78.2717 48.5637 82.6694 51.6489 87.7829 49.808C88.3965 49.5864 88.9079 48.5978 89.0954 47.8819C89.1636 47.5921 88.2772 46.791 87.7147 46.6717C84.3398 45.9217 83.9648 45.5126 83.9648 42.0354C83.9648 29.2004 83.9648 16.3483 83.9648 3.51332C83.9648 0.854269 83.4023 0.308822 81.016 0.240641C78.6126 0.172461 78.1013 1.45085 78.1353 3.5815C78.2376 10.0587 78.1694 16.5529 78.1865 23.0641ZM217.309 17.7631C217.514 15.6836 217.002 14.4052 214.514 14.4393C211.957 14.4904 211.821 15.9733 211.821 17.9506C211.872 27.6493 211.906 37.348 211.804 47.0467C211.787 49.2796 212.537 49.9785 214.718 49.9785C216.951 49.9955 217.377 48.9898 217.36 47.0296C217.275 40.2116 217.224 33.4106 217.36 26.5925C217.394 25.3311 218.093 23.8482 218.963 22.8766C221.383 20.1494 224.468 18.5472 228.201 18.3426C229.871 18.2574 230.741 17.354 230.451 15.6665C230.161 13.9279 228.781 14.0472 227.639 14.4393C224.809 15.4449 222.048 16.6551 219.252 17.7801C218.758 17.9847 218.281 18.2233 217.718 18.496C217.446 18.0529 217.292 17.8994 217.309 17.7631Z" fill="black"/>
</svg>
