<svg width="407" height="406" viewBox="0 0 407 406" fill="none" xmlns="http://www.w3.org/2000/svg">
<ellipse cx="203.5" cy="203" rx="203.5" ry="203" fill="#A597F9"/>
<path d="M102.193 194.206C102.466 194.649 102.483 194.752 102.534 194.786C109.454 198.962 111.585 204.791 108.977 212.632C107.733 216.348 104.835 218.41 101.204 219.092C97.8465 219.723 94.3693 219.876 90.9432 219.978C87.1762 220.081 83.4093 219.842 79.6252 219.791C77.7503 219.757 76.9832 219.041 77.0003 217.013C77.0855 202.967 77.0685 188.922 77.0855 174.877C77.0855 170.974 77.0685 170.957 80.8866 170.599C87.1251 170.019 93.3296 169.525 99.5681 170.803C105.21 171.962 108.38 175.235 108.653 180.945C108.738 182.701 108.687 184.473 108.585 186.246C108.397 189.502 106.744 191.803 103.863 193.269C103.335 193.524 102.824 193.848 102.193 194.206ZM82.932 206.411C82.932 209.053 82.8127 211.712 83.0172 214.354C83.0684 215.086 84.1081 216.365 84.6706 216.348C89.3069 216.246 93.9602 216.109 98.5454 215.547C101.034 215.24 103.062 213.518 103.42 210.842C103.761 208.166 103.829 205.422 103.642 202.746C103.454 200.036 101.835 197.769 99.142 197.462C94.1648 196.882 89.1194 196.831 84.1081 196.729C83.7331 196.729 83.0172 198.007 82.9831 198.723C82.8468 201.28 82.932 203.837 82.932 206.411ZM82.932 183.093C82.932 185.581 82.949 188.053 82.915 190.541C82.8979 191.956 83.5286 192.587 84.9433 192.57C87.4319 192.536 89.9035 192.57 92.3921 192.553C101.102 192.553 103.608 189.826 102.909 181.201C102.568 177.008 100.045 174.4 95.8181 174.212C92.2216 174.059 88.608 174.178 85.0115 174.161C83.5115 174.161 82.8468 174.809 82.8979 176.36C82.9831 178.61 82.915 180.86 82.932 183.093ZM250.827 202.166C250.827 199.524 250.742 196.865 250.844 194.223C250.997 190.354 252.821 187.371 256.384 185.905C262.009 183.587 267.821 183.587 273.531 185.632C277.724 187.132 279.633 190.405 279.719 194.735C279.804 199.388 279.736 204.041 279.736 208.695C279.736 214.95 277.059 218.734 270.872 219.586C266.747 220.166 262.367 219.927 258.259 219.194C253.367 218.325 250.878 214.592 250.827 209.632C250.81 207.143 250.827 204.655 250.827 202.166ZM273.872 202.32H273.855C273.855 199.354 273.974 196.388 273.821 193.439C273.702 190.933 272.065 188.871 269.594 188.564C266.781 188.223 263.884 188.189 261.071 188.53C258.668 188.82 256.861 190.541 256.793 193.064C256.605 199.132 256.656 205.217 256.742 211.302C256.776 213.416 258.156 214.865 260.048 215.649C263.44 217.081 266.918 217.098 270.327 215.7C272.508 214.814 273.821 213.177 273.855 210.74C273.906 207.928 273.872 205.132 273.872 202.32ZM133.164 204.041C130.676 204.041 128.187 204.058 125.698 204.041C124.301 204.024 123.738 204.655 123.636 206.07C123.09 214.183 125.409 216.808 133.607 216.535C136.692 216.433 139.727 215.513 142.812 215.069C143.63 214.95 144.516 215.172 145.368 215.24C144.925 216.246 144.738 217.763 143.988 218.138C142.232 219.007 140.204 219.74 138.261 219.774C134.033 219.859 129.738 219.893 125.596 219.194C120.721 218.359 118.045 214.763 117.892 209.768C117.738 204.723 117.704 199.661 117.909 194.615C118.164 188.309 121.625 185.223 129.312 184.371C133.318 183.928 137.34 184.15 141.09 185.922C143.749 187.184 145.454 189.263 145.709 192.212C145.982 195.314 145.999 198.45 146.118 201.57C146.187 203.087 145.232 203.462 143.971 203.53C140.374 203.734 136.761 203.973 133.164 204.195C133.181 204.143 133.181 204.092 133.164 204.041ZM132.141 200.274C134.306 200.274 136.488 200.377 138.636 200.206C139.317 200.155 140.374 199.507 140.545 198.928C142.471 192.28 138.977 187.593 132.107 187.865C126.107 188.104 123.329 189.655 123.687 196.217C123.721 196.933 123.448 197.786 123.755 198.348C124.164 199.098 124.948 200.087 125.647 200.172C127.778 200.428 129.977 200.274 132.141 200.274ZM340.365 214.456C341.098 216.382 340.911 217.78 338.916 218.427C332.252 220.626 325.536 220.984 318.905 218.496C315.428 217.2 313.553 214.439 313.468 210.706C313.366 205.166 313.383 199.644 313.434 194.104C313.468 189.74 315.701 186.757 319.792 185.445C325.11 183.723 330.53 183.638 335.814 185.667C339.615 187.115 341.217 190.303 341.627 194.087C341.865 196.388 341.575 198.74 341.729 201.058C341.831 202.814 341.269 203.513 339.479 203.547C333.632 203.649 327.786 203.905 321.922 204.041C318.888 204.109 318.786 204.178 318.803 207.143C318.803 207.706 318.786 208.268 318.803 208.831C318.922 213.638 321.377 216.535 326.184 216.484C330.206 216.45 334.246 215.564 338.269 215.035C338.95 214.916 339.615 214.66 340.365 214.456ZM327.394 200.291C328.434 200.291 329.473 200.291 330.513 200.291C336.82 200.291 337.041 199.933 335.933 193.524C335.507 191.07 334.468 189.076 332.013 188.632C329.559 188.172 326.934 188.053 324.445 188.36C320.797 188.803 319.195 190.78 318.837 194.445C318.718 195.723 318.786 197.002 318.769 198.28C318.752 199.712 319.519 200.291 320.883 200.291C323.064 200.274 325.229 200.274 327.394 200.291ZM207.958 219.876C211.674 219.263 214.981 217.95 216.242 213.91C218.168 207.74 215.97 203.615 209.663 201.757C206.134 200.717 202.487 200.121 198.958 199.081C195.243 197.99 194.118 195.382 195.481 191.752C196.18 189.877 197.424 188.564 199.47 188.394C201.6 188.223 203.765 188.104 205.879 188.291C208.759 188.564 210.157 190.524 210.583 193.269C210.958 195.621 212.697 195.57 214.453 195.348C216.464 195.11 216.242 193.593 216.072 192.229C215.612 188.496 212.953 185.428 209.066 184.985C205.214 184.559 201.243 184.456 197.407 184.899C192.396 185.479 189.993 188.428 189.686 193.183C189.362 198.263 191.084 200.837 196.197 202.354C199.572 203.342 203.066 203.922 206.458 204.842C210.396 205.916 211.47 207.621 211.078 211.712C210.822 214.337 208.657 216.16 205.299 216.501C204.191 216.621 203.049 216.586 201.924 216.569C197.51 216.484 195.822 215.052 194.765 210.774C194.118 208.132 191.919 209.291 190.368 209.308C188.629 209.325 189.038 210.723 189.277 211.831C190.351 216.723 192.805 219.126 197.629 219.842C199.453 220.115 201.311 220.132 202.64 220.234C204.771 220.098 206.39 220.149 207.958 219.876ZM227.151 201.484C227.151 205.251 227.083 209.035 227.168 212.802C227.236 215.479 228.566 217.643 230.901 218.888C234.191 220.643 237.753 220.422 241.213 219.45C241.878 219.263 242.202 217.916 242.679 217.115C241.946 216.91 241.179 216.467 240.481 216.552C234.941 217.2 232.401 215.086 232.367 209.547C232.333 203.359 232.435 197.189 232.316 191.019C232.265 188.922 233.066 188.326 234.975 188.428C236.969 188.53 239.015 188.615 240.975 188.343C241.691 188.24 242.253 187.098 242.884 186.434C242.253 185.871 241.691 184.951 240.975 184.797C239.662 184.525 238.265 184.712 236.901 184.729C231.668 184.797 232.316 184.61 232.367 180.144C232.384 178.746 232.384 177.57 230.458 177.57C228.822 177.57 227.577 177.809 227.56 179.837C227.543 180.706 227.271 181.593 227.288 182.462C227.322 184.098 226.589 184.865 224.969 184.729C223.708 184.627 222.958 185.087 222.924 186.451C222.89 187.865 223.589 188.53 224.986 188.462C226.793 188.377 227.049 189.434 227.032 190.933C226.964 194.462 227.015 197.99 227.015 201.519C227.049 201.484 227.1 201.484 227.151 201.484ZM172.828 193.183C172.828 199.678 172.811 206.189 172.828 212.683C172.845 218.376 176.834 221.427 182.322 219.842C182.953 219.655 183.686 218.717 183.72 218.069C183.754 217.626 182.731 216.706 182.135 216.672C179.732 216.484 178.709 215.189 178.607 212.956C178.555 211.916 178.504 210.876 178.504 209.837C178.504 197.649 178.47 185.445 178.538 173.258C178.555 171.229 177.857 170.241 175.794 170.241C173.766 170.224 172.743 170.957 172.777 173.224C172.896 179.854 172.828 186.519 172.828 193.183ZM155.186 193.064C155.186 199.729 155.118 206.393 155.204 213.041C155.272 218.564 159.669 221.649 164.783 219.808C165.397 219.586 165.908 218.598 166.095 217.882C166.164 217.592 165.277 216.791 164.715 216.672C161.34 215.922 160.965 215.513 160.965 212.035C160.965 199.2 160.965 186.348 160.965 173.513C160.965 170.854 160.402 170.309 158.016 170.241C155.613 170.172 155.101 171.451 155.135 173.581C155.238 180.059 155.169 186.553 155.186 193.064ZM294.309 187.763C294.514 185.684 294.002 184.405 291.514 184.439C288.957 184.49 288.821 185.973 288.821 187.951C288.872 197.649 288.906 207.348 288.804 217.047C288.787 219.28 289.537 219.978 291.718 219.978C293.951 219.995 294.377 218.99 294.36 217.03C294.275 210.212 294.224 203.411 294.36 196.592C294.394 195.331 295.093 193.848 295.963 192.877C298.383 190.149 301.468 188.547 305.201 188.343C306.871 188.257 307.741 187.354 307.451 185.667C307.161 183.928 305.781 184.047 304.639 184.439C301.809 185.445 299.048 186.655 296.252 187.78C295.758 187.985 295.281 188.223 294.718 188.496C294.446 188.053 294.292 187.899 294.309 187.763Z" fill="black"/>
</svg>
