<svg width="252" height="72" viewBox="0 0 252 72" fill="none" xmlns="http://www.w3.org/2000/svg">
<path d="M181.242 15.4588C183.226 14.5089 184.935 13.4554 186.781 12.8682C190.371 11.7283 193.581 12.73 196.17 15.407C197.171 16.426 197.671 16.3742 198.724 15.4761C202.279 12.4537 206.335 11.5729 210.753 13.2654C214.843 14.8371 216.396 18.274 216.62 22.2809C216.862 26.6331 216.724 31.02 216.741 35.3723C216.741 36.9266 216.724 38.4983 216.741 40.0527C216.776 41.7625 215.964 42.5915 214.256 42.5915C212.323 42.5915 210.39 42.5915 208.457 42.5915C206.766 42.5915 205.972 41.8143 205.989 40.07C206.041 35.8213 206.041 31.5899 205.972 27.3413C205.955 26.305 205.731 25.2342 205.385 24.267C204.902 22.9026 203.711 21.9527 202.348 22.3327C201.226 22.6436 200.122 23.5589 199.414 24.5261C198.896 25.2342 198.914 26.4259 198.914 27.4103C198.862 31.469 198.896 35.5277 198.896 39.5864C198.879 42.1597 198.448 42.5915 195.807 42.6261C194.254 42.6433 192.684 42.6433 191.13 42.6261C188.714 42.5915 188.11 42.0388 188.093 39.6554C188.059 35.7868 188.093 31.9181 188.076 28.0494C188.076 27.3585 188.076 26.6677 188.041 25.9941C187.903 23.7662 186.661 22.3327 184.866 22.2636C182.898 22.1945 181.311 23.7316 181.276 26.0287C181.19 30.3291 181.242 34.6469 181.224 38.9473C181.224 42.3497 180.948 42.6261 177.445 42.6261C175.892 42.6261 174.321 42.6261 172.768 42.6088C171.267 42.5742 170.49 41.8316 170.49 40.2772C170.507 31.9699 170.507 23.6798 170.49 15.3725C170.49 13.8008 171.267 13.11 172.803 13.1273C174.667 13.1445 176.548 13.1791 178.411 13.11C180.172 13.0236 181.501 13.3518 181.242 15.4588ZM31.4613 19.3275C35.0682 13.4899 31.3923 5.87345 24.2821 5.26897C17.2236 4.68176 10.0789 4.95809 2.98595 4.87174C1.67435 4.85447 1.13937 5.63166 1.13937 6.92698C1.15662 18.0322 1.15662 29.1547 1.13937 40.2599C1.13937 41.7107 1.82967 42.5915 3.24481 42.557C10.7174 42.3843 18.2073 42.4879 25.6282 41.8143C32.0308 41.2271 35.6204 35.0441 33.9637 28.8438C33.1526 25.856 30.9781 24.2325 28.3722 22.8163C29.5112 21.5382 30.702 20.5538 31.4613 19.3275ZM20.8995 27.7558C22.2456 27.9285 23.2121 28.6366 23.3156 30.1392C23.4192 31.659 22.7461 32.868 21.2447 32.9889C18.4144 33.2307 15.5496 33.2134 12.7021 33.1788C12.3742 33.1788 11.7702 32.3326 11.7529 31.8662C11.6148 27.0995 11.4768 27.6176 15.4978 27.6003C15.9293 27.6003 16.3607 27.6003 16.8094 27.6003C16.8094 27.583 16.8094 27.5658 16.8094 27.5485C18.1728 27.6003 19.5362 27.5831 20.8995 27.7558ZM14.6177 19.4312C11.7011 19.4312 11.7011 19.4139 11.7011 16.5124C11.7011 13.9735 11.891 13.7663 14.5142 13.8181C16.309 13.8526 18.1556 13.8526 19.8641 14.2844C20.6407 14.4744 21.4518 15.5797 21.7279 16.426C22.1076 17.6177 21.4 18.6885 20.1575 18.9994C18.8459 19.3275 17.4652 19.3793 16.1191 19.5693C16.1191 19.5175 16.1019 19.4657 16.1019 19.4139C15.6187 19.4312 15.1182 19.4312 14.6177 19.4312ZM233.602 43.0924C243.145 43.2478 249.721 35.7177 249.686 27.6694C249.634 19.2412 242.507 12.3155 233.74 12.4364C223.782 12.5746 217.535 20.3293 217.863 27.8767C217.863 36.633 224.524 42.9542 233.602 43.0924ZM233.757 22.0218C237.002 22.0563 239.262 24.5606 239.211 28.0494C239.159 31.3999 236.829 33.7488 233.619 33.7142C230.444 33.6797 228.356 31.3136 228.39 27.7558C228.39 24.1289 230.409 21.9873 233.757 22.0218ZM48.2877 30.9682C52.9645 30.9682 57.6414 30.9336 62.3182 30.9682C63.906 30.9854 64.6826 30.3291 64.4927 28.7229C64.3029 27.0476 64.1476 25.3724 63.8369 23.7316C61.9904 13.9735 52.3087 10.4848 44.5772 13.4554C37.5188 16.1669 34.7576 23.0408 35.3098 29.2238C36.0346 37.3757 40.5044 42.3497 47.977 42.9542C52.5849 43.3342 56.9511 42.8851 60.696 39.8282C63.5953 37.462 63.5953 36.8403 60.6788 34.4569C57.8657 32.1599 57.8657 32.1599 54.7076 33.9042C51.3078 35.7695 47.442 34.6296 45.8888 30.9509C46.838 30.9682 47.5628 30.9682 48.2877 30.9682ZM49.3576 20.7092C50.8246 20.4156 52.6884 21.4173 53.5513 22.9544C54.3106 24.3016 54 24.9406 52.464 24.9751C50.3068 25.0269 48.1323 24.9924 45.8025 24.9924C46.2512 22.4881 47.5111 21.0892 49.3576 20.7092ZM122.082 42.7124C128.433 41.6416 131.953 35.0786 129.209 29.362C127.725 26.2705 124.705 25.2342 121.754 24.1807C120.166 23.628 118.544 23.179 116.991 22.5572C116.525 22.3672 116.232 21.7109 115.852 21.2792C116.37 21.0201 116.905 20.5192 117.405 20.571C118.82 20.6919 120.235 20.9165 121.599 21.3137C126.31 22.7126 126.293 22.7472 128.536 18.2567C129.417 16.4606 129.209 15.6143 127.449 14.8371C122.91 12.8509 118.268 11.7974 113.281 13.0582C109.553 14.0081 106.377 17.2377 105.998 20.7265C105.48 25.4587 106.964 28.3602 111.192 30.2255C113.574 31.279 116.145 31.8663 118.579 32.7989C119.2 33.0407 119.597 33.8179 120.097 34.3533C119.476 34.6469 118.803 35.2341 118.216 35.165C116.387 34.9405 114.351 34.8887 112.797 34.0424C107.603 31.2099 108.138 32.7125 105.618 36.5467C104.686 37.9629 104.928 39.0855 106.429 39.9836C110.002 42.0907 113.885 43.0406 118.026 43.1787C119.373 43.006 120.736 42.9369 122.082 42.7124ZM147.002 42.7988C151.973 42.1425 155.321 38.9992 155.838 34.5605C156.373 29.8283 154.181 26.6332 149.021 24.7333C146.916 23.9562 144.759 23.3171 142.671 22.5054C142.256 22.3499 141.997 21.7282 141.67 21.331C142.118 21.0719 142.584 20.5538 142.998 20.5883C144.465 20.7092 145.984 20.8646 147.382 21.3137C152.024 22.7645 152.007 22.799 154.251 18.464C155.234 16.5642 155.01 15.6488 153.008 14.768C148.711 12.8682 144.327 11.8319 139.564 12.9718C135.077 14.0426 132.005 17.255 131.729 21.5555C131.436 26.2014 133.627 29.3101 138.391 30.9163C140.565 31.659 142.774 32.298 144.931 33.0925C145.363 33.2479 145.622 33.8697 145.95 34.2669C145.466 34.5778 144.931 35.1995 144.5 35.1477C142.481 34.8887 140.375 34.716 138.511 34.0079C134.007 32.3153 134.059 32.2117 131.539 36.2876C130.331 38.2565 130.521 38.9819 132.575 40.1736C136.061 42.1943 139.858 43.0406 143.861 43.1442C144.897 43.0233 145.95 42.9369 147.002 42.7988ZM76.4524 5.64893C76.4696 3.95638 75.7448 3.26554 74.1053 3.28281C72.1034 3.31735 70.1188 3.31735 68.1169 3.28281C66.4601 3.26554 65.7871 4.04273 65.8043 5.70074C65.8388 17.1859 65.8388 28.6711 65.8043 40.1563C65.8043 41.8143 66.5809 42.5742 68.1859 42.5742C70.0497 42.5915 71.9308 42.6088 73.7947 42.5742C75.9692 42.5397 76.4179 42.0734 76.4351 39.8972C76.4524 34.2151 76.4351 28.533 76.4351 22.8508C76.4351 17.1341 76.4179 11.3829 76.4524 5.64893ZM79.6796 39.4827C79.6796 42.2116 80.0593 42.5742 82.855 42.6088C84.2874 42.6261 85.7198 42.6261 87.1522 42.6088C89.8617 42.5915 90.3449 42.1252 90.3449 39.4655C90.3622 33.1616 90.3449 26.8577 90.3449 20.5538C90.3449 15.6834 90.3622 10.8129 90.3449 5.95981C90.3277 3.80094 89.8444 3.33462 87.6872 3.30008C85.9442 3.28281 84.2011 3.28281 82.4581 3.30008C80.0247 3.33462 79.6968 3.66277 79.6968 6.16706C79.6796 11.7283 79.6968 17.2723 79.6968 22.8335C79.6796 28.3775 79.6623 33.9215 79.6796 39.4827ZM93.3305 39.9836C93.3132 41.538 93.9 42.5397 95.5568 42.5742C97.6795 42.6088 99.7849 42.6088 101.908 42.5742C103.323 42.557 104.065 41.8143 104.065 40.3463C104.048 32.0044 104.065 23.6453 104.065 15.3034C104.065 13.8354 103.357 13.11 101.908 13.11C99.9748 13.11 98.0419 13.0927 96.1263 13.11C93.9173 13.1273 93.365 13.6627 93.365 15.8906C93.3478 19.8111 93.365 23.7489 93.365 27.6694C93.3305 31.7626 93.365 35.8731 93.3305 39.9836ZM167.884 15.5106C167.901 13.8699 167.246 13.0582 165.572 13.0927C163.587 13.1273 161.585 13.11 159.6 13.0927C157.978 13.0927 157.219 13.8526 157.236 15.5106C157.253 23.7316 157.253 31.9699 157.236 40.1909C157.236 41.8661 158.082 42.5742 159.652 42.5915C161.395 42.6088 163.138 42.6088 164.881 42.5915C167.332 42.5742 167.867 42.0388 167.867 39.6209C167.884 35.7004 167.867 31.7626 167.867 27.8421C167.867 23.7489 167.832 19.6211 167.884 15.5106ZM73.5703 69.4651C71.4994 64.1802 69.2904 58.9471 67.1849 53.6795C66.5982 52.2114 65.4074 52.3669 64.2339 52.3323C63.0086 52.2978 61.8178 52.2978 61.2655 53.6967C59.1428 58.9644 56.9856 64.2148 54.9147 69.4824C54.7593 69.8796 54.8974 70.6741 55.208 70.9504C56.1227 71.7449 59.1773 71.1404 59.488 70.0178C60.092 67.8244 61.6107 67.7208 63.4055 67.8244C64.4582 67.8935 65.5627 67.6517 66.5637 67.8935C67.3403 68.0834 68.393 68.6707 68.6173 69.3097C69.1523 70.8813 70.067 71.3822 71.6202 71.1922C72.5349 70.9504 74.4332 71.6413 73.5703 69.4651ZM62.0594 63.5585C62.7497 61.745 63.3365 60.1906 63.9405 58.6362C64.1131 58.619 64.3029 58.5844 64.4755 58.5671C65.0795 60.1388 65.6835 61.7277 66.3911 63.5585C64.8551 63.5585 63.6644 63.5585 62.0594 63.5585ZM0.000349437 69.2061C-0.0169084 70.6396 0.604374 71.2095 2.01951 71.1922C4.28029 71.175 4.57367 70.9504 4.59092 68.6361C4.59092 68.0144 4.60818 67.3926 4.59092 66.7709C4.55641 65.6828 5.02237 65.1819 6.14413 65.1819C7.38669 65.1647 8.62925 65.0783 9.87181 64.9229C13.0127 64.5256 15.0319 62.4013 15.1527 59.3962C15.308 55.3893 13.8584 53.1095 10.3033 52.6432C7.4212 52.2633 4.47012 52.4014 1.55355 52.3669C0.31099 52.3496 0.0176083 53.1786 0.0176083 54.2494C0.0348661 56.7364 0.0176083 59.2407 0.0176083 61.7277C0.0176083 64.232 0.0521228 66.719 0.000349437 69.2061ZM6.69637 56.4946C9.31956 56.6155 10.5103 57.22 10.4931 58.7917C10.4758 60.3115 9.21601 61.0024 6.42025 61.0196C4.74625 61.0369 4.60818 60.8642 4.60818 58.5844C4.34932 57.1855 4.8843 56.4083 6.69637 56.4946ZM48.3567 63.1958C50.0652 60.8987 51.8773 58.6708 53.4132 56.2528C53.931 55.4238 53.9655 54.094 53.7411 53.0923C53.6548 52.695 52.2915 52.3842 51.4804 52.3669C48.3739 52.2805 45.2503 52.3669 42.1439 52.3151C40.5907 52.2805 39.676 52.6432 39.7105 54.4739C39.7278 56.2356 40.6252 56.5637 42.0749 56.5119C43.7143 56.4601 45.3366 56.4946 47.4593 56.4946C46.6482 57.7381 46.1995 58.4635 45.699 59.1544C43.9387 61.5723 42.0921 63.9212 40.4009 66.3909C39.8659 67.1681 39.607 68.1871 39.4517 69.137C39.2273 70.5014 39.8486 71.2095 41.35 71.1922C44.9569 71.1404 48.581 71.1231 52.1879 71.1922C53.8619 71.2268 54.3279 70.4841 54.3106 68.9297C54.3106 67.4099 53.7756 66.7709 52.2224 66.8399C50.2033 66.909 48.1669 66.8572 45.6472 66.8572C46.769 65.3546 47.5628 64.2838 48.3567 63.1958ZM32.5658 63.2476C34.2398 61.0024 36.0346 58.8262 37.5361 56.4601C38.1056 55.5793 38.2091 54.2149 38.0365 53.1441C37.9675 52.7468 36.4833 52.4014 35.6377 52.3841C32.5313 52.2978 29.4076 52.3841 26.284 52.3323C24.7653 52.3151 23.9714 52.7296 23.9714 54.4394C23.9714 56.1665 24.7998 56.581 26.3012 56.5292C27.9407 56.4774 29.5802 56.5119 31.7374 56.5119C31.0644 57.5482 30.7365 58.1181 30.3396 58.6362C28.4239 61.2442 26.4393 63.8175 24.61 66.4945C24.075 67.2717 23.8334 68.308 23.6953 69.2579C23.5055 70.5532 24.1613 71.2095 25.5419 71.1922C29.2178 71.1577 32.8937 71.1404 36.5696 71.1922C38.1919 71.2268 38.537 70.3805 38.5715 68.9643C38.606 67.479 38.1056 66.7709 36.5351 66.8227C34.4987 66.909 32.4623 66.8399 29.8909 66.8399C31.0126 65.3374 31.7892 64.2838 32.5658 63.2476ZM98.6459 0.0185967C95.6603 0.0531387 93.0716 2.62651 92.9854 5.64893C92.8991 8.7577 95.6776 11.5901 98.7667 11.5556C101.804 11.5211 104.514 8.82679 104.531 5.80437C104.565 2.71287 101.787 -0.0159452 98.6459 0.0185967ZM162.465 11.5556C165.623 11.5556 168.385 8.82679 168.367 5.73529C168.35 2.66106 165.727 0.0704086 162.586 0.00132472C159.549 -0.0677591 156.891 2.5747 156.874 5.70074C156.856 8.80952 159.48 11.5556 162.465 11.5556ZM21.7969 54.2667C21.8315 52.436 20.6752 52.3323 19.3118 52.3323C17.9312 52.3323 16.8612 52.4705 16.8785 54.3012C16.9302 59.2925 16.9302 64.2838 16.8785 69.2751C16.8612 71.1231 17.9657 71.2095 19.3463 71.2095C20.7442 71.2095 21.8487 71.0541 21.7969 69.2579C21.7452 66.8227 21.7797 64.3875 21.7797 61.9523C21.7969 59.3789 21.7452 56.8228 21.7969 54.2667ZM249.738 11.3829C248.167 11.3656 247.132 12.3501 247.115 13.8872C247.097 15.4761 248.029 16.4778 249.6 16.5124C251.308 16.5469 251.981 15.8733 251.999 14.0253C252.033 12.1255 251.395 11.3829 249.738 11.3829Z" fill="black"/>
</svg>
