<svg width="429" height="429" viewBox="0 0 429 429" fill="none" xmlns="http://www.w3.org/2000/svg">
<path fill-rule="evenodd" clip-rule="evenodd" d="M297.32 79.5354C297.701 81.9664 298.109 84.3555 298.296 86.8003C299.71 108.555 295.758 130.75 289.572 152.596C282.824 176.479 272.338 200.005 258.904 222.344C240.098 253.653 216.164 283.202 187.305 307.288C174.58 317.901 160.63 326.997 146.493 335.44C146.033 335.766 145.378 335.686 145.035 335.316C144.682 334.913 144.8 334.357 145.259 334.031C157.915 324.278 169.476 313.326 181.174 302.165C207.454 277.079 231.617 249.158 250.187 218.68C263.44 196.948 274.207 174.264 281.881 151.13C288.909 129.88 292.533 108.329 294.726 86.8928C294.973 84.444 295.432 82.047 295.688 79.6309C295.695 79.243 296.035 78.9117 296.505 78.8984C296.966 78.8524 297.327 79.1474 297.32 79.5354Z" fill="black"/>
<path fill-rule="evenodd" clip-rule="evenodd" d="M148.325 332.108C161.623 329.679 178.938 325.346 183.842 324.291L201.495 320.551C208.17 319.419 213.773 319.116 213.629 322.7C215.052 326.683 205.801 327.557 203.669 328.361L186.322 332.844C180.671 334.258 152.462 341.604 140.656 343.811C134.494 344.96 130.491 343.24 129.909 342.743C128.59 341.503 127.331 338.935 128.877 335.47C130.738 331.254 139.17 322.026 140.098 320.734C145.52 313.768 150.416 306.61 155.3 299.419C162.748 288.515 169.977 277.664 176.531 266.268C177.029 265.224 178.403 264.747 179.586 265.168C180.77 265.589 181.328 266.766 180.83 267.81C177.741 276.018 174.695 284.109 170.857 292.038C165.076 303.919 157.963 315.274 150.323 326.438C149.974 326.949 149.047 329.766 148.325 332.108Z" fill="black"/>
</svg>
