<svg width="367" height="343" viewBox="0 0 367 343" fill="none" xmlns="http://www.w3.org/2000/svg">
<path fill-rule="evenodd" clip-rule="evenodd" d="M227.249 165.38C227.308 169.947 227.05 174.533 226.586 179.149C222.886 213.629 204.336 249.269 168.147 273.404C156.583 281.126 144.415 287.401 131.573 291.803C118.797 296.234 105.414 298.822 91.6659 300.145C90.5265 300.281 89.4812 299.47 89.3355 298.341C89.1898 297.211 89.9924 296.139 91.1782 295.984C104.439 294.014 117.167 290.51 129.457 285.828C141.654 281.185 153.481 275.393 164.535 267.884C198.656 244.784 216.022 210.998 219.381 178.304C219.734 174.983 219.927 171.671 219.961 168.369C214.16 170.623 208.25 172.355 202.297 173.595C165 181.414 127.323 169.323 112.573 132.462C103.362 109.895 111.433 92.1238 126.426 82.4581C140.667 73.3337 161.493 71.7741 179.742 80.7016C208.154 94.5651 225.028 124.928 227.08 158.989C248.36 148.624 267.106 131.154 277.587 107.955C285.711 90.0492 286.977 71.6073 284.002 54.5974C281.727 41.6034 276.613 29.6253 270.625 18.8064C267.825 13.7975 265.152 8.9621 261.891 4.54246C261.591 4.2144 261.615 3.75116 261.971 3.43229C262.281 3.13276 262.778 3.15165 263.079 3.4797C267.23 7.30011 271.278 11.3907 274.7 16.1965C282.239 26.8212 287.232 39.8133 289.836 53.4635C293.254 71.5352 291.584 91.2229 282.97 110.298C271.442 135.805 250.615 154.54 227.249 165.38ZM219.8 162.257C213.669 164.762 207.342 166.669 201.025 167.948C166.759 174.953 131.966 164.039 118.698 130.072C111.551 111.405 118.163 96.9078 130.588 89.1653C142.901 81.4132 160.679 80.1071 176.348 87.675C203.244 100.642 218.546 129.847 219.8 162.257Z" fill="black"/>
<path fill-rule="evenodd" clip-rule="evenodd" d="M90.842 298.959C97.9679 300.006 108.736 301.572 109.884 301.716L130.327 304.965L163.276 312.115C164.039 312.25 164.547 312.945 164.418 313.678C164.29 314.412 163.584 314.934 162.821 314.8L129.429 311.406L108.88 309.335C107.507 309.172 92.0494 307.184 85.8458 306.261C82.1369 305.714 80.2955 303.649 80.2753 303.601C79.7249 302.414 79.4679 300.367 81.1194 298.203C83.2577 295.382 90.8906 290.096 91.6231 289.506L127.29 260.998C139.632 251.364 142.903 247.219 145.472 250.114C146.032 250.674 146.149 251.475 145.432 253.532C145.197 254.14 144.603 254.672 144.003 255.319C140.215 259.396 132.385 264.992 131.389 265.862L96.4975 295.575C96.2078 295.923 93.3254 297.354 90.842 298.959Z" fill="black"/>
</svg>
