<svg width="387" height="387" viewBox="0 0 387 387" fill="none" xmlns="http://www.w3.org/2000/svg">
<path fill-rule="evenodd" clip-rule="evenodd" d="M300.206 97.673C299.944 99.9345 299.72 102.165 299.268 104.392C295.004 124.153 285.442 143.024 273.812 161.047C261.113 180.755 244.895 199.251 226.137 215.981C199.868 239.434 169.102 260.089 134.993 274.689C119.955 281.12 104.126 285.905 88.2851 290.06C87.7566 290.241 87.1444 290.013 86.9088 289.6C86.6725 289.157 86.9296 288.688 87.4581 288.507C102.207 282.827 116.208 275.815 130.397 268.649C162.274 252.539 192.84 233.392 218.666 210.624C237.091 194.393 253.362 176.716 266.763 157.899C279.052 140.608 288.129 122.234 295.796 103.621C296.668 101.494 297.732 99.4636 298.604 97.3678C298.712 97.0233 299.126 96.8087 299.584 96.9094C300.041 96.9786 300.313 97.3284 300.206 97.673Z" fill="black"/>
</svg>
