<svg width="28" height="28" viewBox="0 0 28 28" fill="none" xmlns="http://www.w3.org/2000/svg">
<ellipse cx="13.9138" cy="14" rx="12.5354" ry="12.5354" fill="#8DE358"/>
<path fill-rule="evenodd" clip-rule="evenodd" d="M25.3795 5.39138C26.2322 6.25533 26.223 7.64692 25.3591 8.49959L16.1389 17.5994L15.4719 18.2664C15.46 18.2783 15.448 18.2901 15.4359 18.3017C15.378 18.3787 15.3145 18.4527 15.2451 18.5233C14.3945 19.3892 13.0029 19.4016 12.137 18.5509L12.0611 18.4764C11.9789 18.4121 11.8997 18.3421 11.824 18.2664L10.8399 17.2823C10.8191 17.2614 10.7991 17.24 10.7801 17.218L7.51799 14.0134C6.65206 13.1627 6.63967 11.7712 7.49033 10.9052C8.34098 10.0393 9.73255 10.0269 10.5985 10.8776L13.6522 13.8775L22.2713 5.37096C23.1352 4.5183 24.5268 4.52744 25.3795 5.39138Z" fill="white"/>
</svg>
