<svg width="300" height="105" viewBox="0 0 300 105" fill="none" xmlns="http://www.w3.org/2000/svg">
<path fill-rule="evenodd" clip-rule="evenodd" d="M115.203 91.2609C104.04 83.6858 88.8906 82.3565 64.4586 89.4968C38.4119 95.945 29.7275 100.078 18.3227 91.7811C13.9415 87.705 12.3707 81.1424 13.5437 71.6888C16.2641 56.2787 23.6165 41.4489 36.6762 24.9991C43.9655 16.4418 50.7276 9.098 59.6556 6.14948C66.4986 4.29947 65.8589 9.96454 65.031 10.7748C64.1573 10.7748 62.6898 10.9196 61.5551 11.6995C60.6348 12.4517 58.1076 14.88 57.972 18.1471C57.7758 23.1485 62.6886 22.1075 64.8078 19.3612C67.092 16.2674 70.4682 10.3419 67.8126 4.81901C66.6996 2.85333 64.7766 1.49505 62.3886 1.03239C54.213 0.540025 46.599 4.64583 39.5718 9.18459C24.2034 20.4307 11.9099 36.0139 4.95355 53.0717C0.943146 63.3634 -2.68385 78.106 2.75275 90.1049C6.95875 98.4309 15.6899 102.853 26.1066 101.929C33.4128 101.12 42.2478 98.6325 48.1896 97.1301C54.132 95.6258 84.5471 84.6123 94.5408 103.781C94.5408 103.781 97.8642 96.9854 106.169 96.8406C112.997 96.177 122.848 98.9226 130.021 104.473C127.631 100.687 120.856 95.1063 115.203 91.2609ZM67.56 26.9358C61.8708 23.0038 50.4372 30.5208 41.2794 43.414C32.9046 54.9799 29.2889 68.4211 33.2243 74.6373C39.0779 81.9514 49.9458 71.3127 54.5676 65.6179L55.164 64.9524C58.3068 61.3965 60.7344 57.1175 63.0846 53.0117C63.0846 53.0117 65.2446 49.2535 65.3477 49.0797C66.6828 48.8205 68.2908 48.4154 70.1028 47.8661C70.077 47.9521 63.1703 60.1817 63.8747 66.2513C64.0944 68.1032 63.927 74.868 70.197 76.9203C78.5532 78.3961 85.2258 71.5719 91.113 65.501C91.113 65.501 92.1162 64.4897 92.6832 63.9127C92.5398 64.5182 92.3526 65.3259 92.3526 65.3259C89.9058 74.2884 93.204 76.1694 95.2668 76.8628C101.501 78.7722 108.949 69.2314 108.973 69.2314C108.78 72.2368 108.215 74.7226 111.223 76.718C114.061 77.7881 116.934 76.1561 119.118 74.624C126.984 68.7845 133.321 59.6444 138.439 51.7438H135.174C135.135 51.7438 127.118 63.9853 121.912 66.6457C121.904 66.6457 120.956 67.1582 120.41 66.7525C119.734 66.1457 120.001 64.8829 120.418 63.9885C120.445 63.9304 140.52 27.2518 140.52 27.2518H131.041C131.041 27.2518 130.006 29.0165 129.922 29.1321C129.858 29.0746 129.706 28.7712 129.601 28.6259C123.728 20.0685 110.43 33.231 100.418 48.495C96.5628 54.3643 91.6554 60.973 86.5668 65.7431C86.5668 65.7431 79.0278 73.0224 75.807 67.7922C74.6292 65.5952 74.9916 62.3818 75.6558 60.272C79.4058 49.026 85.8684 38.819 93.2226 32.6609C95.298 30.9562 97.5552 30.4632 98.6742 31.1863C99.7416 31.8525 99.9138 33.499 99.2388 34.6266C97.5258 34.569 96.1536 35.1177 95.0382 36.3318C92.841 38.7602 92.0772 41.1026 92.7762 43.3002C96.1698 48.3882 102.939 38.3272 102.612 32.1982C102.495 30.0006 101.382 27.9192 99.7212 26.9067C97.2456 25.3461 93.4692 25.75 91.0254 26.9945C87.7536 28.2947 82.575 32.8334 79.5522 36.3609C75.747 40.7846 69.2202 45.6988 67.179 45.1489C67.8462 43.2692 73.359 31.3873 67.56 26.9358ZM113.258 44.5131C115.102 41.825 120.468 34.6259 121.777 33.4118C126.177 29.3344 127.936 31.1281 128.088 32.3998C123.981 40.1475 119.134 49.0234 114.577 57.0031C114.587 56.9746 113.151 59.2867 113.151 59.2867C111.139 62.5234 109.112 65.2994 105.806 67.236C105.335 67.3814 104.558 67.4395 104.041 67.0331C103.418 66.5995 103.173 65.8764 103.243 65.1249C103.441 62.6391 105.844 55.0374 113.258 44.5131ZM61.6932 49.1675C61.6932 49.1675 61.6104 49.4286 61.5696 49.5139C61.5594 49.5139 57.4368 56.596 57.4368 56.596C54.9492 60.0951 51.843 64.4903 47.9604 66.6001C46.8096 67.0047 45.2184 67.2657 44.4078 66.1963C42.6888 64.0277 43.575 61.021 44.2943 58.5927L44.5494 57.7255C46.6128 51.8285 49.8858 46.6235 53.073 41.7953C53.1126 41.7668 53.202 41.7384 53.2338 41.7384L53.2596 41.825C55.2594 45.872 59.0088 47.7498 61.8125 48.6189C61.8293 48.6189 61.848 48.6474 61.848 48.7055C61.848 48.7921 61.8024 48.9084 61.6932 49.1675ZM65.5985 40.8131C65.5799 40.8712 63.7626 45.2653 63.7626 45.2653C63.4998 45.4966 63.084 45.3809 62.6075 45.2653L61.7915 45.1199C59.2295 44.2824 57.297 42.4893 56.7006 40.3504C55.8792 36.1871 59.2554 32.92 60.7428 31.7356C62.1696 30.6939 64.389 30.1447 65.6772 31.2147C66.4716 32.1982 66.7728 33.4699 66.7728 34.8585C66.7734 36.7363 66.2225 38.8468 65.5985 40.8131ZM185.426 54.2265C184.512 52.1458 182.342 50.8153 180.03 50.96C172.522 51.6831 165.177 58.1875 161.321 67.5248C159.297 72.3246 158.193 76.2851 157.469 82.5872C159.804 79.755 164.566 75.1006 169.971 72.556C169.971 72.556 170.706 66.5142 174.456 61.1367C175.875 58.91 178.715 55.325 181.903 56.2787C184.69 57.2622 183.71 65.3866 180.007 73.2481C177.268 79.0313 173.075 84.8146 168.833 88.8035C165.083 92.1571 159.534 96.2042 154.679 93.0825C151.621 91.1749 150.062 87.1842 150.391 82.0386C151.852 67.4395 158.161 55.0077 167.189 40.8415C176.498 27.6873 186.76 14.1866 200.583 6.98695C203.403 5.4833 206.014 5.13694 208.271 6.06163C208.271 6.06163 195.295 13.5786 189.109 27.485C187.535 31.0125 185.347 35.7813 187.551 40.0028C188.702 42.1998 190.747 42.3736 192.394 42.2573C199.976 40.4067 204.874 32.9485 208.877 26.1261C211.197 20.9509 213.26 15.8047 213.26 10.0808C213.26 9.38684 213.226 8.46215 213.17 7.76753C216.792 5.74496 224.221 9.32869 224.221 9.32869C230.026 11.3532 242.385 21.3282 246.554 23.2351C248.588 20.7492 251.93 16.9911 253.812 15.112L251.087 13.3479C246.727 10.5435 242.116 7.88319 237.58 5.2526C227.275 -0.672885 218.887 1.40783 214.618 3.02715C212.94 3.66299 211.407 4.21224 211.407 4.21224C208.239 0.56973 203.043 0.916092 199.215 1.89956C185.447 6.06225 172.664 16.2092 158.96 33.8163C148.885 47.607 142.635 59.5186 139.304 71.2843C136.736 79.2058 135.956 90.8564 142.223 97.7666C147.551 103.634 154.616 102.362 159.605 100.253C170.416 94.6443 180.131 82.5594 184.973 68.653C186.141 64.5194 187.438 58.6793 185.426 54.2265ZM210.284 10.6592C208.853 27.9477 196.096 38.0965 192.939 38.9043C191.026 39.3088 187.762 38.4132 190.676 31.1579C194.967 21.3851 202.293 13.0881 210.153 8.83822C210.345 9.56129 210.34 10.0227 210.284 10.6592ZM285.958 12.8555C279.096 16.9613 271.982 19.6204 263.371 18.6957C260.986 21.5298 258.661 24.4493 256.52 27.4559C268.606 30.6939 281.419 23.4949 288.565 16.6441C296.124 9.73384 300 1.03302 300 1.03302C300 1.03302 294.334 7.85475 285.958 12.8555ZM156.273 27.2524H147.272L142.194 35.9431H151.194L156.273 27.2524ZM263.335 92.0655C262.367 92.7595 261.008 92.226 261.516 90.6364C262.783 86.5888 267.817 78.3405 267.817 78.3405L281.841 52.1394H272.236C271.778 52.9295 270.802 54.7435 270.802 54.7435C270.358 53.9642 269.029 52.2305 268.482 51.855C266.135 50.2932 262.693 51.0315 260.317 52.4479C249.99 58.8088 242.455 71.3772 236.512 81.1784C236.512 81.1784 230.257 92.0731 226.785 92.8834C224.074 93.1147 224.354 89.268 224.471 88.3718C225.52 81.8945 227.953 75.7371 230.405 70.1573C235.394 66.5148 241.086 61.7447 246.259 56.5126C257.486 45.2071 266.95 32.3998 268.334 29.5379C268.334 29.5379 266.836 29.8565 265.069 29.9133C256.432 42.6049 238.757 61.0507 233.398 63.797C235.772 57.7818 251.109 29.0752 264.16 15.3427L266.213 13.2607C269.389 9.99362 272.68 6.63995 275.244 6.0907C275.515 6.06163 275.863 6.0907 276.164 6.75688C276.279 9.30026 275.38 11.18 274.349 13.3188L272.903 16.4418C272.903 16.4418 274.951 16.0367 276.295 15.5734C277.855 12.4814 279.583 9.01078 278.946 4.87779C278.734 3.54733 277.819 2.53604 276.625 2.30408C272.732 1.52349 268.489 4.5586 265.075 7.01665L264.937 7.10261C247.387 21.5873 232.567 42.4608 219.61 70.9664C218.671 71.7172 215.042 72.6141 214.426 72.1799C215.705 69.4052 217.316 65.6748 218.122 61.6278C218.262 60.4705 218.392 59.286 218.392 58.13C218.392 55.6416 217.825 53.3005 215.709 51.6825C213.228 50.3817 210.161 50.9891 208.094 51.9713C198.832 56.0183 191.91 66.0225 186.915 74.2606C184.228 79.4946 181.55 85.1009 180.808 91.52C180.286 96.5499 181.349 99.7879 184.064 101.407C186.856 102.91 190.369 101.348 191.75 100.597C201.133 95.3932 207.689 84.9568 212.856 75.416C213.062 75.3876 215.883 75.3016 218.018 74.7226L218.105 74.7523C217.983 75.1847 216.88 78.6553 216.88 78.6553C213.605 88.7725 212.09 95.6543 215.184 99.7297C219.605 105.483 226.924 99.5288 232.878 91.6635C231.6 101.088 236.236 102.563 239.771 101.841C243.832 100.685 248.356 96.1163 250.456 93.7752C249.781 96.5215 249.964 101.437 253.658 101.927C256.189 102.42 258.084 100.97 260.276 99.7266C268.139 95.2163 277.552 80.1861 279.996 75.8407H276.791C273.317 81.3725 268.897 88.624 263.335 92.0655ZM192.754 91.0593C192.255 90.2781 192.089 89.4248 192.073 88.502C191.977 82.8331 197.767 72.6811 201.854 67.1507H201.862C203.575 71.101 207.453 73.6406 209.794 74.7106C206.887 81.5342 196.914 96.1473 192.754 91.0593ZM211.435 71.6603C211.159 71.8639 206.268 70.1283 205.323 65.3582C204.521 61.2517 207.206 58.0428 209.803 56.4254C210.918 55.4994 212.597 55.1828 213.829 55.6435C214.972 56.4545 215.282 57.9006 215.282 59.4592C215.282 60.4155 215.162 61.3971 215.056 62.2933L215.032 62.4962C214.213 65.7014 213.004 68.7814 211.435 71.6603ZM250.66 89.2377C250.655 89.2377 249.731 90.1049 249.731 90.1049C248.412 91.3481 247.054 92.6773 245.416 92.0124C244.963 91.8392 244.645 91.2034 244.568 90.7104C244.493 87.1545 246.013 83.8596 247.488 80.6507L247.866 79.8119C252.106 72.3537 257.035 63.565 264.274 57.4657C265.495 56.5385 266.818 55.7592 268.216 56.3672C268.537 56.6845 268.911 57.2338 268.911 57.783C268.911 57.9568 268.764 58.4189 268.679 58.5636C266.657 62.0051 264.733 65.6179 262.86 69.0873C259.201 75.9393 255.404 83.0208 250.66 89.2377Z" fill="black"/>
</svg>
