<svg width="833" height="833" viewBox="0 0 833 833" fill="none" xmlns="http://www.w3.org/2000/svg">
<circle cx="416.5" cy="416.5" r="416.5" fill="#A597F9"/>
<path fill-rule="evenodd" clip-rule="evenodd" d="M382.203 429.261C371.04 421.686 355.891 420.357 331.459 427.497C305.412 433.945 296.728 438.078 285.323 429.781C280.942 425.705 279.371 419.142 280.544 409.689C283.264 394.279 290.617 379.449 303.676 362.999C310.966 354.442 317.728 347.098 326.656 344.149C333.499 342.299 332.859 347.965 332.031 348.775C331.157 348.775 329.69 348.92 328.555 349.7C327.635 350.452 325.108 352.88 324.972 356.147C324.776 361.149 329.689 360.108 331.808 357.361C334.092 354.267 337.468 348.342 334.813 342.819C333.7 340.853 331.777 339.495 329.389 339.032C321.213 338.54 313.599 342.646 306.572 347.185C291.203 358.431 278.91 374.014 271.954 391.072C267.943 401.363 264.316 416.106 269.753 428.105C273.959 436.431 282.69 440.853 293.107 439.929C300.413 439.12 309.248 436.632 315.19 435.13C321.132 433.626 351.547 422.612 361.541 441.781C361.541 441.781 364.864 434.985 373.169 434.841C379.997 434.177 389.848 436.923 397.021 442.473C394.631 438.687 387.856 433.106 382.203 429.261ZM334.56 364.936C328.871 361.004 317.437 368.521 308.279 381.414C299.905 392.98 296.289 406.421 300.224 412.637C306.078 419.951 316.946 409.313 321.568 403.618L322.164 402.952C325.307 399.396 327.734 395.117 330.085 391.012C330.085 391.012 332.245 387.253 332.348 387.08C333.683 386.821 335.291 386.415 337.103 385.866C337.077 385.952 330.17 398.182 330.875 404.251C331.094 406.103 330.927 412.868 337.197 414.92C345.553 416.396 352.226 409.572 358.113 403.501C358.113 403.501 359.116 402.49 359.683 401.913C359.54 402.518 359.353 403.326 359.353 403.326C356.906 412.288 360.204 414.169 362.267 414.863C368.501 416.772 375.949 407.231 375.973 407.231C375.78 410.237 375.215 412.723 378.223 414.718C381.061 415.788 383.934 414.156 386.118 412.624C393.984 406.785 400.321 397.644 405.439 389.744H402.174C402.135 389.744 394.118 401.985 388.912 404.646C388.904 404.646 387.956 405.158 387.41 404.752C386.734 404.146 387.001 402.883 387.418 401.989C387.445 401.93 407.52 365.252 407.52 365.252H398.041C398.041 365.252 397.006 367.016 396.922 367.132C396.858 367.075 396.706 366.771 396.601 366.626C390.728 358.069 377.43 371.231 367.418 386.495C363.563 392.364 358.655 398.973 353.567 403.743C353.567 403.743 346.028 411.022 342.807 405.792C341.629 403.595 341.992 400.382 342.656 398.272C346.406 387.026 352.868 376.819 360.223 370.661C362.298 368.956 364.555 368.463 365.674 369.186C366.742 369.852 366.914 371.499 366.239 372.627C364.526 372.569 363.154 373.118 362.038 374.332C359.841 376.76 359.077 379.103 359.776 381.3C363.17 386.388 369.939 376.327 369.612 370.198C369.495 368.001 368.382 365.919 366.721 364.907C364.246 363.346 360.469 363.75 358.025 364.995C354.754 366.295 349.575 370.833 346.552 374.361C342.747 378.785 336.22 383.699 334.179 383.149C334.846 381.269 340.359 369.387 334.56 364.936ZM380.258 382.513C382.102 379.825 387.468 372.626 388.777 371.412C393.177 367.334 394.936 369.128 395.088 370.4C390.981 378.148 386.134 387.023 381.577 395.003C381.587 394.975 380.151 397.287 380.151 397.287C378.139 400.523 376.112 403.299 372.806 405.236C372.335 405.381 371.558 405.44 371.041 405.033C370.418 404.6 370.173 403.876 370.243 403.125C370.441 400.639 372.844 393.037 380.258 382.513ZM328.693 387.168C328.693 387.168 328.61 387.429 328.57 387.514C328.559 387.514 324.437 394.596 324.437 394.596C321.949 398.095 318.843 402.49 314.96 404.6C313.81 405.005 312.218 405.266 311.408 404.196C309.689 402.028 310.575 399.021 311.294 396.593L311.549 395.726C313.613 389.828 316.886 384.624 320.073 379.795C320.113 379.767 320.202 379.738 320.234 379.738L320.26 379.825C322.259 383.872 326.009 385.75 328.813 386.619C328.829 386.619 328.848 386.647 328.848 386.706C328.848 386.792 328.802 386.908 328.693 387.168ZM332.599 378.813C332.58 378.871 330.763 383.265 330.763 383.265C330.5 383.497 330.084 383.381 329.608 383.265L328.792 383.12C326.23 382.282 324.297 380.489 323.701 378.35C322.879 374.187 326.255 370.92 327.743 369.736C329.17 368.694 331.389 368.145 332.677 369.215C333.472 370.198 333.773 371.47 333.773 372.859C333.773 374.736 333.223 376.847 332.599 378.813ZM452.426 392.226C451.512 390.146 449.342 388.815 447.03 388.96C439.522 389.683 432.177 396.188 428.321 405.525C426.297 410.325 425.193 414.285 424.469 420.587C426.804 417.755 431.566 413.101 436.971 410.556C436.971 410.556 437.706 404.514 441.456 399.137C442.875 396.91 445.715 393.325 448.903 394.279C451.69 395.262 450.71 403.387 447.007 411.248C444.268 417.031 440.075 422.815 435.833 426.803C432.083 430.157 426.534 434.204 421.679 431.082C418.621 429.175 417.062 425.184 417.391 420.039C418.852 405.44 425.161 393.008 434.189 378.842C443.498 365.687 453.76 352.187 467.583 344.987C470.403 343.483 473.014 343.137 475.271 344.062C475.271 344.062 462.295 351.579 456.109 365.485C454.535 369.012 452.347 373.781 454.551 378.003C455.702 380.2 457.747 380.374 459.394 380.257C466.976 378.407 471.874 370.948 475.877 364.126C478.197 358.951 480.26 353.805 480.26 348.081C480.26 347.387 480.226 346.462 480.17 345.768C483.792 343.745 491.221 347.329 491.221 347.329C497.026 349.353 509.385 359.328 513.554 361.235C515.588 358.749 518.93 354.991 520.812 353.112L518.087 351.348C513.727 348.544 509.116 345.883 504.58 343.253C494.275 337.327 485.887 339.408 481.618 341.027C479.94 341.663 478.407 342.212 478.407 342.212C475.239 338.57 470.043 338.916 466.215 339.9C452.447 344.062 439.664 354.209 425.96 371.816C415.885 385.607 409.635 397.519 406.304 409.284C403.736 417.206 402.956 428.856 409.223 435.767C414.551 441.634 421.616 440.362 426.605 438.253C437.416 432.644 447.131 420.559 451.973 406.653C453.141 402.519 454.438 396.679 452.426 392.226ZM477.284 348.659C475.853 365.948 463.096 376.097 459.939 376.904C458.026 377.309 454.762 376.413 457.676 369.158C461.967 359.385 469.293 351.088 477.153 346.838C477.345 347.561 477.34 348.023 477.284 348.659ZM552.958 350.856C546.096 354.961 538.982 357.62 530.371 356.696C527.986 359.53 525.661 362.449 523.52 365.456C535.606 368.694 548.419 361.495 555.565 354.644C563.124 347.734 567 339.033 567 339.033C567 339.033 561.334 345.855 552.958 350.856ZM423.273 365.252H414.272L409.194 373.943H418.194L423.273 365.252ZM530.335 430.065C529.367 430.759 528.008 430.226 528.516 428.636C529.783 424.589 534.817 416.34 534.817 416.34L548.841 390.139H539.236C538.778 390.93 537.802 392.743 537.802 392.743C537.358 391.964 536.029 390.23 535.482 389.855C533.135 388.293 529.693 389.031 527.317 390.448C516.99 396.809 509.455 409.377 503.512 419.178C503.512 419.178 497.257 430.073 493.785 430.883C491.074 431.115 491.354 427.268 491.471 426.372C492.52 419.895 494.953 413.737 497.405 408.157C502.394 404.515 508.086 399.745 513.259 394.513C524.486 383.207 533.95 370.4 535.334 367.538C535.334 367.538 533.836 367.856 532.069 367.913C523.432 380.605 505.757 399.051 500.398 401.797C502.772 395.782 518.109 367.075 531.16 353.343L533.213 351.261C536.389 347.994 539.68 344.64 542.244 344.091C542.515 344.062 542.863 344.091 543.164 344.757C543.279 347.3 542.38 349.18 541.349 351.319L539.903 354.442C539.903 354.442 541.951 354.037 543.295 353.573C544.855 350.481 546.583 347.011 545.946 342.878C545.734 341.547 544.819 340.536 543.625 340.304C539.732 339.523 535.489 342.559 532.075 345.017L531.937 345.103C514.387 359.587 499.567 380.461 486.61 408.966C485.671 409.717 482.042 410.614 481.426 410.18C482.705 407.405 484.316 403.675 485.122 399.628C485.262 398.471 485.392 397.286 485.392 396.13C485.392 393.642 484.825 391.301 482.709 389.682C480.228 388.382 477.161 388.989 475.094 389.971C465.832 394.018 458.91 404.022 453.915 412.261C451.228 417.495 448.55 423.101 447.808 429.52C447.286 434.55 448.349 437.788 451.064 439.407C453.856 440.91 457.369 439.348 458.75 438.597C468.133 433.393 474.689 422.957 479.856 413.416C480.062 413.388 482.883 413.302 485.018 412.723L485.105 412.752C484.983 413.185 483.88 416.655 483.88 416.655C480.605 426.773 479.09 433.654 482.184 437.73C486.605 443.483 493.924 437.529 499.878 429.664C498.6 439.088 503.236 440.563 506.771 439.841C510.832 438.685 515.356 434.116 517.456 431.775C516.781 434.521 516.964 439.437 520.658 439.927C523.189 440.42 525.084 438.97 527.276 437.727C535.139 433.216 544.552 418.186 546.996 413.841H543.791C540.317 419.372 535.897 426.624 530.335 430.065ZM459.754 429.059C459.255 428.278 459.089 427.425 459.073 426.502C458.977 420.833 464.767 410.681 468.854 405.151H468.862C470.575 409.101 474.453 411.641 476.794 412.711C473.887 419.534 463.914 434.147 459.754 429.059ZM478.435 409.66C478.159 409.864 473.268 408.128 472.323 403.358C471.521 399.252 474.206 396.043 476.803 394.425C477.918 393.499 479.597 393.183 480.829 393.644C481.972 394.454 482.282 395.901 482.282 397.459C482.282 398.416 482.162 399.397 482.056 400.293L482.032 400.496C481.213 403.701 480.004 406.781 478.435 409.66ZM517.66 427.238C517.655 427.238 516.731 428.105 516.731 428.105C515.412 429.348 514.054 430.677 512.416 430.012C511.963 429.839 511.645 429.203 511.568 428.71C511.493 425.154 513.013 421.86 514.488 418.651L514.866 417.812C519.106 410.354 524.035 401.565 531.274 395.466C532.495 394.539 533.818 393.759 535.216 394.367C535.537 394.685 535.911 395.234 535.911 395.783C535.911 395.957 535.764 396.419 535.679 396.564C533.657 400.005 531.733 403.618 529.86 407.087C526.201 413.939 522.404 421.021 517.66 427.238Z" fill="black"/>
</svg>
