<svg width="13" height="14" viewBox="0 0 13 14" fill="none" xmlns="http://www.w3.org/2000/svg">
<path fill-rule="evenodd" clip-rule="evenodd" d="M0.146447 0.931603C0.341709 0.736341 0.658291 0.736341 0.853553 0.931603L6.5 6.57805L12.1464 0.931603C12.3417 0.736341 12.6583 0.736341 12.8536 0.931603C13.0488 1.12686 13.0488 1.44345 12.8536 1.63871L7.20711 7.28516L12.8536 12.9316C13.0488 13.1269 13.0488 13.4434 12.8536 13.6387C12.6583 13.834 12.3417 13.834 12.1464 13.6387L6.5 7.99226L0.853553 13.6387C0.658291 13.834 0.341709 13.834 0.146447 13.6387C-0.0488155 13.4434 -0.0488155 13.1269 0.146447 12.9316L5.79289 7.28516L0.146447 1.63871C-0.0488155 1.44345 -0.0488155 1.12686 0.146447 0.931603Z" fill="black"/>
</svg>
