<svg width="216" height="98" viewBox="0 0 216 98" fill="none" xmlns="http://www.w3.org/2000/svg">
<path d="M208.262 1.77235C209.948 2.4984 212.591 3.6664 214.353 6.25494C215.655 8.149 215.923 9.94835 216 11.0217C215.923 12.0634 215.655 13.8943 214.353 15.7884C212.591 18.3138 209.948 19.5133 208.262 20.2394C203.704 22.2281 199.26 22.1019 197 21.8809V10.9901V0.0992631C199.26 -0.0901424 203.704 -0.216413 208.262 1.77235Z" fill="#A70909"/>
<path d="M0 21.0937H197.338C199.558 21.3188 203.923 21.4153 208.4 19.4216C210.055 18.682 212.651 17.4923 214.382 14.8555C215.661 12.9262 215.925 11.0933 216 10V85.7909C215.925 86.8521 215.661 88.7171 214.382 90.6464C212.651 93.2511 210.055 94.473 208.4 95.2125C204.449 96.9811 200.574 97.1097 198.204 96.949V96.9811H0L38.038 59.0374L0 21.0937Z" fill="#F20000"/>
<path d="M68.032 71.288C66.32 71.288 64.768 70.92 63.376 70.184C62 69.432 60.912 68.4 60.112 67.088C59.328 65.76 58.936 64.264 58.936 62.6C58.936 60.936 59.328 59.448 60.112 58.136C60.912 56.808 62 55.776 63.376 55.04C64.768 54.288 66.328 53.912 68.056 53.912C69.512 53.912 70.824 54.168 71.992 54.68C73.176 55.192 74.168 55.928 74.968 56.888L72.472 59.192C71.336 57.88 69.928 57.224 68.248 57.224C67.208 57.224 66.28 57.456 65.464 57.92C64.648 58.368 64.008 59 63.544 59.816C63.096 60.632 62.872 61.56 62.872 62.6C62.872 63.64 63.096 64.568 63.544 65.384C64.008 66.2 64.648 66.84 65.464 67.304C66.28 67.752 67.208 67.976 68.248 67.976C69.928 67.976 71.336 67.312 72.472 65.984L74.968 68.288C74.168 69.264 73.176 70.008 71.992 70.52C70.808 71.032 69.488 71.288 68.032 71.288ZM85.5661 64.232H82.8781V71H79.0141V54.2H82.8781V60.992H85.6621L90.0781 54.2H94.1821L88.6861 62.312L94.3501 71H89.9341L85.5661 64.232ZM97.7314 54.2L101.595 54.2V65.144L109.611 54.2H113.259V71H109.419V60.08L101.403 71H97.7314V54.2ZM136.213 67.832V74.48H132.613V71H120.757V74.48H117.157L117.181 67.832H117.853C118.861 67.8 119.573 67.064 119.989 65.624C120.405 64.184 120.661 62.128 120.757 59.456L120.949 54.2H133.861V67.832H136.213ZM124.189 59.816C124.109 61.816 123.941 63.496 123.685 64.856C123.429 66.2 123.037 67.192 122.509 67.832H130.021V57.368H124.261L124.189 59.816ZM146.894 64.232H144.206V71H140.342V54.2H144.206V60.992H146.99L151.406 54.2H155.51L150.014 62.312L155.678 71L151.262 71L146.894 64.232ZM170.108 67.4H162.308L160.82 71H156.836L164.324 54.2L168.164 54.2L175.676 71H171.596L170.108 67.4ZM168.884 64.448L166.22 58.016L163.556 64.448H168.884Z" fill="white"/>
</svg>
