<svg width="433" height="406" viewBox="0 0 433 406" fill="none" xmlns="http://www.w3.org/2000/svg">
<ellipse cx="229.5" cy="203" rx="203.5" ry="203" fill="#A597F9"/>
<path d="M329.858 202.455C329.858 213.028 329.903 223.579 329.835 234.152C329.813 239.574 326.858 243.867 321.784 245.765C310.192 250.08 298.352 253.559 286.265 256.067C278.619 257.648 270.907 259.026 263.171 260.066C252.188 261.534 241.138 262.235 230.065 261.851C220.818 261.534 211.549 261.128 202.393 260.043C182.705 257.693 163.536 252.926 144.931 246.058C138.999 243.867 136 239.461 136 233.135C136 212.892 136 192.627 136 172.384C136 165.064 138.977 160.839 145.81 158.444C161.326 152.977 177.158 148.684 193.44 146.131C194.387 145.973 194.861 146.041 195.019 146.99C196.462 155.959 202.596 161.088 210.106 164.815C219.195 169.334 228.892 170.735 238.995 169.831C247.452 169.063 255.436 166.916 262.517 162.059C267.569 158.58 271.493 154.197 272.733 147.916C272.936 146.832 273.207 146.335 274.673 146.583C290.595 149.226 306.065 153.564 321.265 158.919C326.881 160.907 329.993 166.013 329.903 171.186C329.722 181.602 329.835 192.017 329.858 202.455C329.835 202.455 329.835 202.455 329.858 202.455ZM307.644 191.023C307.644 186.933 307.599 182.822 307.666 178.732C307.689 177.512 307.351 176.835 306.065 176.767C302.525 176.586 298.984 176.089 295.466 176.27C291.632 176.451 288.745 179.388 288.204 182.912C287.618 186.843 289.016 189.486 292.805 191.249C294.022 191.813 294.158 192.017 293.075 193.056C291.903 194.163 290.955 195.654 290.324 197.145C288.633 201.144 287.167 205.211 285.678 209.3C285.565 209.571 286.062 210.362 286.377 210.475C288.565 211.108 290.707 209.752 291.474 207.493C292.534 204.398 293.617 201.302 294.744 198.23C295.827 195.27 297.631 193.418 301.104 193.485C302.525 193.508 302.615 193.915 302.592 195.044C302.525 198.072 302.57 201.099 302.57 204.126C302.592 207.131 303.134 207.515 305.953 206.499C307.418 205.979 307.599 204.714 307.599 203.381C307.644 199.224 307.644 195.112 307.644 191.023ZM233.651 191.701C233.651 195.338 233.651 198.975 233.651 202.59C233.673 205.663 234.846 206.747 237.935 206.838C239.243 206.883 239.492 206.408 239.469 205.211C239.401 202.048 239.492 198.885 239.446 195.722C239.424 194.638 239.649 194.141 240.867 194.186C243.619 194.276 246.37 194.321 249.099 194.208C250.181 194.163 250.339 194.57 250.339 195.451C250.317 197.868 250.317 200.286 250.339 202.726C250.362 205.482 251.489 206.657 254.15 206.815C255.436 206.883 256.022 206.657 256 205.098C255.909 197.778 255.977 190.435 255.955 183.115C255.955 182.257 255.909 181.353 255.684 180.517C255.255 178.936 253.564 178.235 251.354 178.552C249.527 178.8 250.384 180.201 250.362 181.082C250.249 183.567 250.271 186.052 250.362 188.538C250.407 189.961 249.911 190.39 248.512 190.322C245.964 190.232 243.416 190.277 240.867 190.39C239.694 190.435 239.379 190.006 239.424 188.876C239.514 186.798 239.492 184.719 239.469 182.618C239.424 179.523 238.409 178.597 235.342 178.484C234.034 178.439 233.583 178.8 233.605 180.156C233.718 184.042 233.673 187.882 233.651 191.701ZM241.115 234.852C241.003 234.83 240.867 234.807 240.754 234.785C240.754 234.129 240.754 233.474 240.754 232.819C240.754 227.442 240.777 222.065 240.732 216.688C240.732 216.101 240.597 215.174 240.213 214.971C238.432 213.932 235.928 215.287 235.906 217.321C235.838 225.115 235.838 232.909 235.906 240.704C235.906 241.133 236.673 241.901 237.124 241.924C240.01 242.15 242.288 240.839 243.619 238.399C245.896 234.175 247.926 229.814 250.046 225.499C250.79 224.008 251.557 222.539 252.301 221.071C252.459 221.116 252.617 221.161 252.797 221.229C252.797 221.952 252.797 222.675 252.797 223.375C252.797 229.023 252.775 234.672 252.82 240.32C252.82 240.885 253.248 241.811 253.654 241.924C255.887 242.489 257.691 241.043 257.691 238.761C257.714 231.305 257.668 223.85 257.714 216.372C257.736 215.039 257.24 214.881 256.09 214.813C252.211 214.609 249.55 216.349 247.949 219.783C245.671 224.799 243.393 229.837 241.115 234.852ZM168.565 242.782C172.602 242.782 176.616 242.805 180.653 242.782C182.999 242.782 184.058 241.269 182.863 239.303C182.367 238.49 181.149 237.767 180.18 237.654C178.917 237.496 178.466 237.066 178.263 235.869C177.969 234.22 177.586 232.571 177.067 230.989C175.556 226.493 174.045 221.975 172.354 217.546C171.587 215.536 169.783 214.881 167.618 214.835C165.588 214.813 165.092 216.349 164.641 217.592C162.499 223.488 160.492 229.43 158.575 235.417C158.169 236.66 158.146 237.609 156.432 237.609C154.966 237.609 153.884 239.642 154.087 241.314C154.312 242.963 155.553 242.782 156.68 242.782C160.649 242.782 164.596 242.782 168.565 242.782ZM169.174 174.869C164.168 174.982 160.108 177.399 157.515 182.279C155.282 186.436 155.057 190.887 155.756 195.383C156.928 202.906 163.626 207.967 171.204 207.244C175.421 206.838 177.879 204.465 177.902 200.738C177.902 200.105 177.721 199.472 177.609 198.84C177.022 199.179 176.346 199.427 175.827 199.856C172.625 202.522 165.656 202.703 163.468 197.123C162.025 193.44 161.754 189.667 163.063 185.917C164.28 182.415 167.077 180.562 170.708 180.608C172.985 180.63 174.812 181.602 176.391 183.161C176.684 183.454 177.112 183.59 177.496 183.793C177.631 183.386 177.879 182.957 177.857 182.551C177.789 181.421 177.857 180.223 177.451 179.207C176.098 175.66 173.031 174.937 169.174 174.869ZM195.335 242.443C199.597 242.421 203.295 240.726 205.077 237.518C208.347 231.689 208.663 225.612 205.506 219.67C202.032 213.096 191.523 212.079 186.697 217.75C182.75 222.404 182.39 227.849 183.788 233.497C185.231 239.235 189.494 242.466 195.335 242.443ZM180.225 192.966C180.788 195.293 181.104 197.688 181.961 199.902C183.788 204.669 188.005 207.041 193.711 206.883C198.221 206.747 202.281 203.788 203.859 199.359C205.19 195.609 205.438 191.768 204.513 187.882C203.476 183.499 201.04 180.269 196.62 179.094C191.794 177.806 187.261 178.574 183.81 182.551C181.262 185.488 180.563 189.08 180.225 192.966ZM285.137 229.001H285.114C285.114 225.431 285.114 221.862 285.114 218.315C285.114 215.626 284.212 214.745 281.529 214.655C280.333 214.609 279.702 214.858 279.747 216.304C279.86 219.06 279.747 221.816 279.815 224.573C279.837 225.793 279.409 226.267 278.168 226.222C275.688 226.154 273.207 226.132 270.726 226.222C269.418 226.267 268.945 225.815 268.99 224.482C269.08 222.133 269.057 219.783 268.99 217.411C268.945 215.423 267.569 214.564 264.93 214.609C262.833 214.655 263.712 216.213 263.69 217.117C263.622 224.189 263.645 231.238 263.645 238.309C263.645 240.952 264.818 241.992 267.479 242.014C268.696 242.014 269.102 241.653 269.057 240.41C268.967 237.518 269.102 234.626 268.99 231.735C268.922 230.176 269.508 229.769 270.974 229.837C273.32 229.95 275.665 229.927 278.01 229.837C279.296 229.792 279.837 230.085 279.792 231.486C279.702 233.768 279.747 236.05 279.77 238.354C279.792 240.885 280.942 241.924 283.468 242.037C284.866 242.105 285.159 241.54 285.137 240.297C285.092 236.547 285.137 232.774 285.137 229.001ZM259.721 203.923C259.924 205.663 260.645 206.544 262.269 206.815C264.073 207.109 264.75 206.295 264.885 204.578C264.998 203.245 265.201 201.912 265.629 200.647C265.81 200.105 266.599 199.472 267.163 199.405C268.764 199.224 270.388 199.337 271.989 199.337C276.003 199.337 276.184 199.314 276.748 203.291C277.086 205.663 278.281 206.408 280.401 206.702C282.183 206.951 282.521 206.273 282.183 204.759C281.529 201.958 281.055 199.111 280.221 196.355C278.755 191.565 277.131 186.821 275.507 182.076C274.673 179.636 272.891 178.597 270.298 178.506C267.727 178.439 267.591 180.562 266.87 182.031C265.765 184.313 264.795 186.685 264.028 189.102C262.472 194.028 261.142 198.998 259.721 203.923ZM229.478 193.372C229.478 189.735 229.501 186.12 229.478 182.483C229.456 179.523 229.005 179.116 226.05 178.687C224.72 178.506 224.246 178.845 224.269 180.246C224.337 183.748 224.337 187.227 224.224 190.729C224.111 193.824 222.239 195.541 219.217 195.519C216.331 195.496 214.617 193.756 214.549 190.616C214.481 187.995 214.549 185.375 214.526 182.754C214.504 179.591 213.647 178.8 210.512 178.642C209.497 178.597 209.249 178.936 209.249 179.885C209.294 184.109 209.159 188.357 209.317 192.582C209.43 195.428 210.693 197.801 213.579 198.817C216.714 199.902 219.894 200.128 222.871 198.275C224.066 197.529 224.314 197.733 224.224 199.088C224.134 200.76 224.111 202.455 224.246 204.126C224.382 205.911 226.096 206.883 228.576 206.634C230.313 206.453 229.388 205.03 229.411 204.262C229.546 200.647 229.478 197.01 229.478 193.372ZM299.841 235.101C300.923 235.101 301.983 235.169 303.043 235.078C304.487 234.943 305.321 235.304 305.299 236.976C305.276 237.948 305.592 238.964 305.885 239.913C306.381 241.653 308.253 242.737 310.26 242.082C311.839 241.562 310.779 240.162 310.576 239.258C309.629 235.033 308.681 230.786 307.463 226.629C306.539 223.511 305.253 220.483 303.968 217.456C303.066 215.31 301.171 214.858 299.006 214.858C297.112 214.858 296.909 216.326 296.436 217.433C294.925 221.071 293.368 224.708 292.173 228.459C291.068 231.961 290.301 235.553 289.535 239.145C289.219 240.636 289.535 241.901 291.519 242.15C293.301 242.376 293.774 241.721 294.022 240.026C294.722 235.169 294.812 235.169 299.841 235.101ZM220.142 214.926C218.338 214.406 217.639 215.829 217.165 217.117C215.135 222.63 213.128 228.165 211.324 233.745C210.647 235.824 210.354 238.038 210.151 240.229C209.993 242.014 211.459 242.082 212.79 242.218C214.12 242.376 214.323 241.698 214.617 240.523C216.195 234.107 217.909 227.713 219.623 221.342C219.781 220.755 220.3 220.28 220.661 219.761C220.999 220.303 221.45 220.822 221.63 221.41C222.668 224.799 223.728 228.188 224.63 231.599C225.329 234.242 225.78 236.953 226.389 239.619C226.84 241.608 228.599 242.624 230.741 241.992C231.147 241.879 231.576 240.478 231.395 239.823C229.456 232.819 227.516 225.793 225.351 218.857C224.63 216.62 223.141 214.677 220.142 214.926ZM206.949 139.625C207.783 139.963 208.528 140.551 209.317 141.025C209.881 143.759 212.271 143.375 214.143 143.849C213.083 140.912 213.06 139.805 213.917 136.688C214.03 136.326 214.008 135.897 213.963 135.49C213.76 134.022 214.504 133.592 215.722 133.976C217.097 134.406 217.729 134.067 217.796 132.576C217.842 131.469 218.586 131.243 219.51 131.649C222.532 133.028 224.968 131.514 227.133 129.797C228.328 128.871 228.982 128.373 230.335 129.458C231.937 130.746 234.71 130.316 236.109 128.78C237.033 127.763 237.913 127.47 238.589 128.893C239.604 131.017 241.228 131.085 243.145 130.497C244.024 129.571 244.859 129.39 245.445 130.746C246.392 132.937 248.603 134.293 250.993 134.022C251.467 133.976 251.918 133.818 252.369 133.796C254.015 133.683 254.421 134.248 254.105 135.965C254.015 136.507 253.925 137.365 254.218 137.614C255.774 138.924 255.639 140.506 255.21 142.2C257.014 140.348 259.608 141.093 261.75 140.257C261.931 140.189 262.72 141.025 262.855 141.545C263.352 143.217 264.772 144.166 266.351 143.601C266.757 143.465 267.343 142.878 267.298 142.607C267.231 142.2 266.712 141.771 266.283 141.545C265.968 141.387 265.426 141.635 265.111 141.477C264.772 141.296 264.569 140.845 264.299 140.506C264.637 140.37 265.02 140.031 265.269 140.122C266.486 140.483 267.659 140.958 268.832 141.387C268.809 141.183 268.787 140.98 268.742 140.799C266.712 134.858 262.292 131.107 256.947 128.464C242.965 121.596 228.576 121.347 214.143 126.905C208.708 128.983 203.837 132.101 200.724 137.32C202.822 138.111 204.919 138.811 206.949 139.625ZM198.808 147.622C200.183 153.112 203.882 156.75 208.415 159.687C208.933 160.026 209.836 160.026 210.49 159.845C212.406 159.303 214.256 158.58 216.15 157.925C215.677 157.541 215.271 157.066 214.752 156.818C213.241 156.049 212.091 155.191 213.173 153.271C213.286 153.067 213.309 152.661 213.196 152.502C211.347 150.085 212.001 146.357 208.979 144.437C208.55 144.166 209.182 142.223 209.339 141.048C208.55 140.573 207.828 139.986 206.971 139.647C204.942 138.834 202.867 138.133 200.792 137.388C198.672 140.506 197.883 143.895 198.808 147.622ZM255.774 145.951C255.819 146.335 255.661 146.99 255.413 147.103C253.496 147.916 254.241 148.978 254.804 150.333C255.706 152.48 257.601 153.429 259.247 154.739C259.518 155.01 259.811 155.304 260.082 155.575C261.119 157.586 262.63 155.778 263.87 156.027C268.2 152.57 270.546 146.041 268.899 141.432C267.704 141.003 266.531 140.528 265.336 140.167C265.066 140.099 264.682 140.415 264.366 140.551C264.637 140.89 264.818 141.342 265.178 141.522C265.494 141.681 266.035 141.432 266.351 141.59C266.78 141.816 267.298 142.223 267.366 142.652C267.411 142.923 266.825 143.511 266.419 143.646C264.863 144.211 263.419 143.262 262.923 141.59C262.765 141.071 261.999 140.235 261.818 140.302C259.698 141.138 257.082 140.393 255.278 142.245C255.436 143.488 255.661 144.708 255.774 145.951ZM236.289 155.168C242.288 154.061 248.332 153.7 254.421 153.948C253.947 153.542 253.496 153.045 252.955 152.751C252.279 152.389 251.512 152.209 250.79 151.938C247.159 151.395 243.528 150.853 239.897 150.311C237.327 150.288 234.756 150.356 232.185 150.243C231.237 150.198 230.313 149.769 229.388 149.52C227.99 149.43 226.862 149.046 226.253 147.577C226.005 147.012 225.171 146.696 224.607 146.267C224.337 146.222 224.088 146.176 223.818 146.131C223.547 146.041 223.254 145.951 222.983 145.86C222.194 145.996 221.382 146.131 220.593 146.267C220.593 146.402 220.615 146.538 220.615 146.673C221.946 147.668 223.254 148.662 224.585 149.633C225.261 150.108 225.915 150.718 226.682 150.921C228.351 151.328 229.118 152.186 228.644 153.926C229.591 154.31 230.516 154.694 231.463 155.101C232.523 155.123 233.56 155.168 234.62 155.191C235.184 155.191 235.748 155.191 236.289 155.168ZM259.225 154.739C256.09 155.213 252.955 155.665 249.82 156.185C249.257 156.275 248.738 156.682 248.174 156.818C247.317 156.998 246.415 157.066 245.535 157.179C243.957 157.473 242.378 157.766 240.8 158.083C239.424 158.58 238.048 159.099 236.673 159.596C235.613 160.161 234.575 160.749 233.515 161.313C232.297 161.969 231.08 162.624 229.862 163.279C228.373 164.047 226.907 164.815 225.419 165.606C226.637 165.764 227.832 165.9 229.05 166.058C230.426 165.516 231.846 165.109 233.132 164.409C237.529 161.991 242.04 159.89 246.934 158.783C250.249 158.038 253.587 157.473 256.902 156.75C257.984 156.501 258.999 155.982 260.059 155.598C259.788 155.304 259.518 155.033 259.225 154.739ZM226.389 162.601C225.915 162.488 225.261 162.217 225.103 161.856C224.156 159.642 222.69 158.331 220.525 157.97C218.09 158.873 215.677 159.777 213.263 160.726C212.88 160.884 212.587 161.268 212.249 161.539C212.609 161.811 212.925 162.195 213.331 162.308C217.345 163.437 221.382 164.499 225.419 165.606C226.907 164.838 228.373 164.07 229.862 163.279C228.712 163.053 227.539 162.872 226.389 162.601ZM258.503 160.139C257.443 157.879 256.383 157.653 254.218 158.648C249.798 160.703 245.287 162.533 240.845 164.522C240.168 164.815 239.694 165.516 239.108 166.035C246.032 165.561 252.572 163.821 258.503 160.139ZM233.538 161.313C232.365 160.478 231.26 159.416 229.952 158.896C228.96 158.512 227.674 158.828 228.689 157.134C228.757 157.021 228.396 156.614 228.215 156.343C225.645 156.885 223.096 157.428 220.525 157.947C222.69 158.309 224.134 159.619 225.103 161.833C225.261 162.195 225.915 162.466 226.389 162.579C227.539 162.872 228.712 163.053 229.884 163.256C231.102 162.624 232.32 161.969 233.538 161.313ZM231.463 155.123C230.516 154.739 229.591 154.355 228.644 153.948C224.878 153.135 221.112 152.344 217.345 151.531C216.782 151.531 216.24 151.531 215.677 151.508C216.624 151.892 217.593 152.254 218.541 152.683C220.976 153.768 223.412 154.897 225.848 156.004C227.719 155.711 229.591 155.417 231.463 155.123ZM240.822 158.083C239.311 157.134 238.341 155.304 236.289 155.191C235.725 155.213 235.184 155.213 234.62 155.236C234.102 155.372 233.605 155.507 233.087 155.643C234.417 156.84 235.838 157.947 236.673 159.619C238.071 159.077 239.446 158.58 240.822 158.083ZM246.392 138.495C245.175 139.76 244.002 139.67 242.762 138.518C241.431 137.298 241.634 136.1 242.671 134.858C242.965 134.496 243.258 134.135 243.551 133.773C243.551 133.638 243.551 133.502 243.573 133.389C242.897 132.531 242.243 132.576 241.702 133.525C241.093 134.564 240.551 135.626 239.988 136.688C240.033 137.32 240.303 138.066 240.1 138.585C239.672 139.647 239.875 140.257 240.822 140.935C241.657 141.522 242.265 141.997 243.258 141.229C243.709 140.89 244.43 140.912 245.017 140.777C244.724 141.319 244.566 142.11 244.115 142.381C242.604 143.285 242.897 144.369 243.506 145.612C243.731 146.086 243.822 146.628 243.957 147.125C243.438 149.272 242.22 150.492 239.897 150.379C243.528 150.921 247.159 151.463 250.79 152.005C250.519 151.712 250.271 151.441 250.001 151.147C247.272 150.876 247.092 150.401 247.272 147.713C247.385 146.041 247.137 144.279 246.641 142.675C246.302 141.59 246.212 140.98 247.204 140.348C248.039 139.805 248.783 139.128 249.595 138.54C251.061 137.478 250.7 136.755 249.189 136.236C248.783 136.507 248.377 136.778 247.971 137.049C247.452 137.501 246.889 137.953 246.392 138.495ZM239.965 136.642C239.717 137.162 239.559 137.817 239.153 138.179C238.792 138.518 238.093 138.834 237.642 138.721C237.236 138.608 236.875 137.953 236.74 137.456C236.515 136.733 237.011 135.558 235.5 135.806C235.5 135.919 235.477 136.055 235.455 136.168C235.094 136.755 234.733 137.84 234.35 137.84C233.402 137.885 232.433 137.456 231.508 137.139C231.125 137.004 230.832 136.642 230.516 136.394C230.426 136.62 230.223 136.868 230.245 137.072C230.651 139.557 228.013 138.653 227.223 139.805C226.456 139.286 225.69 138.766 224.945 138.269C224.359 138.043 223.231 136.507 223.705 138.834C223.75 139.037 222.961 139.444 222.555 139.738C222.51 139.873 222.397 140.076 222.442 140.099C224.494 141.884 223.277 143.94 222.938 145.905C223.209 145.996 223.502 146.086 223.773 146.176C224.9 144.866 226.141 143.669 227.088 142.245C227.945 140.98 229.072 140.686 230.426 140.438C237.597 139.082 238.68 141.071 241.702 145.431C242.198 146.154 243.168 146.538 243.912 147.08C243.754 146.583 243.686 146.041 243.461 145.566C242.852 144.324 242.581 143.239 244.07 142.336C244.521 142.065 244.678 141.274 244.972 140.732C244.363 140.867 243.641 140.845 243.213 141.183C242.22 141.952 241.611 141.5 240.777 140.89C239.83 140.212 239.627 139.625 240.055 138.54C240.303 138.021 240.033 137.298 239.965 136.642C239.965 136.642 239.988 136.642 239.965 136.642ZM224.585 146.312C225.329 145.679 226.231 145.16 226.795 144.369C230.38 139.444 238.477 139.851 240.529 146.063C240.822 146.945 241.228 148.436 240.867 148.729C240.168 149.272 238.95 149.272 237.935 149.317C235.094 149.452 232.23 149.475 229.366 149.543C230.29 149.791 231.215 150.221 232.162 150.266C234.733 150.379 237.304 150.333 239.875 150.333C242.198 150.446 243.438 149.226 243.934 147.08C243.19 146.538 242.22 146.131 241.724 145.431C238.702 141.071 237.597 139.082 230.448 140.438C229.095 140.686 227.967 140.98 227.11 142.245C226.163 143.669 224.9 144.866 223.795 146.176C224.066 146.222 224.337 146.267 224.585 146.312ZM228.644 153.948C229.095 152.209 228.351 151.35 226.682 150.943C225.915 150.763 225.261 150.153 224.585 149.656C223.254 148.684 221.923 147.69 220.615 146.696C220.119 148.707 219.984 150.966 217.345 151.531C221.112 152.344 224.878 153.158 228.644 153.948ZM218.563 136.462C218.27 136.236 217.751 136.349 217.345 136.303C217.436 136.755 217.39 137.388 217.684 137.659C218.45 138.382 219.33 139.015 220.232 139.579C221.585 140.415 221.991 141.342 221.224 142.901C220.751 143.895 220.773 145.16 220.593 146.289C221.382 146.154 222.194 146.018 222.983 145.883C223.322 143.895 224.539 141.861 222.487 140.076C222.442 140.031 222.555 139.828 222.6 139.715C221.247 138.631 219.939 137.501 218.563 136.462ZM298.443 179.794C294.271 179.817 292.466 181.986 293.165 186.12C293.662 189.012 296.052 190.119 300.54 189.938C303.765 189.803 301.916 187.431 302.434 186.098C302.57 185.759 302.457 185.307 302.457 184.9C302.705 179.772 302.705 179.772 298.443 179.794ZM168.249 237.541C169.467 237.541 170.663 237.473 171.88 237.563C173.369 237.676 173.978 237.36 173.459 235.688C172.692 233.203 172.219 230.628 171.497 228.12C170.775 225.612 169.941 223.149 169.106 220.664C168.994 220.303 168.655 220.032 168.407 219.715C168.204 219.941 167.889 220.122 167.798 220.393C166.175 225.702 164.573 231.012 163.063 236.343C162.972 236.637 163.671 237.451 164.055 237.496C165.43 237.631 166.829 237.541 168.249 237.541ZM201.356 222.946C200.409 219.625 198.266 218.134 195.064 218.202C192.38 218.269 190.08 220.212 189.2 223.149C188.14 226.719 188.231 230.311 189.336 233.813C190.148 236.434 191.929 238.128 194.816 238.422C197.635 238.693 199.71 237.699 200.905 234.898C201.717 232.977 201.965 230.808 202.393 229.046C202.01 226.742 201.875 224.776 201.356 222.946ZM198.244 185.985C197.274 183.612 195.154 182.573 192.561 182.641C190.012 182.709 188.208 183.974 187.216 186.233C185.276 190.593 185.457 195.022 187.283 199.337C188.276 201.686 190.26 202.793 192.899 202.839C195.583 202.861 197.5 201.641 198.402 199.292C199.191 197.258 199.462 195.044 199.98 192.762C199.416 190.481 199.101 188.108 198.244 185.985ZM273.41 195.925C274.808 196.061 275.237 195.541 274.786 194.208C273.726 190.978 272.711 187.747 271.651 184.516C271.538 184.177 271.222 183.906 270.997 183.59C270.726 183.929 270.343 184.245 270.207 184.629C269.35 187.001 268.471 189.373 267.772 191.813C266.622 195.903 266.689 195.925 270.816 195.925C271.696 195.903 272.553 195.858 273.41 195.925ZM303.088 231.486C303.382 231.463 303.878 230.808 303.81 230.56C302.84 227.239 301.78 223.94 300.698 220.664C300.585 220.325 300.224 220.077 299.999 219.806C299.773 220.099 299.435 220.371 299.322 220.709C298.51 222.969 297.653 225.205 296.932 227.487C295.669 231.554 295.691 231.576 299.886 231.531C300.969 231.531 302.028 231.599 303.088 231.486ZM230.426 132.011C230.426 131.83 229.614 131.672 229.185 131.514C229.005 132.079 228.554 132.689 228.644 133.208C229.185 136.349 229.23 136.326 226.208 137.636C225.78 137.817 225.374 138.043 224.945 138.269C225.712 138.789 226.479 139.308 227.223 139.805C227.99 138.653 230.651 139.557 230.245 137.072C230.223 136.868 230.426 136.62 230.516 136.394C230.854 136.642 231.147 137.026 231.508 137.139C232.433 137.456 233.402 137.885 234.35 137.84C234.733 137.817 235.094 136.755 235.455 136.168C232.794 136.01 230.493 135.422 230.426 132.011ZM237.62 133.434C237.687 133.028 237.913 132.576 237.755 132.259C237.507 131.717 237.033 131.288 236.673 130.813C236.424 131.22 235.996 131.604 235.928 132.033C235.725 133.276 235.635 134.564 235.522 135.829C237.033 135.581 236.537 136.733 236.763 137.478C236.921 137.975 237.281 138.631 237.665 138.743C238.093 138.856 238.792 138.563 239.176 138.201C239.582 137.817 239.717 137.185 239.988 136.665C237.214 136.078 237.214 136.078 237.62 133.434Z" fill="#1A1A1A"/>
</svg>
