<svg width="194" height="139" viewBox="0 0 194 139" fill="none" xmlns="http://www.w3.org/2000/svg">
<path d="M193.858 79.4546C193.858 90.0279 193.903 100.579 193.835 111.152C193.813 116.574 190.858 120.867 185.784 122.765C174.192 127.08 162.352 130.559 150.265 133.067C142.619 134.648 134.907 136.026 127.171 137.066C116.188 138.534 105.138 139.235 94.0647 138.851C84.8184 138.534 75.5495 138.128 66.3933 137.043C46.7054 134.693 27.5361 129.926 8.93062 123.058C2.99942 120.867 0 116.461 0 110.135C0 89.8924 0 69.6268 0 49.3838C0 42.0638 2.97688 37.839 9.81016 35.4442C25.326 29.9768 41.1575 25.6842 57.4402 23.1313C58.3873 22.9731 58.8609 23.0409 59.0188 23.9898C60.4621 32.959 66.5963 38.0876 74.1062 41.8153C83.1946 46.3338 92.892 47.7346 102.995 46.8309C111.452 46.0627 119.436 43.9164 126.517 39.059C131.569 35.5798 135.493 31.1968 136.733 24.9161C136.936 23.8316 137.207 23.3346 138.673 23.5831C154.595 26.2264 170.065 30.5642 185.265 35.9187C190.881 37.9068 193.993 43.0127 193.903 48.1864C193.722 58.6016 193.835 69.0168 193.858 79.4546C193.835 79.4546 193.835 79.4546 193.858 79.4546ZM171.644 68.0227C171.644 63.9335 171.599 59.8216 171.666 55.7324C171.689 54.5124 171.351 53.8346 170.065 53.7668C166.525 53.5861 162.984 53.089 159.466 53.2698C155.632 53.4505 152.745 56.3876 152.204 59.912C151.618 63.8431 153.016 66.4864 156.805 68.2487C158.022 68.8135 158.158 69.0168 157.075 70.0561C155.903 71.1631 154.955 72.6542 154.324 74.1453C152.633 78.1442 151.167 82.2109 149.678 86.3001C149.565 86.5713 150.062 87.362 150.377 87.4749C152.565 88.1075 154.707 86.752 155.474 84.4927C156.534 81.3976 157.617 78.3024 158.744 75.2298C159.827 72.2701 161.631 70.4176 165.104 70.4853C166.525 70.5079 166.615 70.9146 166.592 72.0442C166.525 75.0716 166.57 78.099 166.57 81.1264C166.592 84.1313 167.134 84.5153 169.953 83.4987C171.418 82.979 171.599 81.7138 171.599 80.3809C171.644 76.2238 171.644 72.112 171.644 68.0227ZM97.6505 68.7005C97.6505 72.3379 97.6505 75.9753 97.6505 79.5901C97.6731 82.6627 98.8458 83.7472 101.935 83.8375C103.243 83.8827 103.492 83.4083 103.469 82.2109C103.401 79.0479 103.492 75.885 103.446 72.722C103.424 71.6375 103.649 71.1405 104.867 71.1857C107.619 71.2761 110.37 71.3212 113.099 71.2083C114.181 71.1631 114.339 71.5698 114.339 72.4509C114.317 74.8683 114.317 77.2857 114.339 79.7257C114.362 82.482 115.489 83.6568 118.15 83.815C119.436 83.8827 120.022 83.6568 120 82.0979C119.909 74.7779 119.977 67.4353 119.955 60.1153C119.955 59.2568 119.909 58.3531 119.684 57.5172C119.255 55.9357 117.564 55.2353 115.354 55.5516C113.527 55.8001 114.384 57.2009 114.362 58.082C114.249 60.5672 114.271 63.0524 114.362 65.5375C114.407 66.9609 113.911 67.3901 112.512 67.3224C109.964 67.232 107.416 67.2772 104.867 67.3901C103.694 67.4353 103.379 67.0061 103.424 65.8764C103.514 63.7979 103.492 61.7194 103.469 59.6183C103.424 56.5231 102.409 55.5968 99.3419 55.4838C98.0339 55.4387 97.5829 55.8001 97.6054 57.1557C97.7182 61.0416 97.6731 64.8824 97.6505 68.7005ZM105.115 111.852C105.003 111.83 104.867 111.807 104.754 111.785C104.754 111.129 104.754 110.474 104.754 109.819C104.754 104.442 104.777 99.0649 104.732 93.6879C104.732 93.1005 104.597 92.1742 104.213 91.9709C102.432 90.9316 99.9283 92.2872 99.9057 94.3205C99.8381 102.115 99.8381 109.909 99.9057 117.704C99.9057 118.133 100.673 118.901 101.124 118.924C104.01 119.15 106.288 117.839 107.619 115.399C109.896 111.175 111.926 106.814 114.046 102.499C114.79 101.008 115.557 99.5394 116.301 98.0709C116.459 98.1161 116.617 98.1613 116.797 98.229C116.797 98.952 116.797 99.675 116.797 100.375C116.797 106.023 116.775 111.672 116.82 117.32C116.82 117.885 117.248 118.811 117.654 118.924C119.887 119.489 121.691 118.043 121.691 115.761C121.714 108.305 121.668 100.85 121.714 93.3716C121.736 92.0387 121.24 91.8805 120.09 91.8127C116.211 91.6094 113.55 93.349 111.949 96.7831C109.671 101.799 107.393 106.837 105.115 111.852ZM32.5652 119.782C36.602 119.782 40.6163 119.805 44.6531 119.782C46.9985 119.782 48.0585 118.269 46.8632 116.303C46.3671 115.49 45.1493 114.767 44.1795 114.654C42.9166 114.496 42.4656 114.066 42.2626 112.869C41.9694 111.22 41.586 109.571 41.0673 107.989C39.5564 103.493 38.0454 98.9746 36.354 94.5464C35.5872 92.5357 33.783 91.8805 31.618 91.8353C29.5883 91.8127 29.0922 93.349 28.6411 94.5916C26.4987 100.488 24.4916 106.43 22.5746 112.417C22.1687 113.66 22.1461 114.609 20.4322 114.609C18.9663 114.609 17.8838 116.642 18.0868 118.314C18.3123 119.963 19.5526 119.782 20.6803 119.782C24.6494 119.782 28.596 119.782 32.5652 119.782ZM33.1741 51.869C28.1676 51.982 24.1082 54.3994 21.5147 59.2794C19.282 63.4364 19.0565 67.8872 19.7556 72.3831C20.9283 79.9064 27.6263 84.9672 35.2038 84.2442C39.421 83.8375 41.8792 81.4653 41.9018 77.7375C41.9018 77.105 41.7214 76.4724 41.6086 75.8398C41.0222 76.1787 40.3457 76.4272 39.827 76.8564C36.6246 79.5224 29.656 79.7031 27.4684 74.1227C26.0251 70.4401 25.7545 66.6672 27.0625 62.9168C28.2803 59.415 31.0768 57.5624 34.7077 57.6075C36.9854 57.6301 38.8121 58.6016 40.3908 60.1605C40.684 60.4542 41.1125 60.5898 41.4958 60.7931C41.6312 60.3864 41.8792 59.9572 41.8567 59.5505C41.789 58.4209 41.8567 57.2235 41.4507 56.2068C40.0976 52.6598 37.0305 51.9368 33.1741 51.869ZM59.3345 119.443C63.5969 119.421 67.2954 117.726 69.077 114.518C72.3471 108.689 72.6628 102.612 69.5055 96.6701C66.0325 90.0957 55.5232 89.079 50.6971 94.7498C46.7505 99.4038 46.3896 104.849 47.7879 110.497C49.2312 116.235 53.4935 119.466 59.3345 119.443ZM44.2246 69.9657C44.7884 72.2927 45.1042 74.6875 45.9611 76.9016C47.7879 81.6687 52.0051 84.0409 57.7108 83.8827C62.2212 83.7472 66.2806 80.7876 67.8592 76.3594C69.1898 72.609 69.4379 68.7683 68.5132 64.8824C67.4758 60.4994 65.0402 57.2687 60.62 56.0938C55.7939 54.8061 51.2609 55.5742 47.8104 59.5505C45.262 62.4875 44.5629 66.0798 44.2246 69.9657ZM149.137 106.001H149.114C149.114 102.431 149.114 98.8616 149.114 95.3146C149.114 92.6261 148.212 91.7449 145.529 91.6546C144.333 91.6094 143.702 91.8579 143.747 93.3038C143.86 96.0601 143.747 98.8164 143.815 101.573C143.837 102.793 143.409 103.267 142.168 103.222C139.688 103.154 137.207 103.132 134.726 103.222C133.418 103.267 132.945 102.815 132.99 101.482C133.08 99.1327 133.057 96.7831 132.99 94.4109C132.945 92.4227 131.569 91.5642 128.93 91.6094C126.833 91.6546 127.712 93.2135 127.69 94.1172C127.622 101.189 127.645 108.238 127.645 115.309C127.645 117.952 128.818 118.992 131.479 119.014C132.696 119.014 133.102 118.653 133.057 117.41C132.967 114.518 133.102 111.626 132.99 108.735C132.922 107.176 133.508 106.769 134.974 106.837C137.32 106.95 139.665 106.927 142.01 106.837C143.296 106.792 143.837 107.085 143.792 108.486C143.702 110.768 143.747 113.05 143.77 115.354C143.792 117.885 144.942 118.924 147.468 119.037C148.866 119.105 149.159 118.54 149.137 117.297C149.092 113.547 149.137 109.774 149.137 106.001ZM123.721 80.9231C123.924 82.6627 124.645 83.5438 126.269 83.815C128.073 84.1087 128.75 83.2953 128.885 81.5783C128.998 80.2453 129.201 78.9124 129.629 77.6472C129.81 77.105 130.599 76.4724 131.163 76.4046C132.764 76.2238 134.388 76.3368 135.989 76.3368C140.003 76.3368 140.184 76.3142 140.748 80.2905C141.086 82.6627 142.281 83.4083 144.401 83.702C146.183 83.9505 146.521 83.2727 146.183 81.759C145.529 78.9575 145.055 76.1109 144.221 73.3546C142.755 68.565 141.131 63.8205 139.507 59.0761C138.673 56.6361 136.891 55.5968 134.298 55.5064C131.727 55.4387 131.591 57.5624 130.87 59.0309C129.765 61.3127 128.795 63.685 128.028 66.1024C126.472 71.0275 125.142 75.9979 123.721 80.9231ZM93.4784 70.3724C93.4784 66.735 93.501 63.1201 93.4784 59.4827C93.4558 56.5231 93.0048 56.1164 90.0505 55.6872C88.7199 55.5064 88.2463 55.8453 88.2689 57.2461C88.3365 60.7479 88.3365 64.2272 88.2238 67.729C88.111 70.8242 86.2392 72.5413 83.2172 72.5187C80.3305 72.4961 78.6166 70.7564 78.5489 67.6161C78.4813 64.9953 78.5489 62.3746 78.5264 59.7538C78.5038 56.5909 77.6468 55.8001 74.5121 55.642C73.4972 55.5968 73.2492 55.9357 73.2492 56.8846C73.2943 61.1094 73.159 65.3568 73.3168 69.5816C73.4296 72.4283 74.6925 74.8005 77.5792 75.8172C80.7139 76.9016 83.8938 77.1275 86.8706 75.275C88.0659 74.5294 88.314 74.7327 88.2238 76.0883C88.1335 77.7601 88.111 79.4546 88.2463 81.1264C88.3816 82.9113 90.0956 83.8827 92.5763 83.6342C94.3128 83.4535 93.3882 82.0301 93.4107 81.262C93.546 77.6472 93.4784 74.0098 93.4784 70.3724ZM163.841 112.101C164.923 112.101 165.983 112.169 167.043 112.078C168.487 111.943 169.321 112.304 169.299 113.976C169.276 114.948 169.592 115.964 169.885 116.913C170.381 118.653 172.253 119.737 174.26 119.082C175.839 118.562 174.779 117.162 174.576 116.258C173.629 112.033 172.681 107.786 171.463 103.629C170.539 100.511 169.253 97.4835 167.968 94.4561C167.066 92.3098 165.171 91.8579 163.006 91.8579C161.112 91.8579 160.909 93.3264 160.436 94.4335C158.925 98.0709 157.368 101.708 156.173 105.459C155.068 108.961 154.301 112.553 153.535 116.145C153.219 117.636 153.535 118.901 155.519 119.15C157.301 119.376 157.774 118.721 158.022 117.026C158.722 112.169 158.812 112.169 163.841 112.101ZM84.1418 91.9257C82.3377 91.4061 81.6385 92.8294 81.165 94.1172C79.1353 99.6298 77.1281 105.165 75.324 110.745C74.6474 112.824 74.3542 115.038 74.1513 117.229C73.9934 119.014 75.4593 119.082 76.7899 119.218C78.1204 119.376 78.3234 118.698 78.6166 117.523C80.1952 111.107 81.9092 104.713 83.6231 98.342C83.781 97.7546 84.2997 97.2801 84.6605 96.7605C84.9988 97.3027 85.4498 97.8224 85.6303 98.4098C86.6677 101.799 87.7276 105.188 88.6297 108.599C89.3288 111.242 89.7799 113.953 90.3888 116.619C90.8398 118.608 92.5989 119.624 94.7413 118.992C95.1472 118.879 95.5757 117.478 95.3953 116.823C93.4558 109.819 91.5164 102.793 89.3514 95.8568C88.6297 93.6201 87.1413 91.6772 84.1418 91.9257ZM70.9489 16.6246C71.7833 16.9635 72.5275 17.5509 73.3168 18.0253C73.8806 20.759 76.2712 20.375 78.143 20.8494C77.083 17.9124 77.0605 16.8053 77.9175 13.6876C78.0302 13.3261 78.0077 12.8968 77.9626 12.4902C77.7596 11.0216 78.5038 10.5924 79.7216 10.9764C81.0973 11.4057 81.7288 11.0668 81.7964 9.5757C81.8415 8.46866 82.5857 8.24274 83.5104 8.64941C86.5324 10.0276 88.968 8.51385 91.133 6.79681C92.3282 5.87052 92.9822 5.37348 94.3354 6.45793C95.9366 7.7457 98.7105 7.31644 100.109 5.78015C101.033 4.76348 101.913 4.46978 102.589 5.89311C103.604 8.01681 105.228 8.08459 107.145 7.49719C108.024 6.57089 108.859 6.39015 109.445 7.7457C110.392 9.93718 112.603 11.2927 114.993 11.0216C115.467 10.9764 115.918 10.8183 116.369 10.7957C118.015 10.6827 118.421 11.2476 118.105 12.9646C118.015 13.5068 117.925 14.3653 118.218 14.6139C119.774 15.9242 119.639 17.5057 119.21 19.2001C121.014 17.3476 123.608 18.0931 125.75 17.2572C125.931 17.1894 126.72 18.0253 126.855 18.545C127.352 20.2168 128.772 21.1657 130.351 20.6009C130.757 20.4653 131.343 19.8779 131.298 19.6068C131.231 19.2002 130.712 18.7709 130.283 18.545C129.968 18.3868 129.426 18.6353 129.111 18.4772C128.772 18.2964 128.569 17.8446 128.299 17.5057C128.637 17.3701 129.02 17.0313 129.269 17.1216C130.486 17.4831 131.659 17.9576 132.832 18.3868C132.809 18.1835 132.787 17.9802 132.742 17.7994C130.712 11.8576 126.292 8.10719 120.947 5.46385C106.965 -1.40429 92.5763 -1.65282 78.143 3.90496C72.7079 5.98348 67.8367 9.10126 64.7245 14.3201C66.8218 15.1109 68.9192 15.8113 70.9489 16.6246ZM62.8076 24.6224C64.1832 30.1124 67.8818 33.7498 72.4147 36.6868C72.9334 37.0257 73.8355 37.0257 74.4895 36.845C76.4065 36.3027 78.2557 35.5798 80.1501 34.9246C79.6765 34.5405 79.2706 34.0661 78.7519 33.8176C77.2409 33.0494 76.0907 32.1909 77.1732 30.2705C77.286 30.0672 77.3085 29.6605 77.1958 29.5024C75.3465 27.085 76.0005 23.3572 72.9785 21.4368C72.5501 21.1657 73.1815 19.2227 73.3394 18.0479C72.5501 17.5735 71.8284 16.9861 70.9714 16.6472C68.9417 15.8339 66.8669 15.1335 64.7921 14.3879C62.6722 17.5057 61.8829 20.8946 62.8076 24.6224ZM119.774 22.9505C119.819 23.3346 119.661 23.9898 119.413 24.1027C117.496 24.9161 118.241 25.9779 118.804 27.3335C119.706 29.4798 121.601 30.4287 123.247 31.739C123.518 32.0101 123.811 32.3038 124.082 32.575C125.119 34.5857 126.63 32.7783 127.87 33.0268C132.2 29.5701 134.546 23.0409 132.899 18.432C131.704 18.0027 130.531 17.5283 129.336 17.1668C129.066 17.099 128.682 17.4153 128.366 17.5509C128.637 17.8898 128.818 18.3416 129.178 18.5224C129.494 18.6805 130.035 18.432 130.351 18.5902C130.78 18.8161 131.298 19.2227 131.366 19.652C131.411 19.9231 130.825 20.5105 130.419 20.6461C128.863 21.2109 127.419 20.262 126.923 18.5902C126.765 18.0705 125.999 17.2346 125.818 17.3024C123.698 18.1383 121.082 17.3927 119.278 19.2453C119.436 20.4879 119.661 21.7079 119.774 22.9505ZM100.289 32.1683C106.288 31.0613 112.332 30.6998 118.421 30.9483C117.947 30.5416 117.496 30.0446 116.955 29.7509C116.279 29.3894 115.512 29.2087 114.79 28.9376C111.159 28.3953 107.528 27.8531 103.897 27.3109C101.327 27.2883 98.7556 27.3561 96.1846 27.2431C95.2375 27.1979 94.3128 26.7687 93.3882 26.5201C91.99 26.4298 90.8623 26.0457 90.2534 24.5772C90.0054 24.0124 89.1709 23.6961 88.6071 23.2668C88.3365 23.2216 88.0884 23.1764 87.8178 23.1313C87.5472 23.0409 87.254 22.9505 86.9834 22.8601C86.1941 22.9957 85.3822 23.1313 84.5929 23.2668C84.5929 23.4024 84.6154 23.5379 84.6154 23.6735C85.946 24.6676 87.254 25.6616 88.5846 26.6331C89.2612 27.1076 89.9152 27.7176 90.6819 27.9209C92.3508 28.3276 93.1176 29.1861 92.644 30.9257C93.5912 31.3098 94.5158 31.6938 95.463 32.1005C96.5229 32.1231 97.5603 32.1683 98.6203 32.1909C99.1841 32.1909 99.7479 32.1909 100.289 32.1683ZM123.225 31.739C120.09 32.2135 116.955 32.6653 113.82 33.185C113.257 33.2753 112.738 33.682 112.174 33.8176C111.317 33.9983 110.415 34.0661 109.535 34.179C107.957 34.4727 106.378 34.7664 104.8 35.0827C103.424 35.5798 102.048 36.0994 100.673 36.5964C99.6126 37.1613 98.5752 37.7487 97.5152 38.3135C96.2974 38.9687 95.0796 39.6239 93.8618 40.279C92.3733 41.0472 90.9075 41.8153 89.419 42.6061C90.6368 42.7642 91.8321 42.8998 93.0499 43.0579C94.4256 42.5157 95.8464 42.109 97.1318 41.4087C101.529 38.9913 106.04 36.8901 110.934 35.7831C114.249 35.0375 117.587 34.4727 120.902 33.7498C121.984 33.5013 122.999 32.9816 124.059 32.5976C123.788 32.3039 123.518 32.0327 123.225 31.739ZM90.3888 39.6013C89.9152 39.4883 89.2612 39.2172 89.1033 38.8557C88.1561 36.6416 86.6902 35.3313 84.5252 34.9698C82.0896 35.8735 79.6765 36.7772 77.2634 37.7261C76.8801 37.8842 76.5869 38.2683 76.2486 38.5394C76.6094 38.8105 76.9252 39.1946 77.3311 39.3076C81.3454 40.4372 85.3822 41.499 89.419 42.6061C90.9075 41.8379 92.3733 41.0698 93.8618 40.279C92.7116 40.0531 91.5389 39.8724 90.3888 39.6013ZM122.503 37.1387C121.443 34.8794 120.383 34.6535 118.218 35.6476C113.798 37.7035 109.287 39.5335 104.845 41.5216C104.168 41.8153 103.694 42.5157 103.108 43.0353C110.032 42.5609 116.572 40.8213 122.503 37.1387ZM97.5378 38.3135C96.3651 37.4776 95.26 36.4157 93.952 35.8961C92.9597 35.512 91.6742 35.8283 92.6891 34.1338C92.7567 34.0209 92.3959 33.6142 92.2155 33.3431C89.6445 33.8853 87.0962 34.4276 84.5252 34.9472C86.6902 35.3087 88.1335 36.619 89.1033 38.8331C89.2612 39.1946 89.9152 39.4657 90.3888 39.5787C91.5389 39.8724 92.7116 40.0531 93.8843 40.2564C95.1021 39.6238 96.32 38.9687 97.5378 38.3135ZM95.463 32.1231C94.5158 31.739 93.5912 31.355 92.644 30.9483C88.8778 30.135 85.1116 29.3442 81.3454 28.5309C80.7816 28.5309 80.2403 28.5309 79.6765 28.5083C80.6237 28.8924 81.5934 29.2538 82.5406 29.6831C84.9763 30.7675 87.4119 31.8972 89.8475 33.0042C91.7193 32.7105 93.5911 32.4168 95.463 32.1231ZM104.822 35.0827C103.311 34.1339 102.341 32.3038 100.289 32.1909C99.7253 32.2135 99.1841 32.2135 98.6203 32.2361C98.1016 32.3716 97.6054 32.5072 97.0867 32.6427C98.4173 33.8401 99.8381 34.9472 100.673 36.619C102.071 36.0768 103.446 35.5798 104.822 35.0827ZM110.392 15.495C109.175 16.7601 108.002 16.6698 106.762 15.5176C105.431 14.2976 105.634 13.1001 106.671 11.8576C106.965 11.4961 107.258 11.1346 107.551 10.7731C107.551 10.6376 107.551 10.502 107.573 10.389C106.897 9.53052 106.243 9.5757 105.702 10.5246C105.093 11.5639 104.551 12.6257 103.988 13.6876C104.033 14.3201 104.303 15.0657 104.1 15.5853C103.672 16.6472 103.875 17.2572 104.822 17.935C105.657 18.5224 106.265 18.9968 107.258 18.2287C107.709 17.8898 108.43 17.9124 109.017 17.7768C108.724 18.319 108.566 19.1098 108.115 19.3809C106.604 20.2846 106.897 21.369 107.506 22.6116C107.731 23.0861 107.822 23.6283 107.957 24.1253C107.438 26.2716 106.22 27.4916 103.897 27.3787C107.528 27.9209 111.159 28.4631 114.79 29.0053C114.519 28.7116 114.271 28.4405 114.001 28.1468C111.272 27.8757 111.092 27.4013 111.272 24.7127C111.385 23.0409 111.137 21.2787 110.641 19.6746C110.302 18.5901 110.212 17.9802 111.204 17.3476C112.039 16.8053 112.783 16.1276 113.595 15.5402C115.061 14.4783 114.7 13.7553 113.189 13.2357C112.783 13.5068 112.377 13.7779 111.971 14.049C111.452 14.5009 110.889 14.9527 110.392 15.495ZM103.965 13.6424C103.717 14.162 103.559 14.8172 103.153 15.1787C102.792 15.5176 102.093 15.8339 101.642 15.7209C101.236 15.6079 100.875 14.9527 100.74 14.4557C100.515 13.7327 101.011 12.5579 99.4998 12.8064C99.4998 12.9194 99.4773 13.055 99.4547 13.1679C99.0939 13.7553 98.733 14.8398 98.3496 14.8398C97.4025 14.885 96.4327 14.4557 95.5081 14.1394C95.1247 14.0039 94.8315 13.6424 94.5158 13.3939C94.4256 13.6198 94.2226 13.8683 94.2452 14.0716C94.6511 16.5568 92.0125 15.6531 91.2232 16.8053C90.4564 16.2857 89.6896 15.7661 88.9454 15.269C88.3591 15.0431 87.2315 13.5068 87.7051 15.8339C87.7502 16.0372 86.9608 16.4439 86.5549 16.7376C86.5098 16.8731 86.397 17.0764 86.4421 17.099C88.4944 18.8839 87.2766 20.9398 86.9383 22.9053C87.2089 22.9957 87.5021 23.0861 87.7727 23.1764C88.9003 21.8661 90.1407 20.6687 91.0879 19.2453C91.9448 17.9801 93.0724 17.6864 94.4256 17.4379C101.597 16.0824 102.68 18.0705 105.702 22.4309C106.198 23.1539 107.168 23.5379 107.912 24.0801C107.754 23.5831 107.686 23.0409 107.461 22.5664C106.852 21.3238 106.581 20.2394 108.07 19.3357C108.521 19.0646 108.678 18.2738 108.972 17.7316C108.363 17.8672 107.641 17.8446 107.213 18.1835C106.22 18.9516 105.611 18.4998 104.777 17.8898C103.83 17.212 103.627 16.6246 104.055 15.5402C104.303 15.0205 104.033 14.2976 103.965 13.6424C103.965 13.6424 103.988 13.6424 103.965 13.6424ZM88.5846 23.312C89.3288 22.6794 90.2309 22.1598 90.7947 21.369C94.3805 16.4439 102.477 16.8505 104.529 23.0635C104.822 23.9446 105.228 25.4357 104.867 25.7294C104.168 26.2716 102.95 26.2716 101.935 26.3168C99.0939 26.4524 96.2298 26.475 93.3656 26.5427C94.2903 26.7913 95.2149 27.2205 96.1621 27.2657C98.733 27.3787 101.304 27.3335 103.875 27.3335C106.198 27.4464 107.438 26.2264 107.934 24.0801C107.19 23.5379 106.22 23.1313 105.724 22.4309C102.702 18.0705 101.597 16.0824 94.4481 17.4379C93.095 17.6864 91.9674 17.9801 91.1104 19.2453C90.1632 20.6687 88.9003 21.8661 87.7953 23.1764C88.0659 23.2216 88.3365 23.2668 88.5846 23.312ZM92.644 30.9483C93.095 29.2087 92.3508 28.3501 90.6819 27.9435C89.9152 27.7627 89.2612 27.1527 88.5846 26.6557C87.254 25.6842 85.9234 24.6901 84.6154 23.6961C84.1193 25.7068 83.984 27.9661 81.3454 28.5309C85.1116 29.3442 88.8778 30.1576 92.644 30.9483ZM82.5632 13.4616C82.27 13.2357 81.7513 13.3487 81.3454 13.3035C81.4356 13.7553 81.3905 14.3879 81.6836 14.659C82.4504 15.382 83.33 16.0146 84.232 16.5794C85.5852 17.4153 85.9911 18.3416 85.2243 19.9005C84.7507 20.8946 84.7733 22.1598 84.5929 23.2894C85.3822 23.1539 86.1941 23.0183 86.9834 22.8827C87.3217 20.8946 88.5395 18.8613 86.4873 17.0764C86.4421 17.0313 86.5549 16.8279 86.6 16.715C85.2469 15.6305 83.9389 14.5009 82.5632 13.4616ZM162.443 56.7942C158.271 56.8168 156.466 58.9857 157.165 63.1201C157.662 66.012 160.052 67.119 164.54 66.9383C167.765 66.8027 165.916 64.4305 166.434 63.0976C166.57 62.7587 166.457 62.3068 166.457 61.9001C166.705 56.7716 166.705 56.7716 162.443 56.7942ZM32.2495 114.541C33.4673 114.541 34.6626 114.473 35.8804 114.563C37.3688 114.676 37.9777 114.36 37.459 112.688C36.6922 110.203 36.2186 107.628 35.497 105.12C34.7753 102.612 33.9409 100.149 33.1065 97.6642C32.9937 97.3027 32.6554 97.0316 32.4073 96.7153C32.2044 96.9413 31.8887 97.122 31.7984 97.3931C30.1747 102.702 28.5735 108.012 27.0625 113.343C26.9723 113.637 27.6714 114.451 28.0548 114.496C29.4305 114.631 30.8287 114.541 32.2495 114.541ZM65.3559 99.9461C64.4088 96.625 62.2663 95.1338 59.0639 95.2016C56.3802 95.2694 54.0799 97.2124 53.2004 100.149C52.1404 103.719 52.2306 107.311 53.3357 110.813C54.1476 113.434 55.9292 115.128 58.8158 115.422C61.6348 115.693 63.7096 114.699 64.9049 111.898C65.7168 109.977 65.9648 107.808 66.3933 106.046C66.0099 103.742 65.8746 101.776 65.3559 99.9461ZM62.2438 62.9846C61.274 60.6124 59.1541 59.5731 56.5606 59.6409C54.0122 59.7087 52.2081 60.9738 51.2158 63.2331C49.2763 67.5935 49.4567 72.0216 51.2834 76.3368C52.2757 78.6864 54.2603 79.7935 56.8989 79.8387C59.5826 79.8612 61.4995 78.6412 62.4016 76.2916C63.1909 74.2583 63.4616 72.0442 63.9803 69.7624C63.4165 67.4805 63.1007 65.1083 62.2438 62.9846ZM137.41 72.9253C138.808 73.0609 139.237 72.5412 138.786 71.2083C137.726 67.9775 136.711 64.7468 135.651 61.5161C135.538 61.1772 135.222 60.9061 134.997 60.5898C134.726 60.9287 134.343 61.245 134.207 61.629C133.35 64.0013 132.471 66.3735 131.772 68.8135C130.622 72.9027 130.689 72.9253 134.816 72.9253C135.696 72.9027 136.553 72.8576 137.41 72.9253ZM167.088 108.486C167.382 108.463 167.878 107.808 167.81 107.56C166.84 104.239 165.78 100.94 164.698 97.6642C164.585 97.3253 164.224 97.0768 163.999 96.8057C163.773 97.0994 163.435 97.3705 163.322 97.7094C162.51 99.9687 161.653 102.205 160.932 104.487C159.669 108.554 159.691 108.576 163.886 108.531C164.969 108.531 166.028 108.599 167.088 108.486ZM94.4256 9.01089C94.4256 8.83014 93.6137 8.672 93.1852 8.51385C93.0048 9.07867 92.5538 9.68867 92.644 10.2083C93.1852 13.3487 93.2303 13.3261 90.2083 14.6364C89.7799 14.8172 89.3739 15.0431 88.9454 15.269C89.7122 15.7887 90.479 16.3083 91.2232 16.8053C91.99 15.6531 94.6511 16.5568 94.2452 14.0716C94.2226 13.8683 94.4256 13.6198 94.5158 13.3939C94.8541 13.6424 95.1473 14.0264 95.5081 14.1394C96.4327 14.4557 97.4025 14.885 98.3496 14.8398C98.733 14.8172 99.0939 13.7553 99.4547 13.1679C96.7936 13.0098 94.4932 12.4224 94.4256 9.01089ZM101.62 10.4342C101.687 10.0276 101.913 9.5757 101.755 9.25941C101.507 8.71718 101.033 8.28793 100.673 7.81348C100.424 8.22015 99.9959 8.60422 99.9283 9.03348C99.7253 10.2761 99.6351 11.5639 99.5223 12.829C101.033 12.5805 100.537 13.7327 100.763 14.4783C100.921 14.9753 101.281 15.6305 101.665 15.7435C102.093 15.8564 102.792 15.5627 103.176 15.2013C103.582 14.8172 103.717 14.1846 103.988 13.665C101.214 13.0776 101.214 13.0776 101.62 10.4342Z" fill="#1A1A1A"/>
</svg>
