<svg width="216" height="95" viewBox="0 0 216 95" fill="none" xmlns="http://www.w3.org/2000/svg">
<path d="M57.3261 48.7083C58.6867 46.5216 59.8692 44.6264 61.0516 42.7313C69.3449 29.433 77.6219 16.1184 85.9313 2.82005C86.3687 2.12355 86.9518 1.45944 87.5997 0.973505C89.5435 -0.451898 91.7949 0.0826273 92.8802 2.25313C97.3346 11.1781 101.757 20.1354 106.211 29.0604C109.969 36.5762 113.775 44.0919 117.549 51.5915C118.473 53.4056 119.396 55.2198 120.271 57.0663C120.53 57.6008 120.595 58.2164 120.821 59.0586C117.906 59.0586 115.249 59.1882 112.609 58.9777C111.896 58.9129 111.005 57.9896 110.617 57.2445C108.333 52.9035 106.195 48.4815 103.992 44.0919C99.3269 34.7944 94.6457 25.5131 89.9646 16.2318C89.7054 15.7297 89.4139 15.2437 88.9441 14.4014C88.0695 15.7621 87.3567 16.8797 86.6602 17.9811C79.1931 29.9999 71.7259 42.0348 64.2588 54.0535C63.4327 55.3817 62.6714 56.7586 61.7805 58.0382C60.2255 60.2735 58.6543 60.6784 56.4676 59.0586C54.0704 57.2931 51.8837 55.2684 49.616 53.3408C45.4046 49.7611 41.2094 46.149 36.9818 42.5855C35.4916 41.3383 35.3296 41.4031 34.4873 43.0553C29.7252 52.5795 24.9792 62.1038 20.2171 71.6281C16.8479 78.3664 13.495 85.0884 10.1421 91.8267C9.51037 93.1063 8.5547 93.8838 7.0807 93.9C5.25036 93.9162 3.40382 94.0296 1.58967 93.9C-0.143491 93.7704 -0.337861 93.3169 0.423433 91.8105C4.81302 83.0313 9.20261 74.2521 13.6084 65.4729C18.9537 54.831 24.2989 44.1729 29.6766 33.5472C30.1463 32.6239 30.697 31.7006 31.3287 30.8908C32.6084 29.2386 34.2119 28.9308 35.8317 30.259C39.0227 32.8669 42.1164 35.6043 45.2426 38.2769C49.1463 41.6947 53.0985 45.0962 57.3261 48.7083ZM89.2195 73.7338C88.0047 75.4022 86.6603 76.9734 85.3806 78.5931C85.2025 78.5121 85.0243 78.4473 84.8461 78.3664C84.8461 73.0049 84.8461 67.6435 84.8461 62.2982C82.6108 62.2982 80.6509 62.2982 78.529 62.2982C78.529 62.9947 78.529 63.6102 78.529 64.2257C78.529 73.0859 78.5128 81.9299 78.529 90.79C78.5452 94.4669 78.0592 93.9486 81.6875 93.9648C85.2996 93.9648 84.8947 94.4183 84.7489 90.7576C84.6355 87.9392 85.8018 86.0279 88.0533 84.4729C88.3934 84.9264 88.7822 85.299 88.9927 85.7525C89.7378 87.3723 90.4829 88.9759 91.0984 90.6443C92.2809 93.9 92.2971 93.9648 95.7148 93.9648C96.2331 93.9648 96.7676 93.9648 97.286 93.9648C99.4403 93.9648 99.6832 93.6894 98.7924 91.7781C96.9134 87.7287 94.9535 83.7278 93.0746 79.6784C92.9288 79.3706 92.9936 78.7875 93.2041 78.5121C94.9859 76.1959 96.8324 73.912 98.6628 71.6119C95.7796 69.9435 91.1794 71.045 89.2195 73.7338ZM36.674 72.6971C36.674 69.733 37.1923 69.2146 40.2213 69.1012C40.5291 69.0851 40.853 69.0851 41.1608 69.1012C43.8172 69.1984 46.4574 69.328 49.1139 69.409C50.1181 69.4414 51.2844 69.328 51.3815 68.097C51.5111 66.5906 51.3006 65.0518 51.2196 63.1567C48.4174 63.1567 45.9229 63.1081 43.4447 63.1729C41.1122 63.2215 38.7473 63.2053 36.431 63.513C33.645 63.8856 31.0534 64.8412 30.3407 68.0484C29.9357 69.8463 29.5308 71.6767 29.4984 73.507C29.4336 76.8438 29.7252 80.1643 29.7414 83.501C29.7576 85.4772 29.4498 87.4371 29.466 89.4132C29.5146 93.4951 29.5632 93.4951 32.3816 94.1754C32.4302 94.1916 32.4788 94.224 32.5274 94.2402C35.2648 94.8071 36.6578 93.7056 36.6578 90.9682C36.6578 88.247 36.6578 85.5258 36.6578 82.8045C36.6578 82.351 36.7226 81.9137 36.755 81.3791C39.865 81.3791 42.8453 81.4115 45.8257 81.3629C49.697 81.2981 49.535 82.2862 49.5674 77.5889C49.5674 76.2283 49.1625 75.6451 47.6885 75.6937C44.0926 75.7909 40.4805 75.7261 36.6578 75.7261C36.674 74.5761 36.674 73.6366 36.674 72.6971ZM59.1241 79.5326C55.35 80.0023 52.3858 83.501 52.4344 87.2265C52.4668 90.5633 55.7387 94.062 59.3832 94.2078C63.2545 94.3697 67.1906 94.6937 70.9484 93.3007C72.1633 92.8471 73.1675 92.1668 73.1513 90.6928C73.0703 85.7849 73.0703 80.877 72.7626 75.9853C72.6816 74.7543 71.8231 73.2317 70.8351 72.4542C69.0209 71.0288 66.7532 70.2189 64.356 70.3971C61.7967 70.5914 59.2537 71.0288 56.6944 71.3041C55.4472 71.4337 54.8155 71.9359 54.9289 73.2803C55.0908 75.2078 55.7711 76.3902 56.9698 76.3092C59.1241 76.1635 61.2784 75.8233 63.4489 75.7261C65.587 75.6289 66.5912 76.7628 66.5264 79.0143C63.9834 79.1924 61.5375 79.241 59.1241 79.5326ZM66.494 88.9435C65.263 89.0407 64.0158 89.2188 62.7524 89.2512C60.5171 89.2998 59.3184 88.2794 59.3184 86.449C59.3184 85.0236 60.8896 83.663 62.7038 83.5982C63.9024 83.5496 65.101 83.582 66.4779 83.582C66.4941 85.3962 66.494 87.0484 66.494 88.9435ZM128.337 70.721C124.174 71.5957 121.194 73.8958 120.4 78.2044C119.963 80.6016 120.011 83.0961 120.06 85.542C120.141 88.8787 122.538 92.3288 125.745 93.657C128.402 94.7423 131.155 94.7099 133.796 94.1754C136.825 93.576 139.416 91.9887 140.68 88.8463C141.814 86.0117 142.121 83.1609 141.765 80.0995C141.133 74.4789 137.505 70.4619 131.382 70.2837C130.378 70.4295 129.341 70.5105 128.337 70.721ZM128.321 77.0057C130.005 75.4184 132.889 75.6775 134.022 77.6213C135.432 80.0185 135.707 85.0398 133.747 87.4371C132.629 88.7977 131.285 89.1541 129.795 88.8787C128.272 88.6033 127.333 87.4209 126.976 85.9307C126.701 84.7807 126.669 83.582 126.523 82.4158C126.588 80.4235 126.717 78.5121 128.321 77.0057ZM194.942 80.7474C195.072 83.4201 195.347 86.1089 195.914 88.7005C196.368 90.8224 197.906 92.507 199.947 93.2521C204.353 94.8719 208.937 94.4831 213.472 93.8676C214.963 93.6732 216.032 92.2154 215.999 90.6605C215.902 84.3757 215.967 78.091 215.951 71.8063C215.951 71.3527 215.886 70.8992 215.854 70.4619C213.748 70.4619 211.788 70.4619 209.682 70.4619C209.682 71.126 209.682 71.6767 209.682 72.2436C209.682 77.3783 209.666 82.513 209.698 87.6477C209.698 88.4738 209.553 89.2027 208.646 89.2027C207.107 89.2027 205.503 89.2188 204.029 88.8463C203.187 88.6357 202.183 87.7935 201.907 86.9998C201.47 85.7525 201.502 84.3109 201.47 82.9503C201.389 79.1439 201.34 75.3212 201.324 71.5147C201.324 70.6562 201.033 70.3323 200.158 70.3647C198.49 70.4133 196.821 70.3809 194.894 70.3809C194.894 73.9606 194.78 77.3621 194.942 80.7474ZM100.218 73.8958C100.218 75.4994 101.173 76.4064 102.745 75.9529C103.959 75.5965 104.024 76.1635 103.976 76.9895C103.911 78.4959 103.684 79.9861 103.7 81.4925C103.733 83.987 103.781 86.4976 104.024 88.9759C104.251 91.3246 105.174 93.5598 107.782 93.9C110.422 94.2402 113.127 94.0458 115.8 93.9972C117.468 93.9648 117.695 92.7824 117.452 91.4703C117.29 90.5309 116.934 89.6238 116.626 88.5386C115.557 88.6681 114.537 88.7329 113.532 88.9273C111.751 89.2674 110.568 88.3118 110.552 86.449C110.552 84.2947 110.552 82.1566 110.552 80.0023C110.552 78.6093 110.552 77.2163 110.552 75.7423C111.427 75.7423 112.042 75.7585 112.658 75.7423C116.318 75.6775 115.849 76.4226 115.897 72.3246C115.913 71.3851 115.573 70.9964 114.601 71.0288C113.273 71.0774 111.929 71.045 110.536 71.045C110.536 69.5224 110.536 68.259 110.536 67.0117C110.536 64.2743 110.536 64.2743 107.847 65.0194C104.429 65.9751 104.478 65.9751 104.202 69.4576C104.154 70.1055 103.555 70.9316 102.955 71.2879C102.194 71.7415 101.19 71.8063 100.153 72.0816C100.218 72.7457 100.218 73.3127 100.218 73.8958ZM159.923 71.3527C159.906 71.0126 159.242 70.4619 158.854 70.4295C156.91 70.3323 154.966 70.2837 153.039 70.4133C149.086 70.6724 146.171 73.2965 146.155 77.2649C146.138 82.1404 146.219 87.016 146.106 91.8753C146.074 93.5922 146.948 94.1592 148.293 94.224C149.524 94.2726 150.755 94.0296 151.986 93.8352C152.261 93.7866 152.682 93.3979 152.682 93.1549C152.763 90.2555 152.779 87.3723 152.844 84.4729C152.893 82.1404 152.99 79.8242 153.022 77.4917C153.039 76.455 153.638 76.3254 154.464 76.3416C156.132 76.374 157.801 76.3416 159.793 76.3416C159.858 74.6085 159.971 72.9725 159.923 71.3527ZM190.731 71.4985C190.715 71.126 190.229 70.4943 189.889 70.4457C186.649 69.9597 183.409 69.8787 180.38 71.3851C178.421 72.357 177.044 73.9606 177.011 76.2121C176.914 81.6545 177.011 87.0969 176.963 92.5394C176.947 93.6246 177.449 94.1592 178.34 94.224C179.522 94.3211 180.737 94.224 181.935 94.1592C183.28 94.0782 183.636 93.3331 183.604 92.0049C183.507 87.7125 183.571 83.4201 183.571 79.1277C183.571 76.5522 183.782 76.3416 186.26 76.3416C187.621 76.3416 188.965 76.3416 190.65 76.3416C190.682 74.6571 190.779 73.0697 190.731 71.4985ZM172.8 90.5795C172.978 88.5871 170.775 86.4652 168.686 86.4328C166.612 86.4166 164.717 88.328 164.717 90.4823C164.701 92.5232 166.548 94.2726 168.718 94.2888C170.581 94.6451 172.589 92.8957 172.8 90.5795Z" fill="black"/>
</svg>
