<svg width="406" height="406" viewBox="0 0 406 406" fill="none" xmlns="http://www.w3.org/2000/svg">
<circle cx="203" cy="203" r="203" fill="#A597F9"/>
<path d="M152.326 185.708C153.687 183.522 154.869 181.626 156.052 179.731C164.345 166.433 172.622 153.118 180.931 139.82C181.369 139.124 181.952 138.459 182.6 137.974C184.543 136.548 186.795 137.083 187.88 139.253C192.335 148.178 196.757 157.135 201.211 166.06C204.969 173.576 208.775 181.092 212.549 188.591C213.473 190.406 214.396 192.22 215.271 194.066C215.53 194.601 215.595 195.216 215.821 196.059C212.906 196.059 210.249 196.188 207.609 195.978C206.896 195.913 206.005 194.99 205.617 194.244C203.333 189.903 201.195 185.482 198.992 181.092C194.327 171.794 189.646 162.513 184.965 153.232C184.705 152.73 184.414 152.244 183.944 151.401C183.069 152.762 182.357 153.88 181.66 154.981C174.193 167 166.726 179.035 159.259 191.054C158.433 192.382 157.671 193.759 156.781 195.038C155.226 197.273 153.654 197.678 151.468 196.059C149.07 194.293 146.884 192.268 144.616 190.341C140.405 186.761 136.209 183.149 131.982 179.586C130.492 178.338 130.33 178.403 129.487 180.055C124.725 189.58 119.979 199.104 115.217 208.628C111.848 215.366 108.495 222.088 105.142 228.827C104.51 230.106 103.555 230.884 102.081 230.9C100.25 230.916 98.4038 231.03 96.5897 230.9C94.8565 230.77 94.6621 230.317 95.4234 228.81C99.813 220.031 104.203 211.252 108.608 202.473C113.954 191.831 119.299 181.173 124.677 170.547C125.146 169.624 125.697 168.701 126.329 167.891C127.608 166.239 129.212 165.931 130.832 167.259C134.023 169.867 137.116 172.604 140.243 175.277C144.146 178.695 148.099 182.096 152.326 185.708ZM184.219 210.734C183.005 212.402 181.66 213.973 180.381 215.593C180.202 215.512 180.024 215.447 179.846 215.366C179.846 210.005 179.846 204.643 179.846 199.298C177.611 199.298 175.651 199.298 173.529 199.298C173.529 199.995 173.529 200.61 173.529 201.226C173.529 210.086 173.513 218.93 173.529 227.79C173.545 231.467 173.059 230.949 176.688 230.965C180.3 230.965 179.895 231.418 179.749 227.758C179.636 224.939 180.802 223.028 183.053 221.473C183.393 221.926 183.782 222.299 183.993 222.753C184.738 224.372 185.483 225.976 186.098 227.644C187.281 230.9 187.297 230.965 190.715 230.965C191.233 230.965 191.768 230.965 192.286 230.965C194.44 230.965 194.683 230.689 193.792 228.778C191.913 224.729 189.954 220.728 188.075 216.678C187.929 216.371 187.994 215.787 188.204 215.512C189.986 213.196 191.832 210.912 193.663 208.612C190.78 206.944 186.179 208.045 184.219 210.734ZM131.674 209.697C131.674 206.733 132.192 206.215 135.221 206.101C135.529 206.085 135.853 206.085 136.161 206.101C138.817 206.198 141.457 206.328 144.114 206.409C145.118 206.441 146.284 206.328 146.382 205.097C146.511 203.591 146.301 202.052 146.22 200.157C143.417 200.157 140.923 200.108 138.445 200.173C136.112 200.221 133.747 200.205 131.431 200.513C128.645 200.886 126.053 201.841 125.341 205.048C124.936 206.846 124.531 208.677 124.498 210.507C124.434 213.844 124.725 217.164 124.741 220.501C124.758 222.477 124.45 224.437 124.466 226.413C124.515 230.495 124.563 230.495 127.382 231.175C127.43 231.192 127.479 231.224 127.527 231.24C130.265 231.807 131.658 230.706 131.658 227.968C131.658 225.247 131.658 222.526 131.658 219.805C131.658 219.351 131.723 218.914 131.755 218.379C134.865 218.379 137.845 218.412 140.826 218.363C144.697 218.298 144.535 219.286 144.567 214.589C144.567 213.228 144.162 212.645 142.688 212.694C139.093 212.791 135.48 212.726 131.658 212.726C131.674 211.576 131.674 210.637 131.674 209.697ZM154.124 216.533C150.35 217.002 147.386 220.501 147.434 224.227C147.467 227.563 150.739 231.062 154.383 231.208C158.255 231.37 162.191 231.694 165.948 230.301C167.163 229.847 168.168 229.167 168.151 227.693C168.07 222.785 168.07 217.877 167.763 212.985C167.682 211.754 166.823 210.232 165.835 209.454C164.021 208.029 161.753 207.219 159.356 207.397C156.797 207.591 154.254 208.029 151.694 208.304C150.447 208.434 149.815 208.936 149.929 210.28C150.091 212.208 150.771 213.39 151.97 213.309C154.124 213.163 156.278 212.823 158.449 212.726C160.587 212.629 161.591 213.763 161.526 216.014C158.983 216.192 156.538 216.241 154.124 216.533ZM161.494 225.943C160.263 226.041 159.016 226.219 157.752 226.251C155.517 226.3 154.318 225.279 154.318 223.449C154.318 222.024 155.89 220.663 157.704 220.598C158.902 220.55 160.101 220.582 161.478 220.582C161.494 222.396 161.494 224.048 161.494 225.943ZM223.337 207.721C219.174 208.596 216.194 210.896 215.4 215.204C214.963 217.602 215.011 220.096 215.06 222.542C215.141 225.879 217.538 229.329 220.745 230.657C223.402 231.742 226.155 231.71 228.796 231.175C231.825 230.576 234.416 228.989 235.68 225.846C236.814 223.012 237.121 220.161 236.765 217.1C236.133 211.479 232.505 207.462 226.382 207.284C225.378 207.429 224.341 207.51 223.337 207.721ZM223.321 214.006C225.005 212.418 227.889 212.678 229.022 214.621C230.432 217.019 230.707 222.04 228.747 224.437C227.629 225.798 226.285 226.154 224.795 225.879C223.272 225.603 222.333 224.421 221.976 222.931C221.701 221.781 221.669 220.582 221.523 219.416C221.588 217.423 221.717 215.512 223.321 214.006ZM289.942 217.747C290.072 220.42 290.347 223.109 290.914 225.701C291.368 227.822 292.906 229.507 294.947 230.252C299.353 231.872 303.937 231.483 308.472 230.868C309.963 230.673 311.032 229.215 310.999 227.66C310.902 221.376 310.967 215.091 310.951 208.806C310.951 208.353 310.886 207.899 310.854 207.462C308.748 207.462 306.788 207.462 304.682 207.462C304.682 208.126 304.682 208.677 304.682 209.244C304.682 214.378 304.666 219.513 304.698 224.648C304.698 225.474 304.553 226.203 303.646 226.203C302.107 226.203 300.503 226.219 299.029 225.846C298.187 225.636 297.183 224.793 296.907 224C296.47 222.753 296.502 221.311 296.47 219.95C296.389 216.144 296.34 212.321 296.324 208.515C296.324 207.656 296.033 207.332 295.158 207.365C293.49 207.413 291.821 207.381 289.894 207.381C289.894 210.961 289.78 214.362 289.942 217.747ZM195.218 210.896C195.218 212.499 196.173 213.406 197.745 212.953C198.959 212.597 199.024 213.163 198.976 213.99C198.911 215.496 198.684 216.986 198.7 218.493C198.733 220.987 198.781 223.498 199.024 225.976C199.251 228.325 200.174 230.56 202.782 230.9C205.422 231.24 208.127 231.046 210.8 230.997C212.468 230.965 212.695 229.782 212.452 228.47C212.29 227.531 211.934 226.624 211.626 225.539C210.557 225.668 209.537 225.733 208.532 225.927C206.751 226.267 205.568 225.312 205.552 223.449C205.552 221.295 205.552 219.157 205.552 217.002C205.552 215.609 205.552 214.216 205.552 212.742C206.427 212.742 207.042 212.759 207.658 212.742C211.318 212.678 210.849 213.423 210.897 209.325C210.913 208.385 210.573 207.996 209.601 208.029C208.273 208.077 206.929 208.045 205.536 208.045C205.536 206.522 205.536 205.259 205.536 204.012C205.536 201.274 205.536 201.274 202.847 202.019C199.429 202.975 199.478 202.975 199.202 206.458C199.154 207.106 198.555 207.932 197.955 208.288C197.194 208.741 196.19 208.806 195.153 209.082C195.218 209.746 195.218 210.313 195.218 210.896ZM254.923 208.353C254.906 208.013 254.242 207.462 253.854 207.429C251.91 207.332 249.966 207.284 248.039 207.413C244.086 207.672 241.171 210.296 241.155 214.265C241.138 219.14 241.219 224.016 241.106 228.875C241.074 230.592 241.948 231.159 243.293 231.224C244.524 231.273 245.755 231.03 246.986 230.835C247.261 230.787 247.682 230.398 247.682 230.155C247.763 227.256 247.779 224.372 247.844 221.473C247.893 219.14 247.99 216.824 248.022 214.492C248.039 213.455 248.638 213.325 249.464 213.342C251.132 213.374 252.801 213.342 254.793 213.342C254.858 211.608 254.971 209.973 254.923 208.353ZM285.731 208.499C285.715 208.126 285.229 207.494 284.889 207.446C281.649 206.96 278.409 206.879 275.38 208.385C273.421 209.357 272.044 210.961 272.011 213.212C271.914 218.654 272.011 224.097 271.963 229.539C271.947 230.625 272.449 231.159 273.34 231.224C274.522 231.321 275.737 231.224 276.935 231.159C278.28 231.078 278.636 230.333 278.604 229.005C278.507 224.712 278.571 220.42 278.571 216.128C278.571 213.552 278.782 213.342 281.26 213.342C282.621 213.342 283.965 213.342 285.65 213.342C285.682 211.657 285.779 210.07 285.731 208.499ZM267.8 227.579C267.978 225.587 265.775 223.465 263.686 223.433C261.612 223.417 259.717 225.328 259.717 227.482C259.701 229.523 261.548 231.273 263.718 231.289C265.581 231.645 267.589 229.896 267.8 227.579Z" fill="black"/>
</svg>
