<svg width="539" height="540" viewBox="0 0 539 540" fill="none" xmlns="http://www.w3.org/2000/svg">
<g clip-path="url(#clip0)">
<path d="M329.008 350.264L329 350.268L328.993 350.272L216.984 415.554C216.243 415.294 215.49 415.044 214.747 414.798L214.673 414.773C213.591 414.415 212.528 414.062 211.485 413.674C123.773 381.043 78.9934 283.532 111.534 196.063C144.076 108.593 241.699 64.0608 329.411 96.6921C409.86 126.621 454.9 207.511 436.744 288.7L329.008 350.264Z" fill="#A597F9" stroke="black" stroke-width="4"/>
<path d="M325.477 352.843L228.222 408.878C229.702 406.236 231.032 403.267 232.32 400.096C233.617 396.905 234.876 393.502 236.205 389.909C238.438 383.873 240.871 377.297 244.019 370.275C253.917 348.198 270.41 322.999 307.247 304.504C340.841 288.792 366.869 289.322 387.325 292.215C392.239 292.911 396.833 293.742 401.166 294.527L401.757 294.634C406.245 295.446 410.476 296.203 414.42 296.667C417.021 296.973 419.538 297.158 421.963 297.143L325.479 352.842L325.477 352.843Z" fill="#FFEB80" stroke="black" stroke-width="4"/>
<path d="M164.898 310.304L176.572 303.327C181.07 300.639 182.279 295.723 179.714 291.431C177.149 287.139 172.246 285.875 167.748 288.563L161.568 292.257L158.9 287.793L171.089 280.508L168.216 275.702L150.534 286.269L164.898 310.304ZM167.519 302.214L164.441 297.064L170.278 293.575C171.651 292.754 173.297 293.169 174.22 294.714C175.143 296.259 174.729 297.905 173.356 298.726L167.519 302.214ZM187.045 297.068L203.526 287.218L200.551 282.239L189.564 288.806L186.793 284.171L197.094 278.015L194.221 273.208L183.921 279.364L181.15 274.728L192.138 268.162L189.162 263.183L172.681 273.033L187.045 297.068ZM217.646 266.431C217.912 267.343 217.979 268.235 217.882 269.086C217.728 270.622 216.95 272.439 214.615 273.834C211.182 275.886 206.793 274.781 204.228 270.489C201.663 266.197 202.768 261.809 206.202 259.757C208.434 258.423 210.402 258.598 211.821 259.101C212.651 259.397 213.384 259.845 214.055 260.422L219.549 257.139C218.076 255.689 216.501 254.534 214.753 253.714C211.778 252.323 207.656 251.664 203.021 254.435C196.532 258.313 194.405 266.528 198.734 273.772C203.064 281.017 211.306 283.034 217.796 279.156C222.465 276.365 223.885 272.348 224.015 269.055C224.1 267.094 223.809 265.124 223.14 263.147L217.646 266.431ZM231.341 270.595L236.834 267.312L225.651 248.599L234.578 243.264L245.762 261.977L251.255 258.693L236.891 234.659L216.976 246.56L231.341 270.595ZM253.237 257.742L254.954 256.716C259.246 254.151 260.178 250.331 257.991 245.814L251.736 233.009L258.088 229.213L269.272 247.926L274.766 244.642L260.401 220.608L243.577 230.663L251.848 247.621C252.764 249.543 252.425 251.004 250.743 252.01L250.056 252.42L253.237 257.742ZM276.313 243.717L282.322 240.126L280.994 234.396L290.265 228.856L294.683 232.739L300.691 229.148L278.087 210.038L270.19 214.758L276.313 243.717ZM279.667 228.666L277.283 218.44L277.97 218.03L285.847 224.972L279.667 228.666ZM305.176 226.468L310.67 223.184L299.487 204.472L306.182 200.47L303.001 195.148L284.117 206.434L287.298 211.756L293.993 207.755L305.176 226.468ZM319.764 217.75L325.257 214.466L319.717 205.196L328.987 199.655L334.528 208.926L340.022 205.643L325.657 181.608L320.164 184.891L325.602 193.99L316.331 199.531L310.893 190.432L305.399 193.715L319.764 217.75ZM355.007 197.153C361.496 193.274 363.624 185.06 359.294 177.815C354.964 170.57 346.722 168.553 340.232 172.431C333.743 176.31 331.616 184.524 335.946 191.769C340.275 199.014 348.518 201.031 355.007 197.153ZM351.826 191.831C348.393 193.883 344.004 192.777 341.439 188.486C338.874 184.194 339.98 179.805 343.413 177.753C346.847 175.701 351.235 176.806 353.8 181.098C356.365 185.39 355.26 189.779 351.826 191.831Z" fill="black"/>
</g>
<defs>
<clipPath id="clip0">
<rect width="419.744" height="419.744" fill="white" transform="translate(146.355) rotate(20.4066)"/>
</clipPath>
</defs>
</svg>
