<svg width="300" height="57" viewBox="0 0 300 57" fill="none" xmlns="http://www.w3.org/2000/svg">
<path fill-rule="evenodd" clip-rule="evenodd" d="M22.6823 20.6726C21.4908 22.1795 20.2047 23.9873 20.2047 26.6963C20.2047 31.7666 22.9693 35.7325 27.9243 35.7325C34.502 35.7325 35.788 28.6565 35.788 25.291C35.788 24.899 35.7672 24.5252 35.7288 24.167C37.4734 23.8844 39.2149 23.1147 40.8488 21.9907L40.8569 21.9959C40.937 25.3652 41.0285 28.6291 41.0285 30.1113C40.982 34.7791 41.3138 35.334 42.6961 35.334C44.173 35.334 44.9844 32.1704 46.3667 29.1579C47.9878 25.3926 49.7036 21.6273 50.7507 21.6273C52.7054 21.6273 49.1777 35.5345 53.8953 35.5319C57.2307 35.5319 62.1873 21.4267 64.3328 21.4267C66.0006 21.4267 62.6155 35.5345 66.3341 35.5319C69.0504 35.5319 73.6735 21.1753 75.2465 21.1753C76.8678 21.1753 73.5308 35.5319 78.3446 35.5319C82.6822 35.5319 86.2085 23.7359 87.3998 23.7359C87.9724 23.7359 89.0451 25.3144 89.81 27.4804L89.8052 27.5377C88.301 29.5148 87.3534 31.4085 87.3534 32.8242C87.3534 34.6307 88.6891 35.5332 90.0217 35.5332C92.0245 35.5332 93.9776 33.2761 93.9776 30.0123C93.9776 29.3298 93.9231 27.3814 93.1951 25.4304L93.1983 25.4095C96.1938 22.4843 100.068 19.9354 102.412 19.5187C101.078 21.1258 98.6472 22.5312 98.6472 27.1001C98.6472 32.0193 102.222 35.7846 106.796 35.7846C113.23 35.7846 114.612 28.5562 114.612 25.7455C114.612 24.7218 114.487 23.7997 114.264 22.9779L114.258 22.987C116.443 21.9034 118.095 20.3744 118.711 20.3744C120.047 20.3744 119.523 24.6411 119.523 29.0615C119.523 32.3736 119.044 35.7846 121.381 35.7846C123.145 35.7846 124.001 32.1222 125.765 28.8583C127.481 25.644 129.339 21.2756 130.054 21.2756C131.009 21.2756 130.627 28.0039 130.627 29.3103C130.627 30.9657 130.34 36.1845 133.58 36.1845C135.772 36.1845 139.871 29.7088 139.871 28.857C139.871 28.4051 139.871 28.3035 139.537 28.3035C139.204 28.3035 136.677 32.6718 135.676 32.6718C134.247 32.6718 135.152 27.0988 135.152 22.9818C135.152 21.1753 135.389 17.16 132.531 17.16C128.908 17.16 125.382 27.9024 124.285 27.9024C123.237 27.9011 125.81 17.5611 121.283 17.5611C119.442 17.5611 116.705 20.1946 113.717 21.5478L113.735 21.5543C112.635 19.2816 110.661 18.1134 108.75 18.1134C107.367 18.1134 106.319 19.2191 106.319 20.3731C106.319 21.9281 107.51 24.0368 110.275 24.0368C111.035 24.0368 111.774 23.9065 112.479 23.6968L112.512 23.7099C112.762 24.5629 112.9 25.4199 112.898 26.0959C112.898 28.7554 111.184 32.2186 107.895 32.2186C105.321 32.2186 103.033 29.3585 103.033 25.8432C103.033 20.1191 106.322 19.167 106.322 18.0105C106.322 17.509 105.94 17.41 105.225 17.41C101.55 17.41 96.4969 20.6101 92.7028 24.2999L92.6884 24.2959C92.5576 24.0511 92.4153 23.8141 92.2619 23.5835C88.5913 18.0613 90.0217 16.8578 89.0692 16.8578C87.8777 16.8578 82.5395 32.1704 80.4422 32.1704C77.6776 32.1704 82.7303 17.41 77.3457 17.41C73.1043 17.41 70.6733 29.0055 69.0537 29.0055C67.4822 29.0055 70.6252 17.41 66.0503 17.41C62.763 17.41 57.8528 31.2665 55.709 31.2665C53.8985 31.2665 57.3766 17.6119 53.1833 17.6119C49.1793 17.6119 46.0347 28.3048 45.0341 28.3048C44.1971 28.3048 44.3767 24.9654 44.4103 18.8375L44.4248 18.7945C47.7073 15.0787 49.9907 9.98754 49.9923 5.16467C49.9923 2.90627 48.9435 1.148 46.9423 1.14931C43.0345 1.14931 40.7462 7.67444 40.7462 14.8534C40.7462 16.4202 40.7799 18.4181 40.8247 20.4707L40.8136 20.4955C39 21.9008 37.2922 22.6367 36.3141 22.6367L35.432 22.6406L35.4336 22.6432C34.5325 19.5486 32.1095 18.168 30.3568 18.168C28.9746 18.168 27.8794 19.5226 27.8794 20.6778C27.8794 22.3814 29.3146 24.1813 33.8381 24.2868L33.8477 24.2959C33.9621 24.8729 34.0223 25.459 34.0274 26.0477C34.0274 28.7085 32.1689 32.3254 28.8816 32.3254C26.0209 32.3254 23.8769 28.9117 23.8769 25.1438C23.8769 20.3249 26.9269 18.818 26.9269 18.4676C26.9269 18.2657 26.8787 18.0652 26.7841 18.0652C23.7582 18.0652 18.8225 21.5752 14.1706 26.6703L14.1626 26.6677C13.6366 22.4517 13.0096 17.4699 13.0096 11.6403C13.0096 3.20712 14.4881 2.10398 14.4881 0.999526C14.4881 0.496791 14.3454 0.294911 13.534 0.294911C11.7236 0.294911 0 5.86667 0 18.2175C0 27.7161 4.96145 31.9373 8.15723 34.4991C4.7305 39.8612 2.28828 45.7533 2.28828 50.8992C2.28828 53.8101 3.38507 56.6729 5.43288 56.6729C8.67367 56.6729 14.8682 49.4418 14.8698 34.6346C14.8698 32.6888 14.6308 30.4707 14.3245 27.9636L14.3261 27.9557C17.1019 24.869 20.0781 22.3241 22.6823 20.6726ZM271.986 22.1743L271.992 22.1561C271.388 20.9266 270.53 19.9719 269.499 19.9719C269.023 19.9719 268.595 20.4733 268.595 20.8758C268.595 21.7797 269.406 22.3319 270.642 22.3319C271.095 22.3306 271.542 22.2746 271.986 22.1743ZM168.896 33.491C169.493 32.5976 170.121 31.7224 170.762 30.868L170.795 30.7885C170.014 26.4098 169.179 22.186 169.179 19.0667C169.179 10.1816 172.85 3.85574 172.85 2.49861C172.85 1.59473 172.995 1.44496 172.374 1.44496C171.944 1.44496 163.557 5.21025 163.557 18.5145C163.559 23.8779 165.929 30.4421 168.896 33.491ZM168.235 34.4991C167.051 33.551 165.951 31.9229 164.272 30.7156C162.856 29.6932 159.124 30.8016 155.886 31.4176L155.879 31.4254C155.598 33.3908 154.956 35.334 154.313 35.334C153.893 35.334 153.708 33.7763 153.183 31.9685L153.151 31.9451C151.704 32.2186 150.479 32.4205 149.736 32.4205C147.496 32.4205 142.349 31.3642 142.349 27.8021C142.349 25.795 144.495 24.9901 146.544 24.9901C148.878 24.9901 152.596 26.7471 153.502 28.6565C153.739 25.2428 151.403 23.3843 151.403 22.832C151.403 22.2798 153.93 21.2756 154.168 21.2756C155.171 21.2756 156.029 26.0959 156.029 29.5108C156.029 29.6737 156.022 29.8364 156.015 30.0097V30.0123C158.581 29.4718 161.339 28.9013 163.13 29.1579C161.413 26.5973 160.125 23.0834 160.125 18.2136C160.125 5.86408 171.801 0.291016 173.612 0.291016C174.423 0.291016 174.614 0.491577 174.614 0.995614C174.614 2.10007 173.089 3.20453 173.089 11.6377C173.089 17.4726 173.715 22.4582 174.242 26.6768C178.895 21.5791 183.834 18.0639 186.863 18.0639C186.958 18.0639 187.004 18.2644 187.004 18.465C187.004 18.8167 183.954 20.3236 183.958 25.1425C183.954 28.9078 186.146 32.3215 189.006 32.3215C192.246 32.3215 194.108 28.706 194.108 26.0451C194.108 25.5176 194.045 24.9081 193.926 24.2842L193.924 24.2816C189.395 24.1761 187.96 22.3775 187.96 20.6713C187.96 19.5161 189.056 18.1615 190.484 18.1615C192.2 18.1615 194.611 19.5408 195.514 22.6341L196.394 22.6288C197.375 22.6288 199.086 21.893 200.902 20.4838L200.906 20.472C200.861 18.5979 200.835 16.7224 200.827 14.8469C200.827 7.66792 203.116 1.14279 207.021 1.14018C209.023 1.14018 210.071 2.89977 210.071 5.15817C210.071 9.97973 207.787 15.0735 204.506 18.7893L204.49 18.8258C204.458 24.9589 204.276 28.3022 205.117 28.3022C206.116 28.3022 209.26 17.6093 213.266 17.6093C217.46 17.6093 214.027 31.2626 215.789 31.2626C217.936 31.2626 222.842 17.4061 226.132 17.4061C230.707 17.4061 227.563 29.0029 229.135 29.0029C230.754 29.0029 233.184 17.4061 237.425 17.4061C242.811 17.4061 237.76 32.1665 240.525 32.1665C242.622 32.1665 247.958 16.8539 249.152 16.8539C250.104 16.8539 248.676 18.0586 252.343 23.5809C252.5 23.8127 252.641 24.0498 252.769 24.2933L252.789 24.2959C256.587 20.6075 261.651 17.4048 265.354 17.4048C266.021 17.4048 266.403 17.5064 266.403 18.0079C266.403 19.1618 263.114 20.1152 263.114 25.838C263.114 29.3532 265.404 32.2134 267.974 32.2134C271.263 32.2134 272.979 28.7489 272.979 26.0907C272.979 25.4147 272.844 24.5616 272.593 23.7086L272.571 23.6968C271.866 23.913 271.137 24.0263 270.404 24.0316C267.595 24.0316 266.4 21.9216 266.4 20.3678C266.4 19.2126 267.45 18.1094 268.832 18.1094C270.739 18.1094 272.709 19.2712 273.811 21.5322L273.821 21.5348C276.798 20.1777 279.528 17.5572 281.365 17.5572C285.894 17.5572 283.32 27.8998 284.368 27.8998C285.512 27.8998 288.991 17.1561 292.613 17.1561C295.471 17.1561 295.234 21.1714 295.234 22.9792C295.234 27.0975 294.33 32.6679 295.76 32.6679C296.759 32.6679 299.287 28.2996 299.618 28.2996C299.954 28.2996 300 28.4025 300 28.8544C300 29.7049 295.9 36.1819 293.661 36.1819C290.421 36.1819 290.707 30.9617 290.707 29.3064C290.707 28.0013 291.086 21.273 290.135 21.273C289.422 21.273 287.561 25.6413 285.844 28.8557C284.083 32.1196 283.225 35.782 281.463 35.782C279.126 35.782 279.604 32.3697 279.604 29.0589C279.604 24.6398 280.125 20.3704 278.795 20.3704C278.177 20.3704 276.524 21.9008 274.353 22.9844L274.35 22.9909C274.569 23.8088 274.694 24.7257 274.694 25.7429C274.694 28.5536 273.314 35.782 266.878 35.782C262.304 35.782 258.727 32.0167 258.727 27.0975C258.727 22.5286 261.159 21.122 262.543 19.5161C260.171 19.9328 256.289 22.4791 253.288 25.4043L253.279 25.4356C254.006 27.384 254.059 29.3285 254.059 30.011C254.059 33.2748 252.104 35.5345 250.102 35.5319C248.768 35.5319 247.434 34.6307 247.434 32.8216C247.434 31.4033 248.386 29.503 249.898 27.5207V27.5038C249.134 25.3249 248.057 23.7359 247.48 23.7359C246.291 23.7359 242.811 35.5319 238.427 35.5319C233.613 35.5319 236.949 21.1753 235.329 21.1753C233.757 21.1753 229.135 35.5319 226.467 35.5319C222.701 35.5319 226.085 21.4267 224.415 21.4267C222.273 21.4267 217.315 35.5319 213.979 35.5319C209.264 35.5319 212.786 21.6273 210.835 21.6273C209.787 21.6273 208.068 25.3926 206.451 29.1579C205.066 32.1704 204.259 35.334 202.78 35.334C201.399 35.334 201.111 34.7791 201.111 30.1113C201.111 28.6291 201.02 25.3678 200.939 21.9998L200.933 21.9907C199.297 23.1121 197.563 23.8805 195.819 24.1644L195.813 24.1748C195.849 24.5291 195.872 24.9029 195.872 25.291C195.872 28.6552 194.584 35.7325 188.008 35.7325C183.05 35.7325 180.335 31.7666 180.335 26.6963C180.335 23.9873 181.575 22.1782 182.766 20.6726C180.163 22.3215 177.191 24.8625 174.416 27.9401L174.407 27.9818C174.709 30.4812 174.952 32.6901 174.952 34.6307C174.952 49.4392 168.805 56.6702 165.516 56.6702C163.465 56.6702 162.368 53.8075 162.368 50.8966C162.365 45.7507 164.809 39.8573 168.235 34.4991ZM250.325 28.9078H250.313C249.502 30.1412 249.007 31.3238 249.007 32.3215C249.007 33.3256 249.199 33.9287 249.772 33.9287C250.295 33.9287 250.771 33.2227 250.771 32.2694C250.771 31.135 250.598 29.9836 250.325 28.9078ZM204.492 16.7823C206.51 14.0381 208.068 10.377 208.068 5.91487C208.068 3.80494 207.925 2.60021 206.879 2.60021C204.193 2.60021 204.463 13.0821 204.492 16.7823ZM193.424 22.595L193.432 22.582C192.921 21.3212 192.12 20.3223 191.01 20.3223C190.53 20.3223 190.246 20.6244 190.246 21.0243C190.247 22.1404 191.755 22.4921 193.424 22.595ZM171.035 32.1417L171.021 32.1378C167.342 37.2329 164.605 43.1563 164.605 48.7854C164.605 50.6466 164.605 53.4064 167.035 53.4064C170.038 53.4064 172.138 48.6851 172.138 42.1092C172.138 39.0537 171.626 35.5788 171.035 32.1417ZM152.716 30.6531L152.735 30.6231C151.905 28.4923 150.448 26.4462 147.498 26.4462C146.688 26.4462 146.258 27.2003 146.258 28.1042C146.258 29.7609 148.736 30.8133 151.025 30.8133C151.5 30.8146 152.078 30.7521 152.716 30.6531ZM111.904 22.1743C111.463 22.2759 111.014 22.328 110.563 22.3306C109.277 22.3306 108.514 21.7784 108.514 20.8745C108.514 20.472 108.944 19.9706 109.42 19.9706C110.449 19.9706 111.306 20.9266 111.912 22.1548L111.904 22.1743ZM90.2478 28.9248C90.5173 29.994 90.6903 31.1415 90.6903 32.2694C90.6903 33.2227 90.2141 33.9287 89.6881 33.9287C89.1173 33.9287 88.9265 33.3256 88.9265 32.3215C88.9265 31.329 89.4171 30.1516 90.2221 28.9235H90.2478V28.9248ZM44.412 16.7667C44.3814 13.0495 44.1168 2.60021 46.798 2.60021C47.8467 2.60021 47.9894 3.80494 47.9894 5.91487C47.9894 10.3705 46.434 14.0276 44.42 16.7705L44.412 16.7667ZM33.3506 22.595C31.6782 22.4908 30.1645 22.143 30.1645 21.0243C30.1645 20.6244 30.4514 20.3223 30.9277 20.3223C32.0405 20.3223 32.8439 21.3251 33.3538 22.5898L33.3506 22.595ZM10.7101 30.8341C10.0591 31.695 9.42575 32.582 8.81956 33.4858H8.81474C5.853 30.433 3.47656 23.8727 3.47496 18.5119C3.47496 5.21025 11.8631 1.44496 12.2928 1.44496C12.9118 1.44496 12.7225 1.59473 12.7225 2.49861C12.7225 3.85574 9.10022 10.1803 9.10022 19.0667C9.10022 22.186 9.93403 26.4111 10.7149 30.7911L10.7101 30.8341ZM10.9523 32.1274C11.5472 35.5684 12.0555 39.0472 12.0555 42.1105C12.0555 48.6864 9.95801 53.4077 6.95622 53.4077C4.52526 53.4077 4.52526 50.6466 4.52526 48.7893C4.52526 43.155 7.26568 37.2251 10.9475 32.13H10.9523V32.1274Z" fill="black"/>
</svg>
