<svg width="407" height="406" viewBox="0 0 407 406" fill="none" xmlns="http://www.w3.org/2000/svg">
<ellipse cx="203.5" cy="203" rx="203.5" ry="203" fill="#A597F9"/>
<path fill-rule="evenodd" clip-rule="evenodd" d="M76.6823 181.673C75.4908 183.18 74.2047 184.987 74.2047 187.696C74.2047 192.767 76.9693 196.733 81.9243 196.733C88.502 196.733 89.788 189.656 89.788 186.291C89.788 185.899 89.7672 185.525 89.7288 185.167C91.4734 184.884 93.2149 184.115 94.8488 182.991L94.8569 182.996C94.937 186.365 95.0285 189.629 95.0285 191.111C94.982 195.779 95.3138 196.334 96.6961 196.334C98.173 196.334 98.9844 193.17 100.367 190.158C101.988 186.393 103.704 182.627 104.751 182.627C106.705 182.627 103.178 196.535 107.895 196.532C111.231 196.532 116.187 182.427 118.333 182.427C120.001 182.427 116.615 196.535 120.334 196.532C123.05 196.532 127.673 182.175 129.247 182.175C130.868 182.175 127.531 196.532 132.345 196.532C136.682 196.532 140.208 184.736 141.4 184.736C141.972 184.736 143.045 186.314 143.81 188.48L143.805 188.538C142.301 190.515 141.353 192.408 141.353 193.824C141.353 195.631 142.689 196.533 144.022 196.533C146.025 196.533 147.978 194.276 147.978 191.012C147.978 190.33 147.923 188.381 147.195 186.43L147.198 186.41C150.194 183.484 154.068 180.935 156.412 180.519C155.078 182.126 152.647 183.531 152.647 188.1C152.647 193.019 156.222 196.785 160.796 196.785C167.23 196.785 168.612 189.556 168.612 186.746C168.612 185.722 168.487 184.8 168.264 183.978L168.258 183.987C170.443 182.903 172.095 181.374 172.711 181.374C174.047 181.374 173.523 185.641 173.523 190.062C173.523 193.374 173.044 196.785 175.381 196.785C177.145 196.785 178.001 193.122 179.765 189.858C181.481 186.644 183.339 182.276 184.054 182.276C185.009 182.276 184.627 189.004 184.627 190.31C184.627 191.966 184.34 197.184 187.58 197.184C189.772 197.184 193.871 190.709 193.871 189.857C193.871 189.405 193.871 189.304 193.537 189.304C193.204 189.304 190.677 193.672 189.676 193.672C188.247 193.672 189.152 188.099 189.152 183.982C189.152 182.175 189.389 178.16 186.531 178.16C182.908 178.16 179.382 188.902 178.285 188.902C177.237 188.901 179.81 178.561 175.283 178.561C173.442 178.561 170.705 181.195 167.717 182.548L167.735 182.554C166.635 180.282 164.661 179.113 162.75 179.113C161.367 179.113 160.319 180.219 160.319 181.373C160.319 182.928 161.51 185.037 164.275 185.037C165.035 185.037 165.774 184.907 166.479 184.697L166.512 184.71C166.762 185.563 166.9 186.42 166.898 187.096C166.898 189.755 165.184 193.219 161.895 193.219C159.321 193.219 157.033 190.358 157.033 186.843C157.033 181.119 160.322 180.167 160.322 179.01C160.322 178.509 159.94 178.41 159.225 178.41C155.55 178.41 150.497 181.61 146.703 185.3L146.688 185.296C146.558 185.051 146.415 184.814 146.262 184.584C142.591 179.061 144.022 177.858 143.069 177.858C141.878 177.858 136.54 193.17 134.442 193.17C131.678 193.17 136.73 178.41 131.346 178.41C127.104 178.41 124.673 190.006 123.054 190.006C121.482 190.006 124.625 178.41 120.05 178.41C116.763 178.41 111.853 192.267 109.709 192.267C107.899 192.267 111.377 178.612 107.183 178.612C103.179 178.612 100.035 189.305 99.0341 189.305C98.1971 189.305 98.3767 185.965 98.4103 179.837L98.4248 179.795C101.707 176.079 103.991 170.988 103.992 166.165C103.992 163.906 102.944 162.148 100.942 162.149C97.0345 162.149 94.7462 168.674 94.7462 175.853C94.7462 177.42 94.7799 179.418 94.8247 181.471L94.8136 181.495C93 182.901 91.2922 183.637 90.3141 183.637L89.432 183.641L89.4336 183.643C88.5325 180.549 86.1095 179.168 84.3568 179.168C82.9746 179.168 81.8794 180.523 81.8794 181.678C81.8794 183.381 83.3146 185.181 87.8381 185.287L87.8477 185.296C87.9621 185.873 88.0223 186.459 88.0274 187.048C88.0274 189.709 86.1689 193.325 82.8816 193.325C80.0209 193.325 77.8769 189.912 77.8769 186.144C77.8769 181.325 80.9269 179.818 80.9269 179.468C80.9269 179.266 80.8787 179.065 80.7841 179.065C77.7582 179.065 72.8225 182.575 68.1706 187.67L68.1626 187.668C67.6366 183.452 67.0096 178.47 67.0096 172.64C67.0096 164.207 68.4881 163.104 68.4881 162C68.4881 161.497 68.3454 161.295 67.534 161.295C65.7236 161.295 54 166.867 54 179.218C54 188.716 58.9615 192.937 62.1572 195.499C58.7305 200.861 56.2883 206.753 56.2883 211.899C56.2883 214.81 57.3851 217.673 59.4329 217.673C62.6737 217.673 68.8682 210.442 68.8698 195.635C68.8698 193.689 68.6308 191.471 68.3245 188.964L68.3261 188.956C71.1019 185.869 74.0781 183.324 76.6823 181.673ZM325.986 183.174L325.992 183.156C325.388 181.927 324.53 180.972 323.499 180.972C323.023 180.972 322.595 181.473 322.595 181.876C322.595 182.78 323.406 183.332 324.642 183.332C325.095 183.331 325.542 183.275 325.986 183.174ZM222.896 194.491C223.493 193.598 224.121 192.722 224.762 191.868L224.795 191.789C224.014 187.41 223.179 183.186 223.179 180.067C223.179 171.182 226.85 164.856 226.85 163.499C226.85 162.595 226.995 162.445 226.374 162.445C225.944 162.445 217.557 166.21 217.557 179.514C217.559 184.878 219.929 191.442 222.896 194.491ZM222.235 195.499C221.051 194.551 219.951 192.923 218.272 191.716C216.856 190.693 213.124 191.802 209.886 192.418L209.879 192.425C209.598 194.391 208.956 196.334 208.313 196.334C207.893 196.334 207.708 194.776 207.183 192.969L207.151 192.945C205.704 193.219 204.479 193.42 203.736 193.42C201.496 193.42 196.349 192.364 196.349 188.802C196.349 186.795 198.495 185.99 200.544 185.99C202.878 185.99 206.596 187.747 207.502 189.656C207.739 186.243 205.403 184.384 205.403 183.832C205.403 183.28 207.93 182.276 208.168 182.276C209.171 182.276 210.029 187.096 210.029 190.511C210.029 190.674 210.022 190.836 210.015 191.01V191.012C212.581 190.472 215.339 189.901 217.13 190.158C215.413 187.597 214.125 184.083 214.125 179.214C214.125 166.864 225.801 161.291 227.612 161.291C228.423 161.291 228.614 161.492 228.614 161.996C228.614 163.1 227.089 164.205 227.089 172.638C227.089 178.473 227.715 183.458 228.242 187.677C232.895 182.579 237.834 179.064 240.863 179.064C240.958 179.064 241.004 179.264 241.004 179.465C241.004 179.817 237.954 181.324 237.958 186.143C237.954 189.908 240.146 193.321 243.006 193.321C246.246 193.321 248.108 189.706 248.108 187.045C248.108 186.518 248.045 185.908 247.926 185.284L247.924 185.282C243.395 185.176 241.96 183.377 241.96 181.671C241.96 180.516 243.056 179.162 244.484 179.162C246.2 179.162 248.611 180.541 249.514 183.634L250.394 183.629C251.375 183.629 253.086 182.893 254.902 181.484L254.906 181.472C254.861 179.598 254.835 177.722 254.827 175.847C254.827 168.668 257.116 162.143 261.021 162.14C263.023 162.14 264.071 163.9 264.071 166.158C264.071 170.98 261.787 176.073 258.506 179.789L258.49 179.826C258.458 185.959 258.276 189.302 259.117 189.302C260.116 189.302 263.26 178.609 267.266 178.609C271.46 178.609 268.027 192.263 269.789 192.263C271.936 192.263 276.842 178.406 280.132 178.406C284.707 178.406 281.563 190.003 283.135 190.003C284.754 190.003 287.184 178.406 291.425 178.406C296.811 178.406 291.76 193.166 294.525 193.166C296.622 193.166 301.958 177.854 303.152 177.854C304.104 177.854 302.676 179.059 306.343 184.581C306.5 184.813 306.641 185.05 306.769 185.293L306.789 185.296C310.587 181.607 315.651 178.405 319.354 178.405C320.021 178.405 320.403 178.506 320.403 179.008C320.403 180.162 317.114 181.115 317.114 186.838C317.114 190.353 319.404 193.213 321.974 193.213C325.263 193.213 326.979 189.749 326.979 187.091C326.979 186.415 326.844 185.562 326.593 184.709L326.571 184.697C325.866 184.913 325.137 185.026 324.404 185.032C321.595 185.032 320.4 182.922 320.4 181.368C320.4 180.213 321.45 179.109 322.832 179.109C324.739 179.109 326.709 180.271 327.811 182.532L327.821 182.535C330.798 181.178 333.528 178.557 335.365 178.557C339.894 178.557 337.32 188.9 338.368 188.9C339.512 188.9 342.991 178.156 346.613 178.156C349.471 178.156 349.234 182.171 349.234 183.979C349.234 188.097 348.33 193.668 349.76 193.668C350.759 193.668 353.287 189.3 353.618 189.3C353.954 189.3 354 189.402 354 189.854C354 190.705 349.9 197.182 347.661 197.182C344.421 197.182 344.707 191.962 344.707 190.306C344.707 189.001 345.086 182.273 344.135 182.273C343.422 182.273 341.561 186.641 339.844 189.856C338.083 193.12 337.225 196.782 335.463 196.782C333.126 196.782 333.604 193.37 333.604 190.059C333.604 185.64 334.125 181.37 332.795 181.37C332.177 181.37 330.524 182.901 328.353 183.984L328.35 183.991C328.569 184.809 328.694 185.726 328.694 186.743C328.694 189.554 327.314 196.782 320.878 196.782C316.304 196.782 312.727 193.017 312.727 188.097C312.727 183.529 315.159 182.122 316.543 180.516C314.171 180.933 310.289 183.479 307.288 186.404L307.279 186.436C308.006 188.384 308.059 190.329 308.059 191.011C308.059 194.275 306.104 196.535 304.102 196.532C302.768 196.532 301.434 195.631 301.434 193.822C301.434 192.403 302.386 190.503 303.898 188.521V188.504C303.134 186.325 302.057 184.736 301.48 184.736C300.291 184.736 296.811 196.532 292.427 196.532C287.613 196.532 290.949 182.175 289.329 182.175C287.757 182.175 283.135 196.532 280.467 196.532C276.701 196.532 280.085 182.427 278.415 182.427C276.273 182.427 271.315 196.532 267.979 196.532C263.264 196.532 266.786 182.627 264.835 182.627C263.787 182.627 262.068 186.393 260.451 190.158C259.066 193.17 258.259 196.334 256.78 196.334C255.399 196.334 255.111 195.779 255.111 191.111C255.111 189.629 255.02 186.368 254.939 183L254.933 182.991C253.297 184.112 251.563 184.88 249.819 185.164L249.813 185.175C249.849 185.529 249.872 185.903 249.872 186.291C249.872 189.655 248.584 196.733 242.008 196.733C237.05 196.733 234.335 192.767 234.335 187.696C234.335 184.987 235.575 183.178 236.766 181.673C234.163 183.321 231.191 185.862 228.416 188.94L228.407 188.982C228.709 191.481 228.952 193.69 228.952 195.631C228.952 210.439 222.805 217.67 219.516 217.67C217.465 217.67 216.368 214.808 216.368 211.897C216.365 206.751 218.809 200.857 222.235 195.499ZM304.325 189.908H304.313C303.502 191.141 303.007 192.324 303.007 193.321C303.007 194.326 303.199 194.929 303.772 194.929C304.295 194.929 304.771 194.223 304.771 193.269C304.771 192.135 304.598 190.984 304.325 189.908ZM258.492 177.782C260.51 175.038 262.068 171.377 262.068 166.915C262.068 164.805 261.925 163.6 260.879 163.6C258.193 163.6 258.463 174.082 258.492 177.782ZM247.424 183.595L247.432 183.582C246.921 182.321 246.12 181.322 245.01 181.322C244.53 181.322 244.246 181.624 244.246 182.024C244.247 183.14 245.755 183.492 247.424 183.595ZM225.035 193.142L225.021 193.138C221.342 198.233 218.605 204.156 218.605 209.785C218.605 211.647 218.605 214.406 221.035 214.406C224.038 214.406 226.138 209.685 226.138 203.109C226.138 200.054 225.626 196.579 225.035 193.142ZM206.716 191.653L206.735 191.623C205.905 189.492 204.448 187.446 201.498 187.446C200.688 187.446 200.258 188.2 200.258 189.104C200.258 190.761 202.736 191.813 205.025 191.813C205.5 191.815 206.078 191.752 206.716 191.653ZM165.904 183.174C165.463 183.276 165.014 183.328 164.563 183.331C163.277 183.331 162.514 182.778 162.514 181.874C162.514 181.472 162.944 180.971 163.42 180.971C164.449 180.971 165.306 181.927 165.912 183.155L165.904 183.174ZM144.248 189.925C144.517 190.994 144.69 192.141 144.69 193.269C144.69 194.223 144.214 194.929 143.688 194.929C143.117 194.929 142.927 194.326 142.927 193.321C142.927 192.329 143.417 191.152 144.222 189.923H144.248V189.925ZM98.412 177.767C98.3814 174.05 98.1168 163.6 100.798 163.6C101.847 163.6 101.989 164.805 101.989 166.915C101.989 171.37 100.434 175.028 98.42 177.771L98.412 177.767ZM87.3506 183.595C85.6782 183.491 84.1645 183.143 84.1645 182.024C84.1645 181.624 84.4514 181.322 84.9277 181.322C86.0405 181.322 86.8439 182.325 87.3538 183.59L87.3506 183.595ZM64.7101 191.834C64.0591 192.695 63.4258 193.582 62.8196 194.486H62.8147C59.853 191.433 57.4766 184.873 57.475 179.512C57.475 166.21 65.8631 162.445 66.2928 162.445C66.9118 162.445 66.7225 162.595 66.7225 163.499C66.7225 164.856 63.1002 171.18 63.1002 180.067C63.1002 183.186 63.934 187.411 64.7149 191.791L64.7101 191.834ZM64.9523 193.127C65.5472 196.568 66.0555 200.047 66.0555 203.11C66.0555 209.686 63.958 214.408 60.9562 214.408C58.5253 214.408 58.5253 211.647 58.5253 209.789C58.5253 204.155 61.2657 198.225 64.9475 193.13H64.9523V193.127Z" fill="black"/>
</svg>
