<svg width="175" height="31" viewBox="0 0 175 31" fill="none" xmlns="http://www.w3.org/2000/svg">
<path d="M6.07039 0.185547H0.337694C0.151064 0.185547 0 0.344692 0 0.541297V29.5031C0 29.6998 0.151416 29.8589 0.337694 29.8589H6.07039C6.25702 29.8589 6.40808 29.6994 6.40808 29.5031C6.40808 17.0862 6.27885 17.4764 6.74578 17.4764C21.1437 17.4764 20.6867 17.324 20.6867 17.8322V29.5031C20.6867 29.6998 20.8381 29.8589 21.0243 29.8589H26.7757C26.9623 29.8589 27.1134 29.6994 27.1134 29.5031V0.541297C27.1134 0.344692 26.9623 0.185547 26.7757 0.185547H21.0251C20.8384 0.185547 20.6874 0.344692 20.6874 0.541297V11.8405C20.6874 12.0372 20.5359 12.1963 20.3497 12.1963H6.74683C6.5602 12.1963 6.40914 12.0372 6.40914 11.8405V0.541297C6.40808 0.345063 6.25702 0.185547 6.07039 0.185547Z" fill="black"/>
<path d="M38.4052 0.187988H32.7144C32.5278 0.187988 32.3767 0.347125 32.3767 0.543735C32.3767 20.2303 31.9264 23.606 34.112 26.0904C36.6041 29.0043 40.312 30.1772 45.6201 30.1772C50.9295 30.1772 54.5674 29.0043 57.0781 26.0904C58.4422 24.5312 58.8687 21.9159 58.8687 18.1225V0.544482C58.8687 0.347872 58.7172 0.188724 58.531 0.188724H52.7895C52.6028 0.188724 52.4518 0.347872 52.4518 0.544482V17.9708C52.4518 23.2065 50.9299 25.3867 45.6204 25.3867C40.3124 25.3867 38.7433 23.2065 38.7433 17.9708V0.544482C38.7429 0.34713 38.5919 0.187988 38.4052 0.187988Z" fill="black"/>
<path d="M79.609 0.185547H73.2442C73.1121 0.185547 72.9921 0.266782 72.9371 0.393274C59.5973 31.0542 59.892 29.8583 60.6442 29.8583C66.8276 29.8583 66.8548 29.9993 66.9945 29.6361C69.6507 22.7299 69.5014 22.7949 69.8535 22.7949H82.6408C82.7771 22.7949 82.8997 22.8809 82.9525 23.0133C85.6977 29.9192 85.5463 29.8583 85.8984 29.8583H92.2872C93.0214 29.8583 93.3693 31.1244 79.9164 0.392538C79.8608 0.266417 79.741 0.185547 79.609 0.185547ZM80.2794 17.506H72.21C71.9695 17.506 71.8061 17.2485 71.8976 17.0145L75.8619 6.89812C75.976 6.60656 76.3673 6.60397 76.4849 6.89404L80.59 17.0104C80.6851 17.2448 80.5217 17.506 80.2794 17.506Z" fill="black"/>
<path d="M106.547 29.8595C106.917 29.8595 106.511 31.0073 112.186 8.89159C112.274 8.54735 112.735 8.53881 112.835 8.87934C119.298 30.9178 118.868 29.8595 119.236 29.8595H126.61C126.755 29.8595 126.884 29.7616 126.93 29.6165C136.684 -1.13424 136.465 0.18599 135.796 0.18599H129.948C129.799 0.18599 129.668 0.288371 129.625 0.438237L123.429 21.9014C123.333 22.236 122.884 22.2386 122.784 21.9051L116.356 0.434898C116.311 0.286886 116.181 0.18599 116.034 0.18599H108.975C108.823 0.18599 108.69 0.293194 108.649 0.447883L103.075 21.8565C102.986 22.197 102.532 22.2082 102.428 21.8725L95.7956 0.431569C95.7502 0.285042 95.6206 0.18599 95.4745 0.18599H89.3185C89.0843 0.18599 88.9213 0.430451 89.0009 0.66267L98.9151 29.6247C99.0423 29.9953 98.938 29.8595 106.547 29.8595Z" fill="black"/>
<path d="M152.125 5.36223H162.312C162.498 5.36223 162.649 5.20308 162.649 5.00648V0.541298C162.649 0.344692 162.498 0.185547 162.312 0.185547H151.993C142.187 0.185547 137.646 5.07919 137.646 15.5646C137.646 20.9371 139.173 24.8281 142.315 27.253C145.284 29.56 148.131 29.8586 151.823 29.8586C162.956 29.8586 162.649 29.9951 162.649 29.5029V25.0525C162.649 24.8559 162.498 24.6968 162.312 24.6968H152.125C147.197 24.6968 145.011 22.8312 144.872 17.7888C144.866 17.5893 145.021 17.4231 145.21 17.4231H162.311C162.498 17.4231 162.649 17.2636 162.649 17.0673V12.6025C162.649 12.4059 162.498 12.2468 162.311 12.2468H145.273C145.077 12.2468 144.918 12.0683 144.935 11.8617C145.305 7.46888 147.623 5.36223 152.125 5.36223Z" fill="black"/>
<path d="M175 29.5001V0.541287C175 0.344687 174.849 0.185547 174.662 0.185547H168.644C168.457 0.185547 168.306 0.344687 168.306 0.541287C168.306 31.2888 168.161 29.8558 168.644 29.8558C174.967 29.8558 175 29.9771 175 29.5001Z" fill="black"/>
</svg>
