<svg width="406" height="406" viewBox="0 0 406 406" fill="none" xmlns="http://www.w3.org/2000/svg">
<circle cx="203" cy="203" r="203" fill="#A597F9"/>
<path d="M122.07 175.186H116.338C116.151 175.186 116 175.345 116 175.541V204.503C116 204.7 116.151 204.859 116.338 204.859H122.07C122.257 204.859 122.408 204.699 122.408 204.503C122.408 192.086 122.279 192.476 122.746 192.476C137.144 192.476 136.687 192.324 136.687 192.832V204.503C136.687 204.7 136.838 204.859 137.024 204.859H142.776C142.962 204.859 143.113 204.699 143.113 204.503V175.541C143.113 175.345 142.962 175.186 142.776 175.186H137.025C136.838 175.186 136.687 175.345 136.687 175.541V186.841C136.687 187.037 136.536 187.196 136.35 187.196H122.747C122.56 187.196 122.409 187.037 122.409 186.841V175.541C122.408 175.345 122.257 175.186 122.07 175.186Z" fill="black"/>
<path d="M154.405 175.188H148.714C148.528 175.188 148.377 175.347 148.377 175.544C148.377 195.23 147.926 198.606 150.112 201.09C152.604 204.004 156.312 205.177 161.62 205.177C166.929 205.177 170.567 204.004 173.078 201.09C174.442 199.531 174.869 196.916 174.869 193.122V175.544C174.869 175.348 174.717 175.189 174.531 175.189H168.789C168.603 175.189 168.452 175.348 168.452 175.544V192.971C168.452 198.207 166.93 200.387 161.62 200.387C156.312 200.387 154.743 198.207 154.743 192.971V175.544C154.743 175.347 154.592 175.188 154.405 175.188Z" fill="black"/>
<path d="M195.609 175.186H189.244C189.112 175.186 188.992 175.267 188.937 175.393C175.597 206.054 175.892 204.858 176.644 204.858C182.828 204.858 182.855 204.999 182.995 204.636C185.651 197.73 185.501 197.795 185.854 197.795H198.641C198.777 197.795 198.9 197.881 198.952 198.013C201.698 204.919 201.546 204.858 201.898 204.858H208.287C209.021 204.858 209.369 206.124 195.916 175.393C195.861 175.266 195.741 175.186 195.609 175.186ZM196.279 192.506H188.21C187.969 192.506 187.806 192.249 187.898 192.014L191.862 181.898C191.976 181.607 192.367 181.604 192.485 181.894L196.59 192.01C196.685 192.245 196.522 192.506 196.279 192.506Z" fill="black"/>
<path d="M222.547 204.86C222.917 204.86 222.511 206.007 228.186 183.892C228.274 183.547 228.735 183.539 228.835 183.879C235.298 205.918 234.868 204.86 235.236 204.86H242.61C242.755 204.86 242.884 204.762 242.93 204.617C252.684 173.866 252.465 175.186 251.796 175.186H245.948C245.799 175.186 245.668 175.288 245.625 175.438L239.429 196.901C239.333 197.236 238.884 197.239 238.784 196.905L232.356 175.435C232.311 175.287 232.181 175.186 232.034 175.186H224.975C224.823 175.186 224.69 175.293 224.649 175.448L219.075 196.857C218.986 197.197 218.532 197.208 218.428 196.872L211.796 175.432C211.75 175.285 211.621 175.186 211.474 175.186H205.319C205.084 175.186 204.921 175.43 205.001 175.663L214.915 204.625C215.042 204.995 214.938 204.86 222.547 204.86Z" fill="black"/>
<path d="M268.125 180.362H278.312C278.498 180.362 278.649 180.203 278.649 180.006V175.541C278.649 175.345 278.498 175.186 278.312 175.186H267.993C258.187 175.186 253.646 180.079 253.646 190.565C253.646 195.937 255.173 199.828 258.315 202.253C261.284 204.56 264.131 204.859 267.823 204.859C278.956 204.859 278.649 204.995 278.649 204.503V200.053C278.649 199.856 278.498 199.697 278.312 199.697H268.125C263.197 199.697 261.011 197.831 260.872 192.789C260.866 192.589 261.021 192.423 261.21 192.423H278.311C278.498 192.423 278.649 192.264 278.649 192.067V187.603C278.649 187.406 278.498 187.247 278.311 187.247H261.273C261.077 187.247 260.918 187.068 260.935 186.862C261.305 182.469 263.623 180.362 268.125 180.362Z" fill="black"/>
<path d="M291 204.5V175.541C291 175.345 290.849 175.186 290.662 175.186H284.644C284.457 175.186 284.306 175.345 284.306 175.541C284.306 206.289 284.161 204.856 284.644 204.856C290.967 204.856 291 204.977 291 204.5Z" fill="black"/>
</svg>
