<svg width="247" height="221" viewBox="0 0 247 221" fill="none" xmlns="http://www.w3.org/2000/svg">
<path d="M179.713 14.7512C176.606 17.4085 164.52 24.6654 164.52 24.6654C164.52 24.6654 160.474 27.6639 163.623 31.8875C166.772 36.1111 182.904 54.443 182.904 54.443C182.904 54.443 184.777 55.9149 180.909 58.7614C177.039 61.6078 117.302 102.836 117.302 102.836L104.414 83.2669L144.108 61.0174C144.108 61.0174 150.268 58.5174 148.059 52.875C145.85 47.2339 140.597 50.7999 140.597 50.7999L92.6851 70.0858L6.11956 123.798L0 201.98L238.407 52.4914C238.407 52.4914 247.849 31.355 245.827 27.55C243.806 23.745 188.572 13.7889 188.572 13.7889C188.572 13.7889 182.82 12.0951 179.713 14.7512Z" fill="#E2E5E7"/>
<path d="M1.00779 189.116L0.000976562 201.979L238.408 52.4894C238.408 52.4894 247.85 31.353 245.828 27.5481C245.769 27.4388 245.661 27.3232 245.519 27.2049L233.454 50.7751L1.00779 189.116Z" fill="#D1D5D5"/>
<path d="M99.873 86.0242L112.14 106.277L117.301 102.836L104.414 83.2674L99.873 86.0242Z" fill="#D1D5D5"/>
<path d="M166.839 23.2587C165.439 24.116 164.519 24.669 164.519 24.669C164.519 24.669 160.473 27.6674 163.622 31.891C166.771 36.1147 182.903 54.4466 182.903 54.4466C182.903 54.4466 184.776 55.9185 180.908 58.765C180.908 58.765 188.598 54.3885 184.427 48.5376C180.256 42.6868 170.914 32.7309 168.289 29.8149C164.16 25.2289 166.839 23.2587 166.839 23.2587Z" fill="#D1D5D5"/>
</svg>
