<svg width="235" height="185" viewBox="0 0 235 185" fill="none" xmlns="http://www.w3.org/2000/svg">
<path d="M2.00176 120.622L51.7548 91.6859L77.4848 132.444L0.544002 179.219L2.00176 120.622Z" fill="#E2E5E7"/>
<path d="M93.0509 126.087C94.9796 124.886 95.601 122.401 94.4412 120.54L69.7329 80.9331C68.5678 79.0698 66.066 78.5365 64.1358 79.7394L51.8887 87.38C49.9612 88.583 49.3386 91.0668 50.4984 92.9285L75.2093 132.536C76.3717 134.399 78.8736 134.931 80.8011 133.729L93.0509 126.087Z" fill="#E2E5E7"/>
<path d="M105.424 111.88C105.424 111.88 94.8564 95.6721 82.2878 104.618L74.3666 92.2474C74.3666 92.2474 87.7557 84.6933 97.6142 88.1967C107.47 91.6999 111.393 99.3416 113.305 98.3585C115.216 97.3781 112.347 88.5632 109.396 83.1745C106.445 77.7858 102.549 68.9453 100.566 65.9823C98.5824 63.018 96.9958 57.8361 101.173 55.3669C105.348 52.9002 108.261 52.9726 112.065 58.5528C115.869 64.1329 132.972 86.5031 138.847 84.5934C144.725 82.681 132.463 58.7185 130.311 55.5784C128.161 52.4384 122.038 43.5425 127.273 39.9014C132.507 36.2602 136.412 37.7298 140.367 44.1701C144.32 50.613 159.941 70.5446 165.995 68.4678C172.047 66.3896 154.168 33.8854 154.168 33.8854C154.168 33.8854 149.36 27.2498 154.436 23.09C159.512 18.9303 163.689 23.3202 166.009 26.4644C168.333 29.6088 187.407 55.4563 192.27 52.8338C197.137 50.2115 180.97 17.75 180.97 17.75C180.97 17.75 176.361 10.0912 181.23 7.2974C186.101 4.50495 190.342 6.32459 192.823 9.98613C195.301 13.6489 213.515 39.6466 219.775 36.0309C226.038 32.4154 217.628 5.28929 217.628 5.28929C217.628 5.28929 238.258 23.6327 232.344 40.8012C226.431 57.9696 206.635 47.3626 206.635 47.3626C206.635 47.3626 209.254 59.2565 200.547 64.6983C191.84 70.1387 179.312 63.8269 179.312 63.8269C179.312 63.8269 182.604 76.2522 172.699 81.4926C162.795 86.7331 152.356 79.1008 152.356 79.1008C152.356 79.1008 155.31 91.3461 146.944 96.7964C138.58 102.245 125.9 95.0721 125.9 95.0721C125.9 95.0721 130.076 106.32 121.356 112.276C112.637 118.229 105.424 111.88 105.424 111.88Z" fill="#E2E5E7"/>
<path d="M56.1728 102.027L1.66853 133.914L1.9992 120.622L50.3034 92.5293C50.3674 92.6642 50.4154 92.8013 50.4966 92.9313L56.1728 102.027Z" fill="#D1D5D5"/>
<path d="M62.9855 122.485L68.5974 131.197L31.6935 153.596L62.9855 122.485Z" fill="#D1D5D5"/>
</svg>
