<svg width="390" height="383" viewBox="0 0 390 383" fill="none" xmlns="http://www.w3.org/2000/svg">
<path fill-rule="evenodd" clip-rule="evenodd" d="M352.277 207.893C350.25 209.289 348.273 210.691 346.151 211.918C327.153 222.612 305.434 228.658 283.064 232.54C258.614 236.797 232.867 237.53 206.914 235.092C170.549 231.695 133.552 222.913 99.346 207.327C84.27 200.452 70.0304 191.815 56.2998 182.727C55.8065 182.454 55.5954 181.828 55.7802 181.359C55.9904 180.867 56.5424 180.732 57.0356 181.005C71.3064 188.19 86.1836 193.87 101.31 199.583C135.3 212.411 170.93 222.104 206.443 225.648C231.77 228.186 256.88 228.07 281.055 224.973C303.254 222.108 324.249 216.044 344.522 208.74C346.836 207.903 349.195 207.278 351.484 206.463C351.837 206.302 352.283 206.465 352.498 206.883C352.739 207.278 352.63 207.732 352.277 207.893Z" fill="black"/>
<path fill-rule="evenodd" clip-rule="evenodd" d="M60.0964 182.935C68.0433 193.871 79.4452 207.603 82.5189 211.567L93.534 225.861C97.444 231.387 100.143 236.307 96.8495 237.729C93.8751 240.736 89.0824 232.775 87.4342 231.201L75.8835 217.505C72.1618 213.024 53.3269 190.776 46.2264 181.089C42.5229 176.032 42.3408 171.679 42.5365 170.939C43.0833 169.214 44.8524 166.967 48.6455 166.86C53.252 166.712 65.2207 170.318 66.7868 170.596C75.4144 172.467 83.9858 173.781 92.5825 175.071C105.636 177.063 118.547 178.882 131.657 179.856C132.814 179.853 133.839 180.885 133.972 182.134C134.105 183.383 133.285 184.395 132.128 184.399C123.393 185.168 114.78 185.925 105.971 185.898C92.7587 185.831 79.4436 184.335 66.0723 182.282C65.4601 182.188 62.5195 182.573 60.0964 182.935Z" fill="black"/>
</svg>
