<svg width="240" height="53" viewBox="0 0 240 53" fill="none" xmlns="http://www.w3.org/2000/svg">
<g clip-path="url(#clip0_698:1300)">
<path fill-rule="evenodd" clip-rule="evenodd" d="M38.0501 17.622V13.5821H19.3945V17.622H26.6806V41.0374H30.764V17.622H38.0501ZM66.714 33.0753C64.4321 38.2918 59.1477 41.9395 52.9825 41.9395C44.6956 41.9395 38.0101 35.3894 38.0101 27.2705C38.0101 19.1516 44.6956 12.6016 52.9825 12.6016C61.2695 12.6016 67.955 19.1516 67.955 27.2705C67.955 27.7412 67.915 28.2118 67.875 28.6433H42.3337C42.6139 30.9574 43.6948 33.0753 45.3762 34.7227C47.4179 36.723 50.1001 37.8212 52.9825 37.8212C55.8649 37.8212 58.5472 36.723 60.5889 34.7227C61.1894 34.0951 61.7499 33.4283 62.1902 32.7224L66.714 33.0753ZM52.9825 16.7199C50.1001 16.7199 47.4179 17.8181 45.3762 19.8184C44.0151 21.1519 43.0543 22.8385 42.5739 24.6034H63.3912C62.9108 22.8385 61.95 21.1519 60.5889 19.8184C58.5472 17.8181 55.8649 16.7199 52.9825 16.7199ZM74.7207 28.408H91.1744V41.0374H95.2978V13.5821H91.1744V24.3681H74.7207V13.5821H70.5972V41.0374H74.7207V28.408ZM108.741 41.0374H119.91V13.5821H115.619L115.659 37.3897H112.616L109.862 13.5821H98.7007V41.0374H103.104V17.269H106.099L108.741 41.0374ZM130.807 17.622H134.45V13.5821H123.121V17.622H126.804V37.1936H123.121V41.0374H134.45V37.1936H130.807V17.622ZM164.115 13.2291L142.177 22.9953V13.5821H138.053V41.0374H142.177V31.5849L164.115 41.3119V36.6838L142.978 27.2705L164.115 17.8181V13.2291ZM181.97 13.5821V36.9975H171.762V13.5821H167.678V41.0374H186.094V13.5821H181.97ZM199.104 41.0374H208.672L211.555 17.269H213.917L213.837 41.0374H218.24V13.5821H207.712L205.109 37.2721H202.787L200.185 13.5821H189.657V41.0374H193.9V17.1905L196.302 17.1905L199.104 41.0374Z" fill="black"/>
</g>
<rect x="1.5" y="1.5" width="237" height="50" stroke="black" stroke-width="3"/>
<defs>
<clipPath id="clip0_698:1300">
<rect width="198.846" height="29.3379" fill="white" transform="translate(19.3945 12.6016)"/>
</clipPath>
</defs>
</svg>
