<svg width="102" height="23" viewBox="0 0 102 23" fill="none" xmlns="http://www.w3.org/2000/svg">
<g clip-path="url(#clip0)">
<path fill-rule="evenodd" clip-rule="evenodd" d="M16.194 7.72897V6.01314H8.27051V7.72897H11.3651V17.6741H13.0994V7.72897H16.194ZM28.3683 14.2924C27.3991 16.508 25.1547 18.0572 22.5362 18.0572C19.0165 18.0572 16.177 15.2753 16.177 11.827C16.177 8.37865 19.0165 5.59668 22.5362 5.59668C26.0558 5.59668 28.8954 8.37865 28.8954 11.827C28.8954 12.0269 28.8784 12.2268 28.8614 12.41H18.0133C18.1324 13.3928 18.5914 14.2924 19.3056 14.9921C20.1727 15.8416 21.3119 16.3081 22.5362 16.3081C23.7604 16.3081 24.8996 15.8416 25.7668 14.9921C26.0218 14.7255 26.2599 14.4423 26.4469 14.1425L28.3683 14.2924ZM22.5362 7.34582C21.3119 7.34582 20.1727 7.81226 19.3056 8.66184C18.7275 9.22823 18.3194 9.94454 18.1153 10.6942H26.957C26.753 9.94454 26.3449 9.22823 25.7668 8.66184C24.8996 7.81226 23.7604 7.34582 22.5362 7.34582ZM31.7689 12.31H38.7572V17.6741H40.5085V6.01314H38.7572V10.5942H31.7689V6.01314H30.0176V17.6741H31.7689V12.31ZM46.2182 17.6741H50.9621V6.01314H49.1393L49.1564 16.1248H47.8641L46.6943 6.01314H41.9538V17.6741H43.8242V7.57904H45.096L46.2182 17.6741ZM55.5904 7.72897H57.1376V6.01314L52.3257 6.01314V7.72897H53.89V16.0415H52.3257V17.6741H57.1376V16.0415H55.5904V7.72897ZM69.737 5.86322L60.4193 10.0112V6.01314H58.6679V17.6741H60.4193V13.6594L69.737 17.7907V15.825L60.7593 11.827L69.737 7.81226V5.86322ZM77.3204 6.01314V15.9583H72.9846V6.01314H71.2503V17.6741H79.0717V6.01314H77.3204ZM84.5978 17.6741H88.6615L89.8858 7.57904H90.889L90.8549 17.6741H92.7253V6.01314L88.2535 6.01314L87.1483 16.0749H86.1621L85.0569 6.01314H80.585V17.6741H82.3874V7.54572H83.4076L84.5978 17.6741Z" fill="white"/>
</g>
<rect x="0.5" y="0.5" width="101" height="22" stroke="white"/>
<defs>
<clipPath id="clip0">
<rect width="84.4548" height="12.4605" fill="white" transform="translate(8.27051 5.59668)"/>
</clipPath>
</defs>
</svg>
