<svg width="316" height="72" viewBox="0 0 316 72" fill="none" xmlns="http://www.w3.org/2000/svg">
<g clip-path="url(#clip0)">
<path fill-rule="evenodd" clip-rule="evenodd" d="M50.1683 23.9438V18.6281H25.6211V23.9438H35.2082V54.7541H40.5812V23.9438H50.1683ZM87.8847 44.2776C84.8822 51.1415 77.9289 55.9411 69.8167 55.9411C58.9126 55.9411 50.1157 47.3225 50.1157 36.6395C50.1157 25.9565 58.9126 17.3379 69.8167 17.3379C80.7207 17.3379 89.5177 25.9565 89.5177 36.6395C89.5177 37.2588 89.465 37.8781 89.4123 38.4458H55.8047C56.1735 41.4907 57.5957 44.2776 59.8082 46.4452C62.4947 49.0772 66.024 50.5222 69.8167 50.5222C73.6094 50.5222 77.1387 49.0772 79.8252 46.4452C80.6154 45.6194 81.3528 44.7421 81.9323 43.8131L87.8847 44.2776ZM69.8167 22.7568C66.024 22.7568 62.4947 24.2018 59.8082 26.8339C58.0171 28.5886 56.7529 30.8077 56.1208 33.1301H83.5126C82.8805 30.8077 81.6162 28.5886 79.8252 26.8339C77.1387 24.2018 73.6094 22.7568 69.8167 22.7568ZM98.42 38.1362H120.07V54.7541H125.496V18.6281H120.07V32.8205H98.42V18.6281L92.9944 18.6281V54.7541H98.42V38.1362ZM143.185 54.7541L157.881 54.7541V18.6281H152.234L152.287 49.9545H148.284L144.659 18.6281H129.973V54.7541H135.768V23.4793H139.708L143.185 54.7541ZM172.22 23.9438H177.013V18.6281H162.106V23.9438H166.952V49.6965H162.106V54.7541H177.013V49.6965H172.22V23.9438ZM216.047 18.1636L187.18 31.0142V18.6281H181.754V54.7541H187.18V42.3165L216.047 55.1154V49.0256L188.233 36.6395L216.047 24.2018V18.1636ZM239.54 18.6281V49.4385H226.108V18.6281H220.735V54.7541H244.966V18.6281H239.54ZM262.086 54.7541H274.676L278.468 23.4793H281.576L281.471 54.7541H287.265V18.6281H273.411L269.987 49.7997H266.932L263.508 18.6281H249.654V54.7541H255.238V23.3761H258.399L262.086 54.7541Z" fill="white"/>
</g>
<rect x="0.5" y="0.5" width="315" height="70.2549" stroke="white"/>
<defs>
<clipPath id="clip0">
<rect width="261.644" height="38.6033" fill="white" transform="translate(25.6211 17.3379)"/>
</clipPath>
</defs>
</svg>
