<svg width="316" height="72" viewBox="0 0 316 72" fill="none" xmlns="http://www.w3.org/2000/svg">
<g clip-path="url(#clip0)">
<path fill-rule="evenodd" clip-rule="evenodd" d="M50.1683 23.9448V18.6291H25.6211V23.9448H35.2082V54.7551H40.5812V23.9448H50.1683ZM87.8847 44.2786C84.8822 51.1425 77.9289 55.9421 69.8167 55.9421C58.9126 55.9421 50.1157 47.3235 50.1157 36.6405C50.1157 25.9575 58.9126 17.3389 69.8167 17.3389C80.7207 17.3389 89.5177 25.9575 89.5177 36.6405C89.5177 37.2598 89.465 37.8791 89.4123 38.4468H55.8047C56.1735 41.4917 57.5957 44.2786 59.8082 46.4461C62.4947 49.0782 66.024 50.5232 69.8167 50.5232C73.6094 50.5232 77.1387 49.0782 79.8252 46.4461C80.6154 45.6204 81.3528 44.743 81.9323 43.8141L87.8847 44.2786ZM69.8167 22.7578C66.024 22.7578 62.4947 24.2028 59.8082 26.8349C58.0171 28.5895 56.7529 30.8087 56.1208 33.1311H83.5126C82.8805 30.8087 81.6162 28.5895 79.8252 26.8349C77.1387 24.2028 73.6094 22.7578 69.8167 22.7578ZM98.42 38.1371H120.07V54.7551H125.496V18.6291H120.07V32.8215H98.42V18.6291L92.9944 18.6291V54.7551H98.42V38.1371ZM143.185 54.7551L157.881 54.7551V18.6291H152.234L152.287 49.9555H148.284L144.659 18.6291H129.973V54.7551H135.768V23.4803H139.708L143.185 54.7551ZM172.22 23.9448H177.013V18.6291H162.106V23.9448H166.952V49.6975H162.106V54.7551H177.013V49.6975H172.22V23.9448ZM216.047 18.1646L187.18 31.0152V18.6291H181.754V54.7551H187.18V42.3174L216.047 55.1164V49.0266L188.233 36.6405L216.047 24.2028V18.1646ZM239.54 18.6291V49.4394H226.108V18.6291H220.735V54.7551H244.966V18.6291H239.54ZM262.086 54.7551H274.676L278.468 23.4803H281.576L281.471 54.7551H287.265V18.6291H273.411L269.987 49.8007H266.932L263.508 18.6291H249.654V54.7551H255.238V23.3771H258.399L262.086 54.7551Z" fill="white"/>
</g>
<rect x="0.5" y="0.5" width="315" height="70.2549" stroke="white"/>
<defs>
<clipPath id="clip0">
<rect width="261.644" height="38.6033" fill="white" transform="translate(25.6211 17.3389)"/>
</clipPath>
</defs>
</svg>
