<svg width="248" height="133" viewBox="0 0 248 133" fill="none" xmlns="http://www.w3.org/2000/svg">
<path d="M119.295 49.5925C111.309 55.8292 103.324 62.066 95.3379 68.3027C95.2058 68.1708 95.0548 68.0578 94.9226 67.9259C101.266 59.9557 107.628 51.9854 113.971 44.0152C113.839 43.7514 113.707 43.4876 113.575 43.2239C103.89 42.0368 94.2052 40.8686 84.5204 39.6815C84.5015 39.5308 84.4826 39.3801 84.4638 39.2482C94.1863 38.0423 103.928 36.8364 114.462 35.5363C107.685 26.85 101.417 18.8233 95.1303 10.7777C95.2058 10.7023 95.3002 10.6081 95.3757 10.5328C103.38 16.7695 111.385 23.0251 120.069 29.8083C121.353 19.3697 122.542 9.68486 123.732 0C123.883 0.0188421 124.053 0.0188416 124.204 0.0376837C125.374 9.64717 126.545 19.2378 127.715 28.8473C127.961 29.0357 128.225 29.2053 128.47 29.3937C136.626 22.9874 144.763 16.5811 152.918 10.1748C153.013 10.2501 153.107 10.3255 153.201 10.4009C146.839 18.5407 140.458 26.6805 133.568 35.4609C144.045 36.7422 153.768 37.9481 163.49 39.1351C163.49 39.3047 163.509 39.4743 163.509 39.6438C153.806 40.8121 144.083 41.9803 133.454 43.2804C140.213 51.8724 146.443 59.8238 152.692 67.7752C152.616 67.8694 152.541 67.9447 152.484 68.0389C144.555 61.8964 136.607 55.735 127.979 49.0461C126.658 59.4281 125.45 69.0941 124.223 78.779C124.071 78.779 123.92 78.7978 123.751 78.7978C122.561 69.226 121.353 59.673 120.164 50.1012C119.861 49.9128 119.578 49.7621 119.295 49.5925ZM93.7899 121.042C94.4695 120.42 94.8471 120.081 95.2247 119.742C101.36 114.051 101.7 104.706 95.3002 99.2415C86.8614 92.025 74.3636 95.4166 71.0787 106.232C68.0014 116.369 77.573 124.66 86.9746 123.416C88.1074 123.265 89.5233 123.623 90.4672 124.264C93.9409 126.6 97.2069 129.238 100.681 131.593C103.984 133.836 110.554 133.591 112.291 129.445C103.361 132.196 99.4158 125.206 93.7899 121.042ZM83.3877 114.975C81.7263 114.334 79.8762 114.221 78.1582 113.712C77.4408 113.505 76.5158 113.034 76.2515 112.45C74.5524 108.455 77.3276 100.41 81.0467 98.1487C83.8974 96.4152 87.9186 96.6978 90.4672 98.7893C95.3757 102.803 95.9232 114.164 91.5433 118.668C88.8059 117.386 86.144 116.03 83.3877 114.975ZM87.1823 121.098C83.652 123.416 79.291 121.004 77.4408 116.181C77.6107 115.954 77.7995 115.71 77.9694 115.483C80.9901 117.33 83.9918 119.158 87.1823 121.098ZM32.717 122.625C32.868 122.398 33.0379 122.172 33.1889 121.946C28.658 121.381 29.3377 118.216 29.3188 115.427C29.2999 111.376 29.4698 107.325 29.2621 103.293C29.1111 100.259 29.5642 97.8472 32.9246 96.9616C33.0001 96.9428 33.0001 96.6601 33.1323 96.0949C30.6969 96.0949 28.3371 96.0195 25.9961 96.1514C25.5053 96.1891 24.9011 96.9805 24.6557 97.5457C23.4286 100.353 22.3336 103.198 21.1065 106.006C19.8227 108.945 18.4446 111.828 17.0853 114.749C16.8588 114.749 16.6133 114.73 16.3868 114.73C14.0836 109.322 11.7993 103.914 9.47716 98.5255C8.30667 95.8122 2.492 94.8136 0.207668 96.9239C3.98343 98.5255 4.11558 98.6574 4.07782 101.861C4.04006 106.157 3.94567 110.453 3.83239 114.749C3.70024 119.648 3.66249 119.648 0 122.775C3.26603 122.775 6.13561 122.775 9.00519 122.775C9.15622 122.568 9.28837 122.361 9.4394 122.172C6.66422 121.155 5.43709 119.252 5.47485 116.52C5.51261 113.693 5.45597 110.867 5.45597 108.041C5.45597 106.326 5.45597 104.593 5.45597 102.878C5.7014 102.84 5.9657 102.822 6.21112 102.784C9.0807 109.492 11.9503 116.181 14.8199 122.888C15.103 122.87 15.3862 122.832 15.6883 122.813C18.4823 116.237 21.2764 109.642 24.0705 103.066C24.3159 103.142 24.5613 103.198 24.7879 103.274C24.7879 107.287 24.7312 111.3 24.8067 115.314C24.8634 118.272 25.2032 121.268 21.2386 122.078C21.1443 122.097 21.1254 122.38 21.0121 122.643C25.0144 122.625 28.8657 122.625 32.717 122.625ZM152.654 109.115C155.146 108.022 156.807 105.007 156.486 102.143C156.128 98.9777 154.24 96.7543 151.125 96.5094C147.028 96.1891 142.894 96.1702 138.759 96.1137C137.475 96.0949 136.211 96.4152 134.927 96.5848C138.495 98.7516 138.495 98.7516 138.495 102.916C138.495 107.231 138.344 111.545 138.533 115.841C138.665 118.762 138.344 121.136 135.059 122.04C135.002 122.059 135.04 122.342 135.021 122.512C139.005 122.512 142.95 122.512 147.066 122.512C145.593 121.249 143.743 120.458 143.554 119.365C143.101 116.727 143.403 113.938 143.403 111.225C143.63 111.093 143.875 110.942 144.102 110.811C145.065 111.658 146.122 112.412 146.953 113.373C149.048 115.841 150.974 118.46 153.069 120.948C154.901 123.133 158.28 123.717 160.829 122.681C157.26 118.8 153.598 114.805 149.633 110.471C151.106 109.812 151.88 109.454 152.654 109.115ZM143.347 101.898C143.743 100.334 142.082 97.7341 145.329 97.5457C148.765 97.3385 151.125 99.1661 151.427 102.068C151.918 106.91 150.521 108.663 145.707 109.303C144.102 109.51 143.233 109.058 143.328 107.306C143.384 106.025 143.347 104.725 143.347 103.443C143.328 102.916 143.215 102.369 143.347 101.898ZM174.497 121.626C171.91 121.117 171.74 119.252 171.759 117.142C171.797 112.827 171.74 108.531 171.759 104.216C171.759 103.594 171.91 102.972 172.043 101.955C178.178 109.492 184.031 116.67 189.883 123.83C190.147 123.717 190.412 123.623 190.657 123.51C190.789 122.738 191.035 121.946 191.035 121.174C191.129 115.05 191.374 108.926 191.148 102.822C191.035 99.9387 191.563 97.9791 194.414 97.0181C194.489 96.9993 194.452 96.7167 194.546 96.0007C191.658 96.3021 188.845 95.4919 186.107 96.4717C187.278 97.6965 188.996 98.6574 189.052 99.7126C189.335 104.819 189.184 109.963 189.184 115.785C188.184 114.749 187.655 114.259 187.202 113.693C183.03 108.493 178.877 103.274 174.686 98.0545C172.873 95.7934 168.305 95.1716 166.001 96.8486C169.947 99.298 170.004 99.298 170.022 101.408C170.041 106.76 170.041 112.092 170.022 117.443C170.022 119.365 169.607 121.061 167.266 121.475C166.945 121.532 166.681 121.965 165.794 122.738C169.362 122.738 172.194 122.738 175.346 122.738C174.969 122.21 174.78 121.682 174.497 121.626ZM57.6936 96.6036C61.2806 98.6009 61.6015 98.9966 61.5826 102.313C61.5449 106.439 61.3939 110.566 61.2428 114.673C61.0163 120.552 55.4659 122.493 51.1049 121.475C48.4241 120.853 46.6495 119.101 46.4607 116.312C46.1587 112.035 46.1398 107.758 45.951 103.462C45.8377 100.579 45.9321 97.8283 49.2737 96.434C45.6489 96.434 42.0053 96.434 38.3806 96.434C38.2107 96.6601 38.0408 96.9051 37.8709 97.1312C41.9487 97.395 41.59 100.052 41.5522 102.614C41.4956 106.232 41.5334 109.85 41.5334 113.467C41.5522 120.043 43.5911 122.662 50.1421 123.378C57.939 124.226 63.1307 121.438 63.0174 112.582C62.9797 109.228 63.1118 105.855 62.9797 102.501C62.8664 99.7691 62.9608 97.3573 66.6422 96.8862C63.7348 95.6804 60.9785 96.1514 57.6936 96.6036ZM131.132 121.682C127.753 121.419 126.639 119.139 125.676 116.557C123.411 110.49 121.032 104.442 118.615 98.4313C118.181 97.3196 117.388 96.3587 116.369 94.6629C114.179 99.901 112.555 104.498 110.384 108.832C108.024 113.543 107.93 119.685 102.248 122.662C105.042 122.662 107.817 122.662 110.139 122.662C109.44 121.193 108.383 119.93 108.345 118.649C108.308 117.311 109.119 115.879 109.818 114.636C110.177 114.033 111.121 113.467 111.838 113.411C113.858 113.241 115.897 113.335 117.936 113.373C118.502 113.392 119.465 113.392 119.597 113.675C120.447 115.615 121.447 117.594 121.712 119.648C121.825 120.477 120.258 121.532 119.295 122.7C123.165 122.7 126.979 122.7 130.773 122.7C130.906 122.323 131.019 122.003 131.132 121.682ZM115.236 101.71C116.595 105.309 117.672 108.173 118.861 111.357C116.123 111.357 113.801 111.357 111.177 111.357C112.48 108.267 113.688 105.384 115.236 101.71ZM210.027 97.037C207.78 102.219 205.496 107.381 203.381 112.601C201.909 116.256 201.248 120.382 197.038 122.643C199.832 122.643 202.645 122.643 205.76 122.643C204.684 121.532 202.947 120.439 203.098 119.742C203.551 117.575 204.306 114.259 205.722 113.788C208.441 112.902 211.688 113.675 214.727 113.788C214.841 113.788 214.973 114.033 215.03 114.183C215.596 115.804 216.294 117.386 216.596 119.063C216.71 119.723 216.011 120.627 215.501 121.306C215.162 121.777 214.52 122.022 213.651 122.606C217.861 122.606 221.524 122.606 224.752 122.606C223.355 120.835 221.694 119.327 220.806 117.443C219.107 113.825 217.88 109.982 216.408 106.27C214.973 102.633 213.444 99.0531 211.688 94.7948C210.801 95.963 210.291 96.4529 210.027 97.037ZM205.911 111.47C207.214 108.305 208.422 105.403 209.932 101.729C211.405 105.384 212.556 108.305 213.821 111.47C211.065 111.47 208.705 111.47 205.911 111.47ZM241.649 96.0384C238.005 94.6629 232.946 96.2456 231.246 99.4488C229.491 102.803 230.718 106.873 234.437 109.171C236.381 110.377 238.571 111.169 240.629 112.205C243.385 113.58 244.292 115.559 243.612 118.555C243.102 120.778 241.403 121.89 238.496 121.909C234.947 121.927 232.53 120.006 231.473 116.331C231.303 115.71 230.982 115.125 230.737 114.522C230.491 114.579 230.265 114.636 230.019 114.692C230.019 117.273 230.019 119.855 230.019 121.946C231.454 122.229 232.587 122.267 233.568 122.681C237.042 124.132 240.497 124.113 243.782 122.38C246.538 120.929 248.237 118.555 247.973 115.295C247.652 111.451 245.443 108.889 241.951 107.344C239.931 106.439 237.816 105.648 236.004 104.423C233.04 102.407 233.455 99.0342 236.665 97.508C239.421 96.2079 242.46 97.395 243.933 100.334C244.405 101.258 244.896 102.143 245.387 103.066C245.613 102.991 245.821 102.916 246.047 102.859C246.047 100.617 246.047 98.3748 246.047 96.792C244.141 96.4717 242.8 96.4906 241.649 96.0384Z" fill="black"/>
</svg>
