<svg width="104" height="30" viewBox="0 0 104 30" fill="none" xmlns="http://www.w3.org/2000/svg">
<g clip-path="url(#clip0)">
<g filter="url(#filter0_d)">
<path fill-rule="evenodd" clip-rule="evenodd" d="M366 -249C366 -255.627 360.627 -261 354 -261H18C11.3726 -261 6 -255.627 6 -249V-12C6 -5.37259 11.3726 0 18 0H30.5633C35.9109 0 40.6133 3.5386 42.094 8.67719L45.1582 19.3104C45.7775 21.4594 48.4459 22.1996 50.0837 20.6767L68.8664 3.21201C71.0867 1.14755 74.006 0 77.0378 0H354C360.627 0 366 -5.37257 366 -12V-249Z" fill="white"/>
</g>
</g>
<defs>
<filter id="filter0_d" x="-4" y="-269" width="380" height="302.481" filterUnits="userSpaceOnUse" color-interpolation-filters="sRGB">
<feFlood flood-opacity="0" result="BackgroundImageFix"/>
<feColorMatrix in="SourceAlpha" type="matrix" values="0 0 0 0 0 0 0 0 0 0 0 0 0 0 0 0 0 0 127 0"/>
<feOffset dy="2"/>
<feGaussianBlur stdDeviation="5"/>
<feColorMatrix type="matrix" values="0 0 0 0 0.00392157 0 0 0 0 0.0823529 0 0 0 0 0.203922 0 0 0 0.05 0"/>
<feBlend mode="normal" in2="BackgroundImageFix" result="effect1_dropShadow"/>
<feBlend mode="normal" in="SourceGraphic" in2="effect1_dropShadow" result="shape"/>
</filter>
<clipPath id="clip0">
<rect width="104" height="30" fill="white"/>
</clipPath>
</defs>
</svg>
