<?xml version="1.0" encoding="utf-8"?>
<!-- Generator: Adobe Illustrator 22.1.0, SVG Export Plug-In . SVG Version: 6.00 Build 0)  -->
<svg version="1.1" xmlns="http://www.w3.org/2000/svg" xmlns:xlink="http://www.w3.org/1999/xlink" x="0px" y="0px"
	 viewBox="0 0 1920 1080" style="enable-background:new 0 0 1920 1080;" xml:space="preserve">
<style type="text/css">
	.st0{display:none;}
	.st1{display:inline;}
	.st2{display:inline;fill:#1A1A1A;}
</style>
<g id="Bellisimo" class="st0">
	<path class="st1" d="M1321.2,445c11.5-5.5,21.4-11.6,32.1-15c20.8-6.6,39.4-0.8,54.4,14.7c5.8,5.9,8.7,5.6,14.8,0.4
		c20.6-17.5,44.1-22.6,69.7-12.8c23.7,9.1,32.7,29,34,52.2c1.4,25.2,0.6,50.6,0.7,75.8c0,9-0.1,18.1,0,27.1
		c0.2,9.9-4.5,14.7-14.4,14.7c-11.2,0-22.4,0-33.6,0c-9.8,0-14.4-4.5-14.3-14.6c0.3-24.6,0.3-49.1-0.1-73.7
		c-0.1-6-1.4-12.2-3.4-17.8c-2.8-7.9-9.7-13.4-17.6-11.2c-6.5,1.8-12.9,7.1-17,12.7c-3,4.1-2.9,11-2.9,16.7
		c-0.3,23.5-0.1,47-0.1,70.5c-0.1,14.9-2.6,17.4-17.9,17.6c-9,0.1-18.1,0.1-27.1,0c-14-0.2-17.5-3.4-17.6-17.2
		c-0.2-22.4,0-44.8-0.1-67.2c0-4,0-8-0.2-11.9c-0.8-12.9-8-21.2-18.4-21.6c-11.4-0.4-20.6,8.5-20.8,21.8
		c-0.5,24.9-0.2,49.9-0.3,74.8c0,19.7-1.6,21.3-21.9,21.3c-9,0-18.1,0-27.1-0.1c-8.7-0.2-13.2-4.5-13.2-13.5
		c0.1-48.1,0.1-96.1,0-144.2c0-9.1,4.5-13.1,13.4-13c10.8,0.1,21.7,0.3,32.5-0.1C1315,430.9,1322.7,432.8,1321.2,445z M453.3,467.4
		c20.9-33.8-0.4-77.9-41.6-81.4c-40.9-3.4-82.3-1.8-123.4-2.3c-7.6-0.1-10.7,4.4-10.7,11.9c0.1,64.3,0.1,128.7,0,193
		c0,8.4,4,13.5,12.2,13.3c43.3-1,86.7-0.4,129.7-4.3c37.1-3.4,57.9-39.2,48.3-75.1c-4.7-17.3-17.3-26.7-32.4-34.9
		C442,480.2,448.9,474.5,453.3,467.4z M392.1,516.2c7.8,1,13.4,5.1,14,13.8c0.6,8.8-3.3,15.8-12,16.5c-16.4,1.4-33,1.3-49.5,1.1
		c-1.9,0-5.4-4.9-5.5-7.6c-0.8-27.6-1.6-24.6,21.7-24.7c2.5,0,5,0,7.6,0c0-0.1,0-0.2,0-0.3C376.3,515.3,384.2,515.2,392.1,516.2z
		 M355.7,468c-16.9,0-16.9-0.1-16.9-16.9c0-14.7,1.1-15.9,16.3-15.6c10.4,0.2,21.1,0.2,31,2.7c4.5,1.1,9.2,7.5,10.8,12.4
		c2.2,6.9-1.9,13.1-9.1,14.9c-7.6,1.9-15.6,2.2-23.4,3.3c0-0.3-0.1-0.6-0.1-0.9C361.5,468,358.6,468,355.7,468z M1624.6,605
		c55.3,0.9,93.4-42.7,93.2-89.3c-0.3-48.8-41.6-88.9-92.4-88.2c-57.7,0.8-93.9,45.7-92,89.4C1533.4,567.6,1572,604.2,1624.6,605z
		 M1625.5,483c18.8,0.2,31.9,14.7,31.6,34.9c-0.3,19.4-13.8,33-32.4,32.8c-18.4-0.2-30.5-13.9-30.3-34.5
		C1594.4,495.2,1606.1,482.8,1625.5,483z M550.8,534.8c27.1,0,54.2-0.2,81.3,0c9.2,0.1,13.7-3.7,12.6-13c-1.1-9.7-2-19.4-3.8-28.9
		c-10.7-56.5-66.8-76.7-111.6-59.5c-40.9,15.7-56.9,55.5-53.7,91.3c4.2,47.2,30.1,76,73.4,79.5c26.7,2.2,52-0.4,73.7-18.1
		c16.8-13.7,16.8-17.3-0.1-31.1c-16.3-13.3-16.3-13.3-34.6-3.2c-19.7,10.8-42.1,4.2-51.1-17.1C542.4,534.8,546.6,534.8,550.8,534.8z
		 M557,475.4c8.5-1.7,19.3,4.1,24.3,13c4.4,7.8,2.6,11.5-6.3,11.7c-12.5,0.3-25.1,0.1-38.6,0.1C539,485.7,546.3,477.6,557,475.4z
		 M978.4,602.8c36.8-6.2,57.2-44.2,41.3-77.3c-8.6-17.9-26.1-23.9-43.2-30c-9.2-3.2-18.6-5.8-27.6-9.4c-2.7-1.1-4.4-4.9-6.6-7.4
		c3-1.5,6.1-4.4,9-4.1c8.2,0.7,16.4,2,24.3,4.3c27.3,8.1,27.2,8.3,40.2-17.7c5.1-10.4,3.9-15.3-6.3-19.8
		c-26.3-11.5-53.2-17.6-82.1-10.3c-21.6,5.5-40,24.2-42.2,44.4c-3,27.4,5.6,44.2,30.1,55c13.8,6.1,28.7,9.5,42.8,14.9
		c3.6,1.4,5.9,5.9,8.8,9c-3.6,1.7-7.5,5.1-10.9,4.7c-10.6-1.3-22.4-1.6-31.4-6.5c-30.1-16.4-27-7.7-41.6,14.5
		c-5.4,8.2-4,14.7,4.7,19.9c20.7,12.2,43.2,17.7,67.2,18.5C962.7,604.5,970.6,604.1,978.4,602.8z M1122.8,603.3
		c28.8-3.8,48.2-22,51.2-47.7c3.1-27.4-9.6-45.9-39.5-56.9c-12.2-4.5-24.7-8.2-36.8-12.9c-2.4-0.9-3.9-4.5-5.8-6.8
		c2.6-1.5,5.3-4.5,7.7-4.3c8.5,0.7,17.3,1.6,25.4,4.2c26.9,8.4,26.8,8.6,39.8-16.5c5.7-11,4.4-16.3-7.2-21.4
		c-24.9-11-50.3-17-77.9-10.4c-26,6.2-43.8,24.8-45.4,49.7c-1.7,26.9,11,44.9,38.6,54.2c12.6,4.3,25.4,8,37.9,12.6
		c2.5,0.9,4,4.5,5.9,6.8c-2.8,1.8-5.9,5.4-8.4,5.1c-11.7-1.5-23.9-2.5-34.7-6.6c-26.1-9.8-25.8-10.4-40.4,13.2
		c-7,11.4-5.9,15.6,6,22.5c20.2,11.7,42.2,16.6,65.4,17.2C1110.6,604.6,1116.7,604.1,1122.8,603.3z M714,388.2
		c0.1-9.8-4.1-13.8-13.6-13.7c-11.6,0.2-23.1,0.2-34.7,0c-9.6-0.1-13.5,4.4-13.4,14c0.2,66.5,0.2,133,0,199.5c0,9.6,4.5,14,13.8,14
		c10.8,0.1,21.7,0.2,32.5,0c12.6-0.2,15.2-2.9,15.3-15.5c0.1-32.9,0-65.8,0-98.7C713.9,454.7,713.8,421.4,714,388.2z M732.7,584.1
		c0,15.8,2.2,17.9,18.4,18.1c8.3,0.1,16.6,0.1,24.9,0c15.7-0.1,18.5-2.8,18.5-18.2c0.1-36.5,0-73,0-109.5c0-28.2,0.1-56.4,0-84.5
		c-0.1-12.5-2.9-15.2-15.4-15.4c-10.1-0.1-20.2-0.1-30.3,0c-14.1,0.2-16,2.1-16,16.6c-0.1,32.2,0,64.3,0,96.5
		C732.7,519.8,732.6,551.9,732.7,584.1z M811.8,587c-0.1,9,3.3,14.8,12.9,15c12.3,0.2,24.5,0.2,36.8,0c8.2-0.1,12.5-4.4,12.5-12.9
		c-0.1-48.3,0-96.7,0-145c0-8.5-4.1-12.7-12.5-12.7c-11.2,0-22.4-0.1-33.5,0c-12.8,0.1-16,3.2-16,16.1c-0.1,22.7,0,45.5,0,68.2
		C811.8,539.4,812,563.2,811.8,587z M1243.8,445.3c0.1-9.5-3.7-14.2-13.4-14c-11.5,0.2-23.1,0.1-34.6,0c-9.4,0-13.8,4.4-13.7,14
		c0.1,47.6,0.1,95.3,0,142.9c0,9.7,4.9,13.8,14,13.9c10.1,0.1,20.2,0.1,30.3,0c14.2-0.1,17.3-3.2,17.3-17.2c0.1-22.7,0-45.5,0-68.2
		C1243.7,493,1243.5,469.1,1243.8,445.3z M697.3,757.7c-12-30.6-24.8-60.9-37-91.4c-3.4-8.5-10.3-7.6-17.1-7.8
		c-7.1-0.2-14-0.2-17.2,7.9c-12.3,30.5-24.8,60.9-36.8,91.4c-0.9,2.3-0.1,6.9,1.7,8.5c5.3,4.6,23,1.1,24.8-5.4
		c3.5-12.7,12.3-13.3,22.7-12.7c6.1,0.4,12.5-1,18.3,0.4c4.5,1.1,10.6,4.5,11.9,8.2c3.1,9.1,8.4,12,17.4,10.9
		C691.3,766.3,702.3,770.3,697.3,757.7z M630.6,723.5c4-10.5,7.4-19.5,10.9-28.5c1-0.1,2.1-0.3,3.1-0.4c3.5,9.1,7,18.3,11.1,28.9
		C646.8,723.5,639.9,723.5,630.6,723.5z M271,756.2c-0.1,8.3,3.5,11.6,11.7,11.5c13.1-0.1,14.8-1.4,14.9-14.8c0-3.6,0.1-7.2,0-10.8
		c-0.2-6.3,2.5-9.2,9-9.2c7.2-0.1,14.4-0.6,21.6-1.5c18.2-2.3,29.9-14.6,30.6-32c0.9-23.2-7.5-36.4-28.1-39.1
		c-16.7-2.2-33.8-1.4-50.7-1.6c-7.2-0.1-8.9,4.7-8.9,10.9c0.1,14.4,0,28.9,0,43.3C271.1,727.4,271.3,741.8,271,756.2z M309.8,682.6
		c15.2,0.7,22.1,4.2,22,13.3c-0.1,8.8-7.4,12.8-23.6,12.9c-9.7,0.1-10.5-0.9-10.5-14.1C296.2,686.6,299.3,682.1,309.8,682.6z
		 M551.2,721.4c9.9-13.3,20.4-26.2,29.3-40.2c3-4.8,3.2-12.5,1.9-18.3c-0.5-2.3-8.4-4.1-13.1-4.2c-18-0.5-36.1,0-54.1-0.3
		c-9-0.2-14.3,1.9-14.1,12.5c0.1,10.2,5.3,12.1,13.7,11.8c9.5-0.3,18.9-0.1,31.2-0.1c-4.7,7.2-7.3,11.4-10.2,15.4
		c-10.2,14-20.9,27.6-30.7,41.9c-3.1,4.5-4.6,10.4-5.5,15.9c-1.3,7.9,2.3,12,11,11.9c20.9-0.3,41.9-0.4,62.8,0
		c9.7,0.2,12.4-4.1,12.3-13.1c0-8.8-3.1-12.5-12.1-12.1c-11.7,0.4-23.5,0.1-38.1,0.1C542,733.9,546.6,727.7,551.2,721.4z
		 M459.7,721.7c9.7-13,20.1-25.6,28.8-39.3c3.3-5.1,3.9-13,2.9-19.2c-0.4-2.3-9-4.3-13.9-4.4c-18-0.5-36.1,0-54.2-0.3
		c-8.8-0.1-13.4,2.3-13.4,12.2c0,10,4.8,12.4,13.5,12.1c9.5-0.3,19-0.1,31.5-0.1c-3.9,6-5.8,9.3-8.1,12.3
		c-11.1,15.1-22.6,30-33.2,45.5c-3.1,4.5-4.5,10.5-5.3,16c-1.1,7.5,2.7,11.3,10.7,11.2c21.3-0.2,42.6-0.3,63.9,0
		c9.4,0.2,11.4-4.7,11.6-12.9c0.2-8.6-2.7-12.7-11.8-12.4c-11.8,0.5-23.6,0.1-38.5,0.1C450.7,733.8,455.2,727.7,459.7,721.7z
		 M842.6,355.6c-17.3,0.2-32.3,15.1-32.8,32.6c-0.5,18,15.6,34.4,33.5,34.2c17.6-0.2,33.3-15.8,33.4-33.3
		C876.9,371.2,860.8,355.4,842.6,355.6z M1212.4,422.4c18.3,0,34.3-15.8,34.2-33.7c-0.1-17.8-15.3-32.8-33.5-33.2
		c-17.6-0.4-33,14.9-33.1,33C1179.9,406.5,1195.1,422.4,1212.4,422.4z M397.3,669.7c0.2-10.6-6.5-11.2-14.4-11.2
		c-8,0-14.2,0.8-14.1,11.4c0.3,28.9,0.3,57.8,0,86.7c-0.1,10.7,6.3,11.2,14.3,11.2c8.1,0,14.5-0.9,14.2-11.3
		c-0.3-14.1-0.1-28.2-0.1-42.3C397.3,699.3,397,684.5,397.3,669.7z M1718.1,421.4c-9.1-0.1-15.1,5.6-15.2,14.5
		c-0.1,9.2,5.3,15,14.4,15.2c9.9,0.2,13.8-3.7,13.9-14.4C1731.4,425.7,1727.7,421.4,1718.1,421.4z"/>
</g>
<g id="pandora" class="st0">
	<path class="st1" d="M812.9,657.1c0.3-69,3.4-137.8-0.2-206.7c0.8-0.1,1.2-0.2,1.6-0.2c26.6,0,53.1,0,79.7-0.1
		c12.7,0,25.3,0.7,37.8,3.1c15.8,3.1,30.3,9.1,42.7,19.5c15.1,12.7,24.7,28.8,29.3,47.8c3.1,12.5,3.7,25.2,2.7,38
		c-0.9,12.1-3.2,23.8-7.5,35.2c-8.1,21.3-22,37.6-41.8,49c-14.1,8.1-29.2,12.9-45.4,13.7c-13.5,0.6-26.9,0.5-40.4,0.6
		c-18.7,0.1-37.5,0-56.2,0C814.5,657.1,813.8,657.1,812.9,657.1z M853.3,467.6c-0.1,0.5-0.2,0.9-0.3,1.3c-0.4,9.4-1.2,18.7-1.2,28.1
		c-0.2,32.1-0.2,64.3-0.1,96.4c0.1,14.8,0.8,29.6,1.3,44.4c0,0.6,0.2,1.1,0.4,1.7c0.6,0.1,1,0.2,1.4,0.2c12.1,0.4,24.3,1,36.4,1.3
		c16.9,0.5,31.7-5.3,44.7-15.9c13.1-10.7,20.7-24.8,25.2-40.9c2.5-8.9,3.6-17.9,4.2-27.1c0.9-15.3-0.5-30.2-5.9-44.7
		c-5.9-15.8-15.8-28.3-30.8-36.5c-11.9-6.5-24.8-9.5-38.2-9.8c-10.2-0.2-20.4,0.4-30.6,0.7C857.7,467,855.5,467.3,853.3,467.6z
		 M1166.6,446.6c18.9,0.2,37.1,3.3,54.4,11c19.1,8.4,34.4,21.3,44.7,39.7c6.5,11.6,10.2,24,11.7,37.2c1.8,16.1,1.2,32.1-3,47.8
		c-9.9,37.3-33.4,61.6-70.2,72.9c-12.5,3.9-25.3,5.3-38.4,5.3c-14.6,0-28.9-1.9-42.8-6.4c-21.6-7-39.6-19.1-52.6-38
		c-7.7-11.2-12.7-23.5-15-36.9c-4-23.2-2.4-46,5.8-68.1c9.6-25.6,27.4-43.4,52.4-54.1c12.1-5.2,24.8-8.2,37.9-9.3
		C1156.5,447.1,1161.6,446.9,1166.6,446.6z M1237.2,552.4c-0.6-7.1-0.9-14.2-1.7-21.2c-1.4-12-4.5-23.6-10.1-34.5
		c-6.5-12.8-15.9-22.7-29.1-28.6c-9.3-4.2-19.2-5.8-29.4-5.9c-24.7-0.1-43.5,10.4-56.5,31.4c-6.3,10.1-10.1,21.1-12.6,32.7
		c-3.5,16.7-3.7,33.5-1.1,50.3c1.9,12.4,5.5,24.3,11.7,35.2c8.2,14.4,19.8,24.9,35.8,30c10.7,3.4,21.6,3.9,32.7,2.4
		c12.4-1.7,23.2-6.8,32.4-15.2c7.7-7.1,13.4-15.6,17.6-25.1C1234.1,587.5,1236.9,570.3,1237.2,552.4z M1421.7,554.7
		c12.3,17.4,24.2,34.8,36.6,51.8c12.3,16.9,25.1,33.5,38,50.5c-1.3,0-2.4,0-3.5,0c-14.7,0-29.4-0.1-44.2,0c-2.4,0-3.7-0.8-4.9-2.7
		c-19.1-31.8-40.4-62.1-61.8-92.3c-1.7-2.4-3.4-3.9-6.5-3.3c-0.9,0.2-1.8,0-3.2,0c0.4,32.8,0.8,65.3,1.2,98c-13.7,0-27.1,0-40.7,0
		c0.1,0.1,0,0-0.1-0.1c-0.1-0.1-0.2-0.2-0.2-0.2c0-0.3-0.1-0.6-0.1-0.9c0.1-4.3,0.2-8.6,0.4-13c1.4-44.2,1.8-88.5,1.5-132.8
		c-0.1-19.8-0.7-39.5-1-59.4c0.3-0.1,0.8-0.3,1.3-0.3c27.8,0,55.6-0.1,83.4,0c8.7,0,17.3,0.9,25.4,4.2c18.6,7.4,28.9,21.3,30.4,41.2
		c1.1,13.9-2.6,26.5-11.6,37.4c-6,7.2-13.5,12.4-22,16c-5.1,2.1-10.5,3.4-15.8,5.1C1423.5,554.2,1422.7,554.4,1421.7,554.7z
		 M1372.3,544.5c9.7,0.7,19.2,1.9,28.7,0.5c17.1-2.6,27.7-12.6,31.9-29.3c2-7.9,1.8-15.9,0.4-23.9c-1.8-10-7.2-17.3-16.2-22
		c-4.5-2.4-9.4-3.6-14.4-4.2c-7.7-1.1-15.4-0.3-23.1,0.3c-2.4,0.2-4.8,0.5-7.3,0.7C1372.3,492.7,1372.3,518.5,1372.3,544.5z
		 M580.7,514.4c0.9,0.8,1.8,1.6,2.7,2.4c38.4,35.9,75.5,73.2,112.2,111c9.2,9.5,18.3,19.3,27.4,28.9c0.7,0.7,1.5,1.7,2.4,1.8
		c3.8,0.2,7.6,0.1,11.5,0.1c0.6-69.6,0-139,2.6-208.3c-8.6,0-16.9,0-25.3,0c0,0.7,0,1.1,0,1.5c0.6,13.8,1.2,27.6,1.7,41.3
		c0.5,15,0.7,30.1,1,45.1c0.3,17.3,0.6,34.6,0.8,51.9c0,0.8-0.1,1.7-0.2,3.4c-5.7-5.1-11-9.5-16-14.3c-9.7-9.3-19.3-18.9-28.9-28.3
		c-31.8-31-63-62.5-92.7-95.5c-1.7-1.8-3.1-4.2-5.2-5.1c-2-0.9-4.6-0.3-7-0.3c-2.2,0-4.4,0-6.8,0c0,1.6,0,2.9,0,4.1
		c0,38.7,0,77.4,0.1,116.1c0.1,26.5-0.3,52.9-2.4,79.3c-0.2,2.4,0,4.9,0,7.5c8.3,0,16.6,0,25.2,0c-0.1-1.5-0.2-2.8-0.3-4.1
		c-0.7-10.7-1.9-21.4-2.1-32c-0.6-34.5-0.9-69-1.3-103.5c0-0.9,0-1.8,0-2.7C580.3,514.7,580.5,514.6,580.7,514.4z M175.4,450.2
		c0.8-0.1,1.2-0.2,1.6-0.2c24.6,0,49.2-0.1,73.8,0c9.6,0,19.2,1,28.1,4.8c13.1,5.5,23.3,14.2,28.8,27.7c2.7,6.8,3.6,13.9,3.7,21.2
		c0,14.6-4,27.8-13.6,39.1c-8.5,9.9-19.4,15.7-31.8,19.1c-13.1,3.6-26.6,4.3-40.1,3.5c-3.6-0.2-7.2-0.5-11.1-0.8
		c-0.2,15.4,0.4,30.7,0.7,46c0.3,15.3,0.7,30.7,1.1,46.2c-13.8,0-27.7,0-41.6,0C176.1,587.9,175.8,519.2,175.4,450.2z M214.6,465.8
		c0,28.1,0,55.9,0,83.8c8.9,1.1,17.6,2,26.3,0.2c11.5-2.4,20.1-8.8,25.5-19.2c7-13.5,8-27.8,3.5-42.2c-4.2-13.6-13.8-21.5-27.9-23.2
		c-6.3-0.7-12.7-0.1-19.1,0C220.2,465.3,217.5,465.6,214.6,465.8z M1521.1,657c0.8-1.7,1.4-3.1,2-4.5c20.5-46,41.2-92,61.6-138.1
		c8.2-18.5,16.2-37.2,22.9-56.3c1.3-3.6,2.4-7.2,3.7-10.9c6.5,0,12.8,0,19.5,0c25.5,71.4,57.1,140.3,88.2,209.8
		c-15.4,0-30.3,0-45.5,0c-8.4-21.7-16.8-43.4-25.2-65.3c-25-0.8-49.8-0.8-74.9,0c-8.9,21.4-17.5,42.9-24.2,65.4
		C1539.9,657,1530.8,657,1521.1,657z M1611,498.8c-0.5,1.1-0.9,1.8-1.2,2.4c-9.8,23.7-19.5,47.4-29.3,71.1c0,0.1,0,0.2,0.1,0.3
		c0,0.1,0.1,0.2,0.2,0.2c13.6,1.7,53.1,1.4,58.3-0.5C1629.8,547.9,1620.5,523.6,1611,498.8z M512.7,657c-15.5,0-30.5,0-45.5,0
		c-8.4-21.8-16.7-43.5-25.1-65.4c-25.1-0.8-50-0.8-75.1,0c-8.9,21.5-17.5,43-24.2,65.4c-9.2,0-18.4,0-27.9,0c0.5-1.2,1-2.3,1.5-3.4
		c15.9-35.4,31.8-70.8,47.6-106.2c11.6-25.9,23.2-51.8,33.4-78.4c2.4-6.3,4.5-12.8,6.8-19.2c0.3-0.9,0.6-1.7,1-2.6
		c6.5,0,12.8,0,19.4,0C450,518.6,481.7,587.5,512.7,657z M405,499c-2.5,4.3-30.3,71.6-30.5,73.8c19.4,1.2,38.8,1.8,58.5-0.1
		C423.7,548.1,414.4,523.8,405,499z M1139.8,428.2c1,3.6,2,6.8,2.9,10.1c15.8-2.3,31.3-2.4,46.9-0.2c1.1-3.5,2-6.6,3.1-10.1
		C1174.7,425.3,1157.4,425.3,1139.8,428.2z M1171.9,382.1c-0.9-5.5-1.7-11-2.7-16.4c-1-5.3-1.5-10.7-3.4-15.9
		c-2.7,16.3-5.4,32.6-8.1,49c5.7,0,11.1,0,17,0C1173.7,393,1172.8,387.5,1171.9,382.1z M1200.6,401.7c4.6-15.8,9.4-31.5,14-47.3
		c-0.2-0.1-0.4-0.2-0.6-0.3c-9.9,15-19.7,30-29.9,45.4C1189.9,400.4,1195.1,401,1200.6,401.7z M1118,354.4c-0.2,0.1-0.5,0.2-0.7,0.4
		c4.8,15.6,9.6,31.3,14.4,46.9c5.5-0.7,10.7-1.3,16.6-2.1C1137.9,384.3,1127.9,369.3,1118,354.4z M1166,405c-3.9,0-7.2,3.3-7.1,7.3
		c0,3.9,3.2,7,7.1,7c4.1,0,7.2-3.1,7.3-7.1C1173.2,408.2,1170,405,1166,405z M1136.5,413.8c0,4,3.3,7.3,7.3,7.2
		c3.8-0.1,7-3.3,7.1-7.1c0-4-3.2-7.2-7.3-7.2C1139.7,406.8,1136.5,409.9,1136.5,413.8z M1195.8,413.8c-0.1-3.9-3.4-7.1-7.4-7
		c-3.8,0.1-7,3.3-7.1,7.1c0,3.9,3.3,7.2,7.3,7.2C1192.5,421,1195.9,417.6,1195.8,413.8z"/>
</g>
<g id="bellstore" class="st0">
	<path class="st1" d="M393.6,566.4c1.6,2.6,1.7,3.2,2,3.4c40.6,24.5,53.1,58.7,37.8,104.7c-7.3,21.8-24.3,33.9-45.6,37.9
		c-19.7,3.7-40.1,4.6-60.2,5.2c-22.1,0.6-44.2-0.8-66.4-1.1c-11-0.2-15.5-4.4-15.4-16.3c0.5-82.4,0.4-164.8,0.5-247.2
		c0-22.9-0.1-23,22.3-25.1c36.6-3.4,73-6.3,109.6,1.2c33.1,6.8,51.7,26,53.3,59.5c0.5,10.3,0.2,20.7-0.4,31.1
		c-1.1,19.1-10.8,32.6-27.7,41.2C400.3,562.4,397.3,564.3,393.6,566.4z M280.6,638c0,15.5-0.7,31.1,0.5,46.6
		c0.3,4.3,6.4,11.8,9.7,11.7c27.2-0.6,54.5-1.4,81.4-4.7c14.6-1.8,26.5-11.9,28.6-27.6c2-15.7,2.4-31.8,1.3-47.5
		c-1.1-15.9-10.6-29.2-26.4-31c-29.2-3.4-58.8-3.7-88.2-4.3c-2.2,0-6.4,7.5-6.6,11.7C280.1,607.9,280.6,622.9,280.6,638z
		 M280.6,501.2c0,14.6,0.1,29.1-0.1,43.7c-0.1,8.3,3.6,12,11.9,11.9c14.6-0.2,29.1,0,43.7-0.1c51.1,0,65.8-16,61.7-66.6
		c-2-24.6-16.8-39.9-41.6-41c-21.1-0.9-42.3-0.2-63.4-0.3c-8.8,0-12.7,3.8-12.4,12.9C280.9,474.9,280.5,488.1,280.6,501.2z
		 M1265.6,613.1c0-15.5-0.5-31.1,0.1-46.6c0.9-22.7,11.6-40.2,32.5-48.8c33-13.6,67.1-13.6,100.6-1.6c24.6,8.8,35.8,28,36.3,53.4
		c0.5,27.3,0.1,54.6,0.1,81.9c0,36.7-15.7,58.9-52,63.9c-24.2,3.4-49.9,2-74-2.3c-28.7-5.1-43.3-27-43.6-56.1
		C1265.5,642.3,1265.6,627.7,1265.6,613.1z M1400.8,614c0,0-0.1,0-0.1,0c0-17.4,0.7-34.8-0.2-52.1c-0.7-14.7-10.3-26.8-24.8-28.6
		c-16.5-2-33.5-2.2-50-0.2c-14.1,1.7-24.7,11.8-25.1,26.6c-1.1,35.6-0.8,71.3-0.3,107c0.2,12.4,8.3,20.9,19.4,25.5
		c19.9,8.4,40.3,8.5,60.3,0.3c12.8-5.2,20.5-14.8,20.7-29.1C1401,646.9,1400.8,630.5,1400.8,614z M575.3,624.1
		c-14.6,0-29.2,0.1-43.8,0c-8.2-0.1-11.5,3.6-12.1,11.9c-3.2,47.6,10.4,63,58.5,61.4c18.1-0.6,35.9-6,54-8.6c4.8-0.7,10,0.6,15,1
		c-2.6,5.9-3.7,14.8-8.1,17c-10.3,5.1-22.2,9.4-33.6,9.6c-24.8,0.5-50,0.7-74.3-3.4c-28.6-4.9-44.3-26-45.2-55.3
		c-0.9-29.6-1.1-59.3,0.1-88.9c1.5-37,21.8-55.1,66.9-60.1c23.5-2.6,47.1-1.3,69.1,9.1c15.6,7.4,25.6,19.6,27.1,36.9
		c1.6,18.2,1.7,36.6,2.4,54.9c0.4,8.9-5.2,11.1-12.6,11.5c-21.1,1.2-42.3,2.6-63.4,3.9C575.4,624.7,575.4,624.4,575.3,624.1z
		 M569.3,602c12.7,0,25.5,0.6,38.1-0.4c4-0.3,10.2-4.1,11.2-7.5c11.3-39-9.2-66.5-49.5-64.9c-35.2,1.4-51.5,10.5-49.4,49
		c0.2,4.2-1.4,9.2,0.4,12.5c2.4,4.4,7,10.2,11.1,10.7C543.7,602.9,556.6,602,569.3,602z M1790.9,685.2c4.3,11.3,3.2,19.5-8.5,23.3
		c-39.1,12.9-78.5,15-117.4,0.4c-20.4-7.6-31.4-23.8-31.9-45.7c-0.6-32.5-0.5-64.9-0.2-97.4c0.2-25.6,13.3-43.1,37.3-50.8
		c31.2-10.1,63-10.6,94,1.3c22.3,8.5,31.7,27.2,34.1,49.4c1.4,13.5-0.3,27.3,0.6,40.9c0.6,10.3-2.7,14.4-13.2,14.6
		c-34.3,0.6-68.6,2.1-103,2.9c-17.8,0.4-18.4,0.8-18.3,18.2c0,3.3-0.1,6.6,0,9.9c0.7,28.2,15.1,45.2,43.3,44.9
		c23.6-0.2,47.3-5.4,70.9-8.5C1782.6,687.9,1786.5,686.4,1790.9,685.2z M1714.8,602.1c6.1,0,12.2,0,18.3,0c37,0,38.3-2.1,31.8-39.7
		c-2.5-14.4-8.6-26.1-23-28.7c-14.4-2.7-29.8-3.4-44.4-1.6c-21.4,2.6-30.8,14.2-32.9,35.7c-0.7,7.5-0.3,15-0.4,22.5
		c-0.1,8.4,4.4,11.8,12.4,11.8C1689.4,602,1702.1,602,1714.8,602.1z M1014.1,717c21.8-3.6,41.2-11.3,48.6-35
		c11.3-36.2-1.6-60.4-38.6-71.3c-20.7-6.1-42.1-9.6-62.8-15.7c-21.8-6.4-28.4-21.7-20.4-43c4.1-11,11.4-18.7,23.4-19.7
		c12.5-1,25.2-1.7,37.6-0.6c16.9,1.6,25.1,13.1,27.6,29.2c2.2,13.8,12.4,13.5,22.7,12.2c11.8-1.4,10.5-10.3,9.5-18.3
		c-2.7-21.9-18.3-39.9-41.1-42.5c-22.6-2.5-45.9-3.1-68.4-0.5c-29.4,3.4-43.5,20.7-45.3,48.6c-1.9,29.8,8.2,44.9,38.2,53.8
		c19.8,5.8,40.3,9.2,60.2,14.6c23.1,6.3,29.4,16.3,27.1,40.3c-1.5,15.4-14.2,26.1-33.9,28.1c-6.5,0.7-13.2,0.5-19.8,0.4
		c-25.9-0.5-35.8-8.9-42-34c-3.8-15.5-16.7-8.7-25.8-8.6c-10.2,0.1-7.8,8.3-6.4,14.8c6.3,28.7,20.7,42.8,49,47
		c10.7,1.6,21.6,1.7,29.4,2.3C995.4,718.3,1004.9,718.6,1014.1,717z M1126.7,609.1c0,22.1-0.4,44.3,0.1,66.4
		c0.4,15.7,8.2,28.4,21.9,35.7c19.3,10.3,40.2,9,60.5,3.3c3.9-1.1,5.8-9,8.6-13.7c-4.3-1.2-8.8-3.8-12.9-3.3
		c-32.5,3.8-47.4-8.6-47.6-41.1c-0.2-36.3,0.4-72.5-0.3-108.7c-0.3-12.3,4.4-15.8,15.6-15.2c11.7,0.6,23.7,1.1,35.2-0.5
		c4.2-0.6,7.5-7.3,11.2-11.2c-3.7-3.3-7-8.7-11.2-9.6c-7.7-1.6-15.9-0.5-23.9-0.4c-30.7,0.4-26.9-0.7-26.6-26.9
		c0.1-8.2,0.1-15.1-11.2-15.1c-9.6,0-16.9,1.4-17,13.3c-0.1,5.1-1.7,10.3-1.6,15.4c0.2,9.6-4.1,14.1-13.6,13.3
		c-7.4-0.6-11.8,2.1-12,10.1c-0.2,8.3,3.9,12.2,12.1,11.8c10.6-0.5,12.1,5.7,12,14.5c-0.4,20.7-0.1,41.4-0.1,62.1
		C1126.1,609.1,1126.4,609.1,1126.7,609.1z M808,560.4c0,38.1-0.1,76.3,0,114.4c0.1,33.4,23.5,51.3,55.7,42c3.7-1.1,8-6.6,8.2-10.4
		c0.2-2.6-5.8-8-9.3-8.2c-14.1-1.1-20.1-8.7-20.7-21.8c-0.3-6.1-0.6-12.2-0.6-18.3c0-71.5-0.2-143.1,0.2-214.6
		c0.1-11.9-4-17.7-16.1-17.7c-11.9-0.1-17.9,4.2-17.7,17.5C808.4,482.2,808,521.3,808,560.4C808,560.4,808,560.4,808,560.4z
		 M704.5,559.7c0,39.1-0.4,78.2,0.1,117.2c0.4,32.4,26.2,50.5,56.2,39.7c3.6-1.3,6.6-7.1,7.7-11.3c0.4-1.7-4.8-6.4-8.1-7.1
		c-19.8-4.4-22-6.8-22-27.2c0-75.3,0-150.7,0-226c0-15.6-3.3-18.8-17.3-19.2c-14.1-0.4-17.1,7.1-16.9,19.6
		C704.8,483.4,704.4,521.5,704.5,559.7C704.5,559.7,704.5,559.7,704.5,559.7z M1520.7,528.6c1.2-12.2-1.8-19.7-16.4-19.5
		c-15,0.3-15.8,9-15.8,20.6c0.3,56.9,0.5,113.8-0.1,170.7c-0.1,13.1,4.3,17.2,17.1,17.2c13.1,0.1,15.6-5.8,15.5-17.3
		c-0.5-40-0.8-79.9,0-119.9c0.2-7.4,4.3-16.1,9.4-21.8c14.2-16,32.3-25.4,54.2-26.6c9.8-0.5,14.9-5.8,13.2-15.7
		c-1.7-10.2-9.8-9.5-16.5-7.2c-16.6,5.9-32.8,13-49.2,19.6c-2.9,1.2-5.7,2.6-9,4.2C1521.5,530.3,1520.6,529.4,1520.7,528.6z"/>
</g>
<g id="afisha" class="st0">
	<path class="st1" d="M424.8,688.3c-25.3,0-50.7,1.1-75.9-0.3c-22.4-1.3-45.5-4.5-57.7-27.3c-11.9-22.3-9.6-45.2,4.9-65.4
		c14.1-19.6,37-20.5,58.4-21.3c22.4-0.8,44.8,1.9,67.2,1.4c6.4-0.1,12.6-6,18.9-9.2c-6.4-5.2-12.6-14.6-19.3-15
		c-30.7-1.6-61.5-0.3-92.2-0.9c-7.5-0.1-16.9-1.1-22-5.6c-5.9-5.3-11.1-15-10.7-22.5c0.2-5.4,9.9-10.5,15.6-15.4
		c1.4-1.2,4-1.8,6-1.7c52.3,3.2,105.1-6.1,156.9,8.3c23.6,6.6,35.8,25,36.5,60.9c0.4,23.2-1.6,46.4-2.3,69.6
		c-0.2,5.6-0.2,11.3,0.6,16.8c3,20.2-2.3,26.3-23.4,26.2c-10.6-0.1-21.1-0.7-31.7-0.8c-9.9-0.1-19.7,0-29.6,0
		C424.8,686.8,424.8,687.5,424.8,688.3z M393.1,616.8c0,0.3,0,0.5-0.1,0.8c-9.8-0.7-19.9-3.1-29.3-1.4c-5.7,1.1-14,8.4-14.3,13.3
		c-0.3,4.8,7.6,14.2,12.6,14.6c21,2,42.2,2.1,63.3,1.2c4.7-0.2,13-8.2,12.6-11.7c-0.7-5.9-6.3-14.8-11.3-16
		C415.9,615.1,404.3,616.8,393.1,616.8z M1494.4,686c-23.2,0-46.5-0.3-69.7,0.1c-21,0.3-40.6-6-50.3-24.2
		c-10.9-20.4-11.7-45.7,2.6-64c8.9-11.4,27.8-18.9,43.1-20.8c27.8-3.4,56.2-0.6,84.3-2c6.6-0.3,12.9-7,19.4-10.7
		c-6.5-4.6-12.7-12.8-19.5-13.2c-25.2-1.6-50.6-0.3-75.9-1c-11.8-0.3-24.9,0-34.9-5c-7.7-3.8-11.3-15.6-16.8-23.9
		c8.2-4.8,16.3-13.5,24.8-13.9c40.5-1.8,81.2-1.7,121.8-1.5c50.2,0.3,77.9,36.3,70.8,77.8c-4,22.9,0.6,47.3,0.8,71
		c0.3,29.3-1.6,31.1-30.7,31.5c-23.2,0.3-46.5,0.1-69.7,0.1C1494.4,686.1,1494.4,686,1494.4,686z M1478.9,646.1c0-0.1,0-0.2,0-0.3
		c12,0,24.1,1,35.8-0.5c4.3-0.6,11.2-7.6,10.8-11.1c-0.7-6.3-5.6-17.3-9.2-17.5c-25.2-1.3-50.6-1.2-75.8,0.5
		c-5.5,0.4-10.4,8.9-15.5,13.7c5.3,4.5,10,11.8,16,13C1453.3,646.3,1466.2,645.6,1478.9,646.1z M963.7,685.9c24.7,0,49.4,1,74-0.4
		c11.2-0.6,23.6-3.7,32.9-9.7c18.8-12.2,29-30.9,24.4-53.9c-4.7-23-27.5-41.3-53.5-43c-28.7-1.9-57.5-1.1-86.2-3.3
		c-6.9-0.5-13.3-8.2-20-12.6c6.7-5.6,13.3-15.9,20.1-16c36.4-0.8,72.9,0.8,109.4,2c12.7,0.4,28-11.8,26.7-24.3
		c-1.4-13.9-10.8-20.4-24.9-19.3c-11.8,0.9-23.7,2.4-35.5,2.9c-40.6,1.6-81.4,1.9-121.9,4.7c-28.3,2-48,40-37.3,66.5
		c12.2,30.4,37.7,37,65.8,38.3c24.6,1.1,49.3-0.3,74,0.5c5.5,0.2,12,3.7,15.7,7.8c2.1,2.4,1.3,11.3-1.2,13.1
		c-4.6,3.3-11.4,4.7-17.3,4.8c-36.6,0.5-73.3,0.7-109.9,0.3c-18.8-0.2-24.6,12-26,26.8c-1.7,17.8,12.1,15.2,23.3,15.2
		c22.5-0.1,45.1,0,67.6,0C963.7,686.2,963.7,686,963.7,685.9z M1304.4,688.9c21.4,6.5,36.9-4.1,37-26.9c0.2-34.6,0-69.1,0.1-103.7
		c0.1-45.7,0.1-45.7-45.6-50.1c-1.4-0.1-3.3-1.2-4.1-0.6c-6,4.4-15.7,8.3-16.9,14c-2.6,12.1,0.5,25.4-1.3,37.8
		c-0.9,6-7.1,15.7-11.4,16c-23.6,1.6-47.4,0.8-73,0.8c0-15.5,0-28,0-40.6c0.1-27.8-0.2-28-27-27.2c-4.8,0.1-9.9-0.5-14.5-1.8
		c-18.3-5.2-25.2,4.5-25.4,20.4c-0.5,46.5,0,92.9-0.4,139.4c-0.1,14,7.1,21,19.9,22.4c8.3,0.9,16.9-1.5,25.2-0.5
		c18.9,2.3,23.2-7.6,22.6-23.7c-0.6-15.1-0.1-30.3-0.1-45c30,0,56.5,0,84.1,0c0,22.2,0,43,0,64.6
		C1286.5,686,1295.8,686.3,1304.4,688.9z M704.3,618c16.4,0.1,27.3-9.4,25.2-23.6c-1.1-7.2-16.3-16.4-25.9-17.3
		c-25.1-2.4-50.6-0.2-75.9-1.2c-6.2-0.3-12.2-5.9-18.2-9.1c4.6-6.3,8.2-13.7,14-18.3c3.7-2.9,10.7-2,16.3-2.1
		c26.7-0.2,53.5-0.3,80.2-0.1c16.5,0.1,26.4-10.5,26.8-24c0.4-16.7-14.8-17.8-28-17.1c-16.1,0.8-32.1,2.6-48.2,3.1
		c-26,0.7-52.1-0.3-78.1,1.3c-33.2,2-49.7,14.8-50.2,39.3c-0.9,40.8-0.7,81.6,0.3,122.4c0.1,6,7,16.6,11.2,16.8
		c16.9,0.8,33.9-1.6,52-3c1.5-23.2,2.8-43.9,4.2-67.2C641.4,617.9,672.9,617.7,704.3,618z M840.6,596.5c0-23.9,0.7-47.8-0.5-71.6
		c-0.3-6.4-6-17.6-10-18c-14.8-1.4-30.1-0.3-44.9,2.3c-4.5,0.8-10.7,9.2-10.8,14.4c-1.5,47.2-1.8,94.5-2.7,141.8
		c-0.3,17.1,8.6,24.3,24.6,23.8c7.6-0.2,15.4-3.2,22.8-2.4c18.2,2,21.5-9.1,21.6-23c0.3-22.5,0.1-44.9,0.1-67.4
		C840.9,596.5,840.7,596.5,840.6,596.5z M1652.6,520.3c-3.5-9.5-16-20.2-25.9-21.8c-12.2-2-23.3,6.3-23.4,23
		c-0.1,16.1,7.6,22.9,20.2,24.1C1640.1,546.1,1657,532.3,1652.6,520.3z"/>
</g>
<g id="сочная_долина" class="st0">
	<path class="st2" d="M1467.5,572.1c0,46.8,0.2,93.5-0.1,140.3c-0.1,24-13.2,43-35.7,51.4c-51.4,19.1-103.9,34.5-157.5,45.6
		c-33.9,7-68.1,13.1-102.4,17.7c-48.7,6.5-97.7,9.6-146.8,7.9c-41-1.4-82.1-3.2-122.7-8C815,816.6,730,795.5,647.5,765.1
		c-26.3-9.7-39.6-29.2-39.6-57.2c0-89.6,0-179.3,0-268.9c0-32.4,13.2-51.1,43.5-61.7c68.8-24.2,139-43.2,211.2-54.5
		c4.2-0.7,6.3-0.4,7,3.8c6.4,39.7,33.6,62.4,66.9,78.9c40.3,20,83.3,26.2,128.1,22.2c37.5-3.4,72.9-12.9,104.3-34.4
		c22.4-15.4,39.8-34.8,45.3-62.6c0.9-4.8,2.1-7,8.6-5.9c70.6,11.7,139.2,30.9,206.6,54.6c24.9,8.8,38.7,31.4,38.3,54.3
		C1466.9,479.8,1467.4,525.9,1467.5,572.1C1467.4,572.1,1467.4,572.1,1467.5,572.1z M1369,521.5c0-18.1-0.2-36.3,0.1-54.4
		c0.1-5.4-1.4-8.4-7.1-8.7c-15.7-0.8-31.4-3-47-2.2c-17,0.8-29.8,13.8-32.2,29.4c-2.6,17.4,3.6,29.1,20.4,36.9c5.4,2.5,6,3.4,1.2,8
		c-5.2,4.9-9.4,11.5-12.2,18.1c-7.5,17.7-14,35.7-20.6,53.8c-0.5,1.2,1.7,4.7,3.1,5.2c9.7,2.8,19.2-3.2,22.6-13.2
		c4.7-13.7,9.5-27.4,14.5-41c4.8-13.1,12.8-21.3,28.2-21c6.3,0.1,6.7,1.9,6.6,6.9c-0.3,13.4-0.1,26.8-0.1,40.2
		c0.1,13.3,2.5,15,15,10.5c6.5-2.3,7.3-7.9,7.3-13.8C1369,557.8,1369,539.6,1369,521.5z M1040.9,524.5c0,16.1,0,32.2,0,48.2
		c0.1,13.6,5.3,18.4,19,18.8c5.8,0.2,6.9-1.9,6.8-7.2c-0.3-14,0.1-28-0.1-42c-0.1-4.8,0.9-7,6.3-6.8c12.2,0.4,24.4,0.6,36.5,0.1
		c4.8-0.2,5.5,1.6,5.5,5.5c-0.1,10.7-0.1,21.4,0,32.2c0.1,12.2,5.1,17.4,16.9,18.1c5.7,0.3,8.3-0.7,8.2-7.6
		c-0.4-32.4-0.1-64.9-0.2-97.3c0-3.8-0.2-7.8-1.2-11.5c-1.9-7-9.4-10.1-19.2-8.7c-8.1,1.1-4.3,7.3-4.4,11.2c-0.5,11-0.4,22,0,33
		c0.2,6.3-2,8.2-8.2,7.9c-11.3-0.4-22.6-0.2-33.9,0.3c-5.2,0.2-6.6-1.7-6.4-6.7c0.4-9.2,0.3-18.4,0.2-27.7
		c-0.2-13.7-4.7-17.8-18.3-18.3c-5.8-0.2-7.8,1.4-7.7,7.4C1041.2,490.6,1041,507.6,1040.9,524.5z M1074,715.5
		c-0.5-0.1-1.1-0.2-1.6-0.3c0-2.9,0-5.8,0-8.7c0-23.8,0.1-47.6-0.1-71.4c0-2.6-0.6-6.7-2.3-7.6c-7.9-4.6-19,1.4-19.1,10.4
		c-0.3,34.5-0.3,69,0,103.5c0,1.9,3.4,5.3,5.4,5.4c12.8,1,22.9-4.8,28.8-15.6c10.1-18.7,19.1-38,28.5-57.1c3.3-6.6,6.7-13.1,10-19.6
		c0.7,0.2,1.4,0.4,2.2,0.7c0,3.2,0,6.4,0,9.5c0,25-0.1,50,0.1,75c0,2.5,1.9,6.6,3.7,7.1c9.9,2.5,17.9-3.9,17.9-14
		c0.1-33-0.1-66,0.1-99.1c0.1-5.9-2.1-6.6-7.2-6.9c-17.2-0.9-29,6.8-36.1,22C1094.2,671,1084.1,693.3,1074,715.5z M752.3,750.6
		c17.9,0,35.7,0.1,53.6,0c10.4,0,15.1-6.7,9.8-15.4c-2.2-3.6-7.6-6.8-11.9-7.3c-5.6-0.7-7.6-2.6-8.5-7.9c-1.3-7.3-3-14.6-5.3-21.6
		c-6.7-19.9-13.4-39.9-20.9-59.5c-3.4-8.9-11.4-11.8-21-12c-9-0.1-11.2,6.7-13.2,12.2c-9.5,26.1-18.4,52.4-26.9,78.9
		c-1.8,5.5-1.9,9.7-9.5,9.7c-6.5,0-11.3,9-10.4,16.4c1,7.3,6.5,6.5,11.5,6.5C717.2,750.6,734.7,750.6,752.3,750.6z M755,450
		c-22.2,0.5-40.2,11.2-51.7,32.8c-9.9,18.4-10.9,38.1-7.8,58c5.2,33.3,34.9,55.7,68.5,52.5c18.7-1.8,29.6-12.3,29.7-28.8
		c0-2.8-0.8-5.6-1.3-8.4c-2.6,1.5-5.6,2.6-7.9,4.5c-14.2,11.8-45.1,12.6-54.8-12.1c-6.4-16.3-7.6-33-1.8-49.6
		c5.4-15.5,17.8-23.7,33.9-23.5c10.1,0.1,18.2,4.4,25.2,11.3c1.3,1.3,3.2,1.9,4.9,2.8c0.6-1.8,1.7-3.7,1.6-5.5
		c-0.3-5,0-10.3-1.8-14.8C785.7,453.5,772.1,450.3,755,450z M871,749.1c18.9-0.1,35.3-7.6,43.2-21.8c14.5-25.8,15.9-52.7,1.9-79
		c-15.4-29.1-62-33.6-83.4-8.5c-17.5,20.6-19.1,44.7-12.9,69.7C826.2,734.9,845.1,749.2,871,749.1z M804,530.1
		c2.5,10.3,3.9,20.9,7.7,30.7c8.1,21.1,26.8,31.6,52.1,30.9c20-0.6,38-13.7,45-33.3c5.9-16.6,7-33.6,2.9-50.8
		c-4.6-19.4-15.4-33.7-35-38.9c-21.4-5.7-41.5-2.3-56.8,15.3C808.6,497,805.5,512.9,804,530.1z M1269.2,689.6c0,0-0.1,0-0.1,0
		c0-15.8,0-31.6,0-47.3c0-11.9-4-15.8-15.9-16.2c-5.3-0.2-8.1,0.9-7.9,7.3c0.5,12.2,0,24.4,0.3,36.6c0.1,5.4-1.8,7.5-7.3,7.3
		c-11-0.3-22-0.4-33,0c-5.8,0.2-7.9-1.8-7.7-7.7c0.4-10.4,0.3-20.8,0-31.3c-0.2-8.8-6.3-12.6-18-12.4c-9.3,0.2-5.4,7.1-5.5,11.1
		c-0.3,31.3-0.2,62.5-0.2,93.8c0,11.7,5.2,16.3,17,16.4c5.4,0,7.2-1.6,7-7.1c-0.4-12.8,0.2-25.6-0.3-38.4c-0.3-6.9,2.3-8.7,8.8-8.4
		c10.4,0.5,20.8,0.4,31.2,0c5.7-0.2,8.1,1.1,7.9,7.3c-0.4,10.1-0.2,20.2-0.1,30.4c0.1,11.2,5.2,15.8,16.4,16.3
		c6.2,0.3,7.5-2.2,7.4-7.7C1269,723,1269.2,706.3,1269.2,689.6z M1156.5,578.6c0.9,7.7,4.1,11.6,11.3,12.8c8,1.3,11-2.3,11.6-9.9
		c0.5-5.9,1.4-11.8,3.3-17.4c0.8-2.4,4.3-5.2,6.8-5.5c7.1-0.8,14.3-0.3,21.4-0.3c17.8,0,18.6-0.1,21.1,17.5
		c1.5,10.5,6.8,13.8,16.2,15.1c7.9,1.1,9.4-1.9,7.9-8.6c-2.9-12.4-5-25-8.7-37.2c-6.5-21.2-13.7-42.2-20.9-63.2
		c-3.7-10.8-11.6-15.4-23.1-15.8c-11.4-0.3-12,9.1-15.2,15.6c-4.9,10.1-9.2,20.6-12.6,31.3C1168.7,534.8,1162.8,556.8,1156.5,578.6z
		 M1022.4,531.9C1022.4,531.9,1022.4,531.9,1022.4,531.9c0-16.1,0.1-32.1,0-48.2c-0.1-13.1-2.1-14.9-15.2-16.8
		c-5.9-0.8-8,0.7-7.9,6.9c0.3,15.5,0.3,30.9-0.2,46.4c-0.5,13.7-8.8,21.3-22.2,21.2c-12.8-0.1-20.4-7.8-20.7-21.7
		c-0.3-11.6,0-23.2-0.1-34.8c-0.1-14-3.9-17.5-17.8-18.2c-4.5-0.2-5.6,1.3-5.6,5.5c0.2,18.7-0.4,37.5,0.3,56.2
		c0.5,12.6,6.1,23.1,18.9,27.6c13.9,4.8,28,5.8,41.2-2.4c5.3-3.3,6.4-2.4,6,3.6c-0.4,7.4-0.5,14.9,0.1,22.3
		c0.6,7.9,8.2,12.2,19.2,11.1c7.7-0.8,3.6-7.1,3.7-10.5C1022.7,564.1,1022.4,548,1022.4,531.9z M1334.4,716.6
		c4.8,0,9.5,0.3,14.2-0.1c6.4-0.6,10.1,1,10,8.4c-0.1,4.3,1.3,8.8,2.6,13c2.2,7.7,10.5,12.5,19.4,9.6c7-2.3,2.3-8.5,1.4-12.5
		c-4.2-18.7-8.4-37.5-13.8-55.9c-4.1-13.8-9.8-27.2-15.5-40.6c-4-9.5-12.4-11.5-22-11.5c-8.4,0-9.3,6.5-11.4,11.4
		c-6.7,16.1-13.6,32.2-18.9,48.8c-4.9,15.5-8.3,31.4-11.7,47.3c-1.4,6.6,0,12.2,8.8,13.3c7.9,1,10-1.9,11.1-9.4
		C1311.7,716.9,1312.1,716.9,1334.4,716.6z M981,627.3c-8-2.3-11.1,4-13.2,9.7c-9,24.4-17.9,48.9-25.9,73.6c-3,9.2-4.3,19-5.2,28.7
		c-0.7,7.9,5.8,8.2,11.7,8.8c5.9,0.7,6.8-2.3,8.1-7.5c7-28.4,14.6-56.7,22.2-84.9c0.7-2.6,3-4.7,4.6-7c1.5,2.4,3.5,4.7,4.3,7.3
		c4.6,15,9.3,30,13.3,45.1c3.1,11.7,5.1,23.7,7.8,35.5c2,8.8,9.8,13.3,19.3,10.5c1.8-0.5,3.7-6.7,2.9-9.6
		c-8.6-31-17.2-62.1-26.8-92.8C1000.9,634.8,994.3,626.2,981,627.3z M922.5,294c3.7,1.5,7,4.1,10.5,6.2
		c2.5,12.1,13.1,10.4,21.4,12.5c-4.7-13-4.8-17.9-1-31.7c0.5-1.6,0.4-3.5,0.2-5.3c-0.9-6.5,2.4-8.4,7.8-6.7c6.1,1.9,8.9,0.4,9.2-6.2
		c0.2-4.9,3.5-5.9,7.6-4.1c13.4,6.1,24.2-0.6,33.8-8.2c5.3-4.1,8.2-6.3,14.2-1.5c7.1,5.7,19.4,3.8,25.6-3c4.1-4.5,8-5.8,11,0.5
		c4.5,9.4,11.7,9.7,20.2,7.1c3.9-4.1,7.6-4.9,10.2,1.1c4.2,9.7,14,15.7,24.6,14.5c2.1-0.2,4.1-0.9,6.1-1c7.3-0.5,9.1,2,7.7,9.6
		c-0.4,2.4-0.8,6.2,0.5,7.3c6.9,5.8,6.3,12.8,4.4,20.3c8-8.2,19.5-4.9,29-8.6c0.8-0.3,4.3,3.4,4.9,5.7c2.2,7.4,8.5,11.6,15.5,9.1
		c1.8-0.6,4.4-3.2,4.2-4.4c-0.3-1.8-2.6-3.7-4.5-4.7c-1.4-0.7-3.8,0.4-5.2-0.3c-1.5-0.8-2.4-2.8-3.6-4.3c1.5-0.6,3.2-2.1,4.3-1.7
		c5.4,1.6,10.6,3.7,15.8,5.6c-0.1-0.9-0.2-1.8-0.4-2.6c-9-26.3-28.6-42.9-52.3-54.6c-62-30.4-125.8-31.5-189.8-6.9
		c-24.1,9.2-45.7,23-59.5,46.1C904.2,287.3,913.5,290.4,922.5,294z M886.4,329.4c6.1,24.3,22.5,40.4,42.6,53.4
		c2.3,1.5,6.3,1.5,9.2,0.7c8.5-2.4,16.7-5.6,25.1-8.5c-2.1-1.7-3.9-3.8-6.2-4.9c-6.7-3.4-11.8-7.2-7-15.7c0.5-0.9,0.6-2.7,0.1-3.4
		c-8.2-10.7-5.3-27.2-18.7-35.7c-1.9-1.2,0.9-9.8,1.6-15c-3.5-2.1-6.7-4.7-10.5-6.2c-9-3.6-18.2-6.7-27.4-10
		C885.8,297.9,882.3,312.9,886.4,329.4z M1139,322c0.2,1.7-0.5,4.6-1.6,5.1c-8.5,3.6-5.2,8.3-2.7,14.3c4,9.5,12.4,13.7,19.7,19.5
		c1.2,1.2,2.5,2.5,3.7,3.7c4.6,8.9,11.3,0.9,16.8,2c19.2-15.3,29.6-44.2,22.3-64.6c-5.3-1.9-10.5-4-15.8-5.6
		c-1.2-0.3-2.9,1.1-4.3,1.7c1.2,1.5,2,3.5,3.6,4.3c1.4,0.7,3.8-0.4,5.2,0.3c1.9,1,4.2,2.8,4.5,4.7c0.2,1.2-2.4,3.8-4.2,4.4
		c-6.9,2.5-13.3-1.7-15.5-9.1c-0.7-2.3-4.1-6-4.9-5.7c-9.4,3.7-21,0.4-29,8.6C1137.5,311.1,1138.5,316.5,1139,322z M1052.6,362.8
		c26.6-4.9,53.4-6.5,80.4-5.4c-2.1-1.8-4.1-4-6.5-5.3c-3-1.6-6.4-2.4-9.6-3.6c-16.1-2.4-32.2-4.8-48.3-7.2
		c-11.4-0.1-22.8,0.2-34.2-0.3c-4.2-0.2-8.3-2.1-12.4-3.2c-6.2-0.4-11.2-2.1-13.9-8.6c-1.1-2.5-4.8-3.9-7.3-5.8
		c-1.2-0.2-2.3-0.4-3.5-0.6c-1.2-0.4-2.5-0.8-3.7-1.2c-3.5,0.6-7.1,1.2-10.6,1.8c0,0.6,0.1,1.2,0.1,1.8c5.9,4.4,11.7,8.8,17.6,13.1
		c3,2.1,5.9,4.8,9.3,5.7c7.4,1.8,10.8,5.6,8.7,13.3c4.2,1.7,8.3,3.4,12.5,5.2c4.7,0.1,9.3,0.3,14,0.4
		C1047.7,362.9,1050.2,362.9,1052.6,362.8z M1154.3,360.9c-13.9,2.1-27.8,4.1-41.7,6.4c-2.5,0.4-4.8,2.2-7.3,2.8
		c-3.8,0.8-7.8,1.1-11.7,1.6c-7,1.3-14,2.6-21,4c-6.1,2.2-12.2,4.5-18.3,6.7c-4.7,2.5-9.3,5.1-14,7.6c-5.4,2.9-10.8,5.8-16.2,8.7
		c-6.6,3.4-13.1,6.8-19.7,10.3c5.4,0.7,10.7,1.3,16.1,2c6.1-2.4,12.4-4.2,18.1-7.3c19.5-10.7,39.5-20,61.2-24.9
		c14.7-3.3,29.5-5.8,44.2-9c4.8-1.1,9.3-3.4,14-5.1C1156.8,363.4,1155.6,362.2,1154.3,360.9z M1008.7,395.7c-2.1-0.5-5-1.7-5.7-3.3
		c-4.2-9.8-10.7-15.6-20.3-17.2c-10.8,4-21.5,8-32.2,12.2c-1.7,0.7-3,2.4-4.5,3.6c1.6,1.2,3,2.9,4.8,3.4c17.8,5,35.7,9.7,53.6,14.6
		c6.6-3.4,13.1-6.8,19.7-10.3C1019,397.7,1013.8,396.9,1008.7,395.7z M1151.1,384.8c-4.7-10-9.4-11-19-6.6
		c-19.6,9.1-39.6,17.2-59.3,26c-3,1.3-5.1,4.4-7.7,6.7C1095.8,408.8,1124.8,401.1,1151.1,384.8z M1040.4,390
		c-5.2-3.7-10.1-8.4-15.9-10.7c-4.4-1.7-10.1-0.3-5.6-7.8c0.3-0.5-1.3-2.3-2.1-3.5c-11.4,2.4-22.7,4.8-34.1,7.1
		c9.6,1.6,16,7.4,20.3,17.2c0.7,1.6,3.6,2.8,5.7,3.3c5.1,1.3,10.3,2.1,15.5,3C1029.6,395.8,1035,392.9,1040.4,390z M1031.2,362.6
		c-4.2-1.7-8.3-3.4-12.5-5.2c-16.7-3.6-33.4-7.1-50.1-10.7c-2.5,0-4.9,0-7.4-0.1c4.2,1.7,8.5,3.3,12.7,5.2
		c10.8,4.8,21.6,9.8,32.4,14.7C1014.6,365.2,1022.9,363.9,1031.2,362.6z M1072.7,375.7c-6.7-4.2-11-12.3-20.1-12.8
		c-2.5,0.1-4.9,0.1-7.4,0.2c-2.3,0.6-4.5,1.2-6.8,1.8c5.9,5.3,12.2,10.2,15.9,17.6C1060.5,380.1,1066.6,377.9,1072.7,375.7z
		 M1097.4,289c-5.4,5.6-10.6,5.2-16.1,0.1c-5.9-5.4-5-10.7-0.4-16.2c1.3-1.6,2.6-3.2,3.9-4.8c0-0.6,0-1.2,0.1-1.7
		c-3-3.8-5.9-3.6-8.3,0.6c-2.7,4.6-5.1,9.3-7.6,14c0.2,2.8,1.4,6.1,0.5,8.4c-1.9,4.7-1,7.4,3.2,10.4c3.7,2.6,6.4,4.7,10.8,1.3
		c2-1.5,5.2-1.4,7.8-2c-1.3,2.4-2,5.9-4,7.1c-6.7,4-5.4,8.8-2.7,14.3c1,2.1,1.4,4.5,2,6.7c-2.3,9.5-7.7,14.9-18,14.4
		c16.1,2.4,32.2,4.8,48.3,7.2c-1.2-1.3-2.3-2.5-3.5-3.8c-12.1-1.2-12.9-3.3-12.1-15.2c0.5-7.4-0.6-15.2-2.8-22.3
		c-1.5-4.8-1.9-7.5,2.5-10.3c3.7-2.4,7-5.4,10.6-8c6.5-4.7,4.9-7.9-1.8-10.2c-1.8,1.2-3.6,2.4-5.4,3.6
		C1102.1,284.6,1099.6,286.6,1097.4,289z M1068.9,280.8c-1.1,2.3-1.8,5.2-3.6,6.8c-1.6,1.5-4.7,2.9-6.7,2.4c-1.8-0.5-3.4-3.4-4-5.6
		c-1-3.2,1.2-8.4-5.5-7.3c0,0.5-0.1,1.1-0.2,1.6c-1.6,2.6-3.2,7.4-4.9,7.4c-4.2,0.2-8.5-1.7-12.6-3.1c-1.7-0.6-3-2.2-4.4-3.3
		c-0.4,1-1.3,2.1-1.2,3c1.8,11-9.9,7-13.4,12.1c-3.4-2.3-6.8-4.6-10.1-6.8c-2.6-1-7.6-7.8-5.5,2.5c0.2,0.9-3.3,2.7-5.1,4
		c-0.2,0.6-0.7,1.5-0.5,1.6c9.1,7.9,3.7,17,2.2,25.7c1.2,0.4,2.5,0.8,3.7,1.2c5-5.8,10.5-11.1,14.7-17.4c3.8-5.6,8.8-6.9,14.8-8
		c31.8-6,36.6,2.8,50,22.1c2.2,3.2,6.5,4.9,9.8,7.3c-0.7-2.2-1-4.6-2-6.7c-2.7-5.5-3.9-10.3,2.7-14.3c2-1.2,2.7-4.7,4-7.1
		c-2.7,0.6-5.9,0.5-7.8,2c-4.4,3.4-7.1,1.4-10.8-1.3c-4.2-3-5.1-5.6-3.2-10.4C1070.4,286.9,1069.2,283.7,1068.9,280.8
		C1069,280.8,1068.9,280.8,1068.9,280.8z M1000.7,323.6c3.3-2.8,7.3-5.1,9.8-8.6c15.9-21.8,51.8-20,60.9,7.5
		c1.3,3.9,3.1,10.5,1.5,11.8c-3.1,2.4-8.5,2.4-13,2.6c-12.6,0.6-25.3,0.7-38,1c4.1,1.1,8.2,3,12.4,3.2c11.4,0.5,22.8,0.3,34.2,0.3
		c10.3,0.5,15.8-4.9,18-14.4c-3.3-2.4-7.6-4.2-9.8-7.3c-13.4-19.3-18.3-28.1-50-22.1c-6,1.1-11,2.4-14.8,8
		c-4.2,6.3-9.8,11.6-14.7,17.4C998.4,323.2,999.6,323.4,1000.7,323.6z M1018.7,357.4c2-7.7-1.3-11.5-8.7-13.3
		c-3.4-0.8-6.3-3.5-9.3-5.7c-5.9-4.3-11.8-8.7-17.6-13.1c-2.2,8.9-2.8,18.9-14.5,21.4C985.3,350.3,1002,353.9,1018.7,357.4z
		 M974,280c-1.3-1-3.6-0.5-5.4-0.7c0.4,2,0.2,4.8,1.5,6c3.4,3.2,7.3,6,11.3,8.5c6,3.7,7.8,7.8,4.4,14.7c-2.1,4.4-2,10-2.8,15
		c3.5-0.6,7.1-1.2,10.6-1.8c1.5-8.8,6.9-17.8-2.2-25.7c-0.2-0.2,0.3-1.1,0.5-1.6C985.9,289.6,980.1,284.6,974,280z M1328.2,471.8
		c-18.5,0.1-26.5,9.7-23.4,28c2.2,12.8,12.8,17.7,32.7,16.9c14.3-0.6,6.1-11.1,8.4-17c0.6-1.5,0.1-3.5,0.1-5.3
		C1347.1,471.7,1347.1,471.7,1328.2,471.8z M750.9,727.4c5.4,0,10.7-0.3,16.1,0.1c6.6,0.5,9.3-0.9,7-8.3c-3.4-11-5.5-22.4-8.7-33.5
		c-3.2-11.1-6.9-22-10.6-33c-0.5-1.6-2-2.8-3.1-4.2c-0.9,1-2.3,1.8-2.7,3c-7.2,23.5-14.3,47-21,70.6c-0.4,1.3,2.7,4.9,4.4,5.1
		C738.4,727.8,744.6,727.4,750.9,727.4C750.9,727.4,750.9,727.4,750.9,727.4z M897.7,662.8c-4.2-14.7-13.7-21.3-27.9-21
		c-11.9,0.3-22.1,8.9-26,21.9c-4.7,15.8-4.3,31.7,0.6,47.2c3.6,11.6,11.5,19.1,24.3,20.4c12.5,1.2,21.7-3.2,27-15.6
		c3.6-8.5,4.7-18.1,6.6-25.9C900.6,679.6,900,670.9,897.7,662.8z M883.9,499.2c-4.3-10.5-13.7-15.1-25.2-14.8
		c-11.3,0.3-19.3,5.9-23.7,15.9c-8.6,19.3-7.8,38.9,0.3,58c4.4,10.4,13.2,15.3,24.9,15.5c11.9,0.1,20.4-5.3,24.4-15.7
		c3.5-9,4.7-18.8,7-28.9C889.1,519.1,887.7,508.6,883.9,499.2z M1217.2,543.2c6.2,0.6,8.1-1.7,6.1-7.6c-4.7-14.3-9.2-28.6-13.9-42.9
		c-0.5-1.5-1.9-2.7-2.9-4.1c-1.2,1.5-2.9,2.9-3.5,4.6c-3.8,10.5-7.7,21-10.8,31.8c-5.1,18.1-4.8,18.2,13.5,18.2
		C1209.6,543.1,1213.4,542.9,1217.2,543.2z M1348.8,700.6c1.3-0.1,3.5-3,3.2-4.1c-4.3-14.7-9-29.3-13.8-43.8
		c-0.5-1.5-2.1-2.6-3.1-3.8c-1,1.3-2.5,2.5-3,4c-3.6,10-7.4,19.9-10.6,30c-5.6,18-5.5,18.1,13.1,17.9
		C1339.4,700.8,1344.1,701.1,1348.8,700.6z M1026.6,260.3c0-0.8-3.6-1.5-5.5-2.2c-0.8,2.5-2.8,5.2-2.4,7.5
		c2.4,13.9,2.6,13.8-10.8,19.6c-1.9,0.8-3.7,1.8-5.6,2.8c3.4,2.3,6.8,4.6,10.1,6.8c3.4-5.1,15.2-1.1,13.4-12.1c-0.1-0.9,0.8-2,1.2-3
		c1.5,1.1,2.8,2.8,4.4,3.3c4.1,1.4,8.4,3.3,12.6,3.1c1.7-0.1,3.3-4.8,4.9-7.4C1037.1,278,1026.9,275.4,1026.6,260.3z M1058.5,266.6
		c0.3-1.8,1.3-3.8,0.6-5.2c-1.1-2.4-3.2-4.3-4.8-6.4c-1.1,1.8-3,3.5-3.3,5.4c-0.9,5.5-1.3,11.2-1.8,16.8c6.7-1.1,4.5,4,5.5,7.3
		c0.7,2.2,2.3,5.1,4,5.6c1.9,0.5,5-0.8,6.7-2.4c1.8-1.7,2.4-4.5,3.6-6.8C1056.7,278.3,1056.7,278.3,1058.5,266.6z"/>
</g>
<g id="makarena">
	<path d="M934.9,426.2c-42.3,33.1-84.6,66.2-126.9,99.3c-0.7-0.7-1.5-1.3-2.2-2c33.6-42.3,67.3-84.6,100.9-126.9
		c-0.7-1.4-1.4-2.8-2.1-4.2c-51.3-6.3-102.6-12.5-153.9-18.8c-0.1-0.8-0.2-1.6-0.3-2.3c51.5-6.4,103.1-12.8,158.9-19.7
		c-35.9-46.1-69.1-88.7-102.4-131.4c0.4-0.4,0.9-0.9,1.3-1.3C850.6,252,893,285.2,939,321.2c6.8-55.4,13.1-106.8,19.4-158.2
		c0.8,0.1,1.7,0.1,2.5,0.2c6.2,51,12.4,101.9,18.6,152.9c1.3,1,2.7,1.9,4,2.9c43.2-34,86.3-68,129.5-102c0.5,0.4,1,0.8,1.5,1.2
		c-33.7,43.2-67.5,86.4-104,133c55.5,6.8,107,13.2,158.5,19.5c0,0.9,0.1,1.8,0.1,2.7c-51.4,6.2-102.9,12.4-159.2,19.3
		c35.8,45.6,68.8,87.8,101.9,130c-0.4,0.5-0.8,0.9-1.1,1.4c-42-32.6-84.1-65.3-129.8-100.8c-7,55.1-13.4,106.4-19.9,157.8
		c-0.8,0-1.6,0.1-2.5,0.1c-6.3-50.8-12.7-101.5-19-152.3C937.9,427.9,936.4,427.1,934.9,426.2z M799.8,805.4
		c3.6-3.3,5.6-5.1,7.6-6.9c32.5-30.2,34.3-79.8,0.4-108.8c-44.7-38.3-110.9-20.3-128.3,37.1c-16.3,53.8,34.4,97.8,84.2,91.2
		c6-0.8,13.5,1.1,18.5,4.5c18.4,12.4,35.7,26.4,54.1,38.9c17.5,11.9,52.3,10.6,61.5-11.4C850.5,864.6,829.6,827.5,799.8,805.4z
		 M744.7,773.2c-8.8-3.4-18.6-4-27.7-6.7c-3.8-1.1-8.7-3.6-10.1-6.7c-9-21.2,5.7-63.9,25.4-75.9c15.1-9.2,36.4-7.7,49.9,3.4
		c26,21.3,28.9,81.6,5.7,105.5C773.4,786,759.3,778.8,744.7,773.2z M764.8,805.7c-18.7,12.3-41.8-0.5-51.6-26.1
		c0.9-1.2,1.9-2.5,2.8-3.7C732,785.7,747.9,795.4,764.8,805.7z M476.3,813.8c0.8-1.2,1.7-2.4,2.5-3.6c-24-3-20.4-19.8-20.5-34.6
		c-0.1-21.5,0.8-43-0.3-64.4c-0.8-16.1,1.6-28.9,19.4-33.6c0.4-0.1,0.4-1.6,1.1-4.6c-12.9,0-25.4-0.4-37.8,0.3
		c-2.6,0.2-5.8,4.4-7.1,7.4c-6.5,14.9-12.3,30-18.8,44.9c-6.8,15.6-14.1,30.9-21.3,46.4c-1.2,0-2.5-0.1-3.7-0.1
		c-12.2-28.7-24.3-57.4-36.6-86c-6.2-14.4-37-19.7-49.1-8.5c20,8.5,20.7,9.2,20.5,26.2c-0.2,22.8-0.7,45.6-1.3,68.4
		c-0.7,26-0.9,26-20.3,42.6c17.3,0,32.5,0,47.7,0c0.8-1.1,1.5-2.2,2.3-3.2c-14.7-5.4-21.2-15.5-21-30c0.2-15-0.1-30-0.1-45
		c0-9.1,0-18.3,0-27.4c1.3-0.2,2.7-0.3,4-0.5c15.2,35.6,30.4,71.1,45.6,106.7c1.5-0.1,3-0.3,4.6-0.4c14.8-34.9,29.6-69.9,44.4-104.8
		c1.3,0.4,2.6,0.7,3.8,1.1c0,21.3-0.3,42.6,0.1,63.9c0.3,15.7,2.1,31.6-18.9,35.9c-0.5,0.1-0.6,1.6-1.2,3
		C435.5,813.8,455.9,813.8,476.3,813.8z M1111.6,742.1c13.2-5.8,22-21.8,20.3-37c-1.9-16.8-11.9-28.6-28.4-29.9
		c-21.7-1.7-43.6-1.8-65.5-2.1c-6.8-0.1-13.5,1.6-20.3,2.5c18.9,11.5,18.9,11.5,18.9,33.6c0,22.9-0.8,45.8,0.2,68.6
		c0.7,15.5-1,28.1-18.4,32.9c-0.3,0.1-0.1,1.6-0.2,2.5c21.1,0,42,0,63.8,0c-7.8-6.7-17.6-10.9-18.6-16.7c-2.4-14-0.8-28.8-0.8-43.2
		c1.2-0.7,2.5-1.5,3.7-2.2c5.1,4.5,10.7,8.5,15.1,13.6c11.1,13.1,21.3,27,32.4,40.2c9.7,11.6,27.6,14.7,41.1,9.2
		c-18.9-20.6-38.3-41.8-59.3-64.8C1103.4,745.8,1107.5,743.9,1111.6,742.1z M1062.3,703.8c2.1-8.3-6.7-22.1,10.5-23.1
		c18.2-1.1,30.7,8.6,32.3,24c2.6,25.7-4.8,35-30.3,38.4c-8.5,1.1-13.1-1.3-12.6-10.6c0.3-6.8,0.1-13.7,0.1-20.5
		C1062.2,709.2,1061.6,706.3,1062.3,703.8z M1227.3,808.5c-13.7-2.7-14.6-12.6-14.5-23.8c0.2-22.9-0.1-45.7,0-68.6
		c0-3.3,0.8-6.6,1.5-12c32.5,40,63.5,78.1,94.5,116.1c1.4-0.6,2.8-1.1,4.1-1.7c0.7-4.1,2-8.3,2-12.4c0.5-32.5,1.8-65,0.6-97.4
		c-0.6-15.3,2.2-25.7,17.3-30.8c0.4-0.1,0.2-1.6,0.7-5.4c-15.3,1.6-30.2-2.7-44.7,2.5c6.2,6.5,15.3,11.6,15.6,17.2
		c1.5,27.1,0.7,54.4,0.7,85.3c-5.3-5.5-8.1-8.1-10.5-11.1c-22.1-27.6-44.1-55.3-66.3-83c-9.6-12-33.8-15.3-46-6.4
		c20.9,13,21.2,13,21.3,24.2c0.1,28.4,0.1,56.7,0,85.1c0,10.2-2.2,19.2-14.6,21.4c-1.7,0.3-3.1,2.6-7.8,6.7c18.9,0,33.9,0,50.6,0
		C1229.8,811.6,1228.8,808.8,1227.3,808.5z M608.6,675.7c19,10.6,20.7,12.7,20.6,30.3c-0.2,21.9-1,43.8-1.8,65.6
		c-1.2,31.2-30.6,41.5-53.7,36.1c-14.2-3.3-23.6-12.6-24.6-27.4c-1.6-22.7-1.7-45.4-2.7-68.2c-0.6-15.3-0.1-29.9,17.6-37.3
		c-19.2,0-38.5,0-57.7,0c-0.9,1.2-1.8,2.5-2.7,3.7c21.6,1.4,19.7,15.5,19.5,29.1c-0.3,19.2-0.1,38.4-0.1,57.6
		c0.1,34.9,10.9,48.8,45.6,52.6c41.3,4.5,68.8-10.3,68.2-57.3c-0.2-17.8,0.5-35.7-0.2-53.5c-0.6-14.5-0.1-27.3,19.4-29.8
		C640.6,670.8,626,673.3,608.6,675.7z M997.6,808.8c-17.9-1.4-23.8-13.5-28.9-27.2c-12-32.2-24.6-64.3-37.4-96.2
		c-2.3-5.9-6.5-11-11.9-20c-11.6,27.8-20.2,52.2-31.7,75.2c-12.5,25-13,57.6-43.1,73.4c14.8,0,29.5,0,41.8,0
		c-3.7-7.8-9.3-14.5-9.5-21.3c-0.2-7.1,4.1-14.7,7.8-21.3c1.9-3.2,6.9-6.2,10.7-6.5c10.7-0.9,21.5-0.4,32.3-0.2
		c3,0.1,8.1,0.1,8.8,1.6c4.5,10.3,9.8,20.8,11.2,31.7c0.6,4.4-7.7,10-12.8,16.2c20.5,0,40.7,0,60.8,0
		C996.4,812.2,997,810.5,997.6,808.8z M913.4,702.8c7.2,19.1,12.9,34.3,19.2,51.2c-14.5,0-26.8,0-40.7,0
		C898.8,737.6,905.2,722.3,913.4,702.8z M1415.5,678c-11.9,27.5-24,54.9-35.2,82.6c-7.8,19.4-11.3,41.3-33.6,53.3
		c14.8,0,29.7,0,46.2,0c-5.7-5.9-14.9-11.7-14.1-15.4c2.4-11.5,6.4-29.1,13.9-31.6c14.4-4.7,31.6-0.6,47.7,0c0.6,0,1.3,1.3,1.6,2.1
		c3,8.6,6.7,17,8.3,25.9c0.6,3.5-3.1,8.3-5.8,11.9c-1.8,2.5-5.2,3.8-9.8,6.9c22.3,0,41.7,0,58.8,0c-7.4-9.4-16.2-17.4-20.9-27.4
		c-9-19.2-15.5-39.6-23.3-59.3c-7.6-19.3-15.7-38.3-25-60.9C1419.6,672.3,1416.9,674.9,1415.5,678z M1393.7,754.6
		c6.9-16.8,13.3-32.2,21.3-51.7c7.8,19.4,13.9,34.9,20.6,51.7C1421,754.6,1408.5,754.6,1393.7,754.6z M1583,672.7
		c-19.3-7.3-46.1,1.1-55.1,18.1c-9.3,17.8-2.8,39.4,16.9,51.6c10.3,6.4,21.9,10.6,32.8,16.1c14.6,7.3,19.4,17.8,15.8,33.7
		c-2.7,11.8-11.7,17.7-27.1,17.8c-18.8,0.1-31.6-10.1-37.2-29.6c-0.9-3.3-2.6-6.4-3.9-9.6c-1.3,0.3-2.5,0.6-3.8,0.9
		c0,13.7,0,27.4,0,38.5c7.6,1.5,13.6,1.7,18.8,3.9c18.4,7.7,36.7,7.6,54.1-1.6c14.6-7.7,23.6-20.3,22.2-37.6
		c-1.7-20.4-13.4-34-31.9-42.2c-10.7-4.8-21.9-9-31.5-15.5c-15.7-10.7-13.5-28.6,3.5-36.7c14.6-6.9,30.7-0.6,38.5,15
		c2.5,4.9,5.1,9.6,7.7,14.5c1.2-0.4,2.3-0.8,3.5-1.1c0-11.9,0-23.8,0-32.2C1596.2,675,1589.1,675.1,1583,672.7z"/>
</g>
<g id="m_faktor" class="st0">
	<g class="st1">
		<path d="M642,540c8.4-13.5,15.7-25.2,23-36.9c51.2-82.1,102.3-164.3,153.6-246.4c2.7-4.3,6.3-8.4,10.3-11.4
			c12-8.8,25.9-5.5,32.6,7.9c27.5,55.1,54.8,110.4,82.3,165.5c23.2,46.4,46.7,92.8,70,139.1c5.7,11.2,11.4,22.4,16.8,33.8
			c1.6,3.3,2,7.1,3.4,12.3c-18,0-34.4,0.8-50.7-0.5c-4.4-0.4-9.9-6.1-12.3-10.7c-14.1-26.8-27.3-54.1-40.9-81.2
			c-28.8-57.4-57.7-114.7-86.6-172c-1.6-3.1-3.4-6.1-6.3-11.3c-5.4,8.4-9.8,15.3-14.1,22.1c-46.1,74.2-92.2,148.5-138.3,222.7
			c-5.1,8.2-9.8,16.7-15.3,24.6c-9.6,13.8-19.3,16.3-32.8,6.3c-14.8-10.9-28.3-23.4-42.3-35.3c-26-22.1-51.9-44.4-78-66.4
			c-9.2-7.7-10.2-7.3-15.4,2.9c-29.4,58.8-58.7,117.6-88.1,176.4c-20.8,41.6-41.5,83.1-62.2,124.7c-3.9,7.9-9.8,12.7-18.9,12.8
			c-11.3,0.1-22.7,0.8-33.9,0c-10.7-0.8-11.9-3.6-7.2-12.9c27.1-54.2,54.2-108.4,81.4-162.6c33-65.7,66-131.5,99.2-197.1
			c2.9-5.7,6.3-11.4,10.2-16.4c7.9-10.2,17.8-12.1,27.8-3.9c19.7,16.1,38.8,33,58.1,49.5C591.5,496.7,615.9,517.7,642,540z"/>
		<path d="M897.1,681.5c-11.3,14.2-22.7,28.3-33.7,42.6c-1.3,1.7-1.7,5.3-0.8,7.2c11.6,25,23.7,49.7,35.3,74.7
			c5.5,11.7,4,13.4-9.3,13.5c-3.2,0-6.5,0-9.7,0c-21.1,0-21.2-0.4-28.5-20.5c-3.7-10.3-8.4-20.3-13-30.2c-1.3-2.8-3.6-5-5.8-7.9
			c-14,9.5-21.2,21.3-20.4,38.8c0.9,22.6,3.4,19.8-18.9,19.8c-22.4,0-19.4,3.1-19.5-19.6c-0.1-54.7,0-109.3,0-164
			c0-3.8,0-7.6,0-11.9c13.1,0,25.3,0,39,0c0,33,0,66.1,0,99.2c1.1,0.5,2.2,0.9,3.3,1.4c7.9-10,16.3-19.7,23.7-30
			C851,677.9,879.4,671.1,897.1,681.5z"/>
		<path d="M514.5,706.8c23.6,0,45.9,0.4,68.1-0.2c9.1-0.2,11.7,3.3,11.6,11.7c-0.2,28.9,0.8,22.9-23.1,23.3
			c-18.4,0.3-36.8,0.1-56,0.1c-0.2,3.2-0.6,6-0.6,8.8c-0.1,16.8,0,33.6,0,50.4c0,16.8-8.6,23.6-25.5,20.2c-0.3-0.1-0.6-0.3-0.9-0.4
			c-17.4-4.1-17.7-4.1-18-29.4c-0.1-12.2,1.8-24.3,1.7-36.5c-0.2-20.6-1.9-41.2-1.5-61.7c0.2-11.3,2.8-22.6,5.2-33.7
			c4.4-19.8,20.4-25.7,37.6-28c14.3-1.9,28.8-1.8,43.3-2.1c15.4-0.3,30.7-0.1,48-0.1c0.5,11.8,1.8,21.2,1,30.5
			c-0.7,7.6-7.8,8.3-14,8.1c-16.4-0.5-32.7-1.2-49.1-1.9c-1.9-0.1-3.9-0.1-5.8,0c-18.7,0.6-21.9,3.9-21.9,22.2
			C514.5,693.9,514.5,699.7,514.5,706.8z"/>
		<path d="M698.7,727.2c0.4-13.9-5.8-21-19-20.3c-13.3,0.6-26.6,2.8-40,3.6c-7.4,0.5-11.6-6.8-12.6-18.7
			c-0.7-8.3,3.2-11.4,10.9-12.2c15.8-1.7,31.5-4.3,47.3-5.6c14.8-1.1,28.8,3.8,40,12.7c6.1,4.8,11.4,14.2,11.9,21.8
			c1.9,30.2,1.9,60.5,2.4,90.8c0.2,9.1-6.1,13.3-13.6,16.1c-23.2,8.6-47.5,6.6-71.4,5.6c-22.5-0.9-42.7-22.5-42.9-43.1
			c-0.2-23,18-44.6,41.3-47.5C668,728.5,683.1,728.2,698.7,727.2z M698.6,755.3c-8.6,0-16-0.2-23.3,0.1c-11.3,0.4-21,8.8-20.9,17.6
			c0,11.3,7.4,17.6,21.2,17.3c7.7-0.2,15.5-1.2,23.1-1.9C698.6,776.7,698.6,766.5,698.6,755.3z"/>
		<path d="M1099.3,673.2c37.8,1.2,60.2,25.9,64.1,60.6c2.1,18.9,0.3,36.5-6.7,54c-7.7,19.4-23.8,29.1-42.5,32.9
			c-16.3,3.2-33.3,3.5-49.7-3.2c-19.8-8.2-34.6-29.5-35.1-50.1c-0.4-15.1-0.6-30.6,2.1-45.3c4.9-26.6,23.3-40.7,49-46.2
			C1086.6,674.6,1093,674.1,1099.3,673.2z M1069.2,748.1c0.9,7.2,1.2,14.6,2.8,21.7c2.2,9.2,8,16.4,17.4,18.2
			c9.2,1.7,17.5-0.5,24.4-8.9c12.1-14.8,10.5-45.8,1.7-60.6c-7.1-12-24.9-13.5-35.2-3.8C1070.4,724,1069.6,735.8,1069.2,748.1z"/>
		<path d="M1491.3,673.8c11.8,0,22.2,0.2,32.5-0.1c5.4-0.2,7.2,1.9,7.2,7.1c0.1,23.5,0.3,47.1,0.9,70.6c0.2,8.4,0,17.3,2.7,25
			c1.7,4.9,7.9,10.1,13.1,11.4c9.1,2.3,19,2.2,28.5,2.2c5.6,0,6.5-4.4,6.5-9.6c-0.2-31.7-0.1-63.4-0.1-95.1c0-3.5,0-7,0-11
			c13,0,25.1,0,38.1,0c0.2,2.7,0.6,5.5,0.6,8.3c0,38.8-0.3,77.6,0.3,116.4c0.1,9.7-6.4,18.6-15.6,19.8c-28,3.7-56.3,6.1-83.5-3.8
			c-12.6-4.6-22-15-24.9-28.1c-3.5-16.1-5.2-32.7-6-49.1C1490.6,716.9,1491.3,695.9,1491.3,673.8z"/>
		<path d="M906.8,684.1c6.4-1.7,12.6-2.1,17.3-4.9c3.6-2.2,7.3-7.2,7.7-11.3c1.7-21.5,1.3-21.5,22.5-27.4
			c16.6-4.6,16.6-4.6,16.6,12.3c0,7.8,0,15.5,0,24.9c8.6,0,16.9,0.2,25.1-0.1c5.9-0.2,8,2.2,8,8c-0.4,25.2,2.5,20.7-20,21.1
			c-3.8,0.1-7.7,0-13,0c0,9.2,0,17.8,0,26.3c0,13.3,0,26.5,0,39.8c0,11.5,7.4,17.4,18.4,15.3c6.2-1.2,12.6-1.6,19.1-2.4
			c1.9,6.7,4,12.3,5.1,18.1c1.4,8.1,0.1,15.4-10.2,15.6c-16.5,0.3-33.3,1.6-49.5-0.6c-16.1-2.1-21.8-15.9-23.2-30.4
			c-1.5-15.3-1.9-30.8-2-46.2c-0.1-9.3,1.3-18.5,1.7-27.8c0.2-5.1-0.1-8.5-7.6-6.4c-9.8,2.8-15.6-2.8-15.6-12.7
			C906.8,691.9,906.8,688.4,906.8,684.1z"/>
		<path d="M1274.6,710.6c-12.3,0-22.6,0.1-32.9,0c-5.1-0.1-8.8,0.7-8.9,7.1c-0.2,14.4-0.8,28.7-1.1,43.1c-0.4,17.9-0.4,35.7-1,53.6
			c0,1.5-2.6,3.9-4.3,4.2c-7.5,1.2-15.2,2.8-22.8,2.4c-8.3-0.4-13.8-3.9-13.5-14.5c0.7-30.1,0.1-60.2,0.3-90.2
			c0.1-24.5,18.1-40.7,42.5-42.3c11.9-0.8,24-0.5,35.9,0.1c2.4,0.1,6.5,3.6,6.6,5.7C1275.7,689.8,1275,699.9,1274.6,710.6z"/>
		<path d="M1465,710.6c-10.4,0-18.7,0-27.1,0c-15.3,0-16.6,1.3-16.6,17.2c0,26.5-0.4,53,0.2,79.5c0.2,8.2-2.1,12.8-10.3,13.3
			c-7.4,0.5-14.8,1-22.2,0.4c-5.6-0.5-8.6-3.8-8.5-10.4c0.4-33.6-0.2-67.2,0.3-100.8c0.2-13.9,8.8-23.8,20.8-29.8
			c18.7-9.3,38.7-8.7,58.7-5.8c2.1,0.3,5.2,4.2,5.2,6.5C1465.9,690.4,1465.3,700.2,1465,710.6z"/>
		<path d="M1329.6,821.3c-13.3,0-24.7-10.9-24.7-23.5c0.1-13.3,11.7-25.1,24.5-25c12.9,0.1,26.5,13.3,25.4,25.6
			C1353.6,812.8,1341.2,823.6,1329.6,821.3z"/>
	</g>
</g>
</svg>
