<svg width="406" height="406" viewBox="0 0 406 406" fill="none" xmlns="http://www.w3.org/2000/svg">
<circle cx="203" cy="203" r="203" fill="#A597F9"/>
<path d="M197.295 167.592C189.309 173.829 181.324 180.066 173.338 186.303C173.206 186.171 173.055 186.058 172.923 185.926C179.266 177.956 185.628 169.985 191.971 162.015C191.839 161.751 191.707 161.488 191.575 161.224C181.89 160.037 172.205 158.869 162.52 157.682C162.502 157.531 162.483 157.38 162.464 157.248C172.186 156.042 181.928 154.836 192.462 153.536C185.685 144.85 179.417 136.823 173.13 128.778C173.206 128.702 173.3 128.608 173.376 128.533C181.38 134.769 189.385 141.025 198.069 147.808C199.353 137.37 200.542 127.685 201.732 118C201.883 118.019 202.053 118.019 202.204 118.038C203.374 127.647 204.545 137.238 205.715 146.847C205.961 147.036 206.225 147.205 206.47 147.394C214.626 140.987 222.763 134.581 230.918 128.175C231.013 128.25 231.107 128.325 231.201 128.401C224.839 136.541 218.458 144.68 211.568 153.461C222.045 154.742 231.768 155.948 241.49 157.135C241.49 157.305 241.509 157.474 241.509 157.644C231.806 158.812 222.083 159.98 211.454 161.28C218.213 169.872 224.443 177.824 230.692 185.775C230.616 185.869 230.541 185.945 230.484 186.039C222.555 179.896 214.607 173.735 205.979 167.046C204.658 177.428 203.45 187.094 202.223 196.779C202.071 196.779 201.92 196.798 201.751 196.798C200.561 187.226 199.353 177.673 198.164 168.101C197.861 167.913 197.578 167.762 197.295 167.592ZM171.79 239.042C172.47 238.42 172.847 238.081 173.225 237.742C179.36 232.051 179.7 222.706 173.3 217.242C164.861 210.025 152.364 213.417 149.079 224.232C146.001 234.369 155.573 242.66 164.975 241.416C166.107 241.265 167.523 241.623 168.467 242.264C171.941 244.6 175.207 247.238 178.681 249.593C181.984 251.836 188.554 251.591 190.291 247.445C181.361 250.196 177.416 243.206 171.79 239.042ZM161.388 232.975C159.726 232.334 157.876 232.221 156.158 231.712C155.441 231.505 154.516 231.034 154.251 230.45C152.552 226.455 155.328 218.41 159.047 216.149C161.897 214.415 165.919 214.698 168.467 216.789C173.376 220.803 173.923 232.164 169.543 236.668C166.806 235.386 164.144 234.03 161.388 232.975ZM165.182 239.098C161.652 241.416 157.291 239.004 155.441 234.181C155.611 233.954 155.8 233.71 155.969 233.483C158.99 235.33 161.992 237.158 165.182 239.098ZM110.717 240.625C110.868 240.398 111.038 240.172 111.189 239.946C106.658 239.381 107.338 236.216 107.319 233.427C107.3 229.376 107.47 225.325 107.262 221.293C107.111 218.259 107.564 215.847 110.925 214.962C111 214.943 111 214.66 111.132 214.095C108.697 214.095 106.337 214.02 103.996 214.151C103.505 214.189 102.901 214.98 102.656 215.546C101.429 218.353 100.334 221.198 99.1065 224.006C97.8227 226.945 96.4446 229.828 95.0853 232.749C94.8588 232.749 94.6133 232.73 94.3868 232.73C92.0836 227.322 89.7993 221.914 87.4772 216.526C86.3067 213.812 80.492 212.814 78.2077 214.924C81.9834 216.526 82.1156 216.657 82.0778 219.861C82.0401 224.157 81.9457 228.453 81.8324 232.749C81.7002 237.648 81.6625 237.648 78 240.775C81.266 240.775 84.1356 240.775 87.0052 240.775C87.1562 240.568 87.2884 240.361 87.4394 240.172C84.6642 239.155 83.4371 237.252 83.4749 234.52C83.5126 231.693 83.456 228.867 83.456 226.041C83.456 224.326 83.456 222.593 83.456 220.878C83.7014 220.84 83.9657 220.822 84.2111 220.784C87.0807 227.492 89.9503 234.181 92.8199 240.888C93.103 240.87 93.3862 240.832 93.6883 240.813C96.4823 234.237 99.2764 227.642 102.07 221.066C102.316 221.142 102.561 221.198 102.788 221.274C102.788 225.287 102.731 229.3 102.807 233.314C102.863 236.272 103.203 239.268 99.2386 240.078C99.1443 240.097 99.1254 240.38 99.0121 240.643C103.014 240.625 106.866 240.625 110.717 240.625ZM230.654 227.115C233.146 226.022 234.807 223.007 234.486 220.143C234.128 216.978 232.24 214.754 229.125 214.509C225.028 214.189 220.894 214.17 216.759 214.114C215.475 214.095 214.211 214.415 212.927 214.585C216.495 216.752 216.495 216.752 216.495 220.916C216.495 225.231 216.344 229.545 216.533 233.841C216.665 236.762 216.344 239.136 213.059 240.04C213.002 240.059 213.04 240.342 213.021 240.512C217.005 240.512 220.95 240.512 225.066 240.512C223.593 239.249 221.743 238.458 221.554 237.365C221.101 234.727 221.403 231.938 221.403 229.225C221.63 229.093 221.875 228.942 222.102 228.811C223.065 229.658 224.122 230.412 224.953 231.373C227.048 233.841 228.974 236.46 231.069 238.948C232.901 241.133 236.28 241.717 238.829 240.681C235.26 236.8 231.598 232.805 227.633 228.471C229.106 227.812 229.88 227.454 230.654 227.115ZM221.347 219.898C221.743 218.334 220.082 215.734 223.329 215.546C226.765 215.338 229.125 217.166 229.427 220.068C229.918 224.91 228.521 226.663 223.707 227.303C222.102 227.51 221.233 227.058 221.328 225.306C221.384 224.025 221.347 222.725 221.347 221.443C221.328 220.916 221.215 220.369 221.347 219.898ZM252.497 239.626C249.91 239.117 249.74 237.252 249.759 235.142C249.797 230.827 249.74 226.531 249.759 222.216C249.759 221.594 249.91 220.972 250.043 219.955C256.178 227.492 262.031 234.67 267.883 241.83C268.147 241.717 268.412 241.623 268.657 241.51C268.789 240.738 269.035 239.946 269.035 239.174C269.129 233.05 269.374 226.926 269.148 220.822C269.035 217.939 269.563 215.979 272.414 215.018C272.489 214.999 272.452 214.717 272.546 214.001C269.658 214.302 266.845 213.492 264.107 214.472C265.278 215.696 266.996 216.657 267.052 217.713C267.335 222.819 267.184 227.963 267.184 233.785C266.184 232.749 265.655 232.259 265.202 231.693C261.03 226.493 256.877 221.274 252.686 216.054C250.873 213.793 246.305 213.172 244.001 214.849C247.947 217.298 248.004 217.298 248.022 219.408C248.041 224.76 248.041 230.092 248.022 235.443C248.022 237.365 247.607 239.061 245.266 239.475C244.945 239.532 244.681 239.965 243.794 240.738C247.362 240.738 250.194 240.738 253.346 240.738C252.969 240.21 252.78 239.682 252.497 239.626ZM135.694 214.604C139.281 216.601 139.602 216.997 139.583 220.313C139.545 224.439 139.394 228.566 139.243 232.673C139.016 238.552 133.466 240.493 129.105 239.475C126.424 238.853 124.65 237.101 124.461 234.312C124.159 230.035 124.14 225.758 123.951 221.462C123.838 218.579 123.932 215.828 127.274 214.434C123.649 214.434 120.005 214.434 116.381 214.434C116.211 214.66 116.041 214.905 115.871 215.131C119.949 215.395 119.59 218.052 119.552 220.614C119.496 224.232 119.533 227.85 119.533 231.467C119.552 238.043 121.591 240.662 128.142 241.378C135.939 242.226 141.131 239.438 141.017 230.582C140.98 227.228 141.112 223.855 140.98 220.501C140.866 217.769 140.961 215.357 144.642 214.886C141.735 213.68 138.979 214.151 135.694 214.604ZM209.132 239.682C205.753 239.419 204.639 237.139 203.676 234.557C201.411 228.49 199.032 222.442 196.615 216.431C196.181 215.32 195.388 214.359 194.369 212.663C192.179 217.901 190.555 222.498 188.384 226.832C186.024 231.543 185.93 237.685 180.248 240.662C183.042 240.662 185.817 240.662 188.139 240.662C187.44 239.193 186.383 237.93 186.345 236.649C186.308 235.311 187.119 233.879 187.818 232.636C188.177 232.033 189.121 231.467 189.838 231.411C191.858 231.241 193.897 231.335 195.936 231.373C196.502 231.392 197.465 231.392 197.597 231.675C198.447 233.615 199.447 235.594 199.712 237.648C199.825 238.477 198.258 239.532 197.295 240.7C201.165 240.7 204.979 240.7 208.773 240.7C208.906 240.323 209.019 240.003 209.132 239.682ZM193.236 219.71C194.595 223.309 195.672 226.173 196.861 229.357C194.123 229.357 191.801 229.357 189.177 229.357C190.48 226.267 191.688 223.384 193.236 219.71ZM288.027 215.037C285.78 220.219 283.496 225.381 281.381 230.601C279.909 234.256 279.248 238.382 275.038 240.643C277.832 240.643 280.645 240.643 283.76 240.643C282.684 239.532 280.947 238.439 281.098 237.742C281.551 235.575 282.306 232.259 283.722 231.788C286.441 230.902 289.688 231.675 292.727 231.788C292.841 231.788 292.973 232.033 293.03 232.183C293.596 233.804 294.294 235.386 294.596 237.063C294.71 237.723 294.011 238.627 293.501 239.306C293.162 239.777 292.52 240.022 291.651 240.606C295.861 240.606 299.524 240.606 302.752 240.606C301.355 238.835 299.694 237.327 298.806 235.443C297.107 231.825 295.88 227.982 294.408 224.27C292.973 220.633 291.444 217.053 289.688 212.795C288.801 213.963 288.291 214.453 288.027 215.037ZM283.911 229.47C285.214 226.305 286.422 223.403 287.932 219.729C289.405 223.384 290.556 226.305 291.821 229.47C289.065 229.47 286.705 229.47 283.911 229.47ZM319.649 214.038C316.005 212.663 310.946 214.246 309.246 217.449C307.491 220.803 308.718 224.873 312.437 227.171C314.381 228.377 316.571 229.169 318.629 230.205C321.385 231.58 322.292 233.559 321.612 236.555C321.102 238.778 319.403 239.89 316.496 239.909C312.947 239.927 310.53 238.006 309.473 234.331C309.303 233.71 308.982 233.125 308.737 232.522C308.491 232.579 308.265 232.636 308.019 232.692C308.019 235.273 308.019 237.855 308.019 239.946C309.454 240.229 310.587 240.267 311.568 240.681C315.042 242.132 318.497 242.113 321.782 240.38C324.538 238.929 326.237 236.555 325.973 233.295C325.652 229.451 323.443 226.889 319.951 225.344C317.931 224.439 315.816 223.648 314.004 222.423C311.04 220.407 311.455 217.034 314.665 215.508C317.421 214.208 320.46 215.395 321.933 218.334C322.405 219.258 322.896 220.143 323.387 221.066C323.613 220.991 323.821 220.916 324.047 220.859C324.047 218.617 324.047 216.375 324.047 214.792C322.141 214.472 320.8 214.491 319.649 214.038Z" fill="black"/>
</svg>
