<svg width="150" height="44" viewBox="0 0 150 44" fill="none" xmlns="http://www.w3.org/2000/svg">
<path d="M1.62128 0.464886C1.18979 0.635342 0.650424 1.08989 0.434678 1.4308C0.218932 1.77171 0.00318623 10.9195 0.00318623 21.7719C0.00318623 43.9879 -0.266496 42.6811 4.1563 42.6811C7.87792 42.6811 7.77004 43.022 8.09366 28.2492L8.36334 14.8968L15.1054 27.7378C18.827 34.7833 22.4408 41.0334 23.1419 41.6015C24.9758 43.1356 30.3155 43.1356 31.8257 41.5447C32.8505 40.4652 32.9045 39.6697 32.9045 23.931V7.45357H60.8436C81.8788 7.45357 88.9445 7.28312 89.4299 6.77175C90.1311 6.03311 90.2929 3.58991 89.7535 2.11263C89.4299 1.31716 86.1398 1.20353 57.7152 1.20353C32.9045 1.20353 25.8388 1.37398 25.5152 1.88535C25.2994 2.28308 24.9758 8.30585 24.814 15.2945L24.5443 27.9651L17.9101 15.1809C14.2424 8.19221 10.7905 1.99899 10.2511 1.48762C9.17239 0.464886 3.18544 -0.216938 1.62128 0.464886Z" fill="black"/>
<path d="M134.035 1.43116L123.248 2.62446L123.086 4.72693L122.925 6.88623H135.492C144.607 6.88623 148.275 6.71576 148.76 6.20435C149.623 5.29517 149.623 1.65846 148.76 0.749278C147.951 -0.103077 147.304 -0.0462532 134.035 1.43116Z" fill="black"/>
<path d="M94.9314 1.71531C94.6617 2.34032 94.392 4.8972 94.392 7.39725C94.392 11.5451 94.2841 11.9996 93.3672 11.9996C91.9109 11.9996 91.048 13.3633 91.2637 15.5224C91.3716 17.1134 91.6413 17.4543 92.9357 17.5679L94.392 17.7384V25.5227C94.392 29.7841 94.6617 34.3297 94.9853 35.5797C96.118 39.898 100.217 42.6821 105.449 42.6821C108.038 42.6821 108.955 41.8867 108.955 39.7843C108.955 37.2843 108.416 36.432 106.797 36.432C105.988 36.432 104.694 35.9206 103.885 35.2388C102.483 34.1024 102.483 34.0456 102.483 25.9204V17.7384L105.611 17.5679L108.685 17.3975L108.847 15.1815C109.063 12.511 108.469 11.9996 105.071 11.9996H102.483V7.79499C102.483 5.46539 102.267 2.90852 101.943 2.11305C101.458 0.749382 101.134 0.635742 98.4912 0.635742C96.118 0.635742 95.4168 0.863018 94.9314 1.71531Z" fill="black"/>
<path d="M111.22 1.31755C110.735 1.82891 110.573 7.05613 110.573 21.431C110.573 43.3626 110.465 42.6808 114.564 42.6808C118.771 42.6808 118.663 43.1921 118.663 21.7151C118.663 9.78338 118.448 2.45391 118.124 1.71528C117.639 0.863014 116.937 0.635742 114.726 0.635742C113.162 0.635742 111.598 0.91983 111.22 1.31755Z" fill="black"/>
<path d="M46.2268 11.488C37.8667 13.5334 33.336 23.3627 36.3564 32.9079C38.9454 41.0896 47.4134 45.0099 55.8815 41.9418C59.8728 40.4646 64.0259 35.5215 63.2708 33.1352C63.109 32.6807 61.8684 32.4534 59.7649 32.4534C56.9602 32.4534 56.3669 32.6239 54.9646 34.1011C51.8902 37.3397 46.4965 36.7715 44.2312 32.9079C42.2895 29.5558 42.2355 29.6126 53.0228 29.6126C59.9807 29.6126 63.109 29.3853 63.5405 28.9308C64.8349 27.5672 64.2956 22.6241 62.5157 18.8742C60.574 14.7266 57.7153 12.4539 53.3465 11.488C50.2721 10.7494 49.0855 10.7494 46.2268 11.488ZM53.4004 18.5333C54.7488 19.2719 56.6366 21.9423 56.6366 23.0787C56.6366 23.2491 53.6161 23.3627 49.8945 23.3627C46.1729 23.3627 43.1525 23.1923 43.1525 23.0218C43.1525 22.1696 44.5009 20.1242 45.7414 18.9879C47.4674 17.4538 51.0272 17.2265 53.4004 18.5333Z" fill="black"/>
<path d="M73.7884 11.6017C68.8802 13.079 66.3452 16.0336 66.3452 20.4087C66.3452 25.4088 68.8263 27.6248 76.8089 29.8407C82.5801 31.4317 83.6049 31.9998 83.6049 33.6476C83.6049 37.3409 74.7053 37.284 72.8176 33.5908C72.3321 32.6249 71.6849 32.4544 69.042 32.4544C66.3452 32.4544 65.8058 32.6249 65.5361 33.5908C64.9968 35.409 66.8846 38.7045 69.4735 40.4659C74.3278 43.7046 81.9328 43.8751 87.0568 40.8068C92.5044 37.625 92.7201 29.2725 87.4883 26.0338C86.5174 25.4088 83.6049 24.3861 81.0159 23.7042C75.3526 22.1701 73.8963 21.3746 73.8963 19.9541C73.8963 16.6018 80.2069 16.2041 83.2812 19.3291C84.5757 20.636 85.4926 21.0905 86.9489 21.0905C90.8324 21.0905 91.5875 19.6701 89.5379 16.0904C87.3265 12.2835 79.236 10.0108 73.7884 11.6017Z" fill="black"/>
<path d="M130.745 11.8868C125.675 13.7618 122.439 17.6822 121.36 23.1936C119.796 31.0913 123.895 39.8413 130.314 42.1708C138.081 44.9549 148.868 40.0117 148.868 33.5913C148.868 32.5686 148.544 32.4549 145.47 32.4549C142.503 32.4549 141.856 32.6254 140.777 33.8754C138.944 35.9208 136.031 36.7163 133.604 35.9208C131.392 35.1254 128.911 32.3413 128.911 30.6936C128.911 29.6708 129.397 29.614 138.404 29.614C143.906 29.614 148.275 29.3868 148.922 29.0458C151.349 27.6254 149.407 18.9891 145.793 15.2959C141.964 11.3754 135.815 9.955 130.745 11.8868ZM139.159 18.6481C140.939 19.955 141.802 21.1481 141.856 22.3413C141.856 23.2504 141.209 23.364 135.384 23.364C127.994 23.364 127.509 23.0231 130.745 19.6141C132.309 17.9663 132.957 17.6822 135.222 17.6822C136.786 17.6822 138.35 18.08 139.159 18.6481Z" fill="black"/>
</svg>
