<svg width="407" height="406" viewBox="0 0 407 406" fill="none" xmlns="http://www.w3.org/2000/svg">
<ellipse cx="203.5" cy="203" rx="203.5" ry="203" fill="#A597F9"/>
<path d="M130.621 169.465C130.19 169.635 129.65 170.09 129.435 170.431C129.219 170.772 129.003 179.92 129.003 190.772C129.003 212.988 128.734 211.681 133.156 211.681C136.878 211.681 136.77 212.022 137.094 197.249L137.363 183.897L144.105 196.738C147.827 203.783 151.441 210.033 152.142 210.602C153.976 212.136 159.316 212.136 160.826 210.545C161.851 209.465 161.904 208.67 161.904 192.931V176.454H189.844C210.879 176.454 217.944 176.283 218.43 175.772C219.131 175.033 219.293 172.59 218.754 171.113C218.43 170.317 215.14 170.204 186.715 170.204C161.904 170.204 154.839 170.374 154.515 170.885C154.299 171.283 153.976 177.306 153.814 184.295L153.544 196.965L146.91 184.181C143.242 177.192 139.79 170.999 139.251 170.488C138.172 169.465 132.185 168.783 130.621 169.465Z" fill="black"/>
<path d="M263.035 170.431L252.248 171.624L252.086 173.727L251.925 175.886H264.492C273.607 175.886 277.275 175.716 277.76 175.204C278.623 174.295 278.623 170.658 277.76 169.749C276.951 168.897 276.304 168.954 263.035 170.431Z" fill="black"/>
<path d="M223.931 170.715C223.662 171.34 223.392 173.897 223.392 176.397C223.392 180.545 223.284 181 222.367 181C220.911 181 220.048 182.363 220.264 184.522C220.372 186.113 220.641 186.454 221.936 186.568L223.392 186.738V194.523C223.392 198.784 223.662 203.33 223.985 204.58C225.118 208.898 229.217 211.682 234.449 211.682C237.038 211.682 237.955 210.887 237.955 208.784C237.955 206.284 237.416 205.432 235.797 205.432C234.988 205.432 233.694 204.921 232.885 204.239C231.483 203.102 231.483 203.046 231.483 194.92V186.738L234.611 186.568L237.685 186.397L237.847 184.182C238.063 181.511 237.469 181 234.071 181H231.483V176.795C231.483 174.465 231.267 171.909 230.943 171.113C230.458 169.749 230.134 169.636 227.491 169.636C225.118 169.636 224.417 169.863 223.931 170.715Z" fill="black"/>
<path d="M240.22 170.318C239.735 170.829 239.573 176.056 239.573 190.431C239.573 212.363 239.465 211.681 243.564 211.681C247.771 211.681 247.663 212.192 247.663 190.715C247.663 178.783 247.448 171.454 247.124 170.715C246.639 169.863 245.937 169.636 243.726 169.636C242.162 169.636 240.598 169.92 240.22 170.318Z" fill="black"/>
<path d="M175.227 180.488C166.867 182.533 162.336 192.363 165.356 201.908C167.945 210.09 176.413 214.01 184.881 210.942C188.873 209.465 193.026 204.522 192.271 202.135C192.109 201.681 190.868 201.453 188.765 201.453C185.96 201.453 185.367 201.624 183.965 203.101C180.89 206.34 175.497 205.771 173.231 201.908C171.289 198.556 171.236 198.613 182.023 198.613C188.981 198.613 192.109 198.385 192.54 197.931C193.835 196.567 193.296 191.624 191.516 187.874C189.574 183.727 186.715 181.454 182.346 180.488C179.272 179.749 178.085 179.749 175.227 180.488ZM182.4 187.533C183.749 188.272 185.637 190.942 185.637 192.079C185.637 192.249 182.616 192.363 178.895 192.363C175.173 192.363 172.152 192.192 172.152 192.022C172.152 191.17 173.501 189.124 174.741 187.988C176.467 186.454 180.027 186.227 182.4 187.533Z" fill="black"/>
<path d="M202.788 180.602C197.88 182.079 195.345 185.034 195.345 189.409C195.345 194.409 197.826 196.625 205.809 198.841C211.58 200.432 212.605 201 212.605 202.648C212.605 206.341 203.705 206.284 201.818 202.591C201.332 201.625 200.685 201.454 198.042 201.454C195.345 201.454 194.806 201.625 194.536 202.591C193.997 204.409 195.885 207.705 198.474 209.466C203.328 212.705 210.933 212.875 216.057 209.807C221.504 206.625 221.72 198.273 216.488 195.034C215.517 194.409 212.605 193.386 210.016 192.704C204.353 191.17 202.896 190.375 202.896 188.954C202.896 185.602 209.207 185.204 212.281 188.329C213.576 189.636 214.493 190.091 215.949 190.091C219.832 190.091 220.587 188.67 218.538 185.09C216.326 181.284 208.236 179.011 202.788 180.602Z" fill="black"/>
<path d="M259.745 180.887C254.675 182.762 251.439 186.682 250.36 192.194C248.796 200.091 252.895 208.841 259.314 211.171C267.081 213.955 277.868 209.012 277.868 202.591C277.868 201.569 277.544 201.455 274.47 201.455C271.503 201.455 270.856 201.625 269.777 202.875C267.944 204.921 265.031 205.716 262.604 204.921C260.392 204.125 257.911 201.341 257.911 199.694C257.911 198.671 258.397 198.614 267.404 198.614C272.906 198.614 277.275 198.387 277.922 198.046C280.349 196.625 278.407 187.989 274.793 184.296C270.964 180.375 264.815 178.955 259.745 180.887ZM268.159 187.648C269.939 188.955 270.802 190.148 270.856 191.341C270.856 192.25 270.209 192.364 264.384 192.364C256.994 192.364 256.509 192.023 259.745 188.614C261.309 186.966 261.957 186.682 264.222 186.682C265.786 186.682 267.35 187.08 268.159 187.648Z" fill="black"/>
</svg>
