<svg width="265" height="54" viewBox="0 0 265 54" fill="none" xmlns="http://www.w3.org/2000/svg">
<path d="M109.484 52.7426C109.536 40.8999 110.068 29.0916 109.45 17.2662C109.587 17.249 109.656 17.2319 109.724 17.2319C114.29 17.2319 118.838 17.2319 123.403 17.2147C125.583 17.2147 127.746 17.3348 129.891 17.7468C132.603 18.2788 135.092 19.3086 137.22 21.0936C139.812 23.2733 141.459 26.0366 142.249 29.2976C142.781 31.443 142.884 33.6227 142.712 35.8196C142.558 37.8964 142.163 39.9045 141.425 41.8611C140.035 45.5168 137.649 48.3144 134.251 50.2711C131.831 51.6613 129.239 52.4851 126.459 52.6224C124.142 52.7254 121.842 52.7082 119.525 52.7254C116.315 52.7426 113.088 52.7254 109.879 52.7254C109.759 52.7426 109.639 52.7426 109.484 52.7426ZM116.418 20.2183C116.401 20.3041 116.384 20.3727 116.367 20.4414C116.298 22.0547 116.161 23.6509 116.161 25.2643C116.126 30.7736 116.126 36.3002 116.143 41.8096C116.161 44.3497 116.281 46.8899 116.367 49.4301C116.367 49.533 116.401 49.6188 116.435 49.7218C116.538 49.739 116.607 49.7562 116.676 49.7562C118.752 49.8248 120.846 49.9278 122.923 49.9793C125.824 50.0651 128.364 49.0696 130.595 47.2503C132.843 45.4139 134.148 42.9939 134.92 40.2306C135.349 38.703 135.538 37.1584 135.641 35.5793C135.795 32.9534 135.555 30.3961 134.628 27.9074C133.616 25.1956 131.916 23.0502 129.342 21.6428C127.3 20.5272 125.085 20.0123 122.786 19.9608C121.035 19.9265 119.284 20.0295 117.534 20.081C117.173 20.1153 116.796 20.1668 116.418 20.2183ZM170.19 16.614C173.434 16.6483 176.558 17.1804 179.527 18.5019C182.805 19.9437 185.431 22.1577 187.199 25.3157C188.315 27.3067 188.95 29.4349 189.207 31.7005C189.516 34.4637 189.413 37.2098 188.692 39.9045C186.993 46.3063 182.96 50.477 176.644 52.4165C174.498 53.0858 172.301 53.3261 170.053 53.3261C167.547 53.3261 165.093 53 162.707 52.2277C159 51.0262 155.911 48.9495 153.679 45.7056C152.358 43.7834 151.5 41.6723 151.105 39.3724C150.418 35.3905 150.693 31.4773 152.1 27.6843C153.748 23.2905 156.803 20.2354 161.094 18.399C163.171 17.5065 165.35 16.9916 167.599 16.8028C168.457 16.6998 169.332 16.6655 170.19 16.614ZM182.308 34.7727C182.205 33.5541 182.153 32.3355 182.016 31.1341C181.776 29.0745 181.244 27.0836 180.282 25.2128C179.167 23.0159 177.553 21.3167 175.288 20.3041C173.692 19.5832 171.993 19.3086 170.242 19.2915C166.003 19.2743 162.776 21.0764 160.545 24.6807C159.463 26.4142 158.811 28.3021 158.382 30.2931C157.781 33.1593 157.747 36.0427 158.193 38.9262C158.519 41.0544 159.137 43.0968 160.201 44.9676C161.609 47.4391 163.6 49.2413 166.346 50.1166C168.182 50.7001 170.053 50.786 171.958 50.5285C174.086 50.2367 175.94 49.3614 177.519 47.9197C178.841 46.7011 179.819 45.2422 180.54 43.6117C181.776 40.797 182.256 37.8449 182.308 34.7727ZM213.974 35.1674C216.085 38.1538 218.127 41.1402 220.256 44.058C222.367 46.9586 224.563 49.8076 226.778 52.7254C226.554 52.7254 226.366 52.7254 226.177 52.7254C223.654 52.7254 221.131 52.7082 218.591 52.7254C218.179 52.7254 217.956 52.5881 217.75 52.262C214.471 46.8041 210.816 41.6036 207.143 36.4203C206.851 36.0084 206.559 35.751 206.027 35.854C205.873 35.8883 205.718 35.854 205.478 35.854C205.547 41.4835 205.615 47.0615 205.684 52.6739C203.333 52.6739 201.033 52.6739 198.699 52.6739C198.716 52.6911 198.699 52.6739 198.681 52.6567C198.664 52.6396 198.647 52.6224 198.647 52.6224C198.647 52.5709 198.63 52.5194 198.63 52.4679C198.647 51.7299 198.664 50.9919 198.699 50.2367C198.939 42.6506 199.007 35.0473 198.956 27.444C198.939 24.0457 198.836 20.6645 198.784 17.249C198.836 17.2319 198.922 17.1975 199.007 17.1975C203.779 17.1975 208.55 17.1804 213.322 17.1975C214.815 17.1975 216.291 17.352 217.681 17.9184C220.873 19.1885 222.641 21.5742 222.899 24.9896C223.087 27.3753 222.452 29.5379 220.908 31.4087C219.878 32.6444 218.591 33.5369 217.132 34.1548C216.256 34.5152 215.33 34.7383 214.42 35.0301C214.283 35.0816 214.145 35.1159 213.974 35.1674ZM205.495 33.4168C207.16 33.5369 208.79 33.7429 210.421 33.5026C213.356 33.0563 215.175 31.34 215.896 28.4738C216.239 27.1179 216.205 25.7448 215.965 24.3718C215.656 22.6554 214.729 21.4025 213.184 20.5959C212.412 20.1839 211.571 19.978 210.713 19.875C209.391 19.6862 208.07 19.8235 206.748 19.9265C206.336 19.9608 205.924 20.0123 205.495 20.0466C205.495 24.5262 205.495 28.9543 205.495 33.4168ZM69.6312 28.2507C69.7856 28.388 69.9401 28.5253 70.0946 28.6626C76.6852 34.8242 83.0528 41.226 89.3517 47.7137C90.9307 49.3442 92.4926 51.0262 94.0544 52.6739C94.1745 52.794 94.3119 52.9657 94.4663 52.9828C95.1185 53.0172 95.7707 53 96.4401 53C96.5431 41.0544 96.4401 29.1431 96.8863 17.249C95.4103 17.249 93.9858 17.249 92.544 17.249C92.544 17.3692 92.544 17.4378 92.544 17.5065C92.647 19.875 92.75 22.2435 92.8358 24.5949C92.9216 27.1694 92.956 29.761 93.0075 32.3355C93.0589 35.3047 93.1104 38.274 93.1448 41.2432C93.1448 41.3805 93.1276 41.535 93.1104 41.8268C92.1321 40.9514 91.2225 40.1962 90.3643 39.3724C88.6995 37.7762 87.0518 36.1286 85.4041 34.5152C79.9462 29.1946 74.5913 23.7882 69.4939 18.1244C69.2021 17.8154 68.9618 17.4035 68.6014 17.249C68.2581 17.0946 67.8119 17.1975 67.3999 17.1975C67.0223 17.1975 66.6448 17.1975 66.2328 17.1975C66.2328 17.4722 66.2328 17.6953 66.2328 17.9012C66.2328 24.5434 66.2328 31.1856 66.25 37.8277C66.2672 42.376 66.1985 46.9071 65.8381 51.4382C65.8038 51.8501 65.8381 52.2791 65.8381 52.7254C67.2626 52.7254 68.6872 52.7254 70.1632 52.7254C70.146 52.4679 70.1289 52.2448 70.1117 52.0217C69.9916 50.1852 69.7856 48.3488 69.7513 46.5295C69.6483 40.6082 69.5968 34.6869 69.5282 28.7656C69.5282 28.6111 69.5282 28.4566 69.5282 28.3021C69.5625 28.3021 69.5968 28.285 69.6312 28.2507ZM0.0686518 17.2319C0.205958 17.2147 0.274611 17.1975 0.343264 17.1975C4.56541 17.1975 8.78757 17.1804 13.0097 17.1975C14.6574 17.1975 16.3051 17.3692 17.8326 18.0214C20.081 18.9653 21.8316 20.4586 22.7756 22.7756C23.239 23.9427 23.3935 25.1613 23.4106 26.4142C23.4106 28.92 22.7241 31.1856 21.0764 33.125C19.6175 34.8242 17.7468 35.8196 15.6185 36.4032C13.3701 37.0211 11.0531 37.1412 8.73607 37.0039C8.1182 36.9696 7.50032 36.9181 6.83096 36.8666C6.79663 39.5097 6.89961 42.1357 6.9511 44.7617C7.00259 47.3876 7.07124 50.0308 7.1399 52.6911C4.77137 52.6911 2.38569 52.6911 0 52.6911C0.188795 40.8656 0.137305 29.0745 0.0686518 17.2319ZM6.79663 19.9093C6.79663 24.7322 6.79663 29.5036 6.79663 34.2921C8.32416 34.4809 9.81736 34.6354 11.3106 34.3264C13.2843 33.9145 14.7604 32.8161 15.6872 31.0311C16.8886 28.7141 17.0602 26.2597 16.2879 23.7882C15.567 21.454 13.9194 20.0981 11.4994 19.8064C10.4181 19.6862 9.31962 19.7892 8.22118 19.8064C7.75777 19.8235 7.29437 19.875 6.79663 19.9093ZM231.034 52.7254C231.171 52.4336 231.274 52.1933 231.377 51.953C234.896 44.058 238.449 36.1629 241.95 28.2507C243.357 25.0755 244.73 21.8659 245.88 18.5878C246.103 17.9699 246.292 17.352 246.515 16.717C247.631 16.717 248.712 16.717 249.862 16.717C254.239 28.9715 259.662 40.797 265 52.7254C262.357 52.7254 259.8 52.7254 257.191 52.7254C255.749 49.001 254.307 45.2766 252.866 41.5178C248.575 41.3805 244.318 41.3805 240.01 41.5178C238.483 45.1907 237.007 48.8808 235.857 52.7426C234.261 52.7254 232.699 52.7254 231.034 52.7254ZM246.464 25.5732C246.378 25.762 246.309 25.8821 246.258 25.9851C244.576 30.0528 242.911 34.1205 241.229 38.1881C241.229 38.2053 241.229 38.2225 241.246 38.2396C241.246 38.2568 241.263 38.274 241.28 38.274C243.615 38.5657 250.394 38.5142 251.287 38.1881C249.69 34.0003 248.094 29.8297 246.464 25.5732ZM57.9602 52.7254C55.2999 52.7254 52.7254 52.7254 50.1509 52.7254C48.7092 48.9838 47.2847 45.2594 45.8429 41.5006C41.535 41.3633 37.2613 41.3633 32.9534 41.5006C31.4258 45.1907 29.9498 48.8808 28.7999 52.7254C27.2209 52.7254 25.6418 52.7254 24.0113 52.7254C24.0971 52.5194 24.183 52.3306 24.2688 52.1418C26.9977 46.0661 29.7267 39.9903 32.4385 33.9145C34.4294 29.4692 36.4203 25.024 38.171 20.4586C38.5829 19.3773 38.9433 18.2617 39.3381 17.1632C39.3896 17.0087 39.4411 16.8714 39.5097 16.717C40.6253 16.717 41.7066 16.717 42.8394 16.717C47.1988 28.9715 52.6396 40.797 57.9602 52.7254ZM39.4754 25.6075C39.0463 26.3455 34.2749 37.8964 34.2406 38.274C37.5703 38.4799 40.8999 38.5829 44.2811 38.2568C42.6849 34.0347 41.0887 29.864 39.4754 25.6075ZM165.591 13.456C165.762 14.0738 165.934 14.6231 166.088 15.1894C168.8 14.7947 171.46 14.7775 174.138 15.1551C174.327 14.5544 174.481 14.0223 174.67 13.4216C171.581 12.9582 168.611 12.9582 165.591 13.456ZM171.1 5.54372C170.946 4.59974 170.808 3.65577 170.637 2.72895C170.465 1.8193 170.379 0.892487 170.053 0C169.59 2.7976 169.126 5.59521 168.663 8.40997C169.641 8.40997 170.568 8.40997 171.581 8.40997C171.409 7.41451 171.255 6.47053 171.1 5.54372ZM176.026 8.90771C176.815 6.19592 177.639 3.5013 178.429 0.789509C178.394 0.772346 178.36 0.755184 178.326 0.738021C176.627 3.3125 174.945 5.88698 173.194 8.53012C174.189 8.68459 175.082 8.78757 176.026 8.90771ZM161.849 0.789509C161.815 0.806672 161.763 0.823834 161.729 0.858161C162.553 3.53562 163.377 6.23025 164.2 8.90771C165.144 8.78757 166.037 8.68459 167.05 8.54728C165.265 5.92131 163.548 3.34683 161.849 0.789509ZM170.087 9.4741C169.418 9.4741 168.852 10.0405 168.869 10.727C168.869 11.3964 169.418 11.9284 170.087 11.9284C170.791 11.9284 171.323 11.3964 171.34 10.7098C171.323 10.0233 170.774 9.4741 170.087 9.4741ZM165.024 10.9845C165.024 11.671 165.591 12.2374 166.277 12.2202C166.929 12.203 167.479 11.6538 167.496 11.0016C167.496 10.3151 166.947 9.76587 166.243 9.76587C165.574 9.78304 165.024 10.3151 165.024 10.9845ZM175.202 10.9845C175.185 10.3151 174.619 9.76587 173.932 9.78303C173.28 9.80019 172.731 10.3494 172.713 11.0016C172.713 11.671 173.28 12.2374 173.966 12.2374C174.636 12.2202 175.219 11.6367 175.202 10.9845Z" fill="black"/>
</svg>
