<svg width="407" height="406" viewBox="0 0 407 406" fill="none" xmlns="http://www.w3.org/2000/svg">
<ellipse cx="203.5" cy="203" rx="203.5" ry="203" fill="#A597F9"/>
<path d="M186.484 217.743C186.536 205.9 187.068 194.092 186.45 182.266C186.587 182.249 186.656 182.232 186.724 182.232C191.29 182.232 195.838 182.232 200.403 182.215C202.583 182.215 204.746 182.335 206.891 182.747C209.603 183.279 212.092 184.309 214.22 186.094C216.812 188.273 218.459 191.037 219.249 194.298C219.781 196.443 219.884 198.623 219.712 200.82C219.558 202.896 219.163 204.904 218.425 206.861C217.035 210.517 214.649 213.314 211.251 215.271C208.831 216.661 206.239 217.485 203.459 217.622C201.142 217.725 198.842 217.708 196.525 217.725C193.315 217.743 190.088 217.725 186.879 217.725C186.759 217.743 186.639 217.743 186.484 217.743ZM193.418 185.218C193.401 185.304 193.384 185.373 193.367 185.441C193.298 187.055 193.161 188.651 193.161 190.264C193.126 195.774 193.126 201.3 193.143 206.81C193.161 209.35 193.281 211.89 193.367 214.43C193.367 214.533 193.401 214.619 193.435 214.722C193.538 214.739 193.607 214.756 193.676 214.756C195.752 214.825 197.846 214.928 199.923 214.979C202.824 215.065 205.364 214.07 207.595 212.25C209.843 210.414 211.148 207.994 211.92 205.231C212.349 203.703 212.538 202.158 212.641 200.579C212.795 197.953 212.555 195.396 211.628 192.907C210.616 190.196 208.916 188.05 206.342 186.643C204.3 185.527 202.085 185.012 199.786 184.961C198.035 184.926 196.284 185.029 194.534 185.081C194.173 185.115 193.796 185.167 193.418 185.218ZM247.19 181.614C250.434 181.648 253.558 182.18 256.527 183.502C259.805 184.944 262.431 187.158 264.199 190.316C265.315 192.307 265.95 194.435 266.207 196.7C266.516 199.464 266.413 202.21 265.692 204.904C263.993 211.306 259.96 215.477 253.644 217.416C251.498 218.086 249.301 218.326 247.053 218.326C244.547 218.326 242.093 218 239.707 217.228C236 216.026 232.911 213.949 230.679 210.706C229.358 208.783 228.5 206.672 228.105 204.372C227.418 200.391 227.693 196.477 229.1 192.684C230.748 188.29 233.803 185.235 238.094 183.399C240.171 182.506 242.35 181.992 244.599 181.803C245.457 181.7 246.332 181.665 247.19 181.614ZM259.308 199.773C259.205 198.554 259.153 197.335 259.016 196.134C258.776 194.074 258.244 192.084 257.282 190.213C256.167 188.016 254.553 186.317 252.288 185.304C250.692 184.583 248.993 184.309 247.242 184.291C243.003 184.274 239.776 186.076 237.545 189.681C236.463 191.414 235.811 193.302 235.382 195.293C234.781 198.159 234.747 201.043 235.193 203.926C235.519 206.054 236.137 208.097 237.201 209.968C238.609 212.439 240.6 214.241 243.346 215.117C245.182 215.7 247.053 215.786 248.958 215.529C251.086 215.237 252.94 214.361 254.519 212.92C255.841 211.701 256.819 210.242 257.54 208.612C258.776 205.797 259.256 202.845 259.308 199.773ZM290.974 200.167C293.085 203.154 295.127 206.14 297.256 209.058C299.367 211.959 301.563 214.808 303.778 217.725C303.554 217.725 303.366 217.725 303.177 217.725C300.654 217.725 298.131 217.708 295.591 217.725C295.179 217.725 294.956 217.588 294.75 217.262C291.471 211.804 287.816 206.604 284.143 201.42C283.851 201.008 283.559 200.751 283.027 200.854C282.873 200.888 282.718 200.854 282.478 200.854C282.547 206.483 282.615 212.062 282.684 217.674C280.333 217.674 278.033 217.674 275.699 217.674C275.716 217.691 275.699 217.674 275.681 217.657C275.664 217.64 275.647 217.622 275.647 217.622C275.647 217.571 275.63 217.519 275.63 217.468C275.647 216.73 275.664 215.992 275.699 215.237C275.939 207.651 276.007 200.047 275.956 192.444C275.939 189.046 275.836 185.665 275.784 182.249C275.836 182.232 275.922 182.198 276.007 182.198C280.779 182.198 285.55 182.18 290.322 182.198C291.815 182.198 293.291 182.352 294.681 182.918C297.873 184.188 299.641 186.574 299.899 189.99C300.087 192.375 299.452 194.538 297.908 196.409C296.878 197.644 295.591 198.537 294.132 199.155C293.256 199.515 292.33 199.738 291.42 200.03C291.283 200.082 291.145 200.116 290.974 200.167ZM282.495 198.417C284.16 198.537 285.79 198.743 287.421 198.503C290.356 198.056 292.175 196.34 292.896 193.474C293.239 192.118 293.205 190.745 292.965 189.372C292.656 187.655 291.729 186.403 290.184 185.596C289.412 185.184 288.571 184.978 287.713 184.875C286.391 184.686 285.07 184.824 283.748 184.926C283.336 184.961 282.924 185.012 282.495 185.047C282.495 189.526 282.495 193.954 282.495 198.417ZM146.631 193.251C146.786 193.388 146.94 193.525 147.095 193.663C153.685 199.824 160.053 206.226 166.352 212.714C167.931 214.344 169.493 216.026 171.054 217.674C171.175 217.794 171.312 217.966 171.466 217.983C172.119 218.017 172.771 218 173.44 218C173.543 206.054 173.44 194.143 173.886 182.249C172.41 182.249 170.986 182.249 169.544 182.249C169.544 182.369 169.544 182.438 169.544 182.506C169.647 184.875 169.75 187.244 169.836 189.595C169.922 192.169 169.956 194.761 170.007 197.335C170.059 200.305 170.11 203.274 170.145 206.243C170.145 206.381 170.128 206.535 170.11 206.827C169.132 205.951 168.222 205.196 167.364 204.372C165.699 202.776 164.052 201.129 162.404 199.515C156.946 194.195 151.591 188.788 146.494 183.124C146.202 182.815 145.962 182.403 145.601 182.249C145.258 182.095 144.812 182.198 144.4 182.198C144.022 182.198 143.645 182.198 143.233 182.198C143.233 182.472 143.233 182.695 143.233 182.901C143.233 189.543 143.233 196.186 143.25 202.828C143.267 207.376 143.199 211.907 142.838 216.438C142.804 216.85 142.838 217.279 142.838 217.725C144.263 217.725 145.687 217.725 147.163 217.725C147.146 217.468 147.129 217.245 147.112 217.022C146.992 215.185 146.786 213.349 146.751 211.529C146.648 205.608 146.597 199.687 146.528 193.766C146.528 193.611 146.528 193.457 146.528 193.302C146.562 193.302 146.597 193.285 146.631 193.251ZM77.0687 182.232C77.206 182.215 77.2746 182.198 77.3433 182.198C81.5654 182.198 85.7876 182.18 90.0097 182.198C91.6574 182.198 93.3051 182.369 94.8326 183.021C97.081 183.965 98.8316 185.459 99.7756 187.776C100.239 188.943 100.393 190.161 100.411 191.414C100.411 193.92 99.7241 196.186 98.0764 198.125C96.6175 199.824 94.7468 200.82 92.6185 201.403C90.3701 202.021 88.0531 202.141 85.7361 202.004C85.1182 201.97 84.5003 201.918 83.831 201.867C83.7966 204.51 83.8996 207.136 83.9511 209.762C84.0026 212.388 84.0712 215.031 84.1399 217.691C81.7714 217.691 79.3857 217.691 77 217.691C77.1888 205.866 77.1373 194.074 77.0687 182.232ZM83.7966 184.909C83.7966 189.732 83.7966 194.504 83.7966 199.292C85.3242 199.481 86.8174 199.635 88.3106 199.326C90.2843 198.915 91.7604 197.816 92.6872 196.031C93.8886 193.714 94.0602 191.26 93.2879 188.788C92.567 186.454 90.9194 185.098 88.4994 184.806C87.4181 184.686 86.3196 184.789 85.2212 184.806C84.7578 184.824 84.2944 184.875 83.7966 184.909ZM308.034 217.725C308.171 217.434 308.274 217.193 308.377 216.953C311.896 209.058 315.449 201.163 318.95 193.251C320.357 190.075 321.73 186.866 322.88 183.588C323.103 182.97 323.292 182.352 323.515 181.717C324.631 181.717 325.712 181.717 326.862 181.717C331.239 193.972 336.662 205.797 342 217.725C339.357 217.725 336.8 217.725 334.191 217.725C332.749 214.001 331.307 210.277 329.866 206.518C325.575 206.381 321.318 206.381 317.01 206.518C315.483 210.191 314.007 213.881 312.857 217.743C311.261 217.725 309.699 217.725 308.034 217.725ZM323.464 190.573C323.378 190.762 323.309 190.882 323.258 190.985C321.576 195.053 319.911 199.12 318.229 203.188C318.229 203.205 318.229 203.222 318.246 203.24C318.246 203.257 318.263 203.274 318.28 203.274C320.615 203.566 327.394 203.514 328.287 203.188C326.69 199 325.094 194.83 323.464 190.573ZM134.96 217.725C132.3 217.725 129.725 217.725 127.151 217.725C125.709 213.984 124.285 210.259 122.843 206.501C118.535 206.363 114.261 206.363 109.953 206.501C108.426 210.191 106.95 213.881 105.8 217.725C104.221 217.725 102.642 217.725 101.011 217.725C101.097 217.519 101.183 217.331 101.269 217.142C103.998 211.066 106.727 204.99 109.438 198.915C111.429 194.469 113.42 190.024 115.171 185.459C115.583 184.377 115.943 183.262 116.338 182.163C116.39 182.009 116.441 181.871 116.51 181.717C117.625 181.717 118.707 181.717 119.839 181.717C124.199 193.972 129.64 205.797 134.96 217.725ZM116.475 190.608C116.046 191.346 111.275 202.896 111.241 203.274C114.57 203.48 117.9 203.583 121.281 203.257C119.685 199.035 118.089 194.864 116.475 190.608ZM242.591 178.456C242.762 179.074 242.934 179.623 243.088 180.189C245.8 179.795 248.46 179.778 251.138 180.155C251.327 179.554 251.481 179.022 251.67 178.422C248.581 177.958 245.611 177.958 242.591 178.456ZM248.1 170.544C247.946 169.6 247.808 168.656 247.637 167.729C247.465 166.819 247.379 165.892 247.053 165C246.59 167.798 246.126 170.595 245.663 173.41C246.641 173.41 247.568 173.41 248.581 173.41C248.409 172.415 248.255 171.471 248.1 170.544ZM253.026 173.908C253.815 171.196 254.639 168.501 255.429 165.79C255.394 165.772 255.36 165.755 255.326 165.738C253.627 168.313 251.945 170.887 250.194 173.53C251.189 173.685 252.082 173.788 253.026 173.908ZM238.849 165.79C238.815 165.807 238.763 165.824 238.729 165.858C239.553 168.536 240.377 171.23 241.2 173.908C242.144 173.788 243.037 173.685 244.05 173.547C242.265 170.921 240.548 168.347 238.849 165.79ZM247.087 174.474C246.418 174.474 245.852 175.04 245.869 175.727C245.869 176.396 246.418 176.928 247.087 176.928C247.791 176.928 248.323 176.396 248.34 175.71C248.323 175.023 247.774 174.474 247.087 174.474ZM242.024 175.984C242.024 176.671 242.591 177.237 243.277 177.22C243.929 177.203 244.479 176.654 244.496 176.002C244.496 175.315 243.947 174.766 243.243 174.766C242.574 174.783 242.024 175.315 242.024 175.984ZM252.202 175.984C252.185 175.315 251.619 174.766 250.932 174.783C250.28 174.8 249.731 175.349 249.713 176.002C249.713 176.671 250.28 177.237 250.966 177.237C251.636 177.22 252.219 176.637 252.202 175.984Z" fill="black"/>
</svg>
