<svg width="215" height="48" viewBox="0 0 215 48" fill="none" xmlns="http://www.w3.org/2000/svg">
<path fill-rule="evenodd" clip-rule="evenodd" d="M18.3393 8.6266C13.1292 8.6266 10.0032 10.2829 8.05816 12.6984H7.64136V8.6266H0V47.1357H7.64136V32.6431H7.98869C9.8643 35.0585 13.0598 36.5078 18.3393 36.5078C30.1486 36.5078 31.4685 26.2939 31.4685 22.5672C31.4685 18.4954 30.2181 8.6266 18.3393 8.6266ZM16.1163 30.0206C9.51696 30.0206 8.19709 26.777 8.19709 22.5672C8.19709 18.7715 9.51696 15.1138 16.1163 15.1138C23.4103 15.1138 24.1745 20.3588 24.1745 22.5672C24.1745 24.5686 23.3409 30.0206 16.1163 30.0206ZM56.2682 12.6984C54.3926 10.2139 51.1971 8.6266 45.9871 8.6266C34.1082 8.6266 32.8578 18.4954 32.8578 22.5672C32.8578 26.2939 34.1777 36.5078 45.9871 36.5078C51.2666 36.5078 54.462 35.0585 56.3376 32.6431H56.546V36.5078H64.1874V8.6266H56.546V12.6984H56.2682ZM48.21 29.9516C40.9855 29.9516 40.1519 24.4995 40.1519 22.4982C40.1519 20.3588 40.916 15.0448 48.21 15.0448C54.8094 15.0448 56.1292 18.7025 56.1292 22.4982C56.1292 26.7079 54.7399 29.9516 48.21 29.9516ZM83.1519 8.5576C78.3586 8.5576 76.622 10.0069 75.0242 12.6294H74.538V8.5576H66.8966V36.4388H74.538V23.9474C74.538 20.1517 76.2052 15.8039 81.832 15.8039C84.2633 15.8039 86.1389 16.218 86.8336 16.4251L88.084 9.31672C86.8336 9.04067 85.2359 8.5576 83.1519 8.5576ZM101.005 15.0448H110.105V8.69561H101.005V0.621132H93.3635V8.69561H89.6123V15.0448H93.3635V26.2249C93.3635 30.2966 93.3635 36.5078 101.005 36.5078C108.646 36.5078 110.105 36.0247 110.105 36.0247V28.6403C102.811 29.0544 101.005 29.6065 101.005 25.5347V24.9826V15.0448ZM119.691 36.4388V8.69561H112.12V36.4388H119.691ZM119.691 6.76327V0H112.12V6.76327H119.691ZM122.401 8.6266V15.5279H140.323L122.401 29.3994V36.5078H150.674V29.6065H132.751L150.674 15.8039V8.69561L122.401 8.6266ZM174.709 12.6984C172.834 10.2139 169.638 8.6266 164.428 8.6266C152.549 8.6266 151.299 18.4954 151.299 22.5672C151.299 26.2939 152.619 36.5078 164.428 36.5078C169.708 36.5078 172.903 35.0585 174.779 32.6431H174.987V36.5078H182.628V8.6266H174.987V12.6984H174.709ZM166.651 29.9516C159.426 29.9516 158.593 24.4995 158.593 22.4982C158.593 20.3588 159.357 15.0448 166.651 15.0448C173.25 15.0448 174.57 18.7025 174.57 22.4982C174.57 26.7079 173.181 29.9516 166.651 29.9516ZM202.774 8.5576C197.772 8.5576 195.202 10.2139 193.396 12.6294H193.048V8.5576H185.407V36.4388H193.048V22.9813C193.048 19.1856 194.021 15.0448 200.62 15.0448C207.914 15.0448 207.428 20.2898 207.428 22.4982V36.4388H215V22.4982C215 18.4954 214.653 8.5576 202.774 8.5576Z" fill="black"/>
</svg>
