<svg width="407" height="406" viewBox="0 0 407 406" fill="none" xmlns="http://www.w3.org/2000/svg">
<circle cx="203.738" cy="203" r="203" fill="#A597F9"/>
<path fill-rule="evenodd" clip-rule="evenodd" d="M114.339 186.627C109.129 186.627 106.003 188.283 104.058 190.698H103.641V186.627H96V225.136H103.641V210.643H103.989C105.864 213.059 109.06 214.508 114.339 214.508C126.149 214.508 127.469 204.294 127.469 200.567C127.469 196.495 126.218 186.627 114.339 186.627ZM112.116 208.021C105.517 208.021 104.197 204.777 104.197 200.567C104.197 196.771 105.517 193.114 112.116 193.114C119.41 193.114 120.174 198.359 120.174 200.567C120.174 202.569 119.341 208.021 112.116 208.021ZM152.268 190.698C150.393 188.214 147.197 186.627 141.987 186.627C130.108 186.627 128.858 196.495 128.858 200.567C128.858 204.294 130.178 214.508 141.987 214.508C147.267 214.508 150.462 213.059 152.338 210.643H152.546V214.508H160.187V186.627H152.546V190.698H152.268ZM144.21 207.952C136.985 207.952 136.152 202.5 136.152 200.498C136.152 198.359 136.916 193.045 144.21 193.045C150.809 193.045 152.129 196.702 152.129 200.498C152.129 204.708 150.74 207.952 144.21 207.952ZM179.152 186.558C174.359 186.558 172.622 188.007 171.024 190.629H170.538V186.558H162.897V214.439H170.538V201.947C170.538 198.152 172.205 193.804 177.832 193.804C180.263 193.804 182.139 194.218 182.834 194.425L184.084 187.317C182.834 187.041 181.236 186.558 179.152 186.558ZM197.005 193.045H206.105V186.696H197.005V178.621H189.363V186.696H185.612V193.045H189.363V204.225C189.363 208.297 189.363 214.508 197.005 214.508C204.646 214.508 206.105 214.025 206.105 214.025V206.64C198.811 207.054 197.005 207.606 197.005 203.535V202.983V193.045ZM215.691 214.439V186.696H208.12V214.439H215.691ZM215.691 184.763V178H208.12V184.763H215.691ZM218.401 186.627V193.528H236.323L218.401 207.399V214.508H246.674V207.606H228.751L246.674 193.804V186.696L218.401 186.627ZM270.709 190.698C268.834 188.214 265.638 186.627 260.428 186.627C248.549 186.627 247.299 196.495 247.299 200.567C247.299 204.294 248.619 214.508 260.428 214.508C265.708 214.508 268.903 213.059 270.779 210.643H270.987V214.508H278.628V186.627H270.987V190.698H270.709ZM262.651 207.952C255.426 207.952 254.593 202.5 254.593 200.498C254.593 198.359 255.357 193.045 262.651 193.045C269.25 193.045 270.57 196.702 270.57 200.498C270.57 204.708 269.181 207.952 262.651 207.952ZM298.774 186.558C293.772 186.558 291.202 188.214 289.396 190.629H289.048V186.558H281.407V214.439H289.048V200.981C289.048 197.186 290.021 193.045 296.62 193.045C303.914 193.045 303.428 198.29 303.428 200.498V214.439H311V200.498C311 196.495 310.653 186.558 298.774 186.558Z" fill="black"/>
</svg>
