<svg width="390" height="470" viewBox="0 0 390 470" fill="none" xmlns="http://www.w3.org/2000/svg">
<path d="M169.419 106.57L72.1396 87.4419L115.861 150.291L195.105 147.558L169.419 106.57Z" fill="#003F7C" stroke="black" stroke-width="1.09302"/>
<path d="M70.5 286.372H49.186L27.8721 220.244L127.337 175.977C135.899 190.733 151.602 220.572 145.919 221.884C140.235 223.195 138.45 228.624 138.267 231.174L70.5 286.372Z" fill="#003F7C" stroke="black" stroke-width="1.09302"/>
<path d="M239.919 25.1395C222.868 21.6418 173.791 21.1317 151.384 21.3139L209.314 80.8838L179.802 190.733L178.709 254.128L257.954 271.616L300.035 189.64L310.965 149.198C310.965 149.198 322.005 109.521 315.884 90.721C309.763 71.921 296.574 58.1125 290.744 53.5582C280.907 45.5427 256.97 28.6372 239.919 25.1395Z" fill="#003F7C" stroke="black" stroke-width="1.09302"/>
<path d="M216.419 450.326C197.349 452.614 158.489 448.14 141.001 444.861L103.838 411.523L109.85 302.768L258.501 371.082L241.012 427.372C235.001 442.675 230.082 448.686 216.419 450.326Z" fill="#A67E0A" stroke="black" stroke-width="1.09302"/>
<path d="M329.001 190.732L251.396 183.081L257.954 241.558L189.094 330.093C198.567 346.488 221.119 379.716 235.547 381.465C312.059 381.465 322.989 372.721 333.919 353.046C342.664 337.307 350.679 304.225 353.594 289.651C356.508 273.438 360.808 236.312 354.687 217.512C348.566 198.712 335.012 191.825 329.001 190.732Z" fill="#A67E0A" stroke="black" stroke-width="1.09302"/>
<path d="M233.361 253.581C219.698 261.232 147.012 231.174 109.303 223.523L102.198 256.86L222.431 302.767C230.082 283.093 244.204 247.509 233.361 253.581Z" fill="#A67E0A" stroke="black" stroke-width="1.09302"/>
<path d="M284.735 266.697C291.293 215.981 271.616 196.198 262.874 190.186C252.987 183.386 245.248 174.884 241.559 191.279C236.64 213.14 235.547 221.884 222.431 250.302C211.862 273.203 182.354 264.511 171.605 256.86C156.121 246.658 121.109 225.49 104.931 222.43C88.7533 219.369 78.8803 238.643 75.966 248.662L58.4781 318.069C54.1045 332.279 45.2526 362.992 53.5595 383.104C63.9433 408.244 90.7223 429.011 125.153 443.22C152.698 454.588 167.234 438.484 171.06 429.011C172.699 422.999 176.743 407.916 179.804 395.674C182.864 383.432 178.529 377.821 175.978 376.546L125.153 347.581C123.514 346.67 120.672 342.99 122.421 335.558C124.17 328.125 129.708 330.275 132.258 332.279C148.289 341.023 185.707 361.572 207.13 373.813C233.909 389.116 242.653 378.186 251.397 369.441C260.142 360.697 276.537 330.093 284.735 266.697Z" fill="#FFD86C" stroke="black" stroke-width="1.09302"/>
<path d="M122.968 42.0816L114.77 75.9653C111.491 89.5188 116.546 90.1745 121.328 92.9071C141.549 104.462 175.979 120.233 173.247 130.07C169.755 142.64 165.595 137.226 158.491 133.895C123.514 117.5 82.5256 82.4141 59.5721 86.3489C44.2698 88.9722 29.8783 116.954 24.5953 130.616C20.77 141 12.4634 172.588 9.84019 215.872C7.21693 259.156 21.861 272.709 30.6076 277.628C33.5232 279.268 38.8028 282.547 45.3634 285.826C51.9241 289.105 52.7952 280.361 54.1076 274.349C71.0495 196.744 90.5417 201.845 101.654 202.209C107.484 202.756 128.105 210.079 163.956 235C199.808 259.921 216.422 235.547 220.247 220.244L237.189 151.93C239.919 141.547 246.698 118.265 245.387 101.651C241.015 71.0466 214.418 49.1862 201.666 42.0816C193.286 36.4343 171.717 24.4839 152.48 21.8607C133.243 19.2374 124.79 34.2483 122.968 42.0816Z" fill="#006BCD" stroke="black" stroke-width="1.09302"/>
<path d="M160.128 63.3954C160.128 68.7355 158.684 73.5453 156.379 77.0041C154.07 80.4668 150.941 82.5233 147.559 82.5233C144.176 82.5233 141.047 80.4668 138.739 77.0041C136.433 73.5453 134.989 68.7355 134.989 63.3954C134.989 58.0553 136.433 53.2454 138.739 49.7866C141.047 46.3239 144.176 44.2675 147.559 44.2675C150.941 44.2675 154.07 46.3239 156.379 49.7866C158.684 53.2454 160.128 58.0553 160.128 63.3954Z" fill="#003F7C" stroke="black" stroke-width="1.09302"/>
<path d="M160.129 405.512C160.129 411.155 158.623 416.239 156.217 419.896C153.808 423.557 150.542 425.733 147.012 425.733C143.483 425.733 140.217 423.557 137.808 419.896C135.402 416.239 133.896 411.155 133.896 405.512C133.896 399.868 135.402 394.784 137.808 391.127C140.217 387.466 143.483 385.291 147.012 385.291C150.542 385.291 153.808 387.466 156.217 391.127C158.623 394.784 160.129 399.868 160.129 405.512Z" fill="#A67E0A" stroke="black" stroke-width="1.09302"/>
</svg>
