<svg width="365" height="356" viewBox="0 0 365 356" fill="none" xmlns="http://www.w3.org/2000/svg">
<path fill-rule="evenodd" clip-rule="evenodd" d="M23.8956 180.936C25.7299 179.295 27.5139 177.655 29.4648 176.169C46.961 163.163 67.7421 154.423 89.4436 147.748C113.161 140.439 138.609 136.462 164.662 135.604C201.165 134.383 238.975 138.424 274.875 149.567C290.698 154.485 305.914 161.255 320.682 168.537C321.206 168.746 321.494 169.34 321.37 169.829C321.224 170.343 320.693 170.547 320.169 170.339C305.106 165.012 289.631 161.256 273.904 157.498C238.566 149.063 201.998 143.946 166.321 144.913C140.876 145.593 115.982 148.877 92.3913 155.002C70.7317 160.646 50.6704 169.312 31.4817 179.116C29.2918 180.239 27.0301 181.156 24.8626 182.254C24.533 182.459 24.0703 182.353 23.8036 181.966C23.5145 181.604 23.566 181.14 23.8956 180.936Z" fill="black"/>
<path fill-rule="evenodd" clip-rule="evenodd" d="M316.889 168.81C307.626 158.965 294.581 146.781 291.032 143.238L278.3 130.449C273.724 125.46 270.426 120.92 273.513 119.094C276.084 115.735 281.844 123.028 283.677 124.381L296.865 136.51C301.122 140.485 322.615 160.177 330.881 168.89C335.194 173.439 335.924 177.734 335.823 178.493C335.498 180.274 334.027 182.726 330.278 183.311C325.727 184.039 313.399 181.973 311.81 181.895C303.015 181.128 294.347 180.907 285.656 180.712C272.456 180.384 259.418 180.209 246.29 180.898C245.143 181.047 243.995 180.153 243.706 178.931C243.417 177.708 244.102 176.6 245.249 176.451C253.818 174.585 262.265 172.747 271.007 171.662C284.123 170.06 297.52 169.863 311.044 170.212C311.663 170.228 314.531 169.475 316.889 168.81Z" fill="black"/>
</svg>
