<svg width="110" height="110" viewBox="0 0 110 110" fill="none" xmlns="http://www.w3.org/2000/svg">
<path fill-rule="evenodd" clip-rule="evenodd" d="M76.9383 17.92C76.9784 18.5777 77.0257 19.2238 77.0201 19.8868C76.9114 25.7879 75.5353 31.8498 73.6422 37.834C71.5761 44.376 68.6407 50.8498 65.0378 57.0236C59.9935 65.6763 53.7822 73.8898 46.5266 80.6567C43.3275 83.6385 39.8717 86.2177 36.3852 88.6204C36.2708 88.7126 36.1188 88.6958 36.0458 88.5979C35.9713 88.4912 36.01 88.3392 36.1244 88.247C39.2899 85.4994 42.2229 82.4346 45.1924 79.3116C51.8635 72.2928 58.0956 64.5196 63.0678 56.0947C66.6158 50.0873 69.6 43.8401 71.8681 37.4946C73.9467 31.6657 75.2327 25.7815 76.1811 19.9393C76.2885 19.2719 76.4447 18.617 76.5536 17.9585C76.5632 17.853 76.6495 17.7604 76.7601 17.7531C76.8692 17.7371 76.9479 17.8145 76.9383 17.92Z" fill="black"/>
<path fill-rule="evenodd" clip-rule="evenodd" d="M36.8227 87.9459C39.9294 87.1509 44.0042 85.7883 45.1538 85.4506L49.2912 84.2508C50.8484 83.8761 52.1394 83.7429 52.0163 84.7476C52.242 85.8503 50.1012 86.1749 49.5926 86.4185L45.5067 87.8233C44.1769 88.2682 37.5313 90.5686 34.7719 91.2886C33.3317 91.6635 32.4581 91.2165 32.3373 91.0824C32.0664 90.7467 31.8425 90.0389 32.2838 89.0554C32.816 87.8589 34.9793 85.2028 35.2245 84.8332C36.6415 82.836 37.9427 80.79 39.2424 78.7347C41.2222 75.6179 43.1509 72.5177 44.9387 69.2709C45.0789 68.9742 45.4057 68.8287 45.6661 68.9363C45.9265 69.044 46.0247 69.3687 45.8845 69.6653C44.9707 71.9896 44.0694 74.2809 42.9909 76.5338C41.3682 79.9099 39.4535 83.1501 37.4229 86.3415C37.33 86.4876 37.0469 87.2843 36.8227 87.9459Z" fill="black"/>
</svg>
