<svg width="406" height="406" viewBox="0 0 406 406" fill="none" xmlns="http://www.w3.org/2000/svg">
<circle cx="203" cy="203" r="203" fill="#A597F9"/>
<path fill-rule="evenodd" clip-rule="evenodd" d="M212.672 189.502C212.672 189.502 210.726 188.234 209.522 187.744C209.522 187.744 205.797 185.926 205.058 185.061C205.058 185.061 203.608 183.62 204.457 181.946C204.457 181.946 204.812 180.852 206.346 180.852C206.346 180.852 208.342 180.967 208.342 182.696V185.136H215.5L215.488 181.543C215.488 181.543 216.037 175.66 207.057 175.401C207.057 175.401 199.995 174.912 197.969 178.92C197.969 178.92 197.174 179.812 197.174 182.927V185.177C197.174 185.177 197.093 187.772 198.352 189.443C198.352 189.443 199.064 190.541 200.816 191.749C200.816 191.749 204.374 193.769 206.51 194.925C206.51 194.925 208.665 196.221 208.381 198.283C208.381 198.283 208.207 200.398 206.124 200.314C206.124 200.314 204.221 200.222 204.221 198.147V195.71H196.595V199.252C196.595 199.252 196.38 206.023 206.182 206.023C206.182 206.023 215.544 206.223 215.982 199.072V196.191C215.982 196.191 216.31 191.809 212.672 189.502Z" fill="#171717"/>
<path fill-rule="evenodd" clip-rule="evenodd" d="M176.032 176.245L173.635 192.064H173.075L170.786 176.387H158.83L158.232 205.032H165.31L165.395 183.448H165.952L169.704 205.029H177.15L180.856 183.456H181.349L181.52 205.032H188.635L187.87 176.245H176.032Z" fill="#171717"/>
<path fill-rule="evenodd" clip-rule="evenodd" d="M133.898 176.364L129.188 205H136.808L139.598 182.796H140.224L143.013 205H150.631L145.923 176.364H133.898Z" fill="#171717"/>
<path fill-rule="evenodd" clip-rule="evenodd" d="M293.785 189.108V193.331H295.74V197.867C295.74 200.083 293.941 200.124 293.941 200.124C291.754 200.124 291.837 198.018 291.837 198.018V182.332C291.837 180.715 293.778 180.63 293.778 180.63C295.641 180.63 295.655 182.557 295.655 182.557V184.942H302.828C303.061 180.288 302.181 179.16 302.181 179.16C300.401 174.95 293.67 175.18 293.67 175.18C283.323 175.18 284.471 183.542 284.471 183.542V198.709C284.692 206.551 294.886 205.755 295.059 205.745C299.596 205.216 300.964 203.702 300.964 203.702C302.225 202.716 302.551 201.348 302.551 201.348C302.91 200.553 303 198.018 303 198.018V189.108H293.785Z" fill="#171717"/>
<path fill-rule="evenodd" clip-rule="evenodd" d="M270.006 193.769H269.694L262.411 176.25H253.703V205.038H260.791L260.367 187.521H260.682L268.225 205.038H276.673V176.249H269.495L270.006 193.769Z" fill="#171717"/>
<path fill-rule="evenodd" clip-rule="evenodd" d="M236.395 197.864C236.395 197.864 236.499 200.227 234.421 200.227C234.421 200.227 232.231 200.349 232.231 197.924L232.209 176.269H224.434V197.751C224.434 197.751 223.636 205.882 234.528 205.882C234.528 205.882 243.995 206.001 243.995 198.123V176.269H236.395V197.864Z" fill="#171717"/>
<path fill-rule="evenodd" clip-rule="evenodd" d="M119.074 189.501C119.074 189.501 117.13 188.233 115.926 187.744C115.926 187.744 112.204 185.927 111.465 185.061C111.465 185.061 110.014 183.619 110.864 181.949C110.864 181.949 111.218 180.852 112.751 180.852C112.751 180.852 114.749 180.967 114.749 182.696V185.136H121.908L121.895 181.541C121.895 181.541 122.441 175.659 113.463 175.401C113.463 175.401 112.788 175.355 111.795 175.408C111.795 175.408 106.357 175.715 104.413 178.858C104.402 178.88 104.386 178.898 104.376 178.919C104.376 178.919 103.581 179.812 103.581 182.927V185.177C103.581 185.177 103.498 187.771 104.759 189.443C104.759 189.443 105.47 190.541 107.223 191.749C107.223 191.749 110.779 193.769 112.914 194.921C112.914 194.921 115.072 196.218 114.788 198.283C114.788 198.283 114.613 200.398 112.532 200.314C112.532 200.314 110.628 200.222 110.628 198.147V195.707H103V199.252C103 199.252 102.787 206.023 112.586 206.023C112.586 206.023 121.947 206.223 122.388 199.071V196.191C122.388 196.191 122.715 191.808 119.074 189.501Z" fill="#171717"/>
</svg>
