<svg width="200" height="32" viewBox="0 0 200 32" fill="none" xmlns="http://www.w3.org/2000/svg">
<path fill-rule="evenodd" clip-rule="evenodd" d="M109.672 14.5024C109.672 14.5024 107.726 13.2336 106.522 12.7445C106.522 12.7445 102.797 10.9261 102.058 10.061C102.058 10.061 100.608 8.61998 101.457 6.94624C101.457 6.94624 101.812 5.85232 103.346 5.85232C103.346 5.85232 105.342 5.96671 105.342 7.69567V10.136H112.5L112.488 6.54259C112.488 6.54259 113.037 0.660168 104.057 0.401152C104.057 0.401152 96.9946 -0.0879536 94.9689 3.91956C94.9689 3.91956 94.1739 4.81231 94.1739 7.92708V10.1767C94.1739 10.1767 94.0927 12.7721 95.3521 14.4432C95.3521 14.4432 96.0635 15.5411 97.8159 16.7494C97.8159 16.7494 101.374 18.7689 103.51 19.9246C103.51 19.9246 105.665 21.221 105.381 23.2827C105.381 23.2827 105.207 25.3982 103.124 25.314C103.124 25.314 101.221 25.222 101.221 23.1472V20.7096H93.5947V24.2516C93.5947 24.2516 93.38 31.0229 103.182 31.0229C103.182 31.0229 112.544 31.2227 112.982 24.0715V21.1908C112.982 21.1908 113.31 16.8086 109.672 14.5024Z" fill="#171717"/>
<path fill-rule="evenodd" clip-rule="evenodd" d="M73.0319 1.24463L70.6354 17.0641H70.075L67.786 1.38663H55.8302L55.2323 30.0317H62.3104L62.3953 8.44831H62.952L66.7038 30.0291H74.1502L77.8559 8.45621H78.3489L78.5199 30.0317H85.6354L84.8703 1.24463H73.0319Z" fill="#171717"/>
<path fill-rule="evenodd" clip-rule="evenodd" d="M30.8977 1.36426L26.1885 30H33.8083L36.5978 7.79612H37.2244L40.0127 30H47.6313L42.9234 1.36426H30.8977Z" fill="#171717"/>
<path fill-rule="evenodd" clip-rule="evenodd" d="M190.785 14.1075V18.3306H192.74V22.8666C192.74 25.0833 190.941 25.1241 190.941 25.1241C188.754 25.1241 188.837 23.0178 188.837 23.0178V7.3324C188.837 5.71521 190.778 5.62976 190.778 5.62976C192.641 5.62976 192.655 7.55722 192.655 7.55722V9.94226H199.828C200.061 5.28792 199.181 4.1598 199.181 4.1598C197.401 -0.0501499 190.67 0.179968 190.67 0.179968C180.323 0.179968 181.471 8.542 181.471 8.542V23.7094C181.692 31.5508 191.886 30.7553 192.059 30.7448C196.596 30.2163 197.964 28.7016 197.964 28.7016C199.225 27.7155 199.551 26.3481 199.551 26.3481C199.91 25.5527 200 23.0178 200 23.0178V14.1075H190.785Z" fill="#171717"/>
<path fill-rule="evenodd" clip-rule="evenodd" d="M167.006 18.7694H166.694L159.411 1.25034H150.703V30.0376H157.791L157.367 12.5212H157.682L165.225 30.0376H173.673V1.24902H166.495L167.006 18.7694Z" fill="#171717"/>
<path fill-rule="evenodd" clip-rule="evenodd" d="M133.395 22.8644C133.395 22.8644 133.499 25.2272 131.421 25.2272C131.421 25.2272 129.231 25.3495 129.231 22.9236L129.209 1.26856H121.434V22.7514C121.434 22.7514 120.636 30.8822 131.528 30.8822C131.528 30.8822 140.995 31.0006 140.995 23.1235V1.26856H133.395V22.8644Z" fill="#171717"/>
<path fill-rule="evenodd" clip-rule="evenodd" d="M16.0737 14.501C16.0737 14.501 14.1304 13.2335 12.926 12.7444C12.926 12.7444 9.20406 10.9273 8.46517 10.0609C8.46517 10.0609 7.01359 8.61853 7.86357 6.94872C7.86357 6.94872 8.21804 5.85216 9.75073 5.85216C9.75073 5.85216 11.749 5.96655 11.749 7.69552V10.1358H18.9082L18.8945 6.54111C18.8945 6.54111 19.4412 0.658661 10.4634 0.400957C10.4634 0.400957 9.78819 0.354946 8.79468 0.407537C8.79468 0.407537 3.35659 0.715202 1.41326 3.8576C1.40203 3.87995 1.38579 3.89835 1.37581 3.91939C1.37581 3.91939 0.580754 4.81215 0.580754 7.92693V10.1766C0.580754 10.1766 0.498385 12.7707 1.75899 14.4431C1.75899 14.4431 2.47042 15.541 4.22279 16.7493C4.22279 16.7493 7.7787 18.7689 9.91425 19.9206C9.91425 19.9206 12.0723 21.2184 11.7877 23.2826C11.7877 23.2826 11.6129 25.3981 9.53231 25.314C9.53231 25.314 7.62769 25.2219 7.62769 23.1472V20.7069H0.000371866V24.2516C0.000371866 24.2516 -0.213051 31.0229 9.58599 31.0229C9.58599 31.0229 18.9469 31.2227 19.3875 24.0715V21.1907C19.3875 21.1907 19.7145 16.8085 16.0737 14.501Z" fill="#171717"/>
</svg>
