<svg width="24" height="22" viewBox="0 0 24 22" fill="none" xmlns="http://www.w3.org/2000/svg">
<path d="M0.421959 10.675L5.92658 12.8241L8.0572 19.9918C8.19353 20.4508 8.73017 20.6205 9.08636 20.3159L12.1547 17.6993C12.4764 17.4251 12.9345 17.4115 13.2706 17.6667L18.8049 21.8698C19.1859 22.1595 19.7257 21.9411 19.8213 21.4594L23.8754 1.06014C23.9797 0.534024 23.4855 0.0951193 23.0066 0.288874L0.415509 9.40525C-0.141992 9.63015 -0.137135 10.4558 0.421959 10.675ZM7.71383 11.6801L18.4719 4.74897C18.6653 4.62478 18.8642 4.89825 18.6981 5.05935L9.81961 13.6925C9.50754 13.9964 9.30623 14.403 9.24921 14.8444L8.94677 17.189C8.90672 17.502 8.48634 17.5331 8.40376 17.2301L7.24058 12.9548C7.10736 12.4672 7.3015 11.9463 7.71383 11.6801Z" fill="black"/>
</svg>
