<svg width="46" height="46" viewBox="0 0 46 46" fill="none" xmlns="http://www.w3.org/2000/svg">
<path d="M0.812496 22.1788L11.4118 26.1348L15.5144 39.3286C15.7769 40.1737 16.8102 40.486 17.4961 39.9253L23.4043 35.1087C24.0236 34.6041 24.9058 34.579 25.553 35.0488L36.2093 42.7855C36.943 43.3188 37.9825 42.9168 38.1665 42.0302L45.9728 4.48026C46.1737 3.51181 45.2221 2.70389 44.3 3.06055L0.800076 19.8415C-0.273411 20.2555 -0.264058 21.7753 0.812496 22.1788ZM14.8532 24.0289L35.5683 11.2705C35.9405 11.0419 36.3236 11.5452 36.0039 11.8418L18.908 27.7333C18.3071 28.2926 17.9194 29.0412 17.8096 29.8537L17.2273 34.1694C17.1502 34.7457 16.3407 34.8028 16.1817 34.2452L13.942 26.3753C13.6854 25.4777 14.0593 24.5189 14.8532 24.0289Z" fill="#4C4C4C"/>
</svg>
