<svg width="175" height="73" viewBox="0 0 175 73" fill="none" xmlns="http://www.w3.org/2000/svg">
<path d="M28.4186 0.323242H19.2171C10.0157 0.323242 2.09816 7.53664 2.09816 21.5126C2.09816 29.8531 5.94993 36.1648 12.5835 39.3207L0.172273 62.7642C-0.255702 63.4404 0.172273 64.1167 0.814235 64.1167H6.59189C7.01986 64.1167 7.44784 63.8913 7.66183 63.4404L19.0031 40.4478H23.0689V63.4404C23.0689 63.6659 23.2829 64.1167 23.7109 64.1167H28.8466C29.2745 64.1167 29.4885 63.8913 29.4885 63.4404V1.22492C29.2745 0.548661 29.0606 0.323242 28.4186 0.323242ZM23.0689 35.0377H19.6451C4.87999 35.0377 5.94993 5.73329 19.0031 5.73329H23.2829V35.0377H23.0689Z" fill="black"/>
<path d="M59.2327 21.5121H54.097C53.6691 21.5121 53.4551 21.7376 53.4551 22.1884V38.419H44.0396V22.1884C44.0396 21.7376 43.8256 21.5121 43.3977 21.5121H38.4759C38.048 21.5121 37.834 21.7376 37.834 22.1884V63.441C37.834 63.8919 38.048 64.1173 38.4759 64.1173H43.6116C44.0396 64.1173 44.2536 63.8919 44.2536 63.441V43.6037H53.6691V63.441C53.6691 63.8919 53.883 64.1173 54.311 64.1173H59.4467C59.8747 64.1173 60.0887 63.8919 60.0887 63.441V22.1884C59.8747 21.7376 59.6607 21.5121 59.2327 21.5121ZM174.786 58.4817C174.786 58.2563 174.572 58.2563 174.358 58.2563C172.218 58.2563 159.165 64.7936 159.165 43.1529C159.165 33.685 162.589 20.385 170.72 28.2749C170.934 28.5003 171.148 28.5003 171.362 28.5003C171.576 28.5003 171.79 28.2749 172.004 27.824L174.144 23.9918C174.358 23.7664 174.358 23.541 174.358 23.3155C174.358 22.8647 173.93 22.6393 173.502 22.4138C159.379 14.9748 152.103 28.7257 152.103 44.7308C152.103 65.4699 166.44 68.4004 174.572 62.0885C175 61.8631 175 61.4122 175 61.1868L174.786 58.4817ZM139.692 40.6732L149.535 21.963C149.749 21.7376 149.535 21.2867 149.321 21.2867H144.4C142.902 21.2867 142.474 21.7376 142.046 22.8647C141.618 23.9918 134.342 39.9969 133.486 40.6732V21.963C133.486 21.7376 133.272 21.2867 133.058 21.2867H127.709C127.495 21.2867 127.281 21.5121 127.281 21.963V63.441C127.281 63.6665 127.495 64.1173 127.709 64.1173H133.058C133.486 64.1173 133.486 63.8919 133.486 63.441V42.0257C134.128 42.4766 143.116 62.0885 143.33 62.7648C143.758 63.6665 144.614 64.1173 145.684 64.1173H151.033C151.461 64.1173 151.461 63.8919 151.247 63.441L139.692 40.6732ZM92.8288 58.7071H91.7588C90.4749 58.7071 90.2609 58.2563 90.2609 57.1292V21.963C90.2609 21.5121 90.0469 21.2867 89.8329 21.2867H73.3559C72.9279 21.2867 72.7139 21.5121 72.7139 21.963C72.7139 31.4308 72.9279 47.2105 66.9363 58.7071H65.2244C64.7964 58.7071 64.5824 58.9326 64.5824 59.3834V71.7817C64.5824 72.2326 65.0104 72.458 65.2244 72.458H69.0762C69.9321 72.458 70.3601 71.7817 70.3601 71.1055V64.1173H87.6931V71.7817C87.6931 72.0072 87.907 72.458 88.335 72.458H92.6148C93.0428 72.458 93.6847 72.0072 93.6847 71.1055V59.3834C93.4707 58.9326 93.2567 58.7071 92.8288 58.7071ZM83.8413 58.7071H71.858C75.2818 52.8461 78.4916 43.3783 78.4916 26.6969H83.8413V58.7071ZM109.52 20.385C100.746 20.385 96.6805 31.8817 96.6805 44.5054C96.6805 65.2444 110.376 68.4004 119.791 62.3139C120.219 62.0885 120.219 61.8631 120.219 61.6376L119.577 58.7071C119.577 58.4817 119.363 58.2563 118.935 58.2563C115.511 58.2563 103.528 64.5682 103.528 44.0546C107.808 44.5054 107.808 44.5054 120.647 44.5054C120.433 34.1359 119.363 20.385 109.52 20.385ZM103.742 39.3207C103.742 22.8647 114.014 19.7087 114.014 38.8698C109.52 38.8698 107.594 38.8698 103.742 39.3207Z" fill="black"/>
</svg>
