<svg width="407" height="406" viewBox="0 0 407 406" fill="none" xmlns="http://www.w3.org/2000/svg">
<ellipse cx="203.5" cy="203" rx="203.5" ry="203" fill="#A597F9"/>
<path d="M144.419 146.323H135.217C126.016 146.323 118.098 153.537 118.098 167.513C118.098 175.853 121.95 182.165 128.584 185.321L116.172 208.764C115.744 209.44 116.172 210.117 116.814 210.117H122.592C123.02 210.117 123.448 209.891 123.662 209.44L135.003 186.448H139.069V209.44C139.069 209.666 139.283 210.117 139.711 210.117H144.847C145.275 210.117 145.489 209.891 145.489 209.44V147.225C145.275 146.549 145.061 146.323 144.419 146.323ZM139.069 181.038H135.645C120.88 181.038 121.95 151.733 135.003 151.733H139.283V181.038H139.069Z" fill="black"/>
<path d="M175.233 167.512H170.097C169.669 167.512 169.455 167.738 169.455 168.188V184.419H160.04V168.188C160.04 167.738 159.826 167.512 159.398 167.512H154.476C154.048 167.512 153.834 167.738 153.834 168.188V209.441C153.834 209.892 154.048 210.117 154.476 210.117H159.612C160.04 210.117 160.254 209.892 160.254 209.441V189.604H169.669V209.441C169.669 209.892 169.883 210.117 170.311 210.117H175.447C175.875 210.117 176.089 209.892 176.089 209.441V168.188C175.875 167.738 175.661 167.512 175.233 167.512ZM290.786 204.482C290.786 204.256 290.572 204.256 290.358 204.256C288.218 204.256 275.165 210.794 275.165 189.153C275.165 179.685 278.589 166.385 286.72 174.275C286.934 174.5 287.148 174.5 287.362 174.5C287.576 174.5 287.79 174.275 288.004 173.824L290.144 169.992C290.358 169.766 290.358 169.541 290.358 169.316C290.358 168.865 289.93 168.639 289.502 168.414C275.379 160.975 268.103 174.726 268.103 190.731C268.103 211.47 282.44 214.4 290.572 208.088C291 207.863 291 207.412 291 207.187L290.786 204.482ZM255.692 186.673L265.535 167.963C265.749 167.738 265.535 167.287 265.321 167.287H260.4C258.902 167.287 258.474 167.738 258.046 168.865C257.618 169.992 250.342 185.997 249.486 186.673V167.963C249.486 167.738 249.272 167.287 249.058 167.287H243.709C243.495 167.287 243.281 167.512 243.281 167.963V209.441C243.281 209.666 243.495 210.117 243.709 210.117H249.058C249.486 210.117 249.486 209.892 249.486 209.441V188.026C250.128 188.477 259.116 208.088 259.33 208.765C259.758 209.666 260.614 210.117 261.684 210.117H267.033C267.461 210.117 267.461 209.892 267.247 209.441L255.692 186.673ZM208.829 204.707H207.759C206.475 204.707 206.261 204.256 206.261 203.129V167.963C206.261 167.512 206.047 167.287 205.833 167.287H189.356C188.928 167.287 188.714 167.512 188.714 167.963C188.714 177.431 188.928 193.211 182.936 204.707H181.224C180.796 204.707 180.582 204.933 180.582 205.383V217.782C180.582 218.233 181.01 218.458 181.224 218.458H185.076C185.932 218.458 186.36 217.782 186.36 217.105V210.117H203.693V217.782C203.693 218.007 203.907 218.458 204.335 218.458H208.615C209.043 218.458 209.685 218.007 209.685 217.105V205.383C209.471 204.933 209.257 204.707 208.829 204.707ZM199.841 204.707H187.858C191.282 198.846 194.492 189.378 194.492 172.697H199.841V204.707ZM225.52 166.385C216.746 166.385 212.681 177.882 212.681 190.505C212.681 211.244 226.376 214.4 235.791 208.314C236.219 208.088 236.219 207.863 236.219 207.638L235.577 204.707C235.577 204.482 235.363 204.256 234.935 204.256C231.511 204.256 219.528 210.568 219.528 190.055C223.808 190.505 223.808 190.505 236.647 190.505C236.433 180.136 235.363 166.385 225.52 166.385ZM219.742 185.321C219.742 168.865 230.014 165.709 230.014 184.87C225.52 184.87 223.594 184.87 219.742 185.321Z" fill="black"/>
</svg>
