<svg width="28" height="28" viewBox="0 0 28 28" fill="none" xmlns="http://www.w3.org/2000/svg">
<g opacity="0.7" clip-path="url(#clip0)">
<path d="M18.3098 12.7417L12.124 9.35706C11.7683 9.16245 11.3479 9.16971 10.9992 9.37629C10.6504 9.58307 10.4423 9.94837 10.4423 10.3538V17.065C10.4423 17.4685 10.6491 17.8332 10.9956 18.0402C11.1765 18.1483 11.3771 18.2025 11.5782 18.2025C11.7623 18.2025 11.9469 18.157 12.1167 18.0656L18.3028 14.7393C18.67 14.5417 18.8992 14.1599 18.9009 13.7427C18.9024 13.3255 18.676 12.9421 18.3098 12.7417ZM12.0832 16.2208V11.2049L16.7064 13.7346L12.0832 16.2208Z" fill="#4D4D4D"/>
<path d="M27.7941 8.39603L27.7928 8.38321C27.7691 8.15784 27.533 6.1532 26.5585 5.13358C25.432 3.9343 24.155 3.7886 23.5408 3.71875C23.49 3.71298 23.4434 3.70764 23.4018 3.70209L23.3528 3.69696C19.6512 3.4278 14.0609 3.39105 14.0049 3.39084L14 3.39062L13.9951 3.39084C13.9391 3.39105 8.34882 3.4278 4.61383 3.69696L4.56448 3.70209C4.52475 3.70743 4.48096 3.71234 4.43332 3.7179C3.8262 3.78796 2.56284 3.93387 1.4332 5.17651C0.505005 6.18524 0.236694 8.14694 0.209137 8.3674L0.205933 8.39603C0.197601 8.48981 0 10.7224 0 12.9637V15.0589C0 17.3003 0.197601 19.5328 0.205933 19.6268L0.207428 19.6409C0.23114 19.8627 0.46698 21.8306 1.43704 22.8506C2.49619 24.0097 3.83539 24.1631 4.55573 24.2456C4.66959 24.2586 4.76764 24.2697 4.8345 24.2815L4.89923 24.2904C7.03653 24.4938 13.7377 24.594 14.0218 24.5981L14.0303 24.5983L14.0389 24.5981C14.0949 24.5978 19.6849 24.5611 23.3866 24.2919L23.4355 24.2868C23.4823 24.2806 23.5349 24.2751 23.5925 24.2691C24.1962 24.205 25.4528 24.0719 26.5668 22.8461C27.495 21.8372 27.7635 19.8755 27.7909 19.6552L27.7941 19.6266C27.8024 19.5326 28.0002 17.3003 28.0002 15.0589V12.9637C28 10.7224 27.8024 8.49002 27.7941 8.39603ZM26.3592 15.0589C26.3592 17.1334 26.178 19.2699 26.1609 19.466C26.0913 20.0062 25.8082 21.2474 25.356 21.7389C24.6587 22.506 23.9424 22.5821 23.4195 22.6374C23.3563 22.644 23.2977 22.6505 23.2448 22.6571C19.6644 22.916 14.2852 22.9557 14.0374 22.9572C13.7595 22.9532 7.15637 22.8521 5.08423 22.6596C4.97806 22.6423 4.86334 22.6291 4.74243 22.6154C4.12912 22.5451 3.28958 22.449 2.64401 21.7389L2.62885 21.7227C2.18451 21.2598 1.90958 20.0992 1.83972 19.4724C1.82669 19.3241 1.64084 17.1625 1.64084 15.0589V12.9637C1.64084 10.8916 1.82156 8.75748 1.83908 8.55731C1.92218 7.92093 2.21057 6.75497 2.64401 6.28372C3.36264 5.49332 4.12036 5.40573 4.62152 5.34784C4.66937 5.34229 4.71402 5.33716 4.75525 5.33182C8.3877 5.07162 13.8056 5.03296 14 5.03146C14.1944 5.03275 19.6104 5.07162 23.2106 5.33182C23.2548 5.33737 23.3031 5.34293 23.355 5.34891C23.8705 5.40765 24.6495 5.49652 25.3645 6.25916L25.3712 6.2662C25.8155 6.72913 26.0904 7.91003 26.1603 8.54941C26.1727 8.68933 26.3592 10.8557 26.3592 12.9637V15.0589Z" fill="#4D4D4D"/>
</g>
<defs>
<clipPath id="clip0">
<rect width="28.0001" height="28" fill="white"/>
</clipPath>
</defs>
</svg>
